<?xml version="1.0" encoding="UTF-8"?>
<svg width="32px" height="32px" viewBox="0 0 32 32" version="1.1" xmlns="http://www.w3.org/2000/svg" xmlns:xlink="http://www.w3.org/1999/xlink">
    <!-- Generator: Sketch 48.2 (47327) - http://www.bohemiancoding.com/sketch -->
    <title>Add32</title>
    <desc>Created with Sketch.</desc>
    <defs></defs>
    <g id="Page-1" stroke="none" stroke-width="1" fill="none" fill-rule="evenodd">
        <g id="Add32" fill="#2A2630">
            <path d="M15,15 L15,0.992786407 C15,0.452362061 15.4477153,-2.85150083e-16 16,-1.8369702e-16 C16.5561352,-8.15366451e-17 17,0.444485615 17,0.992786407 L17,15 L31.0072136,15 C31.5476379,15 32,15.4477153 32,16 C32,16.5561352 31.5555144,17 31.0072136,17 L17,17 L17,31.0072136 C17,31.5476379 16.5522847,32 16,32 C15.4438648,32 15,31.5555144 15,31.0072136 L15,17 L0.992786407,17 C0.452362061,17 0,16.5522847 0,16 C0,15.4438648 0.444485615,15 0.992786407,15 L15,15 Z"></path>
        </g>
    </g>
</svg>