<?xml version="1.0" encoding="UTF-8"?>
<svg width="24px" height="24px" viewBox="0 0 24 24" version="1.1" xmlns="http://www.w3.org/2000/svg" xmlns:xlink="http://www.w3.org/1999/xlink">
    <!-- Generator: Sketch 48.2 (47327) - http://www.bohemiancoding.com/sketch -->
    <title>AddUser24</title>
    <desc>Created with Sketch.</desc>
    <defs></defs>
    <g id="Page-1" stroke="none" stroke-width="1" fill="none" fill-rule="evenodd">
        <g id="AddUser24" fill="#000000" fill-rule="nonzero">
            <path d="M22.0786816,15.6028482 C22.2933496,15.0939905 22.879883,14.8555026 23.3887406,15.0701706 C23.8975983,15.2848386 24.1360862,15.871372 23.9214182,16.3802296 C21.7424651,21.5453088 16.3929111,24.6197405 10.8436128,23.8951089 C5.29467919,23.1705248 0.910076185,18.825502 0.12411725,13.2738477 C-0.661785896,7.72258749 2.34330009,2.32717586 7.47145309,0.0840654477 C7.97744935,-0.137262872 8.56706243,0.0935060926 8.78839075,0.599502357 C9.00971907,1.10549862 8.7789501,1.69511169 8.27295384,1.91644001 C3.96795606,3.79949329 1.44424048,8.33063964 2.10437095,12.9934992 C2.76444562,17.6559647 6.44553578,21.3038253 11.1025759,21.9119452 C15.7592513,22.5200175 20.2491544,19.9396341 22.0786816,15.6028482 Z M18.0000499,17.0002527 C18.0000499,17.5525375 17.5523347,18.0002527 17.0000499,18.0002527 C16.4477652,18.0002527 16.0000499,17.5525375 16.0000499,17.0002527 L16.0000499,16.0002527 C16.0000499,15.503183 15.3713871,15.0002527 14.5000499,15.0002527 L9.50004993,15.0002527 C8.6287128,15.0002527 8.00004993,15.503183 8.00004993,16.0002527 L8.00004993,17.0002527 C8.00004993,17.5525375 7.55233468,18.0002527 7.00004993,18.0002527 C6.44776518,18.0002527 6.00004993,17.5525375 6.00004993,17.0002527 L6.00004993,16.0002527 C6.00004993,14.2881834 7.60996331,13.0002527 9.50004993,13.0002527 L14.5000499,13.0002527 C16.3901366,13.0002527 18.0000499,14.2881834 18.0000499,16.0002527 L18.0000499,17.0002527 Z M21.0000499,3.00025273 L23.0000499,3.00025273 C23.5523347,3.00025273 24.0000499,3.44796798 24.0000499,4.00025273 C24.0000499,4.55253748 23.5523347,5.00025273 23.0000499,5.00025273 L21.0000499,5.00025273 L21.0000499,7.00025273 C21.0000499,7.55253748 20.5523347,8.00025273 20.0000499,8.00025273 C19.4477652,8.00025273 19.0000499,7.55253748 19.0000499,7.00025273 L19.0000499,5.00025273 L17.0000499,5.00025273 C16.4477652,5.00025273 16.0000499,4.55253748 16.0000499,4.00025273 C16.0000499,3.44796798 16.4477652,3.00025273 17.0000499,3.00025273 L19.0000499,3.00025273 L19.0000499,1.00025273 C19.0000499,0.447967981 19.4477652,0.000252730905 20.0000499,0.000252730905 C20.5523347,0.000252730905 21.0000499,0.447967981 21.0000499,1.00025273 L21.0000499,3.00025273 Z M12,12 C10.3431458,12 9,10.6568542 9,9 C9,7.34314575 10.3431458,6 12,6 C13.6568542,6 15,7.34314575 15,9 C15,10.6568542 13.6568542,12 12,12 Z M12,10.5 C12.8284271,10.5 13.5,9.82842712 13.5,9 C13.5,8.17157288 12.8284271,7.5 12,7.5 C11.1715729,7.5 10.5,8.17157288 10.5,9 C10.5,9.82842712 11.1715729,10.5 12,10.5 Z"></path>
        </g>
    </g>
</svg>