<?xml version="1.0" encoding="UTF-8"?>
<svg width="32px" height="32px" viewBox="0 0 32 32" version="1.1" xmlns="http://www.w3.org/2000/svg" xmlns:xlink="http://www.w3.org/1999/xlink">
    <!-- Generator: Sketch 48.2 (47327) - http://www.bohemiancoding.com/sketch -->
    <title>AddUser32</title>
    <desc>Created with Sketch.</desc>
    <defs></defs>
    <g id="Page-1" stroke="none" stroke-width="1" fill="none" fill-rule="evenodd">
        <g id="AddUser32" fill="#000000" fill-rule="nonzero">
            <path d="M25,6 L25,2 C25,1.44771525 25.4477153,1 26,1 C26.5522847,1 27,1.44771525 27,2 L27,6 L31,6 C31.5522847,6 32,6.44771525 32,7 C32,7.55228475 31.5522847,8 31,8 L27,8 L27,12 C27,12.5522847 26.5522847,13 26,13 C25.4477153,13 25,12.5522847 25,12 L25,8 L21,8 C20.4477153,8 20,7.55228475 20,7 C20,6.44771525 20.4477153,6 21,6 L25,6 Z M16,0 C16.5522847,0 17,0.44771525 17,1 C17,1.55228475 16.5522847,2 16,2 C8.2680135,2 2,8.2680135 2,16 C2,23.7319865 8.2680135,30 16,30 C23.7319865,30 30,23.7319865 30,16 C30,15.4477153 30.4477153,15 31,15 C31.5522847,15 32,15.4477153 32,16 C32,24.836556 24.836556,32 16,32 C7.163444,32 0,24.836556 0,16 C0,7.163444 7.163444,0 16,0 Z M21,23.1 C21,23.5970563 20.5522847,24 20,24 C19.4477153,24 19,23.5970563 19,23.1 L19,21.7 C19,20.6434827 18.0962685,19.8 17,19.8 L11,19.8 C9.9037315,19.8 9,20.6434827 9,21.7 L9,23.1 C9,23.5970563 8.55228475,24 8,24 C7.44771525,24 7,23.5970563 7,23.1 L7,21.7 C7,19.6637227 8.78256,18 11,18 L17,18 C19.21744,18 21,19.6637227 21,21.7 L21,23.1 Z M14,16 C11.7885081,16 10,14.2068343 10,12 C10,9.79316572 11.7885081,8 14,8 C16.2114919,8 18,9.79316572 18,12 C18,14.2068343 16.2114919,16 14,16 Z M14,14.125 C15.1624659,14.125 16.1090909,13.1759098 16.1090909,12 C16.1090909,10.8240902 15.1624659,9.875 14,9.875 C12.8375341,9.875 11.8909091,10.8240902 11.8909091,12 C11.8909091,13.1759098 12.8375341,14.125 14,14.125 Z"></path>
        </g>
    </g>
</svg>