<?xml version="1.0" encoding="UTF-8"?>
<svg width="32px" height="32px" viewBox="0 0 32 32" version="1.1" xmlns="http://www.w3.org/2000/svg" xmlns:xlink="http://www.w3.org/1999/xlink">
    <!-- Generator: Sketch 48.2 (47327) - http://www.bohemiancoding.com/sketch -->
    <title>Alert32</title>
    <desc>Created with Sketch.</desc>
    <defs></defs>
    <g id="Page-1" stroke="none" stroke-width="1" fill="none" fill-rule="evenodd">
        <g id="Alert32" fill="#000000" fill-rule="nonzero">
            <path d="M26,18 L26,12 C25.9657435,6.72740423 21.3140489,2 16,2 C10.6500634,2 5.99836882,6.72740425 6,12 L6,18 C5.99836874,19.3573639 5.83616361,23.0476597 5,24 L27,24 C26.1638364,23.0476597 25.9657435,19.3573639 26,18 Z M31,26 L1,26 C-0.316618622,25.9959976 -0.316618622,24 1,24 C2.94330132,24 3.91953888,21.9718948 4,20 L4,12 C3.91953898,5.65647043 9.6140901,-7.31441052e-16 16,0 C22.4141082,7.31441052e-16 28.1086593,4.65663718 28,11 L28,20 C28.1086594,21.9718948 29.0707978,24 31,24 C32.329481,24 32.2942324,26 31,26 Z M17.1694668,29.4430309 C17.4770723,28.9843401 18.0982783,28.8618612 18.5569691,29.1694668 C19.0156599,29.4770723 19.1381388,30.0982783 18.8305332,30.5569691 C18.2251076,31.4597591 17.1478958,31.9964563 16,31.9964563 C14.8521042,31.9964563 13.7748924,31.4597591 13.1694668,30.5569691 C12.8618612,30.0982783 12.9843401,29.4770723 13.4430309,29.1694668 C13.9017217,28.8618612 14.5229277,28.9843401 14.8305332,29.4430309 C15.0523856,29.7738496 15.4991823,29.9964563 16,29.9964563 C16.5008177,29.9964563 16.9476144,29.7738496 17.1694668,29.4430309 Z"></path>
        </g>
    </g>
</svg>