<?xml version="1.0" encoding="UTF-8"?>
<svg width="24px" height="24px" viewBox="0 0 24 24" version="1.1" xmlns="http://www.w3.org/2000/svg" xmlns:xlink="http://www.w3.org/1999/xlink">
    <!-- Generator: Sketch 48.2 (47327) - http://www.bohemiancoding.com/sketch -->
    <title>Alert24</title>
    <desc>Created with Sketch.</desc>
    <defs></defs>
    <g id="Page-1" stroke="none" stroke-width="1" fill="none" fill-rule="evenodd">
        <g id="Alert24" fill="#000000" fill-rule="nonzero">
            <path d="M18.9905969,14 L18.9905969,9 C18.9649017,5.04511521 15.976575,2 11.9905969,2 C7.9777001,2 4.98937341,5.04511522 4.99059693,9 L4.99059693,14 C4.98937335,15.0181357 5,17 4,18 L20.2334366,18.0019936 C19,17 18.9649017,15.0181357 18.9905969,14 Z M23.243172,20 L0.740679999,20 C-0.246893333,19.9969212 -0.246893333,18.4615385 0.740679999,18.4615385 C2.19831741,18.4615385 2.93057667,16.9014575 2.99092919,15.3846154 L2.99092919,9.23076923 C2.93057674,4.3511311 7.2019631,-5.62646963e-16 11.991926,0 C16.8030399,5.62646963e-16 21.0744262,3.5820286 20.9929228,8.46153846 L20.9929228,15.3846154 C21.0744263,16.9014575 21.7961101,18.4615385 23.243172,18.4615385 C24.2403931,18.4615385 24.2139538,20 23.243172,20 Z M13.1181212,21.3323878 C13.3488509,20.9883316 13.814807,20.8964623 14.1588632,21.127192 C14.5029194,21.3579217 14.5947887,21.8238778 14.364059,22.167934 C13.9099395,22.8451015 13.1019412,23.2476689 12.240924,23.2476689 C11.3799067,23.2476689 10.5719085,22.8451015 10.1177889,22.167934 C9.88705923,21.8238778 9.97892852,21.3579217 10.3229847,21.127192 C10.667041,20.8964623 11.132997,20.9883316 11.3637267,21.3323878 C11.5301345,21.5805293 11.8652691,21.7475028 12.240924,21.7475028 C12.6165788,21.7475028 12.9517135,21.5805293 13.1181212,21.3323878 Z"></path>
        </g>
    </g>
</svg>