<?xml version="1.0" encoding="UTF-8"?>
<svg width="16px" height="16px" viewBox="0 0 16 16" version="1.1" xmlns="http://www.w3.org/2000/svg" xmlns:xlink="http://www.w3.org/1999/xlink">
    <!-- Generator: Sketch 48.1 (47250) - http://www.bohemiancoding.com/sketch -->
    <title>AmexCard</title>
    <desc>Created with Sketch.</desc>
    <defs></defs>
    <g id="Page-1" stroke="none" stroke-width="1" fill="none" fill-rule="evenodd">
        <g id="AmexCard">
            <path d="M1,2 L15,2 C15.5522847,2 16,2.44771525 16,3 L16,13 C16,13.5522847 15.5522847,14 15,14 L1,14 C0.44771525,14 6.76353751e-17,13.5522847 0,13 L0,3 C-6.76353751e-17,2.44771525 0.44771525,2 1,2 Z" id="Shape" fill="#26A6D1"></path>
            <path d="M2.58001363,6 L1,9.99486232 L2.89149765,9.99486232 L3.12598808,9.35791485 L3.66198187,9.35791485 L3.8964723,9.99486232 L5.97847971,9.99486232 L5.97847971,9.50872466 L6.16399915,9.99486232 L7.24097707,9.99486232 L7.42649651,9.4984493 L7.42649651,9.99486232 L11.7565082,9.99486232 L12.2830149,9.37445569 L12.7760151,9.99486232 L15,10 L13.414996,8.00858369 L15,6 L12.8105087,6 L12.2979859,6.60894082 L11.820505,6 L7.11002217,6 L6.70553166,7.03110805 L6.29155405,6 L4.40400479,6 L4.40400479,6.46959682 L4.19402728,6 C4.19402728,6 2.58001363,6 2.58001363,6 Z M2.94600735,6.56727546 L3.868011,6.56727546 L4.91603406,9.27621315 L4.91603406,6.56727546 L5.92605388,6.56727546 L6.73552845,8.5095705 L7.4815546,6.56727546 L8.48652926,6.56727546 L8.48652926,9.43385232 L7.87502252,9.43385232 L7.8700322,7.18761944 L6.97851888,9.43385232 L6.4315025,9.43385232 L5.53499886,7.18761944 L5.53499886,9.43385232 L4.27699828,9.43385232 L4.03850463,8.79120328 L2.75001371,8.79120328 L2.5120136,9.43328843 L1.83799071,9.43328843 C1.83799071,9.43328843 2.94600735,6.56727546 2.94600735,6.56727546 Z M9.04599403,6.56727546 L11.532492,6.56727546 L12.2929955,7.50584255 L13.078012,6.56727546 L13.8385156,6.56727546 L12.6830086,8.0080198 L13.8385156,9.43216065 L13.0435185,9.43216065 L12.2830149,8.48269164 L11.4939952,9.43216065 L9.04599403,9.43216065 L9.04599403,6.56727546 Z M3.39453336,7.05228533 L2.97002671,8.19711162 L3.81854646,8.19711162 L3.39453336,7.05228533 Z M9.66002335,7.16080323 L9.66002335,7.68409511 L11.0165143,7.68409511 L11.0165143,8.26734751 L9.66002335,8.26734751 L9.66002335,8.83863287 L11.181524,8.83863287 L11.888505,7.99718054 L11.2115208,7.160302 L9.66002335,7.160302 L9.66002335,7.16080323 Z" id="Logo_Amex" fill="#FFFFFF" fill-rule="nonzero"></path>
        </g>
    </g>
</svg>