<svg width="24" height="24" viewBox="0 0 24 24" fill="none" xmlns="http://www.w3.org/2000/svg">
<path d="M12 11.625C11.3527 11.625 10.72 11.8163 10.1818 12.1748C9.64357 12.5333 9.2241 13.0428 8.97639 13.639C8.72869 14.2351 8.66388 14.8911 8.79016 15.5239C8.91644 16.1568 9.22813 16.7381 9.68583 17.1944C10.1435 17.6507 10.7267 17.9614 11.3615 18.0873C11.9964 18.2131 12.6544 18.1485 13.2524 17.9016C13.8504 17.6547 14.3616 17.2365 14.7212 16.7C15.0808 16.1635 15.2727 15.5327 15.2727 14.8875C15.2727 14.0222 14.9279 13.1924 14.3142 12.5805C13.7004 11.9687 12.868 11.625 12 11.625ZM12 15.975C11.7842 15.975 11.5733 15.9112 11.3939 15.7917C11.2145 15.6722 11.0747 15.5023 10.9921 15.3036C10.9096 15.1049 10.888 14.8863 10.9301 14.6753C10.9721 14.4643 11.076 14.2706 11.2286 14.1185C11.3812 13.9664 11.5756 13.8628 11.7872 13.8209C11.9988 13.7789 12.2181 13.8004 12.4175 13.8827C12.6168 13.9651 12.7872 14.1044 12.9071 14.2833C13.0269 14.4621 13.0909 14.6724 13.0909 14.8875C13.0909 15.1759 12.976 15.4525 12.7714 15.6564C12.5668 15.8604 12.2893 15.975 12 15.975ZM11.2255 9.1346C11.3292 9.23361 11.4515 9.31122 11.5855 9.36298C11.716 9.42051 11.8572 9.45023 12 9.45023C12.1428 9.45023 12.284 9.42051 12.4145 9.36298C12.5485 9.31122 12.6708 9.23361 12.7745 9.1346L15.2727 6.68773C15.4839 6.47719 15.6026 6.19162 15.6026 5.89386C15.6026 5.5961 15.4839 5.31054 15.2727 5.09999C15.0615 4.88944 14.7751 4.77116 14.4764 4.77116C14.1777 4.77116 13.8912 4.88944 13.68 5.09999L13.0909 5.74161V1.8375C13.0909 1.54907 12.976 1.27247 12.7714 1.06852C12.5668 0.864575 12.2893 0.75 12 0.75C11.7107 0.75 11.4332 0.864575 11.2286 1.06852C11.024 1.27247 10.9091 1.54907 10.9091 1.8375V5.74161L10.32 5.09999C10.1088 4.88944 9.82233 4.77116 9.52364 4.77116C9.22494 4.77116 8.93848 4.88944 8.72727 5.09999C8.51606 5.31054 8.39741 5.5961 8.39741 5.89386C8.39741 6.19162 8.51606 6.47719 8.72727 6.68773L11.2255 9.1346ZM19.6364 14.8875C19.6364 14.6724 19.5724 14.4621 19.4525 14.2833C19.3326 14.1044 19.1623 13.9651 18.9629 13.8827C18.7636 13.8004 18.5442 13.7789 18.3326 13.8209C18.121 13.8628 17.9266 13.9664 17.7741 14.1185C17.6215 14.2706 17.5176 14.4643 17.4755 14.6753C17.4334 14.8863 17.455 15.1049 17.5376 15.3036C17.6202 15.5023 17.76 15.6722 17.9394 15.7917C18.1188 15.9112 18.3297 15.975 18.5455 15.975C18.8348 15.975 19.1123 15.8604 19.3168 15.6564C19.5214 15.4525 19.6364 15.1759 19.6364 14.8875ZM20.7273 7.27498H17.4545C17.1652 7.27498 16.8877 7.38956 16.6832 7.5935C16.4786 7.79745 16.3636 8.07406 16.3636 8.36248C16.3636 8.6509 16.4786 8.92751 16.6832 9.13146C16.8877 9.3354 17.1652 9.44998 17.4545 9.44998H20.7273C21.0166 9.44998 21.2941 9.56455 21.4987 9.7685C21.7032 9.97244 21.8182 10.2491 21.8182 10.5375V19.2374C21.8182 19.5259 21.7032 19.8025 21.4987 20.0064C21.2941 20.2104 21.0166 20.3249 20.7273 20.3249H3.27273C2.9834 20.3249 2.70592 20.2104 2.50134 20.0064C2.29675 19.8025 2.18182 19.5259 2.18182 19.2374V10.5375C2.18182 10.2491 2.29675 9.97244 2.50134 9.7685C2.70592 9.56455 2.9834 9.44998 3.27273 9.44998H6.54545C6.83478 9.44998 7.11226 9.3354 7.31684 9.13146C7.52143 8.92751 7.63636 8.6509 7.63636 8.36248C7.63636 8.07406 7.52143 7.79745 7.31684 7.5935C7.11226 7.38956 6.83478 7.27498 6.54545 7.27498H3.27273C2.40475 7.27498 1.57232 7.61871 0.95856 8.23054C0.344804 8.84238 0 9.67221 0 10.5375V19.2374C0 20.1027 0.344804 20.9325 0.95856 21.5444C1.57232 22.1562 2.40475 22.4999 3.27273 22.4999H20.7273C21.5953 22.4999 22.4277 22.1562 23.0414 21.5444C23.6552 20.9325 24 20.1027 24 19.2374V10.5375C24 9.67221 23.6552 8.84238 23.0414 8.23054C22.4277 7.61871 21.5953 7.27498 20.7273 7.27498ZM4.36364 14.8875C4.36364 15.1025 4.42762 15.3128 4.54749 15.4916C4.66736 15.6705 4.83774 15.8099 5.03707 15.8922C5.23641 15.9745 5.45576 15.996 5.66737 15.9541C5.87899 15.9121 6.07337 15.8085 6.22593 15.6564C6.3785 15.5043 6.4824 15.3106 6.52449 15.0996C6.56659 14.8887 6.54498 14.67 6.46241 14.4713C6.37985 14.2726 6.24002 14.1027 6.06062 13.9832C5.88122 13.8637 5.67031 13.8 5.45455 13.8C5.16522 13.8 4.88774 13.9145 4.68316 14.1185C4.47857 14.3224 4.36364 14.599 4.36364 14.8875Z" fill="#000000"/>
</svg>
