<?xml version="1.0" encoding="UTF-8"?>
<svg width="32px" height="32px" viewBox="0 0 32 32" version="1.1" xmlns="http://www.w3.org/2000/svg" xmlns:xlink="http://www.w3.org/1999/xlink">
    <!-- Generator: Sketch 48.2 (47327) - http://www.bohemiancoding.com/sketch -->
    <title>Antecipation32</title>
    <desc>Created with Sketch.</desc>
    <defs></defs>
    <g id="Page-1" stroke="none" stroke-width="1" fill="none" fill-rule="evenodd">
        <g id="Antecipation32" fill="#000000" fill-rule="nonzero">
            <path d="M3.41421356,26 L7.70710678,30.2928932 C8.09763107,30.6834175 8.09763107,31.3165825 7.70710678,31.7071068 C7.31658249,32.0976311 6.68341751,32.0976311 6.29289322,31.7071068 L0.292893219,25.7071068 C-0.0976310729,25.3165825 -0.0976310729,24.6834175 0.292893219,24.2928932 L6.29289322,18.2928932 C6.68341751,17.9023689 7.31658249,17.9023689 7.70710678,18.2928932 C8.09763107,18.6834175 8.09763107,19.3165825 7.70710678,19.7071068 L3.41421356,24 L31,24 C31.5522847,24 32,24.4477153 32,25 C32,25.5522847 31.5522847,26 31,26 L3.41421356,26 Z M17,4.04348208 L17,8.99961756 C17.1403144,9.03865521 17.254722,9.07007601 17.3176558,9.08681612 C17.9000963,9.24174274 18.4387915,9.422364 18.9576049,9.6538915 C20.8195112,10.4847923 22.0000009,11.7888913 22.0000009,13.6882226 C22.0000009,15.5129948 20.8585148,16.7347432 19.091797,17.420505 C18.3971895,17.690121 17.6204764,17.8630658 17,17.9447242 L17,19.047619 C17,19.5736045 16.5522847,20 16,20 C15.4477153,20 15,19.5736045 15,19.047619 L15,17.8932719 C14.6817764,17.8461192 14.3404085,17.7820089 13.9914227,17.6983495 C12.5165474,17.3447898 11.2307644,16.7220331 10.2809622,15.7393368 C9.89714087,15.3422227 9.90791675,14.7091495 10.3050308,14.3253281 C10.7021449,13.9415067 11.3352182,13.9522826 11.7190396,14.3493967 C12.3653731,15.0181145 13.3210309,15.4809782 14.4576568,15.7534521 C14.6423263,15.7977214 14.8245479,15.8353027 15,15.8667638 L15,10.49783 C14.4962974,10.3142419 14.0105526,10.104625 13.5485476,9.8593403 C11.8654078,8.9657388 10.7973036,7.77797408 10.7973036,6.18096262 C10.7973036,3.80153721 12.5707518,2.44380327 15,2.09222272 L15,0.952380952 C15,0.426395476 15.4477153,0 16,0 C16.5522847,0 17,0.426395476 17,0.952380952 L17,2.03152399 C17.8070125,2.10610146 18.6270795,2.30967647 19.4511879,2.60673782 C19.8109518,2.73641976 21.0213344,3.27699365 21.1355754,3.39307254 C21.5229712,3.78670048 21.517919,4.41984531 21.1242911,4.80724109 C20.8618725,5.06550494 20.4871088,5.12975791 20,5 C19.3856564,4.73223936 18.9766484,4.56165079 18.7729762,4.48823428 C18.1645085,4.26890361 17.567203,4.11427192 17,4.04348208 Z M15,4.12075654 C13.6371778,4.39190489 12.7973036,5.11032388 12.7973036,6.18096262 C12.7973036,6.85286234 13.3879576,7.50968781 14.4863943,8.09286258 C14.6519119,8.18073808 14.8234337,8.26389979 15,8.34269537 L15,4.12075654 Z M17,15.922257 C17.4215917,15.8500292 17.9258979,15.7276745 18.3680918,15.5560344 C19.445241,15.1379326 20.0000009,14.5441654 20.0000009,13.6882226 C20.0000009,12.7303585 19.3603614,12.0237422 18.1425546,11.4802795 C17.7885054,11.3222802 17.4105252,11.1901991 17,11.0735988 L17,15.922257 Z"></path>
        </g>
    </g>
</svg>