<?xml version="1.0" encoding="UTF-8"?>
<svg width="24px" height="24px" viewBox="0 0 24 24" version="1.1" xmlns="http://www.w3.org/2000/svg" xmlns:xlink="http://www.w3.org/1999/xlink">
    <!-- Generator: Sketch 48.1 (47250) - http://www.bohemiancoding.com/sketch -->
    <title>Antecipation24</title>
    <desc>Created with Sketch.</desc>
    <defs></defs>
    <g id="Page-1" stroke="none" stroke-width="1" fill="none" fill-rule="evenodd">
        <g id="Antecipation24" fill="#000000" fill-rule="nonzero">
            <path d="M14,4.02755759 L14,7.56870221 C14.0453566,7.58013408 14.0877366,7.59102097 14.124204,7.60070394 C14.5991939,7.72682505 15.0396195,7.87417662 15.4657368,8.06387436 C17.0112735,8.75191222 18,9.84125878 18,11.4099179 C18,12.9226266 17.0366724,13.9508527 15.5587255,14.5226461 C15.0461339,14.7209593 14.4822493,14.8554639 14,14.9299008 L14,16 C14,16.5522847 13.5522847,17 13,17 C12.4477153,17 12,16.5522847 12,16 L12,14.8873308 C11.7873811,14.8522328 11.5647108,14.8081514 11.3379944,14.7540158 C10.1229387,14.4638836 9.0591537,13.9501418 8.27110725,13.1365979 C7.88313735,12.7360751 7.91542434,12.1169279 8.34322225,11.7536939 C8.77102017,11.3904598 9.43233065,11.4206883 9.82030055,11.821211 C10.3677715,12.3863955 11.19468,12.7343032 12,12.9074881 L12,9.02724889 C11.6259748,8.8872354 11.2640425,8.72864173 10.9173959,8.54510901 C9.52401827,7.80738259 8.63056253,6.81648018 8.63056253,5.48818722 C8.63056253,3.56271928 10.0526352,2.43175572 12,2.10184631 L12,1 C12,0.44771525 12.4477153,0 13,0 C13.5522847,0 14,0.44771525 14,1 L14,2.04510446 C14.6089228,2.11795315 15.2223344,2.27600071 15.8368546,2.49691605 C16.1292758,2.60203925 16.3938189,2.71116148 16.6599599,2.83111367 C16.7256642,2.86072719 17.1291439,3.06828023 17.247654,3.15947829 C17.6890284,3.4991329 17.6416237,4.1667361 17.2278113,4.54390489 C16.892502,4.84529306 16.4431794,4.86441465 16.1765896,4.77517924 C16.0957144,4.7486675 15.8114714,4.62181826 15.7528029,4.59537584 C15.5345883,4.49702452 15.3206773,4.40878769 15.0871805,4.32484737 C14.715029,4.19106172 14.3496028,4.08951039 14,4.02755759 Z M12,4.11106877 C11.1928036,4.33820249 10.7219548,4.81173122 10.7219548,5.48818722 C10.7219548,5.94963713 11.1404009,6.41372197 11.9468802,6.84071393 C11.9648883,6.85024838 11.982583,6.85956003 12,6.86866414 L12,4.11106877 Z M14,12.9629892 C14.9727712,12.7707261 15.9086077,12.232853 15.9086077,11.4099179 C15.9086077,10.7251058 15.4578814,10.2285103 14.5676504,9.83219963 C14.3881273,9.75228002 14.1995393,9.68089655 14,9.61574458 L14,12.9629892 Z M3.41421356,20 L5.70710678,22.2928932 C6.09763107,22.6834175 6.09763107,23.3165825 5.70710678,23.7071068 C5.31658249,24.0976311 4.68341751,24.0976311 4.29289322,23.7071068 L0.292893219,19.7071068 C-0.0976310729,19.3165825 -0.0976310729,18.6834175 0.292893219,18.2928932 L4.29289322,14.2928932 C4.68341751,13.9023689 5.31658249,13.9023689 5.70710678,14.2928932 C6.09763107,14.6834175 6.09763107,15.3165825 5.70710678,15.7071068 L3.41421356,18 L23,18 C23.5522847,18 24,18.4477153 24,19 C24,19.5522847 23.5522847,20 23,20 L3.41421356,20 Z"></path>
        </g>
    </g>
</svg>