<svg width="24" height="24" viewBox="0 0 24 24" fill="none" xmlns="http://www.w3.org/2000/svg">
<path d="M12 11.625C11.3527 11.625 10.72 11.8163 10.1818 12.1748C9.64357 12.5333 9.2241 13.0429 8.97639 13.639C8.72869 14.2351 8.66388 14.8911 8.79016 15.524C8.91644 16.1568 9.22813 16.7382 9.68583 17.1944C10.1435 17.6507 10.7267 17.9614 11.3615 18.0873C11.9964 18.2132 12.6544 18.1486 13.2524 17.9017C13.8504 17.6547 14.3616 17.2366 14.7212 16.7C15.0808 16.1635 15.2727 15.5328 15.2727 14.8875C15.2727 14.0222 14.9279 13.1924 14.3142 12.5806C13.7004 11.9687 12.868 11.625 12 11.625ZM12 15.975C11.7842 15.975 11.5733 15.9112 11.3939 15.7917C11.2145 15.6722 11.0747 15.5024 10.9921 15.3037C10.9096 15.105 10.888 14.8863 10.9301 14.6753C10.9721 14.4644 11.076 14.2706 11.2286 14.1185C11.3812 13.9664 11.5756 13.8629 11.7872 13.8209C11.9988 13.7789 12.2181 13.8005 12.4175 13.8828C12.6168 13.9651 12.7872 14.1045 12.9071 14.2833C13.0269 14.4622 13.0909 14.6724 13.0909 14.8875C13.0909 15.1759 12.976 15.4525 12.7714 15.6565C12.5668 15.8604 12.2893 15.975 12 15.975ZM11.2255 9.13462C11.3292 9.23363 11.4515 9.31124 11.5855 9.363C11.716 9.42053 11.8572 9.45025 12 9.45025C12.1428 9.45025 12.284 9.42053 12.4145 9.363C12.5485 9.31124 12.6708 9.23363 12.7745 9.13462L15.2727 6.68775C15.4839 6.4772 15.6026 6.19164 15.6026 5.89388C15.6026 5.59611 15.4839 5.31055 15.2727 5.1C15.0615 4.88945 14.7751 4.77117 14.4764 4.77117C14.1777 4.77117 13.8912 4.88945 13.68 5.1L13.0909 5.74162V1.8375C13.0909 1.54908 12.976 1.27247 12.7714 1.06852C12.5668 0.864576 12.2893 0.75 12 0.75C11.7107 0.75 11.4332 0.864576 11.2286 1.06852C11.024 1.27247 10.9091 1.54908 10.9091 1.8375V5.74162L10.32 5.1C10.1088 4.88945 9.82233 4.77117 9.52364 4.77117C9.22494 4.77117 8.93848 4.88945 8.72727 5.1C8.51606 5.31055 8.39741 5.59611 8.39741 5.89388C8.39741 6.19164 8.51606 6.4772 8.72727 6.68775L11.2255 9.13462ZM19.6364 14.8875C19.6364 14.6724 19.5724 14.4622 19.4525 14.2833C19.3326 14.1045 19.1623 13.9651 18.9629 13.8828C18.7636 13.8005 18.5442 13.7789 18.3326 13.8209C18.121 13.8629 17.9266 13.9664 17.7741 14.1185C17.6215 14.2706 17.5176 14.4644 17.4755 14.6753C17.4334 14.8863 17.455 15.105 17.5376 15.3037C17.6202 15.5024 17.76 15.6722 17.9394 15.7917C18.1188 15.9112 18.3297 15.975 18.5455 15.975C18.8348 15.975 19.1123 15.8604 19.3168 15.6565C19.5214 15.4525 19.6364 15.1759 19.6364 14.8875ZM20.7273 7.275H17.4545C17.1652 7.275 16.8877 7.38958 16.6832 7.59352C16.4786 7.79747 16.3636 8.07408 16.3636 8.3625C16.3636 8.65092 16.4786 8.92753 16.6832 9.13148C16.8877 9.33542 17.1652 9.45 17.4545 9.45H20.7273C21.0166 9.45 21.2941 9.56458 21.4987 9.76852C21.7032 9.97247 21.8182 10.2491 21.8182 10.5375V19.2375C21.8182 19.5259 21.7032 19.8025 21.4987 20.0065C21.2941 20.2104 21.0166 20.325 20.7273 20.325H3.27273C2.9834 20.325 2.70592 20.2104 2.50134 20.0065C2.29675 19.8025 2.18182 19.5259 2.18182 19.2375V10.5375C2.18182 10.2491 2.29675 9.97247 2.50134 9.76852C2.70592 9.56458 2.9834 9.45 3.27273 9.45H6.54545C6.83478 9.45 7.11226 9.33542 7.31684 9.13148C7.52143 8.92753 7.63636 8.65092 7.63636 8.3625C7.63636 8.07408 7.52143 7.79747 7.31684 7.59352C7.11226 7.38958 6.83478 7.275 6.54545 7.275H3.27273C2.40475 7.275 1.57232 7.61873 0.95856 8.23056C0.344804 8.8424 0 9.67223 0 10.5375V19.2375C0 20.1028 0.344804 20.9326 0.95856 21.5444C1.57232 22.1563 2.40475 22.5 3.27273 22.5H20.7273C21.5953 22.5 22.4277 22.1563 23.0414 21.5444C23.6552 20.9326 24 20.1028 24 19.2375V10.5375C24 9.67223 23.6552 8.8424 23.0414 8.23056C22.4277 7.61873 21.5953 7.275 20.7273 7.275ZM4.36364 14.8875C4.36364 15.1026 4.42762 15.3128 4.54749 15.4917C4.66736 15.6705 4.83774 15.8099 5.03707 15.8922C5.23641 15.9745 5.45576 15.9961 5.66737 15.9541C5.87899 15.9121 6.07337 15.8086 6.22593 15.6565C6.3785 15.5044 6.4824 15.3106 6.52449 15.0997C6.56659 14.8887 6.54498 14.67 6.46241 14.4713C6.37985 14.2726 6.24002 14.1028 6.06062 13.9833C5.88122 13.8638 5.67031 13.8 5.45455 13.8C5.16522 13.8 4.88774 13.9146 4.68316 14.1185C4.47857 14.3225 4.36364 14.5991 4.36364 14.8875Z" fill="currentColor"/>
</svg>
