<svg width="32" height="32" viewBox="0 0 32 32" fill="none" xmlns="http://www.w3.org/2000/svg">
<path d="M16 15.5C15.137 15.5 14.2933 15.7551 13.5757 16.2331C12.8581 16.711 12.2988 17.3904 11.9685 18.1853C11.6383 18.9801 11.5518 19.8548 11.7202 20.6986C11.8886 21.5424 12.3042 22.3175 12.9144 22.9259C13.5247 23.5342 14.3022 23.9485 15.1487 24.1164C15.9952 24.2842 16.8725 24.1981 17.6699 23.8688C18.4672 23.5396 19.1487 22.982 19.6282 22.2667C20.1077 21.5513 20.3636 20.7103 20.3636 19.8499C20.3636 18.6963 19.9039 17.5898 19.0856 16.774C18.2672 15.9583 17.1573 15.5 16 15.5ZM16 21.2999C15.7123 21.2999 15.4311 21.2149 15.1919 21.0556C14.9527 20.8962 14.7663 20.6698 14.6562 20.4048C14.5461 20.1399 14.5173 19.8483 14.5734 19.5671C14.6295 19.2858 14.7681 19.0274 14.9715 18.8246C15.1749 18.6219 15.4341 18.4838 15.7162 18.4278C15.9984 18.3719 16.2908 18.4006 16.5566 18.5103C16.8224 18.6201 17.0496 18.8059 17.2094 19.0444C17.3692 19.2828 17.4545 19.5632 17.4545 19.8499C17.4545 20.2345 17.3013 20.6033 17.0285 20.8753C16.7557 21.1472 16.3858 21.2999 16 21.2999ZM14.9673 12.1795C15.1056 12.3115 15.2687 12.415 15.4473 12.484C15.6214 12.5607 15.8096 12.6003 16 12.6003C16.1904 12.6003 16.3786 12.5607 16.5527 12.484C16.7313 12.415 16.8944 12.3115 17.0327 12.1795L20.3636 8.91698C20.6452 8.63625 20.8035 8.2555 20.8035 7.85848C20.8035 7.46147 20.6452 7.08072 20.3636 6.79998C20.082 6.51925 19.7001 6.36154 19.3018 6.36154C18.9036 6.36154 18.5216 6.51925 18.24 6.79998L17.4545 7.65548V2.45C17.4545 2.06543 17.3013 1.69662 17.0285 1.42469C16.7557 1.15277 16.3858 1 16 1C15.6142 1 15.2443 1.15277 14.9715 1.42469C14.6987 1.69662 14.5455 2.06543 14.5455 2.45V7.65548L13.76 6.79998C13.4784 6.51925 13.0964 6.36154 12.6982 6.36154C12.2999 6.36154 11.918 6.51925 11.6364 6.79998C11.3548 7.08072 11.1965 7.46147 11.1965 7.85848C11.1965 8.2555 11.3548 8.63625 11.6364 8.91698L14.9673 12.1795ZM26.1818 19.8499C26.1818 19.5632 26.0965 19.2828 25.9367 19.0444C25.7769 18.8059 25.5497 18.6201 25.2839 18.5103C25.0181 18.4006 24.7257 18.3719 24.4435 18.4278C24.1614 18.4838 23.9022 18.6219 23.6988 18.8246C23.4953 19.0274 23.3568 19.2858 23.3007 19.5671C23.2446 19.8483 23.2734 20.1399 23.3834 20.4048C23.4935 20.6698 23.68 20.8962 23.9192 21.0556C24.1584 21.2149 24.4396 21.2999 24.7273 21.2999C25.113 21.2999 25.483 21.1472 25.7558 20.8753C26.0286 20.6033 26.1818 20.2345 26.1818 19.8499ZM27.6364 9.69998H23.2727C22.887 9.69998 22.517 9.85274 22.2442 10.1247C21.9714 10.3966 21.8182 10.7654 21.8182 11.15C21.8182 11.5345 21.9714 11.9033 22.2442 12.1753C22.517 12.4472 22.887 12.6 23.2727 12.6H27.6364C28.0221 12.6 28.3921 12.7527 28.6649 13.0247C28.9377 13.2966 29.0909 13.6654 29.0909 14.05V25.6499C29.0909 26.0345 28.9377 26.4033 28.6649 26.6752C28.3921 26.9472 28.0221 27.0999 27.6364 27.0999H4.36364C3.97787 27.0999 3.6079 26.9472 3.33512 26.6752C3.06234 26.4033 2.90909 26.0345 2.90909 25.6499V14.05C2.90909 13.6654 3.06234 13.2966 3.33512 13.0247C3.6079 12.7527 3.97787 12.6 4.36364 12.6H8.72727C9.11304 12.6 9.48301 12.4472 9.75579 12.1753C10.0286 11.9033 10.1818 11.5345 10.1818 11.15C10.1818 10.7654 10.0286 10.3966 9.75579 10.1247C9.48301 9.85274 9.11304 9.69998 8.72727 9.69998H4.36364C3.20633 9.69998 2.09642 10.1583 1.27808 10.9741C0.459739 11.7898 0 12.8963 0 14.05V25.6499C0 26.8036 0.459739 27.9101 1.27808 28.7258C2.09642 29.5416 3.20633 29.9999 4.36364 29.9999H27.6364C28.7937 29.9999 29.9036 29.5416 30.7219 28.7258C31.5403 27.9101 32 26.8036 32 25.6499V14.05C32 12.8963 31.5403 11.7898 30.7219 10.9741C29.9036 10.1583 28.7937 9.69998 27.6364 9.69998ZM5.81818 19.8499C5.81818 20.1367 5.90349 20.4171 6.06332 20.6555C6.22314 20.894 6.45031 21.0798 6.7161 21.1896C6.98188 21.2993 7.27434 21.328 7.5565 21.2721C7.83865 21.2161 8.09782 21.078 8.30125 20.8753C8.50467 20.6725 8.6432 20.4141 8.69932 20.1328C8.75545 19.8516 8.72664 19.56 8.61655 19.2951C8.50646 19.0301 8.32003 18.8036 8.08083 18.6443C7.84163 18.485 7.56041 18.4 7.27273 18.4C6.88696 18.4 6.51699 18.5527 6.24421 18.8246C5.97143 19.0966 5.81818 19.4654 5.81818 19.8499Z" fill="#000000"/>
</svg>
