<svg width="32" height="32" viewBox="0 0 32 32" fill="none" xmlns="http://www.w3.org/2000/svg">
<path d="M16 15.5C15.137 15.5 14.2933 15.7551 13.5757 16.2331C12.8581 16.7111 12.2988 17.3905 11.9685 18.1853C11.6383 18.9802 11.5518 19.8548 11.7202 20.6986C11.8886 21.5425 12.3042 22.3176 12.9144 22.9259C13.5247 23.5343 14.3022 23.9486 15.1487 24.1164C15.9952 24.2843 16.8725 24.1981 17.6699 23.8689C18.4672 23.5396 19.1487 22.9821 19.6282 22.2667C20.1077 21.5514 20.3636 20.7104 20.3636 19.85C20.3636 18.6963 19.9039 17.5899 19.0856 16.7741C18.2672 15.9583 17.1573 15.5 16 15.5ZM16 21.3C15.7123 21.3 15.4311 21.215 15.1919 21.0556C14.9527 20.8963 14.7663 20.6698 14.6562 20.4049C14.5461 20.1399 14.5173 19.8484 14.5734 19.5671C14.6295 19.2858 14.7681 19.0275 14.9715 18.8247C15.1749 18.6219 15.4341 18.4838 15.7162 18.4279C15.9984 18.3719 16.2908 18.4006 16.5566 18.5104C16.8224 18.6201 17.0496 18.806 17.2094 19.0444C17.3692 19.2829 17.4545 19.5632 17.4545 19.85C17.4545 20.2346 17.3013 20.6034 17.0285 20.8753C16.7557 21.1472 16.3858 21.3 16 21.3ZM14.9673 12.1795C15.1056 12.3115 15.2687 12.415 15.4473 12.484C15.6214 12.5607 15.8096 12.6003 16 12.6003C16.1904 12.6003 16.3786 12.5607 16.5527 12.484C16.7313 12.415 16.8944 12.3115 17.0327 12.1795L20.3636 8.917C20.6452 8.63627 20.8035 8.25551 20.8035 7.8585C20.8035 7.46149 20.6452 7.08073 20.3636 6.8C20.082 6.51927 19.7001 6.36156 19.3018 6.36156C18.9036 6.36156 18.5216 6.51927 18.24 6.8L17.4545 7.6555V2.45C17.4545 2.06544 17.3013 1.69662 17.0285 1.4247C16.7557 1.15277 16.3858 1 16 1C15.6142 1 15.2443 1.15277 14.9715 1.4247C14.6987 1.69662 14.5455 2.06544 14.5455 2.45V7.6555L13.76 6.8C13.4784 6.51927 13.0964 6.36156 12.6982 6.36156C12.2999 6.36156 11.918 6.51927 11.6364 6.8C11.3548 7.08073 11.1965 7.46149 11.1965 7.8585C11.1965 8.25551 11.3548 8.63627 11.6364 8.917L14.9673 12.1795ZM26.1818 19.85C26.1818 19.5632 26.0965 19.2829 25.9367 19.0444C25.7769 18.806 25.5497 18.6201 25.2839 18.5104C25.0181 18.4006 24.7257 18.3719 24.4435 18.4279C24.1614 18.4838 23.9022 18.6219 23.6988 18.8247C23.4953 19.0275 23.3568 19.2858 23.3007 19.5671C23.2446 19.8484 23.2734 20.1399 23.3834 20.4049C23.4935 20.6698 23.68 20.8963 23.9192 21.0556C24.1584 21.215 24.4396 21.3 24.7273 21.3C25.113 21.3 25.483 21.1472 25.7558 20.8753C26.0286 20.6034 26.1818 20.2346 26.1818 19.85ZM27.6364 9.7H23.2727C22.887 9.7 22.517 9.85277 22.2442 10.1247C21.9714 10.3966 21.8182 10.7654 21.8182 11.15C21.8182 11.5346 21.9714 11.9034 22.2442 12.1753C22.517 12.4472 22.887 12.6 23.2727 12.6H27.6364C28.0221 12.6 28.3921 12.7528 28.6649 13.0247C28.9377 13.2966 29.0909 13.6654 29.0909 14.05V25.65C29.0909 26.0346 28.9377 26.4034 28.6649 26.6753C28.3921 26.9472 28.0221 27.1 27.6364 27.1H4.36364C3.97787 27.1 3.6079 26.9472 3.33512 26.6753C3.06234 26.4034 2.90909 26.0346 2.90909 25.65V14.05C2.90909 13.6654 3.06234 13.2966 3.33512 13.0247C3.6079 12.7528 3.97787 12.6 4.36364 12.6H8.72727C9.11304 12.6 9.48301 12.4472 9.75579 12.1753C10.0286 11.9034 10.1818 11.5346 10.1818 11.15C10.1818 10.7654 10.0286 10.3966 9.75579 10.1247C9.48301 9.85277 9.11304 9.7 8.72727 9.7H4.36364C3.20633 9.7 2.09642 10.1583 1.27808 10.9741C0.459739 11.7899 0 12.8963 0 14.05V25.65C0 26.8037 0.459739 27.9101 1.27808 28.7259C2.09642 29.5417 3.20633 30 4.36364 30H27.6364C28.7937 30 29.9036 29.5417 30.7219 28.7259C31.5403 27.9101 32 26.8037 32 25.65V14.05C32 12.8963 31.5403 11.7899 30.7219 10.9741C29.9036 10.1583 28.7937 9.7 27.6364 9.7ZM5.81818 19.85C5.81818 20.1368 5.90349 20.4171 6.06332 20.6556C6.22314 20.894 6.45031 21.0799 6.7161 21.1896C6.98188 21.2994 7.27434 21.3281 7.5565 21.2721C7.83865 21.2162 8.09782 21.0781 8.30125 20.8753C8.50467 20.6725 8.6432 20.4142 8.69932 20.1329C8.75545 19.8516 8.72664 19.5601 8.61655 19.2951C8.50646 19.0302 8.32003 18.8037 8.08083 18.6444C7.84163 18.485 7.56041 18.4 7.27273 18.4C6.88696 18.4 6.51699 18.5528 6.24421 18.8247C5.97143 19.0966 5.81818 19.4654 5.81818 19.85Z" fill="currentColor"/>
</svg>
