<svg width="32" height="32" viewBox="0 0 32 32" fill="000000" xmlns="http://www.w3.org/2000/svg">
<path d="M29.3342 0.0109076C28.6272 0.0109076 27.9492 0.291764 27.4493 0.791691C26.9493 1.29162 26.6685 1.96966 26.6685 2.67667V22.9098L4.56935 0.783977C4.06738 0.282005 3.38656 -5.28913e-09 2.67667 0C1.96677 5.28914e-09 1.28595 0.282005 0.783977 0.783977C0.282005 1.28595 5.28914e-09 1.96677 0 2.67667C-5.28913e-09 3.38656 0.282005 4.06738 0.783977 4.56935L22.9098 26.6685H2.67667C1.96966 26.6685 1.29162 26.9493 0.791691 27.4493C0.291764 27.9492 0.0109076 28.6272 0.0109076 29.3342C0.0109076 30.0412 0.291764 30.7193 0.791691 31.2192C1.29162 31.7191 1.96966 32 2.67667 32H29.3342C29.6826 31.9958 30.0267 31.9233 30.3472 31.7867C30.9986 31.5162 31.5162 30.9986 31.7867 30.3472C31.9233 30.0267 31.9958 29.6826 32 29.3342V2.67667C32 1.96966 31.7191 1.29162 31.2192 0.791691C30.7193 0.291764 30.0412 0.0109076 29.3342 0.0109076Z" fill="#30313C"/>
</svg>
