<svg width="32" height="32" viewBox="0 0 32 32" fill="none" xmlns="http://www.w3.org/2000/svg">
<path d="M31.1021 7.88449C30.5333 7.31798 29.7639 7 28.962 7C28.16 7 27.3906 7.31798 26.8219 7.88449L15.9241 18.652L5.17811 7.88449C4.60935 7.31798 3.83998 7 3.03802 7C2.23606 7 1.46668 7.31798 0.897923 7.88449C0.613402 8.16725 0.38757 8.50366 0.233457 8.87432C0.0793443 9.24497 0 9.64253 0 10.0441C0 10.4456 0.0793443 10.8432 0.233457 11.2138C0.38757 11.5845 0.613402 11.9209 0.897923 12.2036L13.7688 25.1003C14.051 25.3854 14.3868 25.6117 14.7567 25.7661C15.1266 25.9205 15.5234 26 15.9241 26C16.3248 26 16.7216 25.9205 17.0915 25.7661C17.4614 25.6117 17.7972 25.3854 18.0794 25.1003L31.1021 12.2036C31.3866 11.9209 31.6124 11.5845 31.7665 11.2138C31.9207 10.8432 32 10.4456 32 10.0441C32 9.64253 31.9207 9.24497 31.7665 8.87432C31.6124 8.50366 31.3866 8.16725 31.1021 7.88449Z" fill="currentColor"/>
</svg>
