<svg width="24" height="24" viewBox="0 0 24 24" fill="none" xmlns="http://www.w3.org/2000/svg">
<path d="M22.0007 0.00818069C21.4704 0.00818069 20.9619 0.218823 20.5869 0.593768C20.212 0.968713 20.0014 1.47725 20.0014 2.0075V17.1823L3.42702 0.587983C3.05054 0.211504 2.53992 -3.96685e-09 2.0075 0C1.47508 3.96685e-09 0.964462 0.211504 0.587983 0.587983C0.211504 0.964462 3.96685e-09 1.47508 0 2.0075C-3.96685e-09 2.53992 0.211504 3.05054 0.587983 3.42702L17.1823 20.0014H2.0075C1.47725 20.0014 0.968713 20.212 0.593768 20.5869C0.218823 20.9619 0.00818069 21.4704 0.00818069 22.0007C0.00818069 22.5309 0.218823 23.0395 0.593768 23.4144C0.968713 23.7894 1.47725 24 2.0075 24H22.0007C22.2619 23.9968 22.5201 23.9425 22.7604 23.8401C23.249 23.6372 23.6372 23.249 23.8401 22.7604C23.9425 22.5201 23.9968 22.2619 24 22.0007V2.0075C24 1.47725 23.7894 0.968713 23.4144 0.593768C23.0395 0.218823 22.5309 0.00818069 22.0007 0.00818069Z" fill="currentColor"/>
</svg>
