<svg width="24" height="24" viewBox="0 0 24 24" fill="none" xmlns="http://www.w3.org/2000/svg">
<path d="M23.3266 5.91337C22.9 5.48848 22.323 5.25 21.7215 5.25C21.12 5.25 20.543 5.48848 20.1164 5.91337L11.9431 13.989L3.88358 5.91337C3.45701 5.48848 2.87998 5.25 2.27851 5.25C1.67704 5.25 1.10001 5.48848 0.673442 5.91337C0.460051 6.12544 0.290678 6.37775 0.175093 6.65574C0.0595083 6.93373 0 7.2319 0 7.53305C0 7.8342 0.0595083 8.13238 0.175093 8.41037C0.290678 8.68836 0.460051 8.94066 0.673442 9.15274L10.3266 18.8252C10.5383 19.039 10.7901 19.2087 11.0675 19.3246C11.345 19.4404 11.6425 19.5 11.9431 19.5C12.2436 19.5 12.5412 19.4404 12.8186 19.3246C13.0961 19.2087 13.3479 19.039 13.5595 18.8252L23.3266 9.15274C23.5399 8.94066 23.7093 8.68836 23.8249 8.41037C23.9405 8.13238 24 7.8342 24 7.53305C24 7.2319 23.9405 6.93373 23.8249 6.65574C23.7093 6.37775 23.5399 6.12544 23.3266 5.91337Z" fill="currentColor"/>
</svg>
