<?xml version="1.0" encoding="UTF-8"?>
<svg width="32px" height="32px" viewBox="0 0 32 32" version="1.1" xmlns="http://www.w3.org/2000/svg" xmlns:xlink="http://www.w3.org/1999/xlink">
    <!-- Generator: Sketch 48.2 (47327) - http://www.bohemiancoding.com/sketch -->
    <title>ArrowUp32</title>
    <desc>Created with Sketch.</desc>
    <defs></defs>
    <g id="Page-1" stroke="none" stroke-width="1" fill="none" fill-rule="evenodd">
        <g id="ArrowUp32" fill="#000000" fill-rule="nonzero">
            <path d="M16.8291943,31.5850741 C16.6494843,31.8354119 16.3451643,32 16,32 C15.6548357,32 15.3505157,31.8354119 15.1708057,31.5850741 L4.27036297,21.4632344 C3.90987901,21.1284993 3.90987901,20.5857864 4.27036297,20.2510513 C4.63084693,19.9163162 5.21530691,19.9163162 5.57579087,20.2510513 L15,29.0021027 L15,0.941176471 C15,0.421379059 15.4477153,1.0658141e-14 16,1.0658141e-14 C16.5522847,1.0658141e-14 17,0.421379059 17,0.941176471 L17,29.0021027 L26.4242091,20.2510513 C26.7846931,19.9163162 27.3691531,19.9163162 27.729637,20.2510513 C28.090121,20.5857864 28.090121,21.1284993 27.729637,21.4632344 L16.8291943,31.5850741 Z" transform="translate(16.000000, 16.000000) rotate(-180.000000) translate(-16.000000, -16.000000) "></path>
        </g>
    </g>
</svg>