<svg width="32" height="32" viewBox="0 0 32 32" fill="none" xmlns="http://www.w3.org/2000/svg">
<path d="M31.7999 14.9852C31.6729 14.6582 31.4825 14.3594 31.2396 14.106L17.9008 0.783599C17.652 0.535167 17.3567 0.338102 17.0317 0.203651C16.7068 0.0692014 16.3584 0 16.0067 0C15.2962 0 14.6149 0.281869 14.1125 0.783599C13.8638 1.03203 13.6665 1.32696 13.5319 1.65155C13.3972 1.97614 13.328 2.32404 13.328 2.67537C13.328 3.38493 13.6102 4.06542 14.1125 4.56715L22.9162 13.3333H2.66778C1.96024 13.3333 1.28168 13.614 0.781374 14.1137C0.281069 14.6133 0 15.2911 0 15.9977C0 16.7044 0.281069 17.3821 0.781374 17.8818C1.28168 18.3815 1.96024 18.6622 2.66778 18.6622H22.9162L14.1125 27.4283C13.8625 27.676 13.664 27.9707 13.5286 28.2954C13.3931 28.6201 13.3234 28.9683 13.3234 29.3201C13.3234 29.6718 13.3931 30.0201 13.5286 30.3448C13.664 30.6695 13.8625 30.9642 14.1125 31.2119C14.3605 31.4616 14.6556 31.6598 14.9807 31.7951C15.3058 31.9304 15.6545 32 16.0067 32C16.3588 32 16.7075 31.9304 17.0326 31.7951C17.3577 31.6598 17.6528 31.4616 17.9008 31.2119L31.2396 17.8895C31.4825 17.6361 31.6729 17.3373 31.7999 17.0102C32.0667 16.3615 32.0667 15.6339 31.7999 14.9852Z" fill="currentColor"/>
</svg>
