<?xml version="1.0" encoding="UTF-8"?>
<svg width="32px" height="32px" viewBox="0 0 32 32" version="1.1" xmlns="http://www.w3.org/2000/svg" xmlns:xlink="http://www.w3.org/1999/xlink">
    <!-- Generator: Sketch 48.2 (47327) - http://www.bohemiancoding.com/sketch -->
    <title>Balance32</title>
    <desc>Created with Sketch.</desc>
    <defs></defs>
    <g id="Page-1" stroke="none" stroke-width="1" fill="none" fill-rule="evenodd">
        <g id="Balance32" fill="#0A0A0A" fill-rule="nonzero">
            <path d="M7.50003835,15 L25.0003068,15 C25.0003068,13.6665417 26.0001534,13.2225555 27,13.2225555 L27,8.77744445 C26.0001534,8.77744445 25.0003068,8.33345833 25.0003068,7 L7.50003835,7 C7.50003835,8.33345833 6.49934801,8.77744445 5,8.77744445 L5,13.2225555 C6.49934801,13.2225555 7.50003835,13.6665417 7.50003835,15 Z M5,15.2225555 C3.8954305,15.2225555 3,14.327125 3,13.2225555 L3,8.77744445 C3,7.67287496 3.8954305,6.77744445 5,6.77744445 C5.21892084,6.77744445 5.39169409,6.76489765 5.51561942,6.74913842 C5.63902634,5.76297767 6.48043086,5 7.50003835,5 L25.0003068,5 C26.0296344,5 26.8773451,5.77759413 26.9880589,6.77740237 C28.1045695,6.77744445 29,7.67287496 29,8.77744445 L29,13.2225555 C29,14.327125 28.1045695,15.2225555 27,15.2225555 C26.8773451,16.2224059 26.0296344,17 25.0003068,17 L7.50003835,17 C6.48043086,17 5.63902634,16.2370223 5.51561942,15.2508616 C5.39169409,15.2351024 5.21892084,15.2225555 5,15.2225555 Z M16,10 C15.4475194,10 15,10.4477813 15,10.9998313 C15,11.5522187 15.4475194,12 16,12 C16.5524806,12 17,11.5522187 17,10.9998313 C17,10.4477813 16.5524806,10 16,10 Z M16,8 C17.6569624,8 19,9.34312411 19,10.9998313 C19,12.6567194 17.6571189,14 16,14 C14.3428811,14 13,12.6567194 13,10.9998313 C13,9.34312411 14.3430376,8 16,8 Z M2,19 L30,19 L30,3 L2,3 L2,19 Z M2,21 C0.8954305,21 0,20.1045695 0,19 L0,3 C0,1.8954305 0.8954305,1 2,1 L30,1 C31.1045695,1 32,1.8954305 32,3 L32,19 C32,20.1045695 31.1045695,21 30,21 L2,21 Z M1,29 L31,29 L1,29 Z M1,30 L31,30 C31.5522847,30 32,30.4477153 32,31 C32,31.5522847 31.5522847,32 31,32 L1,32 C0.44771525,32 6.76353751e-17,31.5522847 0,31 C-6.76353751e-17,30.4477153 0.44771525,30 1,30 Z M1,25 L31,25 L1,25 Z M1,24 L31,24 C31.5522847,24 32,24.4477153 32,25 C32,25.5522847 31.5522847,26 31,26 L1,26 C0.44771525,26 6.76353751e-17,25.5522847 0,25 C-6.76353751e-17,24.4477153 0.44771525,24 1,24 Z"></path>
        </g>
    </g>
</svg>