<?xml version="1.0" encoding="UTF-8"?>
<svg width="32px" height="32px" viewBox="0 0 32 32" version="1.1" xmlns="http://www.w3.org/2000/svg" xmlns:xlink="http://www.w3.org/1999/xlink">
    <!-- Generator: Sketch 52.6 (67491) - http://www.bohemiancoding.com/sketch -->
    <title>Icone Copy 2</title>
    <desc>Created with Sketch.</desc>
    <g id="Detalhes-do-recebedor" stroke="none" stroke-width="1" fill="none" fill-rule="evenodd">
        <g id="Detalhes-do-recebedor---Configuracoes---fechada" transform="translate(-341.000000, -663.000000)" fill="#000000" fill-rule="nonzero">
            <g id="Icone-Copy-2" transform="translate(345.000000, 663.000000)">
                <path d="M22,0 C23.1045695,0 24,0.8954305 24,2 L24,30 C24,31.1045695 23.1045695,32 22,32 L2,32 C0.8954305,32 0,31.1045695 0,30 L0,2 C0,0.8954305 0.8954305,0 2,0 L22,0 Z M22,30 L22,2 L2,2 L2,30 L22,30 Z" id="Path-3"></path>
                <rect id="Rectangle-path" x="9" y="7" width="9" height="2"></rect>
                <rect id="Rectangle-path" x="9" y="11" width="9" height="2"></rect>
                <rect id="Rectangle-path" x="9" y="15" width="9" height="2"></rect>
                <rect id="Rectangle-path" x="9" y="19" width="9" height="2"></rect>
                <rect id="Rectangle-path" x="9" y="23" width="9" height="2"></rect>
                <rect id="Rectangle-path" x="5" y="7" width="2" height="2"></rect>
                <rect id="Rectangle-path" x="5" y="11" width="2" height="2"></rect>
                <rect id="Rectangle-path" x="5" y="15" width="2" height="2"></rect>
                <rect id="Rectangle-path" x="5" y="19" width="2" height="2"></rect>
                <rect id="Rectangle-path" x="5" y="23" width="2" height="2"></rect>
            </g>
        </g>
    </g>
</svg>