<?xml version="1.0" encoding="UTF-8"?>
<svg width="24px" height="24px" viewBox="0 0 24 24" version="1.1" xmlns="http://www.w3.org/2000/svg" xmlns:xlink="http://www.w3.org/1999/xlink">
    <!-- Generator: Sketch 52.6 (67491) - http://www.bohemiancoding.com/sketch -->
    <title>Detalhes do recebedor - Configuracoes - fechada</title>
    <desc>Created with Sketch.</desc>
    <g id="Detalhes-do-recebedor" stroke="none" stroke-width="1" fill="none" fill-rule="evenodd">
        <g id="Detalhes-do-recebedor---Configuracoes---fechada" transform="translate(-311.000000, -667.000000)" fill="#757575" fill-rule="nonzero">
            <g id="Icone-Copy" transform="translate(314.000000, 667.000000)">
                <path d="M16.5,0 C17.3284271,0 18,0.671572875 18,1.5 L18,22.5 C18,23.3284271 17.3284271,24 16.5,24 L1.5,24 C0.671572875,24 0,23.3284271 0,22.5 L0,1.5 C0,0.671572875 0.671572875,0 1.5,0 L16.5,0 Z M16,22 L16,2 L2,2 L2,22 L16,22 Z" id="Path-2"></path>
                <rect id="Rectangle-path" x="8" y="5" width="5" height="2"></rect>
                <rect id="Rectangle-path" x="8" y="8" width="5" height="2"></rect>
                <rect id="Rectangle-path" x="8" y="11" width="5" height="2"></rect>
                <rect id="Rectangle-path" x="8" y="14" width="5" height="2"></rect>
                <rect id="Rectangle-path" x="8" y="17" width="5" height="2"></rect>
                <rect id="Rectangle-path" x="5" y="5" width="2" height="2"></rect>
                <rect id="Rectangle-path" x="5" y="8" width="2" height="2"></rect>
                <rect id="Rectangle-path" x="5" y="11" width="2" height="2"></rect>
                <rect id="Rectangle-path" x="5" y="14" width="2" height="2"></rect>
                <rect id="Rectangle-path" x="5" y="17" width="2" height="2"></rect>
            </g>
        </g>
    </g>
</svg>