<?xml version="1.0" encoding="UTF-8"?>
<svg width="32px" height="32px" viewBox="0 0 32 32" version="1.1" xmlns="http://www.w3.org/2000/svg" xmlns:xlink="http://www.w3.org/1999/xlink">
    <!-- Generator: Sketch 48.2 (47327) - http://www.bohemiancoding.com/sketch -->
    <title>BarCode32</title>
    <desc>Created with Sketch.</desc>
    <defs></defs>
    <g id="Page-1" stroke="none" stroke-width="1" fill="none" fill-rule="evenodd">
        <g id="BarCode32" fill="#000000">
            <path d="M12,6 L13,6 C13.5522847,6 14,6.44771525 14,7 L14,25 C14,25.5522847 13.5522847,26 13,26 L12,26 C11.4477153,26 11,25.5522847 11,25 L11,7 C11,6.44771525 11.4477153,6 12,6 Z M8,6 C8.55228475,6 9,6.44771525 9,7 L9,25 C9,25.5522847 8.55228475,26 8,26 C7.44771525,26 7,25.5522847 7,25 L7,7 C7,6.44771525 7.44771525,6 8,6 Z M16.5,6 C16.7761424,6 17,6.22385763 17,6.5 L17,25.5 C17,25.7761424 16.7761424,26 16.5,26 C16.2238576,26 16,25.7761424 16,25.5 L16,6.5 C16,6.22385763 16.2238576,6 16.5,6 Z M23.5,6 C23.7761424,6 24,6.22385763 24,6.5 L24,25.5 C24,25.7761424 23.7761424,26 23.5,26 C23.2238576,26 23,25.7761424 23,25.5 L23,6.5 C23,6.22385763 23.2238576,6 23.5,6 Z M4.5,6 C4.77614237,6 5,6.22385763 5,6.5 L5,25.5 C5,25.7761424 4.77614237,26 4.5,26 C4.22385763,26 4,25.7761424 4,25.5 L4,6.5 C4,6.22385763 4.22385763,6 4.5,6 Z M31,6 C31.5522847,6 32,6.44771525 32,7 L32,25 C32,25.5522847 31.5522847,26 31,26 C30.4477153,26 30,25.5522847 30,25 L30,7 C30,6.44771525 30.4477153,6 31,6 Z M20,6 C20.5522847,6 21,6.44771525 21,7 L21,25 C21,25.5522847 20.5522847,26 20,26 C19.4477153,26 19,25.5522847 19,25 L19,7 C19,6.44771525 19.4477153,6 20,6 Z M27,6 C27.5522847,6 28,6.44771525 28,7 L28,25 C28,25.5522847 27.5522847,26 27,26 C26.4477153,26 26,25.5522847 26,25 L26,7 C26,6.44771525 26.4477153,6 27,6 Z M1,6 C1.55228475,6 2,6.44771525 2,7 L2,25 C2,25.5522847 1.55228475,26 1,26 C0.44771525,26 6.76353751e-17,25.5522847 0,25 L0,7 C-6.76353751e-17,6.44771525 0.44771525,6 1,6 Z"></path>
        </g>
    </g>
</svg>