<?xml version="1.0" encoding="UTF-8"?>
<svg width="24px" height="24px" viewBox="0 0 24 24" version="1.1" xmlns="http://www.w3.org/2000/svg" xmlns:xlink="http://www.w3.org/1999/xlink">
    <!-- Generator: Sketch 48.1 (47250) - http://www.bohemiancoding.com/sketch -->
    <title>BarCode24</title>
    <desc>Created with Sketch.</desc>
    <defs></defs>
    <g id="Page-1" stroke="none" stroke-width="1" fill="none" fill-rule="evenodd">
        <g id="BarCode24" fill="#000000">
            <path d="M20,4 C20.5522847,4 21,4.44771525 21,5 L21,19 C21,19.5522847 20.5522847,20 20,20 C19.4477153,20 19,19.5522847 19,19 L19,5 C19,4.44771525 19.4477153,4 20,4 Z M12,4 L13,4 C13.5522847,4 14,4.44771525 14,5 L14,19 C14,19.5522847 13.5522847,20 13,20 L12,20 C11.4477153,20 11,19.5522847 11,19 L11,5 C11,4.44771525 11.4477153,4 12,4 Z M23.5,4 C23.7761424,4 24,4.22385763 24,4.5 L24,19.5 C24,19.7761424 23.7761424,20 23.5,20 C23.2238576,20 23,19.7761424 23,19.5 L23,4.5 C23,4.22385763 23.2238576,4 23.5,4 Z M8,4 C8.55228475,4 9,4.44771525 9,5 L9,19 C9,19.5522847 8.55228475,20 8,20 C7.44771525,20 7,19.5522847 7,19 L7,5 C7,4.44771525 7.44771525,4 8,4 Z M1,4 C1.55228475,4 2,4.44771525 2,5 L2,19 C2,19.5522847 1.55228475,20 1,20 C0.44771525,20 6.76353751e-17,19.5522847 0,19 L0,5 C-6.76353751e-17,4.44771525 0.44771525,4 1,4 Z M16.5,4 C16.7761424,4 17,4.22385763 17,4.5 L17,19.5 C17,19.7761424 16.7761424,20 16.5,20 C16.2238576,20 16,19.7761424 16,19.5 L16,4.5 C16,4.22385763 16.2238576,4 16.5,4 Z M4.5,4 C4.77614237,4 5,4.22385763 5,4.5 L5,19.5 C5,19.7761424 4.77614237,20 4.5,20 C4.22385763,20 4,19.7761424 4,19.5 L4,4.5 C4,4.22385763 4.22385763,4 4.5,4 Z"></path>
        </g>
    </g>
</svg>