<svg width="32" height="32" viewBox="0 0 32 32" fill="none" xmlns="http://www.w3.org/2000/svg">
<path d="M25.1217 17.9319V12.8314C25.1194 10.5589 24.3129 8.36043 22.8451 6.62547C21.3773 4.89051 19.3428 3.73097 17.1021 3.35221V1.60393C17.1021 1.17854 16.9331 0.770575 16.6323 0.46978C16.3315 0.168985 15.9235 0 15.4981 0C15.0727 0 14.6648 0.168985 14.364 0.46978C14.0632 0.770575 13.8942 1.17854 13.8942 1.60393V3.35221C11.6534 3.73097 9.61896 4.89051 8.15114 6.62547C6.68332 8.36043 5.87685 10.5589 5.87455 12.8314V17.9319C4.93857 18.2628 4.12786 18.8752 3.55356 19.6849C2.97926 20.4947 2.66948 21.4623 2.66669 22.455V25.6629C2.66669 26.0883 2.83567 26.4962 3.13647 26.797C3.43726 27.0978 3.84523 27.2668 4.27062 27.2668H9.30696C9.67631 28.6259 10.4826 29.8257 11.6015 30.6811C12.7204 31.5365 14.0897 32 15.4981 32C16.9065 32 18.2758 31.5365 19.3947 30.6811C20.5136 29.8257 21.3199 28.6259 21.6893 27.2668H26.7256C27.151 27.2668 27.559 27.0978 27.8598 26.797C28.1606 26.4962 28.3296 26.0883 28.3296 25.6629V22.455C28.3268 21.4623 28.017 20.4947 27.4427 19.6849C26.8684 18.8752 26.0577 18.2628 25.1217 17.9319V17.9319ZM9.08241 12.8314C9.08241 11.1299 9.75835 9.49802 10.9615 8.29484C12.1647 7.09166 13.7966 6.41572 15.4981 6.41572C17.1997 6.41572 18.8315 7.09166 20.0347 8.29484C21.2379 9.49802 21.9138 11.1299 21.9138 12.8314V17.6432H9.08241V12.8314ZM15.4981 28.8707C14.9383 28.8674 14.3891 28.7175 13.9052 28.4362C13.4212 28.1548 13.0193 27.7516 12.7394 27.2668H18.2569C17.977 27.7516 17.5751 28.1548 17.0911 28.4362C16.6071 28.7175 16.0579 28.8674 15.4981 28.8707ZM25.1217 24.0589H5.87455V22.455C5.87455 22.0296 6.04353 21.6217 6.34433 21.3209C6.64512 21.0201 7.05309 20.8511 7.47848 20.8511H23.5178C23.9432 20.8511 24.3511 21.0201 24.6519 21.3209C24.9527 21.6217 25.1217 22.0296 25.1217 22.455V24.0589Z" fill="currentColor"/>
</svg>
