<svg width="24" height="24" viewBox="0 0 24 24" fill="none" xmlns="http://www.w3.org/2000/svg">
<path d="M18.8413 13.449V9.62358C18.8395 7.91915 18.2347 6.27032 17.1338 4.9691C16.033 3.66788 14.5071 2.79823 12.8265 2.51416V1.20295C12.8265 0.883906 12.6998 0.577931 12.4742 0.352335C12.2486 0.126739 11.9426 0 11.6236 0C11.3045 0 10.9986 0.126739 10.773 0.352335C10.5474 0.577931 10.4206 0.883906 10.4206 1.20295V2.51416C8.74004 2.79823 7.2142 3.66788 6.11334 4.9691C5.01248 6.27032 4.40762 7.91915 4.40589 9.62358V13.449C3.70392 13.6971 3.09588 14.1564 2.66516 14.7637C2.23443 15.371 2.00209 16.0967 2 16.8413V19.2472C2 19.5662 2.12674 19.8722 2.35234 20.0978C2.57793 20.3234 2.88391 20.4501 3.20295 20.4501H6.9802C7.25722 21.4694 7.86196 22.3693 8.70113 23.0109C9.5403 23.6524 10.5673 24 11.6236 24C12.6799 24 13.7069 23.6524 14.546 23.0109C15.3852 22.3693 15.9899 21.4694 16.267 20.4501H20.0442C20.3633 20.4501 20.6692 20.3234 20.8948 20.0978C21.1204 19.8722 21.2472 19.5662 21.2472 19.2472V16.8413C21.2451 16.0967 21.0127 15.371 20.582 14.7637C20.1513 14.1564 19.5432 13.6971 18.8413 13.449V13.449ZM6.81179 9.62358C6.81179 8.34741 7.31874 7.12351 8.22113 6.22113C9.12352 5.31874 10.3474 4.81179 11.6236 4.81179C12.8997 4.81179 14.1236 5.31874 15.026 6.22113C15.9284 7.12351 16.4354 8.34741 16.4354 9.62358V13.2324H6.81179V9.62358ZM11.6236 21.6531C11.2037 21.6505 10.7918 21.5381 10.4288 21.3271C10.0659 21.1161 9.76444 20.8137 9.55451 20.4501H13.6926C13.4827 20.8137 13.1813 21.1161 12.8183 21.3271C12.4553 21.5381 12.0434 21.6505 11.6236 21.6531ZM18.8413 18.0442H4.40589V16.8413C4.40589 16.5222 4.53263 16.2162 4.75823 15.9906C4.98383 15.7651 5.2898 15.6383 5.60884 15.6383H17.6383C17.9574 15.6383 18.2633 15.7651 18.4889 15.9906C18.7145 16.2162 18.8413 16.5222 18.8413 16.8413V18.0442Z" fill="currentColor"/>
</svg>
