<svg width="32" height="32" viewBox="0 0 32 32" fill="none" xmlns="http://www.w3.org/2000/svg">
   <path
      d="M12 13.604h4a1.6 1.6 0 000-3.2h-1.6v-.8a1.6 1.6 0 00-3.2 0v.88a4 4 0 00.8 7.919h1.6a.8.8 0 010 1.6h-4a1.6 1.6 0 000 3.199h1.6v.8a1.6 1.6 0 003.2 0v-.88a4 4 0 00-.8-7.919H12a.8.8 0 010-1.6zm18.4 2.4h-4.8V1.605a1.6 1.6 0 00-.8-1.392 1.6 1.6 0 00-1.6 0l-4.8 2.752L13.6.214a1.6 1.6 0 00-1.6 0L7.2 2.966 2.4.214a1.6 1.6 0 00-1.6 0A1.6 1.6 0 000 1.606v25.595A4.8 4.799 0 004.8 32h22.4a4.8 4.799 0 004.8-4.799v-9.598a1.6 1.6 0 00-1.6-1.6zM4.8 28.8a1.6 1.6 0 01-1.6-1.6V4.373l3.2 1.824a1.728 1.728 0 001.6 0l4.8-2.751 4.8 2.751a1.728 1.728 0 001.6 0l3.2-1.824v22.828a4.8 4.799 0 00.288 1.6zm24-1.6a1.6 1.6 0 01-3.2 0v-7.998h3.2z"
      fill="currentColor" />
</svg>