<svg width="24" height="24" viewBox="0 0 24 24" fill="none" xmlns="http://www.w3.org/2000/svg">
   <path
      d="M9 10.203h3a1.2 1.2 0 000-2.4h-1.2v-.6a1.2 1.2 0 00-2.4 0v.66a3 3 0 00.6 5.939h1.2a.6.6 0 010 1.2h-3a1.2 1.2 0 000 2.4h1.2v.6a1.2 1.2 0 002.4 0v-.66a3 3 0 00-.6-5.94H9a.6.6 0 010-1.2zm13.8 1.8h-3.6V1.204A1.2 1.2 0 0018.6.16a1.2 1.2 0 00-1.2 0l-3.6 2.063L10.2.161a1.2 1.2 0 00-1.2 0L5.4 2.224 1.8.161a1.2 1.2 0 00-1.2 0A1.2 1.2 0 000 1.205V20.4A3.6 3.6 0 003.6 24h16.8a3.6 3.6 0 003.6-3.6v-7.198a1.2 1.2 0 00-1.2-1.2zM3.6 21.6a1.2 1.2 0 01-1.2-1.2V3.28l2.4 1.368a1.296 1.296 0 001.2 0l3.6-2.064 3.6 2.064a1.296 1.296 0 001.2 0l2.4-1.368V20.4a3.6 3.6 0 00.216 1.2zm18-1.2a1.2 1.2 0 01-2.4 0v-5.998h2.4z"
      fill="currentColor" />
</svg>