<svg width="24" height="24" viewBox="0 0 24 24" fill="none" xmlns="http://www.w3.org/2000/svg">
<path d="M9.95833 7.2H17.2083C17.5288 7.2 17.8361 7.07357 18.0628 6.84853C18.2894 6.62348 18.4167 6.31826 18.4167 6C18.4167 5.68174 18.2894 5.37652 18.0628 5.15147C17.8361 4.92643 17.5288 4.8 17.2083 4.8H9.95833C9.63786 4.8 9.33052 4.92643 9.10391 5.15147C8.87731 5.37652 8.75 5.68174 8.75 6C8.75 6.31826 8.87731 6.62348 9.10391 6.84853C9.33052 7.07357 9.63786 7.2 9.95833 7.2ZM7.54167 12H17.2083C17.5288 12 17.8361 11.8736 18.0628 11.6485C18.2894 11.4235 18.4167 11.1183 18.4167 10.8C18.4167 10.4817 18.2894 10.1765 18.0628 9.95147C17.8361 9.72643 17.5288 9.6 17.2083 9.6H7.54167C7.2212 9.6 6.91385 9.72643 6.68725 9.95147C6.46064 10.1765 6.33333 10.4817 6.33333 10.8C6.33333 11.1183 6.46064 11.4235 6.68725 11.6485C6.91385 11.8736 7.2212 12 7.54167 12ZM7.54167 16.8H17.2083C17.5288 16.8 17.8361 16.6736 18.0628 16.4485C18.2894 16.2235 18.4167 15.9183 18.4167 15.6C18.4167 15.2817 18.2894 14.9765 18.0628 14.7515C17.8361 14.5264 17.5288 14.4 17.2083 14.4H7.54167C7.2212 14.4 6.91385 14.5264 6.68725 14.7515C6.46064 14.9765 6.33333 15.2817 6.33333 15.6C6.33333 15.9183 6.46064 16.2235 6.68725 16.4485C6.91385 16.6736 7.2212 16.8 7.54167 16.8ZM22.0417 0H2.70833C2.38786 0 2.08052 0.126428 1.85391 0.351472C1.62731 0.576515 1.5 0.88174 1.5 1.2V22.8C1.5 23.0229 1.56249 23.2413 1.68046 23.4309C1.79844 23.6204 1.96724 23.7736 2.16795 23.8733C2.36866 23.973 2.59335 24.0152 2.81685 23.9952C3.04034 23.9751 3.25381 23.8937 3.43333 23.76L5.93458 21.9L8.42375 23.76C8.63291 23.9158 8.8873 24 9.14875 24C9.4102 24 9.66459 23.9158 9.87375 23.76L12.375 21.9L14.8763 23.76C15.0854 23.9158 15.3398 24 15.6013 24C15.8627 24 16.1171 23.9158 16.3263 23.76L18.8154 21.9L21.3167 23.76C21.4971 23.8935 21.7114 23.9744 21.9356 23.9934C22.1597 24.0125 22.3848 23.9691 22.5854 23.868C22.7847 23.7683 22.9523 23.6157 23.0696 23.4272C23.1869 23.2387 23.2493 23.0216 23.25 22.8V1.2C23.25 0.88174 23.1227 0.576515 22.8961 0.351472C22.6695 0.126428 22.3621 0 22.0417 0ZM20.8333 20.4L19.5404 19.44C19.3313 19.2842 19.0769 19.2 18.8154 19.2C18.554 19.2 18.2996 19.2842 18.0904 19.44L15.6013 21.3L13.1 19.44C12.8908 19.2842 12.6364 19.2 12.375 19.2C12.1136 19.2 11.8592 19.2842 11.65 19.44L9.14875 21.3L6.65958 19.44C6.45043 19.2842 6.19603 19.2 5.93458 19.2C5.67314 19.2 5.41874 19.2842 5.20958 19.44L3.91667 20.4V2.4H20.8333V20.4Z" fill="currentColor"/>
</svg>
