<svg width="32" height="32" viewBox="0 0 32 32" fill="none" xmlns="http://www.w3.org/2000/svg">
<path d="M13.2778 9.6H22.9444C23.3717 9.6 23.7815 9.43143 24.0837 9.13137C24.3858 8.83131 24.5556 8.42435 24.5556 8C24.5556 7.57565 24.3858 7.16869 24.0837 6.86863C23.7815 6.56857 23.3717 6.4 22.9444 6.4H13.2778C12.8505 6.4 12.4407 6.56857 12.1386 6.86863C11.8364 7.16869 11.6667 7.57565 11.6667 8C11.6667 8.42435 11.8364 8.83131 12.1386 9.13137C12.4407 9.43143 12.8505 9.6 13.2778 9.6V9.6ZM10.0556 16H22.9444C23.3717 16 23.7815 15.8314 24.0837 15.5314C24.3858 15.2313 24.5556 14.8243 24.5556 14.4C24.5556 13.9757 24.3858 13.5687 24.0837 13.2686C23.7815 12.9686 23.3717 12.8 22.9444 12.8H10.0556C9.62826 12.8 9.21847 12.9686 8.91633 13.2686C8.61419 13.5687 8.44444 13.9757 8.44444 14.4C8.44444 14.8243 8.61419 15.2313 8.91633 15.5314C9.21847 15.8314 9.62826 16 10.0556 16ZM10.0556 22.4H22.9444C23.3717 22.4 23.7815 22.2314 24.0837 21.9314C24.3858 21.6313 24.5556 21.2243 24.5556 20.8C24.5556 20.3757 24.3858 19.9687 24.0837 19.6686C23.7815 19.3686 23.3717 19.2 22.9444 19.2H10.0556C9.62826 19.2 9.21847 19.3686 8.91633 19.6686C8.61419 19.9687 8.44444 20.3757 8.44444 20.8C8.44444 21.2243 8.61419 21.6313 8.91633 21.9314C9.21847 22.2314 9.62826 22.4 10.0556 22.4ZM29.3889 0H3.61111C3.18382 0 2.77403 0.168571 2.47188 0.468629C2.16974 0.768687 2 1.17565 2 1.6V30.4C2 30.6971 2.08332 30.9884 2.24062 31.2412C2.39792 31.4939 2.62299 31.6982 2.8906 31.8311C3.15822 31.964 3.4578 32.0202 3.7558 31.9935C4.05379 31.9668 4.33842 31.8583 4.57778 31.68L7.91278 29.2L11.2317 31.68C11.5105 31.8877 11.8497 32 12.1983 32C12.5469 32 12.8861 31.8877 13.165 31.68L16.5 29.2L19.835 31.68C20.1139 31.8877 20.4531 32 20.8017 32C21.1503 32 21.4895 31.8877 21.7683 31.68L25.0872 29.2L28.4222 31.68C28.6627 31.858 28.9485 31.9658 29.2474 31.9913C29.5463 32.0167 29.8464 31.9588 30.1139 31.824C30.3796 31.691 30.603 31.4876 30.7594 31.2363C30.9158 30.9849 30.9991 30.6955 31 30.4V1.6C31 1.17565 30.8303 0.768687 30.5281 0.468629C30.226 0.168571 29.8162 0 29.3889 0V0ZM27.7778 27.2L26.0539 25.92C25.775 25.7123 25.4358 25.6 25.0872 25.6C24.7386 25.6 24.3994 25.7123 24.1206 25.92L20.8017 28.4L17.4667 25.92C17.1878 25.7123 16.8486 25.6 16.5 25.6C16.1514 25.6 15.8122 25.7123 15.5333 25.92L12.1983 28.4L8.87944 25.92C8.60057 25.7123 8.26137 25.6 7.91278 25.6C7.56418 25.6 7.22499 25.7123 6.94611 25.92L5.22222 27.2V3.2H27.7778V27.2Z" fill="currentColor"/>
</svg>
