<svg width="32" height="32" viewBox="0 0 32 32" fill="none" xmlns="http://www.w3.org/2000/svg">
<path d="M27.2 3.2H24V1.6C24 1.17565 23.8314 0.768687 23.5314 0.468629C23.2313 0.168571 22.8243 0 22.4 0C21.9757 0 21.5687 0.168571 21.2686 0.468629C20.9686 0.768687 20.8 1.17565 20.8 1.6V3.2H11.2V1.6C11.2 1.17565 11.0314 0.768687 10.7314 0.468629C10.4313 0.168571 10.0243 0 9.6 0C9.17565 0 8.76869 0.168571 8.46863 0.468629C8.16857 0.768687 8 1.17565 8 1.6V3.2H4.8C3.52696 3.2 2.30606 3.70571 1.40589 4.60589C0.505713 5.50606 0 6.72696 0 8V27.2C0 28.473 0.505713 29.6939 1.40589 30.5941C2.30606 31.4943 3.52696 32 4.8 32H27.2C28.473 32 29.6939 31.4943 30.5941 30.5941C31.4943 29.6939 32 28.473 32 27.2V8C32 6.72696 31.4943 5.50606 30.5941 4.60589C29.6939 3.70571 28.473 3.2 27.2 3.2ZM28.8 27.2C28.8 27.6243 28.6314 28.0313 28.3314 28.3314C28.0313 28.6314 27.6243 28.8 27.2 28.8H4.8C4.37565 28.8 3.96869 28.6314 3.66863 28.3314C3.36857 28.0313 3.2 27.6243 3.2 27.2V16H28.8V27.2ZM28.8 12.8H3.2V8C3.2 7.57565 3.36857 7.16869 3.66863 6.86863C3.96869 6.56857 4.37565 6.4 4.8 6.4H8V8C8 8.42435 8.16857 8.83131 8.46863 9.13137C8.76869 9.43143 9.17565 9.6 9.6 9.6C10.0243 9.6 10.4313 9.43143 10.7314 9.13137C11.0314 8.83131 11.2 8.42435 11.2 8V6.4H20.8V8C20.8 8.42435 20.9686 8.83131 21.2686 9.13137C21.5687 9.43143 21.9757 9.6 22.4 9.6C22.8243 9.6 23.2313 9.43143 23.5314 9.13137C23.8314 8.83131 24 8.42435 24 8V6.4H27.2C27.6243 6.4 28.0313 6.56857 28.3314 6.86863C28.6314 7.16869 28.8 7.57565 28.8 8V12.8Z" fill="currentColor"/>
</svg>
