<?xml version="1.0" encoding="UTF-8"?>
<svg width="32px" height="32px" viewBox="0 0 32 32" version="1.1" xmlns="http://www.w3.org/2000/svg" xmlns:xlink="http://www.w3.org/1999/xlink">
    <!-- Generator: Sketch 48.2 (47327) - http://www.bohemiancoding.com/sketch -->
    <title>Calendar32</title>
    <desc>Created with Sketch.</desc>
    <defs></defs>
    <g id="Page-1" stroke="none" stroke-width="1" fill="none" fill-rule="evenodd">
        <g id="Calendar32" fill="#000000" fill-rule="nonzero">
            <path d="M22,1 C22,0.44771525 22.4477153,0 23,0 C23.5522847,0 24,0.44771525 24,1 L24,7 C24,7.55228475 23.5522847,8 23,8 C22.4477153,8 22,7.55228475 22,7 L22,1 Z M8,1 C8,0.44771525 8.44771525,0 9,0 C9.55228475,0 10,0.44771525 10,1 L10,7 C10,7.55228475 9.55228475,8 9,8 C8.44771525,8 8,7.55228475 8,7 L8,1 Z M1,14 C0.44771525,14 0,13.5522847 0,13 C0,12.4477153 0.44771525,12 1,12 L31,12 C31.5522847,12 32,12.4477153 32,13 C32,13.5522847 31.5522847,14 31,14 L1,14 Z M3,6 C2.44771525,6 2,6.42980664 2,7 L2,29 C2,29.5701934 2.44771525,30 3,30 L29,30 C29.5522847,30 30,29.5701934 30,29 L30,7 C30,6.42980664 29.5522847,6 29,6 L3,6 Z M3,4 L29,4 C30.6568542,4 32,5.29683038 32,7 L32,29 C32,30.7031696 30.6568542,32 29,32 L3,32 C1.34314575,32 2.22044605e-16,30.7031696 0,29 L0,7 C-2.22044605e-16,5.29683038 1.34314575,4 3,4 Z"></path>
        </g>
    </g>
</svg>