<?xml version="1.0" encoding="UTF-8"?>
<svg width="24px" height="24px" viewBox="0 0 24 24" version="1.1" xmlns="http://www.w3.org/2000/svg" xmlns:xlink="http://www.w3.org/1999/xlink">
    <!-- Generator: Sketch 48.1 (47250) - http://www.bohemiancoding.com/sketch -->
    <title>Calendar24</title>
    <desc>Created with Sketch.</desc>
    <defs></defs>
    <g id="Page-1" stroke="none" stroke-width="1" fill="none" fill-rule="evenodd">
        <g id="Calendar24" fill="#000000" fill-rule="nonzero">
            <path d="M3,4 C2.44771525,4 2,4.44771525 2,5 L2,21 C2,21.5522847 2.44771525,22 3,22 L21,22 C21.5522847,22 22,21.5522847 22,21 L22,5 C22,4.44771525 21.5522847,4 21,4 L3,4 Z M3,2 L21,2 C22.6568542,2 24,3.34314575 24,5 L24,21 C24,22.6568542 22.6568542,24 21,24 L3,24 C1.34314575,24 3.33066907e-16,22.6568542 0,21 L0,5 C-1.66533454e-16,3.34314575 1.34314575,2 3,2 Z M6,1 C6,0.44771525 6.44771525,0 7,0 C7.55228475,0 8,0.44771525 8,1 L8,5 C8,5.55228475 7.55228475,6 7,6 C6.44771525,6 6,5.55228475 6,5 L6,1 Z M16,1 C16,0.44771525 16.4477153,0 17,0 C17.5522847,0 18,0.44771525 18,1 L18,5 C18,5.55228475 17.5522847,6 17,6 C16.4477153,6 16,5.55228475 16,5 L16,1 Z M2,10 C1.44771525,10 1,9.55228475 1,9 C1,8.44771525 1.44771525,8 2,8 L22,8 C22.5522847,8 23,8.44771525 23,9 C23,9.55228475 22.5522847,10 22,10 L2,10 Z"></path>
        </g>
    </g>
</svg>