<?xml version="1.0" encoding="UTF-8"?>
<svg width="32px" height="32px" viewBox="0 0 32 32" version="1.1" xmlns="http://www.w3.org/2000/svg" xmlns:xlink="http://www.w3.org/1999/xlink">
    <!-- Generator: Sketch 48.2 (47327) - http://www.bohemiancoding.com/sketch -->
    <title>Camera32</title>
    <desc>Created with Sketch.</desc>
    <defs></defs>
    <g id="Page-1" stroke="none" stroke-width="1" fill="none" fill-rule="evenodd">
        <g id="Camera32" fill="#000000" fill-rule="nonzero">
            <path d="M12.4375934,5 L10.0080455,8.56333682 C9.82176967,8.83654142 9.51248334,9 9.18181818,9 L3.72727273,9 C2.76835904,9 2,9.7512844 2,10.6666667 L2,25.3333333 C2,26.2487156 2.76835904,27 3.72727273,27 L28.2727273,27 C29.231641,27 30,26.2487156 30,25.3333333 L30,10.6666667 C30,9.7512844 29.231641,9 28.2727273,9 L22.8181818,9 C22.4875167,9 22.1782303,8.83654142 21.9919545,8.56333682 L19.5624066,5 L12.4375934,5 Z M23.3466843,7 L28.2727273,7 C30.3262759,7 32,8.63653027 32,10.6666667 L32,25.3333333 C32,27.3634697 30.3262759,29 28.2727273,29 L3.72727273,29 C1.67372414,29 3.06079089e-16,27.3634697 0,25.3333333 L0,10.6666667 C-1.53039544e-16,8.63653027 1.67372414,7 3.72727273,7 L8.65331573,7 L11.0828636,3.43666318 C11.2691394,3.16345858 11.5784258,3 11.9090909,3 L20.0909091,3 C20.4215742,3 20.7308606,3.16345858 20.9171364,3.43666318 L23.3466843,7 Z M16,23 C12.6862915,23 10,20.3137085 10,17 C10,13.6862915 12.6862915,11 16,11 C19.3137085,11 22,13.6862915 22,17 C22,20.3137085 19.3137085,23 16,23 Z M16,21 C18.209139,21 20,19.209139 20,17 C20,14.790861 18.209139,13 16,13 C13.790861,13 12,14.790861 12,17 C12,19.209139 13.790861,21 16,21 Z"></path>
        </g>
    </g>
</svg>