<?xml version="1.0" encoding="UTF-8"?>
<svg width="24px" height="24px" viewBox="0 0 24 24" version="1.1" xmlns="http://www.w3.org/2000/svg" xmlns:xlink="http://www.w3.org/1999/xlink">
    <!-- Generator: Sketch 48.2 (47327) - http://www.bohemiancoding.com/sketch -->
    <title>Card24</title>
    <desc>Created with Sketch.</desc>
    <defs></defs>
    <g id="Page-1" stroke="none" stroke-width="1" fill="none" fill-rule="evenodd">
        <g id="Card24" fill="#000000" fill-rule="nonzero">
            <path d="M3,6 C2.44771525,6 2,6.44771525 2,7 L2,19 C2,19.5522847 2.44771525,20 3,20 L21,20 C21.5522847,20 22,19.5522847 22,19 L22,7 C22,6.44771525 21.5522847,6 21,6 L3,6 Z M3,4 L21,4 C22.6568542,4 24,5.34314575 24,7 L24,19 C24,20.6568542 22.6568542,22 21,22 L3,22 C1.34314575,22 3.33066907e-16,20.6568542 0,19 L0,7 C-1.66533454e-16,5.34314575 1.34314575,4 3,4 Z M1,12 C0.44771525,12 0,11.5522847 0,11 C0,10.4477153 0.44771525,10 1,10 L23,10 C23.5522847,10 24,10.4477153 24,11 C24,11.5522847 23.5522847,12 23,12 L1,12 Z"></path>
        </g>
    </g>
</svg>