<svg width="24" height="24" viewBox="0 0 24 24" fill="none" xmlns="http://www.w3.org/2000/svg">
<path d="M8.125 20.2105C7.75416 20.2105 7.39165 20.3217 7.08331 20.5298C6.77496 20.738 6.53464 21.034 6.39273 21.3802C6.25081 21.7264 6.21368 22.1074 6.28603 22.4749C6.35837 22.8424 6.53695 23.1801 6.79917 23.445C7.0614 23.71 7.39549 23.8905 7.7592 23.9636C8.12292 24.0367 8.49992 23.9992 8.84253 23.8558C9.18514 23.7124 9.47798 23.4695 9.68401 23.1579C9.89003 22.8463 10 22.48 10 22.1053C10 21.6027 9.80246 21.1208 9.45083 20.7655C9.09919 20.4102 8.62228 20.2105 8.125 20.2105ZM21.25 16.4211H6.25C5.91848 16.4211 5.60054 16.288 5.36612 16.0511C5.1317 15.8142 5 15.4929 5 15.1579C5 14.8229 5.1317 14.5016 5.36612 14.2647C5.60054 14.0278 5.91848 13.8947 6.25 13.8947H16.864C17.6783 13.8921 18.4698 13.6228 19.1199 13.1274C19.77 12.6319 20.2437 11.9368 20.47 11.1464L22.4518 4.13672C22.505 3.94872 22.5142 3.75082 22.4788 3.5586C22.4435 3.36638 22.3644 3.18507 22.2479 3.02897C22.1314 2.87286 21.9806 2.74621 21.8075 2.65899C21.6343 2.57176 21.4435 2.52635 21.25 2.52632H5.92384C5.66507 1.79035 5.18805 1.1529 4.55778 0.700817C3.92751 0.248738 3.17463 0.00401779 2.40174 0H1.25C0.918479 0 0.600537 0.133082 0.366116 0.36997C0.131696 0.606858 0 0.928148 0 1.26316C0 1.59817 0.131696 1.91946 0.366116 2.15635C0.600537 2.39323 0.918479 2.52632 1.25 2.52632H2.40174C2.67309 2.52727 2.93684 2.61703 3.15348 2.78214C3.37013 2.94726 3.52802 3.17885 3.60351 3.44223L3.79791 4.13032L3.79821 4.13672L5.849 11.39C4.8947 11.4937 4.01609 11.9633 3.39408 12.702C2.77207 13.4406 2.45402 14.3922 2.50541 15.3607C2.5568 16.3292 2.97372 17.241 3.67033 17.9082C4.36694 18.5754 5.2902 18.9473 6.25 18.9474H21.25C21.5815 18.9474 21.8995 18.8143 22.1339 18.5774C22.3683 18.3405 22.5 18.0192 22.5 17.6842C22.5 17.3492 22.3683 17.0279 22.1339 16.791C21.8995 16.5541 21.5815 16.4211 21.25 16.4211ZM19.5929 5.05263L18.0664 10.4519C17.991 10.7155 17.8331 10.9473 17.6163 11.1125C17.3995 11.2778 17.1355 11.3676 16.864 11.3684H8.44299L8.12431 10.2414L6.65802 5.05263H19.5929ZM18.125 20.2105C17.7542 20.2105 17.3916 20.3217 17.0833 20.5298C16.775 20.738 16.5346 21.034 16.3927 21.3802C16.2508 21.7264 16.2137 22.1074 16.286 22.4749C16.3584 22.8424 16.537 23.1801 16.7992 23.445C17.0614 23.71 17.3955 23.8905 17.7592 23.9636C18.1229 24.0367 18.4999 23.9992 18.8425 23.8558C19.1851 23.7124 19.478 23.4695 19.684 23.1579C19.89 22.8463 20 22.48 20 22.1053C20 21.6027 19.8025 21.1208 19.4508 20.7655C19.0992 20.4102 18.6223 20.2105 18.125 20.2105Z" fill="currentColor"/>
</svg>
