<svg width="32" height="32" viewBox="0 0 32 32" fill="none" xmlns="http://www.w3.org/2000/svg">
<path d="M10.8333 26.9474C10.3389 26.9474 9.85553 27.0955 9.44441 27.3731C9.03328 27.6507 8.71285 28.0453 8.52363 28.5069C8.33442 28.9685 8.28491 29.4765 8.38137 29.9665C8.47783 30.4566 8.71593 30.9067 9.06557 31.2601C9.4152 31.6134 9.86065 31.854 10.3456 31.9515C10.8306 32.0489 11.3332 31.9989 11.79 31.8077C12.2469 31.6165 12.6373 31.2927 12.912 30.8772C13.1867 30.4618 13.3333 29.9733 13.3333 29.4737C13.3333 28.8037 13.0699 28.1611 12.6011 27.6873C12.1323 27.2135 11.4964 26.9474 10.8333 26.9474ZM28.3333 21.8947H8.33333C7.89131 21.8947 7.46738 21.7173 7.15482 21.4014C6.84226 21.0856 6.66667 20.6572 6.66667 20.2105C6.66667 19.7638 6.84226 19.3355 7.15482 19.0196C7.46738 18.7038 7.89131 18.5263 8.33333 18.5263H22.4853C23.5711 18.5228 24.6264 18.1638 25.4932 17.5031C26.36 16.8425 26.9916 15.9158 27.2933 14.8618L29.9357 5.51562C30.0066 5.26496 30.0189 5.0011 29.9718 4.7448C29.9246 4.4885 29.8192 4.24676 29.6639 4.03862C29.5085 3.83048 29.3075 3.66161 29.0766 3.54531C28.8458 3.42902 28.5913 3.36846 28.3333 3.36842H7.89845C7.55343 2.38713 6.9174 1.5372 6.07704 0.934423C5.23668 0.331651 4.23284 0.00535705 3.20232 0H1.66667C1.22464 0 0.800716 0.177443 0.488155 0.493294C0.175595 0.809144 0 1.23753 0 1.68421C0 2.13089 0.175595 2.55928 0.488155 2.87513C0.800716 3.19098 1.22464 3.36842 1.66667 3.36842H3.20232C3.56412 3.3697 3.91578 3.48937 4.20464 3.70952C4.49351 3.92968 4.70403 4.23846 4.80468 4.58964L5.06388 5.5071L5.06428 5.51562L7.79867 15.1867C6.52627 15.325 5.35479 15.9511 4.52544 16.936C3.6961 17.9209 3.27202 19.1896 3.34054 20.481C3.40906 21.7723 3.96496 22.988 4.89377 23.8776C5.82258 24.7672 7.05359 25.2631 8.33333 25.2632H28.3333C28.7754 25.2632 29.1993 25.0857 29.5118 24.7699C29.8244 24.454 30 24.0256 30 23.5789C30 23.1323 29.8244 22.7039 29.5118 22.388C29.1993 22.0722 28.7754 21.8947 28.3333 21.8947ZM26.1239 6.73684L24.0885 13.9358C23.988 14.2873 23.7774 14.5964 23.4884 14.8167C23.1993 15.037 22.8474 15.1567 22.4853 15.1579H11.2573L10.8324 13.6552L8.87737 6.73684H26.1239ZM24.1667 26.9474C23.6722 26.9474 23.1889 27.0955 22.7777 27.3731C22.3666 27.6507 22.0462 28.0453 21.857 28.5069C21.6677 28.9685 21.6182 29.4765 21.7147 29.9665C21.8112 30.4566 22.0493 30.9067 22.3989 31.2601C22.7485 31.6134 23.194 31.854 23.6789 31.9515C24.1639 32.0489 24.6666 31.9989 25.1234 31.8077C25.5802 31.6165 25.9706 31.2927 26.2453 30.8772C26.52 30.4618 26.6667 29.9733 26.6667 29.4737C26.6667 28.8037 26.4033 28.1611 25.9344 27.6873C25.4656 27.2135 24.8297 26.9474 24.1667 26.9474Z" fill="currentColor"/>
</svg>
