<?xml version="1.0" encoding="UTF-8"?>
<svg width="24px" height="24px" viewBox="0 0 24 24" version="1.1" xmlns="http://www.w3.org/2000/svg" xmlns:xlink="http://www.w3.org/1999/xlink">
    <!-- Generator: Sketch 48.2 (47327) - http://www.bohemiancoding.com/sketch -->
    <title>ChartBars24</title>
    <desc>Created with Sketch.</desc>
    <defs></defs>
    <g id="Page-1" stroke="none" stroke-width="1" fill="none" fill-rule="evenodd">
        <g id="ChartBars24" fill="#000000" fill-rule="nonzero">
            <path d="M11,10 L11,22 L13,22 L13,10 L11,10 Z M10,8 L14,8 C14.5522847,8 15,8.44771525 15,9 L15,23 C15,23.5522847 14.5522847,24 14,24 L10,24 C9.44771525,24 9,23.5522847 9,23 L9,9 C9,8.44771525 9.44771525,8 10,8 Z M20,2 L20,22 L22,22 L22,2 L20,2 Z M19,0 L23,0 C23.5522847,0 24,0.44771525 24,1 L24,23 C24,23.5522847 23.5522847,24 23,24 L19,24 C18.4477153,24 18,23.5522847 18,23 L18,1 C18,0.44771525 18.4477153,0 19,0 Z M2,16 L2,22 L4,22 L4,16 L2,16 Z M1,14 L5,14 C5.55228475,14 6,14.4477153 6,15 L6,23 C6,23.5522847 5.55228475,24 5,24 L1,24 C0.44771525,24 0,23.5522847 0,23 L0,15 C0,14.4477153 0.44771525,14 1,14 Z"></path>
        </g>
    </g>
</svg>