<?xml version="1.0" encoding="UTF-8"?>
<svg width="24px" height="24px" viewBox="0 0 24 24" version="1.1" xmlns="http://www.w3.org/2000/svg" xmlns:xlink="http://www.w3.org/1999/xlink">
    <!-- Generator: Sketch 48.1 (47250) - http://www.bohemiancoding.com/sketch -->
    <title>CahrtPie24</title>
    <desc>Created with Sketch.</desc>
    <defs></defs>
    <g id="Page-1" stroke="none" stroke-width="1" fill="none" fill-rule="evenodd">
        <g id="CahrtPie24" fill="#000000" fill-rule="nonzero">
            <path d="M20.0831098,16.2894219 C20.2882489,15.8011506 20.8674843,15.564734 21.3768684,15.7613705 C21.8862525,15.958007 22.1328918,16.5132345 21.9277527,17.0015058 C19.9369106,21.7401009 15.0305911,24.5714068 9.93100236,23.902758 C4.83919278,23.2351292 0.829391977,19.2451716 0.112834884,14.1629096 C-0.602657135,9.08820179 2.13742773,4.14833333 6.83101297,2.0868583 C7.33024108,1.86759174 7.920382,2.07777136 8.14912961,2.55630761 C8.37787723,3.03484387 8.15860947,3.60052481 7.65938136,3.81979137 C3.772607,5.52690605 1.48371407,9.65335854 2.08352896,13.9076133 C2.68227878,18.1543139 6.00900313,21.4645753 10.2005101,22.0141581 C14.3842379,22.5627209 18.4278527,20.2292588 20.0831098,16.2894219 Z M24,13 C24,13.5522847 23.5522847,14 23,14 L13,14 C12.4477153,14 12,13.5522847 12,13 L12,1 C12,0.44771525 12.4477153,0 13,0 C15.9578752,2.47639289e-16 18.7791002,1.40230761 20.8392891,3.87453423 C22.8679485,6.30892548 24,9.58854247 24,13 Z M19.3028465,5.15490303 C17.8539969,3.41628351 15.9825744,2.34047635 14,2.0684052 L14,12 L21.9626382,12 C21.7689958,9.41468897 20.8294299,6.98680311 19.3028465,5.15490303 Z"></path>
        </g>
    </g>
</svg>