<?xml version="1.0" encoding="UTF-8"?>
<svg width="32px" height="32px" viewBox="0 0 32 32" version="1.1" xmlns="http://www.w3.org/2000/svg" xmlns:xlink="http://www.w3.org/1999/xlink">
    <!-- Generator: Sketch 48.2 (47327) - http://www.bohemiancoding.com/sketch -->
    <title>NumberTransaction32</title>
    <desc>Created with Sketch.</desc>
    <defs></defs>
    <g id="Page-1" stroke="none" stroke-width="1" fill="none" fill-rule="evenodd">
        <g id="NumberTransaction32" fill="#000000" fill-rule="nonzero">
            <path d="M26,10 L26,30 L30,30 L30,10 L26,10 Z M25,8 L31,8 C31.5522847,8 32,8.44771525 32,9 L32,31 C32,31.5522847 31.5522847,32 31,32 L25,32 C24.4477153,32 24,31.5522847 24,31 L24,9 C24,8.44771525 24.4477153,8 25,8 Z M2,18 L2,30 L6,30 L6,18 L2,18 Z M1,16 L7,16 C7.55228475,16 8,16.4775629 8,17 L8,31 C8,31.5224371 7.55228475,32 7,32 L1,32 C0.44771525,32 0,31.5224371 0,31 L0,17 C0,16.4775629 0.44771525,16 1,16 Z M14,2 L14,30 L18,30 L18,2 L14,2 Z M13,0 L19,0 C19.5522847,0 20,0.44771525 20,1 L20,31 C20,31.5522847 19.5522847,32 19,32 L13,32 C12.4477153,32 12,31.5522847 12,31 L12,1 C12,0.44771525 12.4477153,0 13,0 Z"></path>
        </g>
    </g>
</svg>