<?xml version="1.0" encoding="UTF-8"?>
<svg width="32px" height="32px" viewBox="0 0 32 32" version="1.1" xmlns="http://www.w3.org/2000/svg" xmlns:xlink="http://www.w3.org/1999/xlink">
    <!-- Generator: Sketch 48.1 (47250) - http://www.bohemiancoding.com/sketch -->
    <title>ChartBars32</title>
    <desc>Created with Sketch.</desc>
    <defs></defs>
    <g id="Page-1" stroke="none" stroke-width="1" fill="none" fill-rule="evenodd">
        <g id="ChartBars32" fill="#000000" fill-rule="nonzero">
            <path d="M14,10 L14,30 L18,30 L18,10 L14,10 Z M13,8 L19,8 C19.5522847,8 20,8.46718113 20,9.04347826 L20,30.9565217 C20,31.5328189 19.5522847,32 19,32 L13,32 C12.4477153,32 12,31.5328189 12,30.9565217 L12,9.04347826 C12,8.46718113 12.4477153,8 13,8 Z M2,20 L2,30 L6,30 L6,20 L2,20 Z M1,18 L7,18 C7.55228475,18 8,18.4477153 8,19 L8,31 C8,31.5522847 7.55228475,32 7,32 L1,32 C0.44771525,32 0,31.5522847 0,31 L0,19 C0,18.4477153 0.44771525,18 1,18 Z M26,2 L26,30 L30,30 L30,2 L26,2 Z M25,0 L31,0 C31.5522847,0 32,0.44771525 32,1 L32,31 C32,31.5522847 31.5522847,32 31,32 L25,32 C24.4477153,32 24,31.5522847 24,31 L24,1 C24,0.44771525 24.4477153,0 25,0 Z" id="ChartBarsRising32"></path>
        </g>
    </g>
</svg>