<?xml version="1.0" encoding="UTF-8"?>
<svg width="24px" height="24px" viewBox="0 0 24 24" version="1.1" xmlns="http://www.w3.org/2000/svg" xmlns:xlink="http://www.w3.org/1999/xlink">
    <!-- Generator: Sketch 48.2 (47327) - http://www.bohemiancoding.com/sketch -->
    <title>NumberTransaction24</title>
    <desc>Created with Sketch.</desc>
    <defs></defs>
    <g id="Page-1" stroke="none" stroke-width="1" fill="none" fill-rule="evenodd">
        <g id="NumberTransaction24" fill="#000000" fill-rule="nonzero">
            <path d="M20,12 L20,22 L22,22 L22,12 L20,12 Z M19,10 L23,10 C23.5522847,10 24,10.4477153 24,11 L24,23 C24,23.5522847 23.5522847,24 23,24 L19,24 C18.4477153,24 18,23.5522847 18,23 L18,11 C18,10.4477153 18.4477153,10 19,10 Z M2,16 L2,22 L4,22 L4,16 L2,16 Z M1,14 L5,14 C5.55228475,14 6,14.4477153 6,15 L6,23 C6,23.5522847 5.55228475,24 5,24 L1,24 C0.44771525,24 0,23.5522847 0,23 L0,15 C0,14.4477153 0.44771525,14 1,14 Z M10,2 L10,22 L12,22 L12,2 L10,2 Z M9,0 L13,0 C13.5522847,0 14,0.44771525 14,1 L14,23 C14,23.5522847 13.5522847,24 13,24 L9,24 C8.44771525,24 8,23.5522847 8,23 L8,1 C8,0.44771525 8.44771525,0 9,0 Z"></path>
        </g>
    </g>
</svg>