<?xml version="1.0" encoding="UTF-8"?>
<svg width="24px" height="24px" viewBox="0 0 24 24" version="1.1" xmlns="http://www.w3.org/2000/svg" xmlns:xlink="http://www.w3.org/1999/xlink">
    <!-- Generator: Sketch 48.1 (47250) - http://www.bohemiancoding.com/sketch -->
    <title>ChartBars24</title>
    <desc>Created with Sketch.</desc>
    <defs></defs>
    <g id="Page-1" stroke="none" stroke-width="1" fill="none" fill-rule="evenodd">
        <g id="ChartBars24" fill="#000000" fill-rule="nonzero">
            <path d="M20,12 L20,22 L22,22 L22,12 L20,12 Z M19,10 L23,10 C23.5522847,10 24,10.4477153 24,11 L24,23 C24,23.5522847 23.5522847,24 23,24 L19,24 C18.4477153,24 18,23.5522847 18,23 L18,11 C18,10.4477153 18.4477153,10 19,10 Z M2,16 L2,22 L4,22 L4,16 L2,16 Z M1,14 L5,14 C5.55228475,14 6,14.4477153 6,15 L6,23 C6,23.5522847 5.55228475,24 5,24 L1,24 C0.44771525,24 0,23.5522847 0,23 L0,15 C0,14.4477153 0.44771525,14 1,14 Z M11,2 L11,22 L13,22 L13,2 L11,2 Z M10,0 L14,0 C14.5522847,0 15,0.44771525 15,1 L15,23 C15,23.5522847 14.5522847,24 14,24 L10,24 C9.44771525,24 9,23.5522847 9,23 L9,1 C9,0.44771525 9.44771525,0 10,0 Z"></path>
        </g>
    </g>
</svg>