<?xml version="1.0" encoding="UTF-8"?>
<svg width="32px" height="32px" viewBox="0 0 32 32" version="1.1" xmlns="http://www.w3.org/2000/svg" xmlns:xlink="http://www.w3.org/1999/xlink">
    <!-- Generator: Sketch 48.2 (47327) - http://www.bohemiancoding.com/sketch -->
    <title>ChartPie32</title>
    <desc>Created with Sketch.</desc>
    <defs></defs>
    <g id="Page-1" stroke="none" stroke-width="1" fill="none" fill-rule="evenodd">
        <g id="ChartPie32" fill="#000000" fill-rule="nonzero">
            <path d="M29.0357565,21.7241954 C29.2459632,21.2243736 29.8395076,20.9823642 30.3614751,21.1836524 C30.8834426,21.3849406 31.1361746,21.9533025 30.925968,22.4531244 C28.2066422,28.9190395 21.5116618,32.7785859 14.5565253,31.8675729 C7.60936028,30.9576041 2.1336391,25.5145483 1.15432638,18.5757603 C0.176105044,11.644705 3.92082588,4.90056163 10.3289615,2.08891302 C10.8405222,1.86445949 11.4452414,2.07961113 11.6796398,2.56946766 C11.9140383,3.05932419 11.6893539,3.63838691 11.1777933,3.86284045 C5.59639927,6.31174595 2.31401624,12.2232312 3.17370286,18.3144246 C4.03229809,24.3978852 8.80806867,29.1451659 14.8326908,29.9342962 C20.8493415,30.7223824 26.6603058,27.3724568 29.0357565,21.7241954 Z M31,16.9411765 C31,17.5259486 30.5601394,18 30.0175439,18 L15.9824561,18 C15.4398606,18 15,17.5259486 15,16.9411765 L15,1.05882353 C15,0.474051441 15.4398606,1.33226763e-15 15.9824561,1.33226763e-15 C19.9755934,1.83668774e-15 23.8019692,1.7935424 26.6181956,4.98043388 C29.425434,8.15715439 31,12.4588162 31,16.9411765 Z M25.1953281,6.44088013 C22.9806786,3.93474367 20.0576982,2.42473691 16.9649123,2.1596768 L16.9649123,15.8823529 L29.0017708,15.8823529 C28.7777222,12.3276899 27.4313453,8.97119665 25.1953281,6.44088013 Z"></path>
        </g>
    </g>
</svg>