<svg width="24" height="24" viewBox="0 0 24 24" fill="none" xmlns="http://www.w3.org/2000/svg">
<g clip-path="url(#clip0)">
<path d="M18 6H6C5.68174 6 5.37652 6.12643 5.15147 6.35147C4.92643 6.57652 4.8 6.88174 4.8 7.2C4.8 7.51826 4.92643 7.82348 5.15147 8.04853C5.37652 8.27357 5.68174 8.4 6 8.4H18C18.3183 8.4 18.6235 8.27357 18.8485 8.04853C19.0736 7.82348 19.2 7.51826 19.2 7.2C19.2 6.88174 19.0736 6.57652 18.8485 6.35147C18.6235 6.12643 18.3183 6 18 6ZM18 10.8H6C5.68174 10.8 5.37652 10.9264 5.15147 11.1515C4.92643 11.3765 4.8 11.6817 4.8 12C4.8 12.3183 4.92643 12.6235 5.15147 12.8485C5.37652 13.0736 5.68174 13.2 6 13.2H18C18.3183 13.2 18.6235 13.0736 18.8485 12.8485C19.0736 12.6235 19.2 12.3183 19.2 12C19.2 11.6817 19.0736 11.3765 18.8485 11.1515C18.6235 10.9264 18.3183 10.8 18 10.8ZM20.4 0H3.6C2.64522 0 1.72955 0.379285 1.05442 1.05442C0.379285 1.72955 0 2.64522 0 3.6V15.6C0 16.5548 0.379285 17.4705 1.05442 18.1456C1.72955 18.8207 2.64522 19.2 3.6 19.2H17.508L21.948 23.652C22.0601 23.7632 22.1931 23.8512 22.3393 23.9109C22.4855 23.9706 22.6421 24.0009 22.8 24C22.9574 24.0041 23.1136 23.9712 23.256 23.904C23.4751 23.814 23.6627 23.6611 23.7951 23.4646C23.9275 23.2682 23.9988 23.0369 24 22.8V3.6C24 2.64522 23.6207 1.72955 22.9456 1.05442C22.2705 0.379285 21.3548 0 20.4 0ZM21.6 19.908L18.852 17.148C18.7399 17.0368 18.6069 16.9488 18.4607 16.8891C18.3145 16.8294 18.1579 16.7991 18 16.8H3.6C3.28174 16.8 2.97652 16.6736 2.75147 16.4485C2.52643 16.2235 2.4 15.9183 2.4 15.6V3.6C2.4 3.28174 2.52643 2.97652 2.75147 2.75147C2.97652 2.52643 3.28174 2.4 3.6 2.4H20.4C20.7183 2.4 21.0235 2.52643 21.2485 2.75147C21.4736 2.97652 21.6 3.28174 21.6 3.6V19.908Z" fill="currentColor"/>
</g>
<defs>
<clipPath id="clip0">
<rect width="24" height="24" fill="white"/>
</clipPath>
</defs>
</svg>
