<svg width="32" height="32" viewBox="0 0 32 32" fill="none" xmlns="http://www.w3.org/2000/svg">
<g clip-path="url(#clip0)">
<path d="M24 8H8C7.57565 8 7.16869 8.16857 6.86863 8.46863C6.56857 8.76869 6.4 9.17565 6.4 9.6C6.4 10.0243 6.56857 10.4313 6.86863 10.7314C7.16869 11.0314 7.57565 11.2 8 11.2H24C24.4243 11.2 24.8313 11.0314 25.1314 10.7314C25.4314 10.4313 25.6 10.0243 25.6 9.6C25.6 9.17565 25.4314 8.76869 25.1314 8.46863C24.8313 8.16857 24.4243 8 24 8ZM24 14.4H8C7.57565 14.4 7.16869 14.5686 6.86863 14.8686C6.56857 15.1687 6.4 15.5757 6.4 16C6.4 16.4243 6.56857 16.8313 6.86863 17.1314C7.16869 17.4314 7.57565 17.6 8 17.6H24C24.4243 17.6 24.8313 17.4314 25.1314 17.1314C25.4314 16.8313 25.6 16.4243 25.6 16C25.6 15.5757 25.4314 15.1687 25.1314 14.8686C24.8313 14.5686 24.4243 14.4 24 14.4ZM27.2 0H4.8C3.52696 0 2.30606 0.505713 1.40589 1.40589C0.505713 2.30606 0 3.52696 0 4.8V20.8C0 22.073 0.505713 23.2939 1.40589 24.1941C2.30606 25.0943 3.52696 25.6 4.8 25.6H23.344L29.264 31.536C29.4135 31.6843 29.5908 31.8016 29.7857 31.8812C29.9807 31.9609 30.1894 32.0012 30.4 32C30.6099 32.0054 30.8181 31.9616 31.008 31.872C31.3002 31.752 31.5503 31.5481 31.7268 31.2862C31.9034 31.0242 31.9984 30.7159 32 30.4V4.8C32 3.52696 31.4943 2.30606 30.5941 1.40589C29.6939 0.505713 28.473 0 27.2 0ZM28.8 26.544L25.136 22.864C24.9865 22.7157 24.8092 22.5984 24.6143 22.5188C24.4193 22.4391 24.2106 22.3988 24 22.4H4.8C4.37565 22.4 3.96869 22.2314 3.66863 21.9314C3.36857 21.6313 3.2 21.2243 3.2 20.8V4.8C3.2 4.37565 3.36857 3.96869 3.66863 3.66863C3.96869 3.36857 4.37565 3.2 4.8 3.2H27.2C27.6243 3.2 28.0313 3.36857 28.3314 3.66863C28.6314 3.96869 28.8 4.37565 28.8 4.8V26.544Z" fill="currentColor"/>
</g>
<defs>
<clipPath id="clip0">
<rect width="32" height="32" fill="white"/>
</clipPath>
</defs>
</svg>
