<?xml version="1.0" encoding="UTF-8"?>
<svg width="24px" height="24px" viewBox="0 0 24 24" version="1.1" xmlns="http://www.w3.org/2000/svg" xmlns:xlink="http://www.w3.org/1999/xlink">
    <!-- Generator: Sketch 48.1 (47250) - http://www.bohemiancoding.com/sketch -->
    <title>CheckBox24</title>
    <desc>Created with Sketch.</desc>
    <defs></defs>
    <g id="Page-1" stroke="none" stroke-width="1" fill="none" fill-rule="evenodd">
        <g id="CheckBox24" fill="#000000" fill-rule="nonzero">
            <path d="M21.9130435,12 C21.9130435,11.4237029 22.3802246,10.9565217 22.9565217,10.9565217 C23.5328189,10.9565217 24,11.4237029 24,12 L24,20.5217391 C24,22.4427296 22.4427296,24 20.5217391,24 L3.47826087,24 C1.55727044,24 0,22.4427296 0,20.5217391 L0,3.47826087 C0,1.55727044 1.55727044,0 3.47826087,0 L16.8695652,0 C17.4458623,0 17.9130435,0.467181131 17.9130435,1.04347826 C17.9130435,1.61977539 17.4458623,2.08695652 16.8695652,2.08695652 L3.47826087,2.08695652 C2.7098647,2.08695652 2.08695652,2.7098647 2.08695652,3.47826087 L2.08695652,20.5217391 C2.08695652,21.2901353 2.7098647,21.9130435 3.47826087,21.9130435 L20.5217391,21.9130435 C21.2901353,21.9130435 21.9130435,21.2901353 21.9130435,20.5217391 L21.9130435,12 Z M22.2811441,1.28451981 C22.6650694,0.913973775 23.2981454,0.90407091 23.6951591,1.26240115 C24.0921727,1.62073138 24.1027829,2.21160235 23.7188577,2.58214839 L11.1474291,14.715481 C10.754373,15.0948397 10.1027716,15.0948397 9.70971553,14.715481 L6.2811441,11.4063903 C5.89721883,11.0358443 5.90782904,10.4449733 6.30484268,10.0866431 C6.70185631,9.72831282 7.33493239,9.73821568 7.71885766,10.1087617 L10.4285723,12.7240468 L22.2811441,1.28451981 Z"></path>
        </g>
    </g>
</svg>