<svg width="32" height="32" viewBox="0 0 32 32" fill="none" xmlns="http://www.w3.org/2000/svg">
<path d="M27.6364 2H13.0909C11.9336 2 10.8237 2.4583 10.0054 3.27408C9.18701 4.08986 8.72727 5.1963 8.72727 6.34999V16.5C8.72727 17.6536 9.18701 18.7601 10.0054 19.5759C10.8237 20.3916 11.9336 20.8499 13.0909 20.8499H27.6364C28.7937 20.8499 29.9036 20.3916 30.7219 19.5759C31.5403 18.7601 32 17.6536 32 16.5V6.34999C32 5.1963 31.5403 4.08986 30.7219 3.27408C29.9036 2.4583 28.7937 2 27.6364 2ZM29.0909 16.5C29.0909 16.8845 28.9377 17.2533 28.6649 17.5253C28.3921 17.7972 28.0221 17.95 27.6364 17.95H13.0909C12.7051 17.95 12.3352 17.7972 12.0624 17.5253C11.7896 17.2533 11.6364 16.8845 11.6364 16.5V6.34999C11.6364 5.96543 11.7896 5.59661 12.0624 5.32469C12.3352 5.05276 12.7051 4.89999 13.0909 4.89999H27.6364C28.0221 4.89999 28.3921 5.05276 28.6649 5.32469C28.9377 5.59661 29.0909 5.96543 29.0909 6.34999V16.5ZM24 10.7C23.4615 10.7018 22.943 10.9034 22.5455 11.2655C22.2327 10.9821 21.8441 10.7953 21.4268 10.728C21.0096 10.6606 20.5817 10.7155 20.1952 10.8859C19.8087 11.0564 19.4801 11.3351 19.2495 11.6882C19.0189 12.0413 18.8961 12.4536 18.8961 12.875C18.8961 13.2963 19.0189 13.7086 19.2495 14.0617C19.4801 14.4148 19.8087 14.6935 20.1952 14.864C20.5817 15.0345 21.0096 15.0894 21.4268 15.022C21.8441 14.9546 22.2327 14.7679 22.5455 14.4845C22.8081 14.7225 23.1251 14.893 23.4688 14.9812C23.8125 15.0694 24.1727 15.0728 24.518 14.9909C24.8633 14.9089 25.1833 14.7443 25.4504 14.5112C25.7174 14.2781 25.9233 13.9835 26.0503 13.6531C26.1773 13.3227 26.2215 12.9664 26.1791 12.6151C26.1367 12.2638 26.009 11.9281 25.807 11.6371C25.605 11.3462 25.3348 11.1088 25.0199 10.9455C24.705 10.7821 24.3549 10.6979 24 10.7ZM21.8182 23.7499C21.4324 23.7499 21.0624 23.9027 20.7897 24.1746C20.5169 24.4466 20.3636 24.8154 20.3636 25.1999V26.6499C20.3636 27.0345 20.2104 27.4033 19.9376 27.6752C19.6648 27.9472 19.2949 28.0999 18.9091 28.0999H4.36364C3.97787 28.0999 3.6079 27.9472 3.33512 27.6752C3.06234 27.4033 2.90909 27.0345 2.90909 26.6499V20.8499H4.36364C4.74941 20.8499 5.11938 20.6972 5.39216 20.4253C5.66494 20.1533 5.81818 19.7845 5.81818 19.4C5.81818 19.0154 5.66494 18.6466 5.39216 18.3747C5.11938 18.1027 4.74941 17.95 4.36364 17.95H2.90909V16.5C2.90909 16.1154 3.06234 15.7466 3.33512 15.4747C3.6079 15.2027 3.97787 15.05 4.36364 15.05C4.74941 15.05 5.11938 14.8972 5.39216 14.6253C5.66494 14.3533 5.81818 13.9845 5.81818 13.6C5.81818 13.2154 5.66494 12.8466 5.39216 12.5747C5.11938 12.3027 4.74941 12.15 4.36364 12.15C3.20633 12.15 2.09642 12.6083 1.27808 13.4241C0.459739 14.2398 0 15.3463 0 16.5V26.6499C0 27.8036 0.459739 28.9101 1.27808 29.7258C2.09642 30.5416 3.20633 30.9999 4.36364 30.9999H18.9091C20.0664 30.9999 21.1763 30.5416 21.9946 29.7258C22.813 28.9101 23.2727 27.8036 23.2727 26.6499V25.1999C23.2727 24.8154 23.1195 24.4466 22.8467 24.1746C22.5739 23.9027 22.204 23.7499 21.8182 23.7499ZM7.27273 25.1999H8.72727C9.11304 25.1999 9.48301 25.0472 9.75579 24.7752C10.0286 24.5033 10.1818 24.1345 10.1818 23.7499C10.1818 23.3654 10.0286 22.9966 9.75579 22.7246C9.48301 22.4527 9.11304 22.2999 8.72727 22.2999H7.27273C6.88696 22.2999 6.51699 22.4527 6.24421 22.7246C5.97143 22.9966 5.81818 23.3654 5.81818 23.7499C5.81818 24.1345 5.97143 24.5033 6.24421 24.7752C6.51699 25.0472 6.88696 25.1999 7.27273 25.1999Z" fill="#000000"/>
</svg>
