<svg width="32" height="32" viewBox="0 0 32 32" fill="none" xmlns="http://www.w3.org/2000/svg">
<g clip-path="url(#clip0)">
<path d="M20.352 10.864L13.488 17.744L10.848 15.104C10.7046 14.9365 10.5281 14.8005 10.3296 14.7044C10.1311 14.6084 9.91484 14.5544 9.69449 14.5459C9.47414 14.5374 9.25441 14.5745 9.04909 14.655C8.84377 14.7354 8.65729 14.8574 8.50136 15.0134C8.34544 15.1693 8.22342 15.3558 8.14299 15.5611C8.06255 15.7664 8.02542 15.9861 8.03393 16.2065C8.04244 16.4268 8.09641 16.643 8.19244 16.8416C8.28848 17.0401 8.42451 17.2166 8.592 17.36L12.352 21.136C12.5015 21.2843 12.6788 21.4016 12.8738 21.4812C13.0687 21.5609 13.2774 21.6012 13.488 21.6C13.9077 21.5982 14.31 21.4316 14.608 21.136L22.608 13.136C22.758 12.9873 22.877 12.8103 22.9582 12.6153C23.0395 12.4203 23.0813 12.2112 23.0813 12C23.0813 11.7888 23.0395 11.5796 22.9582 11.3847C22.877 11.1897 22.758 11.0127 22.608 10.864C22.3082 10.566 21.9027 10.3987 21.48 10.3987C21.0573 10.3987 20.6518 10.566 20.352 10.864ZM16 0C12.8355 0 9.74207 0.938384 7.11088 2.69649C4.4797 4.45459 2.42894 6.95345 1.21793 9.87706C0.00693254 12.8007 -0.309921 16.0177 0.307443 19.1214C0.924806 22.2251 2.44866 25.0761 4.6863 27.3137C6.92394 29.5513 9.77487 31.0752 12.8786 31.6926C15.9823 32.3099 19.1993 31.9931 22.1229 30.7821C25.0466 29.5711 27.5454 27.5203 29.3035 24.8891C31.0616 22.2579 32 19.1645 32 16C32 13.8988 31.5861 11.8183 30.7821 9.87706C29.978 7.93585 28.7994 6.17203 27.3137 4.68629C25.828 3.20055 24.0641 2.022 22.1229 1.21793C20.1817 0.413852 18.1012 0 16 0ZM16 28.8C13.4684 28.8 10.9937 28.0493 8.88871 26.6428C6.78376 25.2363 5.14315 23.2372 4.17435 20.8983C3.20555 18.5595 2.95206 15.9858 3.44596 13.5028C3.93985 11.0199 5.15893 8.73914 6.94904 6.94903C8.73915 5.15892 11.0199 3.93984 13.5028 3.44595C15.9858 2.95206 18.5595 3.20554 20.8984 4.17434C23.2372 5.14314 25.2363 6.78375 26.6428 8.8887C28.0493 10.9936 28.8 13.4684 28.8 16C28.8 19.3948 27.4514 22.6505 25.051 25.051C22.6505 27.4514 19.3948 28.8 16 28.8Z" fill="currentColor"/>
</g>
<defs>
<clipPath id="clip0">
<rect width="32" height="32" fill="white"/>
</clipPath>
</defs>
</svg>
