<svg width="24" height="24" viewBox="0 0 24 24" fill="none" xmlns="http://www.w3.org/2000/svg">
<g clip-path="url(#clip0)">
<path d="M20.7273 1.5H9.81818C8.9502 1.5 8.11777 1.84373 7.50401 2.45556C6.89026 3.0674 6.54545 3.89722 6.54545 4.76249V12.375C6.54545 13.2402 6.89026 14.0701 7.50401 14.6819C8.11777 15.2937 8.9502 15.6375 9.81818 15.6375H20.7273C21.5953 15.6375 22.4277 15.2937 23.0414 14.6819C23.6552 14.0701 24 13.2402 24 12.375V4.76249C24 3.89722 23.6552 3.0674 23.0414 2.45556C22.4277 1.84373 21.5953 1.5 20.7273 1.5ZM21.8182 12.375C21.8182 12.6634 21.7032 12.94 21.4987 13.1439C21.2941 13.3479 21.0166 13.4625 20.7273 13.4625H9.81818C9.52886 13.4625 9.25138 13.3479 9.04679 13.1439C8.84221 12.94 8.72727 12.6634 8.72727 12.375V4.76249C8.72727 4.47407 8.84221 4.19746 9.04679 3.99351C9.25138 3.78957 9.52886 3.67499 9.81818 3.67499H20.7273C21.0166 3.67499 21.2941 3.78957 21.4987 3.99351C21.7032 4.19746 21.8182 4.47407 21.8182 4.76249V12.375ZM18 8.02498C17.5961 8.02635 17.2072 8.17754 16.9091 8.44911C16.6745 8.23656 16.383 8.0965 16.0701 8.04597C15.7572 7.99544 15.4363 8.0366 15.1464 8.16446C14.8565 8.29232 14.6101 8.50136 14.4371 8.76619C14.2642 9.03101 14.1721 9.34022 14.1721 9.65623C14.1721 9.97224 14.2642 10.2814 14.4371 10.5463C14.6101 10.8111 14.8565 11.0201 15.1464 11.148C15.4363 11.2759 15.7572 11.317 16.0701 11.2665C16.383 11.216 16.6745 11.0759 16.9091 10.8633C17.1061 11.0418 17.3438 11.1697 17.6016 11.2359C17.8594 11.3021 18.1295 11.3046 18.3885 11.2431C18.6475 11.1817 18.8875 11.0582 19.0878 10.8834C19.288 10.7085 19.4425 10.4876 19.5377 10.2398C19.633 9.99201 19.6661 9.72478 19.6343 9.4613C19.6025 9.19783 19.5067 8.94606 19.3552 8.72785C19.2037 8.50964 19.0011 8.33157 18.7649 8.20909C18.5288 8.08661 18.2662 8.02341 18 8.02498ZM16.3636 17.8125C16.0743 17.8125 15.7968 17.927 15.5922 18.131C15.3877 18.3349 15.2727 18.6115 15.2727 18.9V19.9874C15.2727 20.2759 15.1578 20.5525 14.9532 20.7564C14.7486 20.9604 14.4711 21.0749 14.1818 21.0749H3.27273C2.9834 21.0749 2.70592 20.9604 2.50134 20.7564C2.29675 20.5525 2.18182 20.2759 2.18182 19.9874V15.6375H3.27273C3.56205 15.6375 3.83953 15.5229 4.04412 15.3189C4.2487 15.115 4.36364 14.8384 4.36364 14.55C4.36364 14.2615 4.2487 13.9849 4.04412 13.781C3.83953 13.577 3.56205 13.4625 3.27273 13.4625H2.18182V12.375C2.18182 12.0865 2.29675 11.8099 2.50134 11.606C2.70592 11.402 2.9834 11.2875 3.27273 11.2875C3.56205 11.2875 3.83953 11.1729 4.04412 10.969C4.2487 10.765 4.36364 10.4884 4.36364 10.2C4.36364 9.91155 4.2487 9.63494 4.04412 9.431C3.83953 9.22705 3.56205 9.11248 3.27273 9.11248C2.40475 9.11248 1.57232 9.4562 0.95856 10.068C0.344804 10.6799 0 11.5097 0 12.375V19.9874C0 20.8527 0.344804 21.6825 0.95856 22.2944C1.57232 22.9062 2.40475 23.2499 3.27273 23.2499H14.1818C15.0498 23.2499 15.8822 22.9062 16.496 22.2944C17.1097 21.6825 17.4545 20.8527 17.4545 19.9874V18.9C17.4545 18.6115 17.3396 18.3349 17.135 18.131C16.9304 17.927 16.653 17.8125 16.3636 17.8125ZM5.45455 18.9H6.54545C6.83478 18.9 7.11226 18.7854 7.31684 18.5814C7.52143 18.3775 7.63636 18.1009 7.63636 17.8125C7.63636 17.524 7.52143 17.2474 7.31684 17.0435C7.11226 16.8395 6.83478 16.725 6.54545 16.725H5.45455C5.16522 16.725 4.88774 16.8395 4.68316 17.0435C4.47857 17.2474 4.36364 17.524 4.36364 17.8125C4.36364 18.1009 4.47857 18.3775 4.68316 18.5814C4.88774 18.7854 5.16522 18.9 5.45455 18.9Z" fill="#000000"/>
</g>
<defs>
<clipPath id="clip0">
<rect width="24" height="23.9999" fill="#000000"/>
</clipPath>
</defs>
</svg>
