<?xml version="1.0" encoding="UTF-8"?>
<svg width="32px" height="32px" viewBox="0 0 32 32" version="1.1" xmlns="http://www.w3.org/2000/svg" xmlns:xlink="http://www.w3.org/1999/xlink">
    <!-- Generator: Sketch 48.1 (47250) - http://www.bohemiancoding.com/sketch -->
    <title>CheckBox32</title>
    <desc>Created with Sketch.</desc>
    <defs></defs>
    <g id="Page-1" stroke="none" stroke-width="1" fill="none" fill-rule="evenodd">
        <g id="CheckBox32" fill="#000000" fill-rule="nonzero">
            <path d="M30.3549297,0.320090713 C30.7216223,-0.0959594088 31.3271582,-0.108004954 31.707432,0.293186235 C32.0877058,0.694377423 32.0987156,1.3568824 31.732023,1.77293253 L15.9494157,19.6799083 C15.5732595,20.1066959 14.9484786,20.1066959 14.5723224,19.6799083 L10.267975,14.7961876 C9.90128234,14.3801375 9.91229209,13.7176325 10.2925659,13.3164413 C10.6728397,12.9152502 11.2783757,12.9272957 11.6450683,13.3433458 L15.260869,17.4458402 L30.3549297,0.320090713 Z M27.9310345,17 C27.9310345,16.4477153 28.3941882,16 28.9655172,16 C29.5368463,16 30,16.4477153 30,17 L30,27.8888889 C30,30.1514193 28.1559724,32 25.862069,32 L4.13793103,32 C1.84402759,32 0,30.1514193 0,27.8888889 L0,6.11111111 C0,3.84858074 1.84402759,2 4.13793103,2 L21.2068966,2 C21.7782256,2 22.2413793,2.44771525 22.2413793,3 C22.2413793,3.55228475 21.7782256,4 21.2068966,4 L4.13793103,4 C3.00386017,4 2.06896552,4.93720303 2.06896552,6.11111111 L2.06896552,27.8888889 C2.06896552,29.062797 3.00386017,30 4.13793103,30 L25.862069,30 C26.9961398,30 27.9310345,29.062797 27.9310345,27.8888889 L27.9310345,17 Z"></path>
        </g>
    </g>
</svg>