<svg width="32" height="32" viewBox="0 0 32 32" fill="none" xmlns="http://www.w3.org/2000/svg">
<path d="M10.4007 12H29.6007C29.8836 12 30.1549 12.1093 30.3549 12.3037C30.5549 12.4982 30.6673 12.762 30.6673 13.037V28.2963C30.6673 28.5713 30.5549 28.8351 30.3549 29.0296C30.1549 29.2241 29.8836 29.3333 29.6007 29.3333H10.4007C10.1178 29.3333 9.84644 29.2241 9.6464 29.0296C9.44637 28.8351 9.33398 28.5713 9.33398 28.2963V13.037C9.33398 12.762 9.44637 12.4982 9.6464 12.3037C9.84644 12.1093 10.1178 12 10.4007 12ZM28.0006 20H12.0007V26.6667H28.0006V20ZM28.0006 17.3333V14.6667H12.0007V17.3333H28.0006Z" fill="currentColor"/>
<path fill-rule="evenodd" clip-rule="evenodd" d="M2.40065 2.6665H21.6007C21.8836 2.6665 22.1549 2.77576 22.3549 2.97025C22.5549 3.16473 22.6673 3.4285 22.6673 3.70354V9.33317H7.73398C7.45109 9.33317 7.17977 9.44242 6.97973 9.63692C6.7797 9.8314 6.66732 10.0952 6.66732 10.3702V11.9998H4.00065V17.3332H6.66732V19.9998H2.40065C2.11776 19.9998 1.84644 19.8906 1.6464 19.6961C1.44636 19.5016 1.33398 19.2378 1.33398 18.9628V3.70354C1.33398 3.4285 1.44636 3.16473 1.6464 2.97025C1.84644 2.77576 2.11776 2.6665 2.40065 2.6665ZM4.00065 5.33317V6.6665H20.0006V5.33317H4.00065Z" fill="currentColor"/>
<path d="M25.3333 21.3335H20V24.0002H25.3333V21.3335Z" fill="currentColor"/>
</svg>