<svg width="24" height="24" viewBox="0 0 24 24" fill="none" xmlns="http://www.w3.org/2000/svg">
<path d="M20.7273 1.5H9.81818C8.9502 1.5 8.11777 1.84373 7.50401 2.45556C6.89026 3.0674 6.54545 3.89723 6.54545 4.7625V12.375C6.54545 13.2403 6.89026 14.0701 7.50401 14.6819C8.11777 15.2938 8.9502 15.6375 9.81818 15.6375H20.7273C21.5953 15.6375 22.4277 15.2938 23.0414 14.6819C23.6552 14.0701 24 13.2403 24 12.375V4.7625C24 3.89723 23.6552 3.0674 23.0414 2.45556C22.4277 1.84373 21.5953 1.5 20.7273 1.5ZM21.8182 12.375C21.8182 12.6634 21.7032 12.94 21.4987 13.144C21.2941 13.3479 21.0166 13.4625 20.7273 13.4625H9.81818C9.52886 13.4625 9.25138 13.3479 9.04679 13.144C8.84221 12.94 8.72727 12.6634 8.72727 12.375V4.7625C8.72727 4.47408 8.84221 4.19747 9.04679 3.99352C9.25138 3.78958 9.52886 3.675 9.81818 3.675H20.7273C21.0166 3.675 21.2941 3.78958 21.4987 3.99352C21.7032 4.19747 21.8182 4.47408 21.8182 4.7625V12.375ZM18 8.025C17.5961 8.02636 17.2072 8.17756 16.9091 8.44913C16.6745 8.23657 16.383 8.09652 16.0701 8.04599C15.7572 7.99546 15.4363 8.03662 15.1464 8.16448C14.8565 8.29233 14.6101 8.50138 14.4371 8.76621C14.2642 9.03103 14.1721 9.34024 14.1721 9.65625C14.1721 9.97226 14.2642 10.2815 14.4371 10.5463C14.6101 10.8111 14.8565 11.0202 15.1464 11.148C15.4363 11.2759 15.7572 11.317 16.0701 11.2665C16.383 11.216 16.6745 11.0759 16.9091 10.8634C17.1061 11.0419 17.3438 11.1697 17.6016 11.2359C17.8594 11.3021 18.1295 11.3046 18.3885 11.2432C18.6475 11.1817 18.8875 11.0582 19.0878 10.8834C19.288 10.7086 19.4425 10.4877 19.5377 10.2399C19.633 9.99204 19.6661 9.7248 19.6343 9.46133C19.6025 9.19785 19.5067 8.94608 19.3552 8.72787C19.2037 8.50966 19.0011 8.33159 18.7649 8.20911C18.5288 8.08663 18.2662 8.02343 18 8.025ZM16.3636 17.8125C16.0743 17.8125 15.7968 17.9271 15.5922 18.131C15.3877 18.335 15.2727 18.6116 15.2727 18.9V19.9875C15.2727 20.2759 15.1578 20.5525 14.9532 20.7565C14.7486 20.9604 14.4711 21.075 14.1818 21.075H3.27273C2.9834 21.075 2.70592 20.9604 2.50134 20.7565C2.29675 20.5525 2.18182 20.2759 2.18182 19.9875V15.6375H3.27273C3.56205 15.6375 3.83953 15.5229 4.04412 15.319C4.2487 15.115 4.36364 14.8384 4.36364 14.55C4.36364 14.2616 4.2487 13.985 4.04412 13.781C3.83953 13.5771 3.56205 13.4625 3.27273 13.4625H2.18182V12.375C2.18182 12.0866 2.29675 11.81 2.50134 11.606C2.70592 11.4021 2.9834 11.2875 3.27273 11.2875C3.56205 11.2875 3.83953 11.1729 4.04412 10.969C4.2487 10.765 4.36364 10.4884 4.36364 10.2C4.36364 9.91158 4.2487 9.63497 4.04412 9.43102C3.83953 9.22708 3.56205 9.1125 3.27273 9.1125C2.40475 9.1125 1.57232 9.45623 0.95856 10.0681C0.344804 10.6799 0 11.5097 0 12.375V19.9875C0 20.8528 0.344804 21.6826 0.95856 22.2944C1.57232 22.9063 2.40475 23.25 3.27273 23.25H14.1818C15.0498 23.25 15.8822 22.9063 16.496 22.2944C17.1097 21.6826 17.4545 20.8528 17.4545 19.9875V18.9C17.4545 18.6116 17.3396 18.335 17.135 18.131C16.9304 17.9271 16.653 17.8125 16.3636 17.8125ZM5.45455 18.9H6.54545C6.83478 18.9 7.11226 18.7854 7.31684 18.5815C7.52143 18.3775 7.63636 18.1009 7.63636 17.8125C7.63636 17.5241 7.52143 17.2475 7.31684 17.0435C7.11226 16.8396 6.83478 16.725 6.54545 16.725H5.45455C5.16522 16.725 4.88774 16.8396 4.68316 17.0435C4.47857 17.2475 4.36364 17.5241 4.36364 17.8125C4.36364 18.1009 4.47857 18.3775 4.68316 18.5815C4.88774 18.7854 5.16522 18.9 5.45455 18.9Z" fill="currentColor"/>
</svg>
