<svg width="24" height="24" viewBox="0 0 24 24" fill="none" xmlns="http://www.w3.org/2000/svg">
<path d="M7.8 9H22.2C22.4122 9 22.6157 9.08194 22.7657 9.22781C22.9157 9.37367 23 9.5715 23 9.77778V21.2222C23 21.4285 22.9157 21.6263 22.7657 21.7722C22.6157 21.9181 22.4122 22 22.2 22H7.8C7.58783 22 7.38434 21.9181 7.23431 21.7722C7.08429 21.6263 7 21.4285 7 21.2222V9.77778C7 9.5715 7.08429 9.37367 7.23431 9.22781C7.38434 9.08194 7.58783 9 7.8 9ZM21 15H9V20H21V15ZM21 13V11H9V13H21Z" fill="currentColor"/>
<path fill-rule="evenodd" clip-rule="evenodd" d="M1.8 2H16.2C16.4122 2 16.6157 2.08194 16.7657 2.22781C16.9157 2.37367 17 2.5715 17 2.77778V7H5.8C5.58783 7 5.38434 7.08194 5.23431 7.22781C5.08429 7.37367 5 7.5715 5 7.77778V9H3V13H5V15H1.8C1.58783 15 1.38434 14.9181 1.23431 14.7722C1.08428 14.6263 1 14.4285 1 14.2222V2.77778C1 2.5715 1.08428 2.37367 1.23431 2.22781C1.38434 2.08194 1.58783 2 1.8 2ZM3 4V5H15V4H3Z" fill="currentColor"/>
<rect x="15" y="16" width="4" height="2" fill="currentColor"/>
</svg>