<svg width="32" height="32" viewBox="0 0 32 32" fill="none" xmlns="http://www.w3.org/2000/svg">
<g clip-path="url(#clip0)">
<path d="M17.136 10.064C16.9839 9.91833 16.8044 9.80415 16.608 9.728C16.2184 9.56797 15.7816 9.56797 15.392 9.728C15.1956 9.80415 15.0161 9.91833 14.864 10.064L10.064 14.864C9.76272 15.1653 9.59345 15.5739 9.59345 16C9.59345 16.4261 9.76272 16.8347 10.064 17.136C10.3653 17.4373 10.7739 17.6065 11.2 17.6065C11.6261 17.6065 12.0347 17.4373 12.336 17.136L14.4 15.056V20.8C14.4 21.2244 14.5685 21.6313 14.8687 21.9313C15.1687 22.2315 15.5756 22.4 16 22.4C16.4244 22.4 16.8313 22.2315 17.1313 21.9313C17.4315 21.6313 17.6 21.2244 17.6 20.8V15.056L19.664 17.136C19.8128 17.286 19.9897 17.4049 20.1847 17.4863C20.3796 17.5675 20.5888 17.6093 20.8 17.6093C21.0112 17.6093 21.2204 17.5675 21.4153 17.4863C21.6103 17.4049 21.7872 17.286 21.936 17.136C22.086 16.9872 22.2049 16.8103 22.2863 16.6153C22.3675 16.4204 22.4093 16.2112 22.4093 16C22.4093 15.7888 22.3675 15.5796 22.2863 15.3847C22.2049 15.1897 22.086 15.0128 21.936 14.864L17.136 10.064ZM16 0C12.8355 0 9.74207 0.938384 7.11088 2.69648C4.47969 4.45459 2.42893 6.95344 1.21793 9.87707C0.00693282 12.8007 -0.309921 16.0177 0.307443 19.1215C0.924807 22.2252 2.44865 25.076 4.68629 27.3137C6.92393 29.5513 9.77487 31.0752 12.8786 31.6925C15.9823 32.3099 19.1993 31.9931 22.1229 30.782C25.0465 29.5711 27.5455 27.5203 29.3035 24.8891C31.0616 22.2579 32 19.1645 32 16C32 13.8988 31.5861 11.8183 30.7821 9.87707C29.978 7.93585 28.7995 6.17203 27.3137 4.68629C25.828 3.20055 24.0641 2.022 22.1229 1.21793C20.1817 0.413852 18.1012 0 16 0ZM16 28.8C13.4684 28.8 10.9937 28.0493 8.88871 26.6428C6.78376 25.2363 5.14315 23.2372 4.17435 20.8984C3.20555 18.5595 2.95207 15.9857 3.44596 13.5028C3.93984 11.0199 5.15893 8.73915 6.94904 6.94903C8.73915 5.15892 11.0199 3.93984 13.5028 3.44595C15.9859 2.95205 18.5595 3.20553 20.8984 4.17435C23.2372 5.14315 25.2363 6.78375 26.6428 8.88869C28.0493 10.9937 28.8 13.4684 28.8 16C28.8 19.3948 27.4515 22.6505 25.0509 25.0509C22.6505 27.4515 19.3948 28.8 16 28.8Z" fill="currentColor"/>
</g>
<defs>
<clipPath id="clip0">
<rect width="32" height="32" fill="white"/>
</clipPath>
</defs>
</svg>
