<svg width="24" height="24" viewBox="0 0 24 24" fill="none" xmlns="http://www.w3.org/2000/svg">
<path d="M12.852 7.548C12.7379 7.43875 12.6033 7.35311 12.456 7.296C12.1638 7.17598 11.8362 7.17598 11.544 7.296C11.3967 7.35311 11.2621 7.43875 11.148 7.548L7.548 11.148C7.32204 11.374 7.19509 11.6804 7.19509 12C7.19509 12.3196 7.32204 12.626 7.548 12.852C7.77397 13.078 8.08044 13.2049 8.4 13.2049C8.71957 13.2049 9.02604 13.078 9.252 12.852L10.8 11.292V15.6C10.8 15.9183 10.9264 16.2235 11.1515 16.4485C11.3765 16.6736 11.6817 16.8 12 16.8C12.3183 16.8 12.6235 16.6736 12.8485 16.4485C13.0736 16.2235 13.2 15.9183 13.2 15.6V11.292L14.748 12.852C14.8596 12.9645 14.9923 13.0537 15.1385 13.1147C15.2847 13.1756 15.4416 13.207 15.6 13.207C15.7584 13.207 15.9153 13.1756 16.0615 13.1147C16.2077 13.0537 16.3404 12.9645 16.452 12.852C16.5645 12.7404 16.6537 12.6077 16.7147 12.4615C16.7756 12.3153 16.807 12.1584 16.807 12C16.807 11.8416 16.7756 11.6847 16.7147 11.5385C16.6537 11.3923 16.5645 11.2596 16.452 11.148L12.852 7.548ZM12 0C9.62663 0 7.30655 0.703788 5.33316 2.02236C3.35977 3.34094 1.8217 5.21508 0.913451 7.4078C0.00519941 9.60051 -0.232441 12.0133 0.230582 14.3411C0.693605 16.6689 1.83649 18.807 3.51472 20.4853C5.19295 22.1635 7.33115 23.3064 9.65892 23.7694C11.9867 24.2324 14.3995 23.9948 16.5922 23.0865C18.7849 22.1783 20.6591 20.6402 21.9776 18.6668C23.2962 16.6934 24 14.3734 24 12C24 10.4241 23.6896 8.8637 23.0866 7.4078C22.4835 5.95189 21.5996 4.62902 20.4853 3.51472C19.371 2.40041 18.0481 1.5165 16.5922 0.913445C15.1363 0.310389 13.5759 0 12 0ZM12 21.6C10.1013 21.6 8.24524 21.037 6.66653 19.9821C5.08782 18.9272 3.85736 17.4279 3.13076 15.6738C2.40416 13.9196 2.21405 11.9893 2.58447 10.1271C2.95488 8.26491 3.8692 6.55436 5.21178 5.21177C6.55436 3.86919 8.26492 2.95488 10.1271 2.58446C11.9894 2.21404 13.9196 2.40415 15.6738 3.13076C17.4279 3.85736 18.9272 5.08781 19.9821 6.66652C21.037 8.24524 21.6 10.1013 21.6 12C21.6 14.5461 20.5886 16.9879 18.7882 18.7882C16.9879 20.5886 14.5461 21.6 12 21.6Z" fill="currentColor"/>
</svg>
