<svg width="32" height="32" viewBox="0 0 32 32" fill="none" xmlns="http://www.w3.org/2000/svg">
<path d="M21.936 17.136C22.0817 16.9838 22.1959 16.8044 22.272 16.608C22.432 16.2185 22.432 15.7815 22.272 15.392C22.1959 15.1956 22.0817 15.0162 21.936 14.864L17.136 10.064C16.8347 9.76272 16.4261 9.59346 16 9.59346C15.5739 9.59346 15.1653 9.76272 14.864 10.064C14.5627 10.3653 14.3935 10.7739 14.3935 11.2C14.3935 11.6261 14.5627 12.0347 14.864 12.336L16.944 14.4H11.2C10.7757 14.4 10.3687 14.5686 10.0686 14.8686C9.76858 15.1687 9.60001 15.5757 9.60001 16C9.60001 16.4244 9.76858 16.8313 10.0686 17.1314C10.3687 17.4314 10.7757 17.6 11.2 17.6H16.944L14.864 19.664C14.714 19.8127 14.595 19.9897 14.5138 20.1847C14.4325 20.3797 14.3907 20.5888 14.3907 20.8C14.3907 21.0112 14.4325 21.2204 14.5138 21.4153C14.595 21.6103 14.714 21.7873 14.864 21.936C15.0127 22.086 15.1897 22.205 15.3847 22.2862C15.5797 22.3675 15.7888 22.4093 16 22.4093C16.2112 22.4093 16.4204 22.3675 16.6153 22.2862C16.8103 22.205 16.9873 22.086 17.136 21.936L21.936 17.136ZM32 16C32 12.8355 31.0616 9.74207 29.3035 7.11088C27.5454 4.4797 25.0466 2.42894 22.1229 1.21793C19.1993 0.00693254 15.9823 -0.309921 12.8786 0.307443C9.77487 0.924806 6.92394 2.44866 4.6863 4.6863C2.44866 6.92394 0.924806 9.77487 0.307443 12.8786C-0.309921 15.9823 0.00693254 19.1993 1.21793 22.1229C2.42894 25.0466 4.4797 27.5454 7.11088 29.3035C9.74207 31.0616 12.8355 32 16 32C20.2435 32 24.3131 30.3143 27.3137 27.3137C30.3143 24.3131 32 20.2435 32 16ZM3.20001 16C3.20001 13.4684 3.95071 10.9937 5.3572 8.88871C6.76368 6.78376 8.76276 5.14315 11.1017 4.17435C13.4406 3.20555 16.0142 2.95206 18.4972 3.44596C20.9801 3.93985 23.2609 5.15893 25.051 6.94904C26.8411 8.73915 28.0602 11.0199 28.5541 13.5028C29.0479 15.9858 28.7945 18.5595 27.8257 20.8984C26.8569 23.2372 25.2162 25.2363 23.1113 26.6428C21.0064 28.0493 18.5316 28.8 16 28.8C12.6052 28.8 9.3495 27.4514 6.94904 25.051C4.54857 22.6505 3.20001 19.3948 3.20001 16Z" fill="currentColor"/>
</svg>
