<svg width="24" height="24" viewBox="0 0 24 24" fill="none" xmlns="http://www.w3.org/2000/svg">
<path d="M16.452 12.852C16.5613 12.7379 16.6469 12.6033 16.704 12.456C16.824 12.1638 16.824 11.8362 16.704 11.544C16.6469 11.3967 16.5613 11.2621 16.452 11.148L12.852 7.548C12.626 7.32204 12.3196 7.19509 12 7.19509C11.6804 7.19509 11.374 7.32204 11.148 7.548C10.922 7.77397 10.7951 8.08044 10.7951 8.4C10.7951 8.71957 10.922 9.02604 11.148 9.252L12.708 10.8H8.4C8.08174 10.8 7.77652 10.9264 7.55148 11.1515C7.32643 11.3765 7.2 11.6817 7.2 12C7.2 12.3183 7.32643 12.6235 7.55148 12.8485C7.77652 13.0736 8.08174 13.2 8.4 13.2H12.708L11.148 14.748C11.0355 14.8596 10.9463 14.9923 10.8853 15.1385C10.8244 15.2847 10.793 15.4416 10.793 15.6C10.793 15.7584 10.8244 15.9153 10.8853 16.0615C10.9463 16.2077 11.0355 16.3404 11.148 16.452C11.2596 16.5645 11.3923 16.6537 11.5385 16.7147C11.6847 16.7756 11.8416 16.807 12 16.807C12.1584 16.807 12.3153 16.7756 12.4615 16.7147C12.6077 16.6537 12.7404 16.5645 12.852 16.452L16.452 12.852ZM24 12C24 9.62663 23.2962 7.30655 21.9776 5.33316C20.6591 3.35977 18.7849 1.8217 16.5922 0.913451C14.3995 0.00519941 11.9867 -0.232441 9.65892 0.230582C7.33115 0.693605 5.19295 1.83649 3.51472 3.51472C1.83649 5.19295 0.693605 7.33115 0.230582 9.65892C-0.232441 11.9867 0.00519941 14.3995 0.913451 16.5922C1.8217 18.7849 3.35977 20.6591 5.33316 21.9776C7.30655 23.2962 9.62663 24 12 24C15.1826 24 18.2348 22.7357 20.4853 20.4853C22.7357 18.2348 24 15.1826 24 12ZM2.40001 12C2.40001 10.1013 2.96304 8.24524 4.0179 6.66653C5.07276 5.08782 6.57207 3.85736 8.32624 3.13076C10.0804 2.40416 12.0107 2.21405 13.8729 2.58447C15.7351 2.95488 17.4456 3.8692 18.7882 5.21178C20.1308 6.55436 21.0451 8.26492 21.4155 10.1271C21.786 11.9894 21.5958 13.9196 20.8692 15.6738C20.1426 17.4279 18.9122 18.9272 17.3335 19.9821C15.7548 21.037 13.8987 21.6 12 21.6C9.45393 21.6 7.01213 20.5886 5.21178 18.7882C3.41143 16.9879 2.40001 14.5461 2.40001 12Z" fill="currentColor"/>
</svg>
