<?xml version="1.0" encoding="UTF-8"?>
<svg width="32px" height="32px" viewBox="0 0 32 32" version="1.1" xmlns="http://www.w3.org/2000/svg" xmlns:xlink="http://www.w3.org/1999/xlink">
    <!-- Generator: Sketch 48.1 (47250) - http://www.bohemiancoding.com/sketch -->
    <title>ClearClose32</title>
    <desc>Created with Sketch.</desc>
    <defs></defs>
    <g id="Page-1" stroke="none" stroke-width="1" fill="none" fill-rule="evenodd">
        <g id="ClearClose32" fill="#000000" fill-rule="nonzero">
            <path d="M16,14.5857864 L30.2928932,0.292893219 C30.6834175,-0.0976310729 31.3165825,-0.0976310729 31.7071068,0.292893219 C32.0976311,0.683417511 32.0976311,1.31658249 31.7071068,1.70710678 L17.4142136,16 L31.7071068,30.2928932 C32.0976311,30.6834175 32.0976311,31.3165825 31.7071068,31.7071068 C31.3165825,32.0976311 30.6834175,32.0976311 30.2928932,31.7071068 L16,17.4142136 L1.70710678,31.7071068 C1.31658249,32.0976311 0.683417511,32.0976311 0.292893219,31.7071068 C-0.0976310729,31.3165825 -0.0976310729,30.6834175 0.292893219,30.2928932 L14.5857864,16 L0.292893219,1.70710678 C-0.0976310729,1.31658249 -0.0976310729,0.683417511 0.292893219,0.292893219 C0.683417511,-0.0976310729 1.31658249,-0.0976310729 1.70710678,0.292893219 L16,14.5857864 Z"></path>
        </g>
    </g>
</svg>