<?xml version="1.0" encoding="UTF-8"?>
<svg width="24px" height="24px" viewBox="0 0 24 24" version="1.1" xmlns="http://www.w3.org/2000/svg" xmlns:xlink="http://www.w3.org/1999/xlink">
    <!-- Generator: Sketch 48.2 (47327) - http://www.bohemiancoding.com/sketch -->
    <title>Clock24</title>
    <desc>Created with Sketch.</desc>
    <defs></defs>
    <g id="Page-1" stroke="none" stroke-width="1" fill="none" fill-rule="evenodd">
        <g id="Clock24" fill="#000000" fill-rule="nonzero">
            <path d="M12,24 C5.372583,24 0,18.627417 0,12 C0,5.372583 5.372583,0 12,0 C18.627417,0 24,5.372583 24,12 C24,18.627417 18.627417,24 12,24 Z M12,22 C17.5228475,22 22,17.5228475 22,12 C22,6.4771525 17.5228475,2 12,2 C6.4771525,2 2,6.4771525 2,12 C2,17.5228475 6.4771525,22 12,22 Z M12,11 L15.6684228,14.2785478 C16.1105257,14.6723538 16.1105257,15.3108395 15.6684228,15.7046455 C15.2263198,16.0984515 14.5095293,16.0984515 14.0674263,15.7046455 L10.3315772,12.3769144 C10.1192719,12.1878021 10,11.9313107 10,11.6638655 L10,5.00840336 C10,4.45147756 10.374772,4 11,4 C11.625228,4 12,4.4430742 12,5 L12,11 Z"></path>
        </g>
    </g>
</svg>