<?xml version="1.0" encoding="UTF-8"?>
<svg width="32px" height="32px" viewBox="0 0 32 32" version="1.1" xmlns="http://www.w3.org/2000/svg" xmlns:xlink="http://www.w3.org/1999/xlink">
    <!-- Generator: Sketch 48.2 (47327) - http://www.bohemiancoding.com/sketch -->
    <title>Clock32</title>
    <desc>Created with Sketch.</desc>
    <defs></defs>
    <g id="Page-1" stroke="none" stroke-width="1" fill="none" fill-rule="evenodd">
        <g id="Clock32" fill="#000000" fill-rule="nonzero">
            <path d="M16.8461538,15.2765675 L20.729637,19.3479612 C21.090121,19.7258879 21.090121,20.3386282 20.729637,20.7165549 C20.3691531,21.0944817 19.7846931,21.0944817 19.4242091,20.7165549 L15.270363,16.3617162 C15.0972525,16.1802294 15,15.9340805 15,15.6774194 L15,6.96774194 C15,6.43327282 15.4132756,6 15.9230769,6 C16.4328782,6 16.8461538,6.43327282 16.8461538,6.96774194 L16.8461538,15.2765675 Z M16,32 C7.163444,32 0,24.836556 0,16 C0,7.163444 7.163444,0 16,0 C24.836556,0 32,7.163444 32,16 C32,24.836556 24.836556,32 16,32 Z M16,30 C23.7319865,30 30,23.7319865 30,16 C30,8.2680135 23.7319865,2 16,2 C8.2680135,2 2,8.2680135 2,16 C2,23.7319865 8.2680135,30 16,30 Z"></path>
        </g>
    </g>
</svg>