<svg width="32" height="32" viewBox="0 0 32 32" fill="none" xmlns="http://www.w3.org/2000/svg">
<path d="M26.2701 8.76646C25.2922 6.50815 23.6044 4.63437 21.4654 3.43226C19.3265 2.23016 16.8543 1.76603 14.4278 2.11102C12.0012 2.456 9.75416 3.59106 8.03092 5.34226C6.30768 7.09346 5.20332 9.3642 4.88708 11.8065C3.54618 12.1347 2.34672 12.8896 1.46747 13.9587C0.588216 15.0277 0.0762465 16.3537 0.00786637 17.7389C-0.0605137 19.1242 0.318357 20.4946 1.08801 21.6458C1.85766 22.7971 2.97689 23.6676 4.27888 24.1276C4.44487 24.1789 4.61737 24.206 4.79105 24.208C5.21553 24.2762 5.64961 24.1722 5.99779 23.9188C6.34598 23.6655 6.57974 23.2835 6.64766 22.8569C6.71557 22.4303 6.61208 21.994 6.35995 21.6441C6.10782 21.2942 5.7277 21.0593 5.30322 20.991C4.69967 20.7721 4.17553 20.3759 3.79881 19.8539C3.42208 19.3318 3.21015 18.7081 3.19052 18.0635C3.19052 17.2104 3.52777 16.3921 4.12809 15.7888C4.7284 15.1855 5.5426 14.8466 6.39157 14.8466C6.81606 14.8466 7.22316 14.6771 7.52332 14.3754C7.82347 14.0738 7.9921 13.6647 7.9921 13.2381C7.99619 11.3357 8.67118 9.49632 9.89716 8.0468C11.1231 6.59727 12.8207 5.63143 14.6883 5.32087C16.5559 5.01031 18.4726 5.37513 20.0978 6.35052C21.723 7.32591 22.9516 8.84872 23.5652 10.6484C23.6567 10.9248 23.8212 11.171 24.041 11.3609C24.2609 11.5507 24.5279 11.6769 24.8136 11.7261C25.7761 11.9012 26.6624 12.3674 27.354 13.0626C28.0455 13.7577 28.5094 14.6485 28.6834 15.6157C28.8575 16.583 28.7334 17.5806 28.3279 18.4751C27.9223 19.3696 27.2547 20.1183 26.4142 20.621C26.0449 20.8343 25.775 21.1863 25.6639 21.5996C25.5529 22.0129 25.6097 22.4535 25.822 22.8247C26.0342 23.1958 26.3845 23.467 26.7957 23.5786C27.2069 23.6903 27.6454 23.6331 28.0147 23.4198C29.2282 22.7119 30.2352 21.6958 30.9347 20.4734C31.6342 19.251 32.0016 17.8652 32 16.4551C31.9951 14.7245 31.435 13.0417 30.4027 11.6566C29.3705 10.2715 27.9212 9.25793 26.2701 8.76646ZM20.4602 15.9082C19.8535 16.0408 19.2257 16.042 18.6185 15.9116C18.0114 15.7813 17.4388 15.5224 16.939 15.1522C16.6649 14.9509 16.3342 14.8424 15.9947 14.8424C15.6552 14.8424 15.3245 14.9509 15.0504 15.1522C14.5511 15.5233 13.9786 15.7828 13.3713 15.9132C12.7639 16.0435 12.1359 16.0418 11.5293 15.9082C11.2955 15.8574 11.0534 15.86 10.8207 15.9157C10.5881 15.9713 10.3708 16.0787 10.1848 16.2299C10.0012 16.3795 9.85289 16.5682 9.7505 16.7824C9.6481 16.9965 9.59419 17.2308 9.59263 17.4684V22.889C9.59138 24.0425 9.85675 25.1804 10.3678 26.2132C10.8789 27.246 11.6216 28.1454 12.5376 28.8404L15.0504 30.6902C15.3245 30.8915 15.6552 31 15.9947 31C16.3342 31 16.6649 30.8915 16.939 30.6902L19.4519 28.8244C20.3684 28.1335 21.1119 27.2373 21.6231 26.2069C22.1344 25.1765 22.3993 24.0404 22.3968 22.889V17.4684C22.3953 17.2308 22.3414 16.9965 22.239 16.7824C22.1366 16.5682 21.9882 16.3795 21.8046 16.2299C21.6187 16.0787 21.4014 15.9713 21.1688 15.9157C20.9361 15.86 20.694 15.8574 20.4602 15.9082ZM19.1958 22.889C19.1817 23.5107 19.0309 24.1215 18.7542 24.6777C18.4774 25.2339 18.0817 25.7217 17.5953 26.106L15.9947 27.2641L14.3942 26.106C13.9078 25.7217 13.512 25.2339 13.2353 24.6777C12.9586 24.1215 12.8078 23.5107 12.7937 22.889V19.2217C13.9131 19.1711 15.007 18.8688 15.9947 18.337C16.9825 18.8688 18.0764 19.1711 19.1958 19.2217V22.889Z" fill="currentColor"/>
</svg>
