<svg width="24" height="24" viewBox="0 0 24 24" fill="none" xmlns="http://www.w3.org/2000/svg">
<path d="M19.7026 6.57485C18.9691 4.88111 17.7033 3.47578 16.0991 2.5742C14.4949 1.67262 12.6407 1.32453 10.8208 1.58326C9.00091 1.842 7.31562 2.6933 6.02319 4.0067C4.73076 5.3201 3.90249 7.02315 3.66531 8.85488C2.65964 9.10105 1.76004 9.66721 1.1006 10.469C0.441162 11.2708 0.0571849 12.2653 0.00589978 13.3042C-0.0453853 14.3432 0.238768 15.3709 0.816008 16.2344C1.39325 17.0978 2.23267 17.7507 3.20916 18.0957C3.33365 18.1342 3.46302 18.1545 3.59328 18.156C3.91165 18.2072 4.23721 18.1292 4.49835 17.9391C4.75948 17.7491 4.9348 17.4626 4.98574 17.1426C5.03668 16.8227 4.95906 16.4955 4.76996 16.2331C4.58087 15.9706 4.29578 15.7944 3.97741 15.7433C3.52475 15.579 3.13165 15.2819 2.84911 14.8904C2.56656 14.4989 2.40761 14.0311 2.39289 13.5477C2.39289 12.9078 2.64583 12.2941 3.09606 11.8416C3.5463 11.3891 4.15695 11.1349 4.79368 11.1349C5.11204 11.1349 5.41737 11.0078 5.64249 10.7816C5.8676 10.5553 5.99407 10.2485 5.99407 9.92855C5.99714 8.50175 6.50339 7.12224 7.42287 6.0351C8.34235 4.94795 9.61553 4.22357 11.0162 3.99065C12.4169 3.75773 13.8544 4.03135 15.0733 4.76289C16.2923 5.49444 17.2137 6.63654 17.6739 7.9863C17.7425 8.1936 17.8659 8.37829 18.0308 8.52064C18.1957 8.66299 18.396 8.75767 18.6102 8.79457C19.3321 8.92587 19.9968 9.27558 20.5155 9.79692C21.0341 10.3183 21.382 10.9863 21.5126 11.7118C21.6431 12.4373 21.5501 13.1855 21.2459 13.8564C20.9418 14.5272 20.441 15.0887 19.8106 15.4658C19.5336 15.6258 19.3312 15.8898 19.248 16.1997C19.1647 16.5097 19.2073 16.8402 19.3665 17.1185C19.5257 17.3969 19.7883 17.6003 20.0968 17.684C20.4052 17.7677 20.734 17.7248 21.011 17.5649C21.9212 17.034 22.6764 16.2719 23.201 15.355C23.7257 14.4382 24.0012 13.3989 24 12.3413C23.9963 11.0434 23.5762 9.7813 22.802 8.74246C22.0278 7.70362 20.9409 6.94344 19.7026 6.57485ZM15.3451 11.9311C14.8901 12.0306 14.4193 12.0315 13.9639 11.9337C13.5085 11.8359 13.0791 11.6418 12.7043 11.3641C12.4987 11.2132 12.2507 11.1318 11.996 11.1318C11.7414 11.1318 11.4934 11.2132 11.2878 11.3641C10.9133 11.6425 10.4839 11.8371 10.0284 11.9349C9.57295 12.0327 9.10191 12.0314 8.64695 11.9311C8.47162 11.8931 8.29003 11.895 8.11553 11.9367C7.94104 11.9785 7.77807 12.059 7.63862 12.1724C7.50091 12.2847 7.38967 12.4262 7.31287 12.5868C7.23608 12.7474 7.19564 12.9231 7.19447 13.1013V17.1668C7.19353 18.0319 7.39256 18.8853 7.77585 19.6599C8.15915 20.4345 8.71623 21.109 9.4032 21.6303L11.2878 23.0177C11.4934 23.1686 11.7414 23.25 11.996 23.25C12.2507 23.25 12.4987 23.1686 12.7043 23.0177L14.5889 21.6183C15.2763 21.1001 15.8339 20.4279 16.2174 19.6552C16.6008 18.8824 16.7995 18.0303 16.7976 17.1668V13.1013C16.7965 12.9231 16.756 12.7474 16.6792 12.5868C16.6024 12.4262 16.4912 12.2847 16.3535 12.1724C16.214 12.059 16.0511 11.9785 15.8766 11.9367C15.7021 11.895 15.5205 11.8931 15.3451 11.9311ZM14.3968 17.1668C14.3863 17.633 14.2732 18.0912 14.0656 18.5083C13.8581 18.9254 13.5613 19.2913 13.1964 19.5795L11.996 20.4481L10.7957 19.5795C10.4308 19.2913 10.134 18.9254 9.92647 18.5083C9.71894 18.0912 9.60583 17.633 9.59526 17.1668V14.4162C10.4348 14.3783 11.2552 14.1516 11.996 13.7527C12.7369 14.1516 13.5573 14.3783 14.3968 14.4162V17.1668Z" fill="currentColor"/>
</svg>
