<svg width="32" height="32" viewBox="0 0 32 32" fill="none" xmlns="http://www.w3.org/2000/svg">
<path d="M11.9315 6.51715C11.7663 6.35328 11.5699 6.22322 11.3534 6.13446C11.1369 6.0457 10.9046 6 10.6701 6C10.4356 6 10.2033 6.0457 9.98685 6.13446C9.77035 6.22322 9.57385 6.35328 9.40869 6.51715L0.525525 15.2587C0.359004 15.4212 0.226833 15.6146 0.136635 15.8276C0.0464381 16.0407 0 16.2692 0 16.5C0 16.7308 0.0464381 16.9593 0.136635 17.1724C0.226833 17.3854 0.359004 17.5788 0.525525 17.7413L9.40869 26.4829C9.57385 26.6467 9.77035 26.7768 9.98685 26.8655C10.2033 26.9543 10.4356 27 10.6701 27C10.9046 27 11.1369 26.9543 11.3534 26.8655C11.5699 26.7768 11.7663 26.6467 11.9315 26.4829C12.098 26.3203 12.2302 26.127 12.3204 25.9139C12.4106 25.7009 12.457 25.4723 12.457 25.2416C12.457 25.0108 12.4106 24.7822 12.3204 24.5692C12.2302 24.3561 12.098 24.1628 11.9315 24.0003L4.29199 16.5L11.9315 8.99975C12.098 8.83722 12.2302 8.64386 12.3204 8.43081C12.4106 8.21776 12.457 7.98925 12.457 7.75845C12.457 7.52765 12.4106 7.29914 12.3204 7.08609C12.2302 6.87304 12.098 6.67968 11.9315 6.51715ZM31.4745 15.2587L22.5913 6.51715C22.4257 6.35414 22.229 6.22483 22.0126 6.13661C21.7961 6.04839 21.5642 6.00298 21.3299 6.00298C20.8568 6.00298 20.403 6.18793 20.0685 6.51715C19.9028 6.68016 19.7714 6.87368 19.6818 7.08666C19.5921 7.29964 19.546 7.52792 19.546 7.75845C19.546 8.22403 19.7339 8.67053 20.0685 8.99975L27.708 16.5L20.0685 24.0003C19.902 24.1628 19.7698 24.3561 19.6796 24.5692C19.5894 24.7822 19.543 25.0108 19.543 25.2416C19.543 25.4723 19.5894 25.7009 19.6796 25.9139C19.7698 26.127 19.902 26.3203 20.0685 26.4829C20.2337 26.6467 20.4301 26.7768 20.6466 26.8655C20.8631 26.9543 21.0954 27 21.3299 27C21.5644 27 21.7967 26.9543 22.0132 26.8655C22.2297 26.7768 22.4261 26.6467 22.5913 26.4829L31.4745 17.7413C31.641 17.5788 31.7732 17.3854 31.8634 17.1724C31.9536 16.9593 32 16.7308 32 16.5C32 16.2692 31.9536 16.0407 31.8634 15.8276C31.7732 15.6146 31.641 15.4212 31.4745 15.2587Z" fill="currentColor"/>
</svg>
