<svg width="32" height="32" fill="none" viewBox="0 0 32 21" xmlns="http://www.w3.org/2000/svg">
<path d="M11.9315 0.517147C11.7663 0.353281 11.5699 0.223217 11.3534 0.134458C11.1369 0.0456982 10.9046 0 10.6701 0C10.4356 0 10.2033 0.0456982 9.98685 0.134458C9.77035 0.223217 9.57385 0.353281 9.40869 0.517147L0.525525 9.2587C0.359004 9.42123 0.226833 9.61459 0.136635 9.82764C0.0464381 10.0407 0 10.2692 0 10.5C0 10.7308 0.0464381 10.9593 0.136635 11.1724C0.226833 11.3854 0.359004 11.5788 0.525525 11.7413L9.40869 20.4829C9.57385 20.6467 9.77035 20.7768 9.98685 20.8655C10.2033 20.9543 10.4356 21 10.6701 21C10.9046 21 11.1369 20.9543 11.3534 20.8655C11.5699 20.7768 11.7663 20.6467 11.9315 20.4829C12.098 20.3203 12.2302 20.127 12.3204 19.9139C12.4106 19.7009 12.457 19.4723 12.457 19.2416C12.457 19.0108 12.4106 18.7822 12.3204 18.5692C12.2302 18.3561 12.098 18.1628 11.9315 18.0003L4.29199 10.5L11.9315 2.99975C12.098 2.83722 12.2302 2.64386 12.3204 2.43081C12.4106 2.21776 12.457 1.98925 12.457 1.75845C12.457 1.52765 12.4106 1.29914 12.3204 1.08609C12.2302 0.87304 12.098 0.679675 11.9315 0.517147ZM31.4745 9.2587L22.5913 0.517147C22.4257 0.354137 22.229 0.224831 22.0126 0.136611C21.7961 0.0483906 21.5642 0.00298367 21.3299 0.00298367C20.8568 0.00298367 20.403 0.187934 20.0685 0.517147C19.9028 0.680157 19.7714 0.873678 19.6818 1.08666C19.5921 1.29964 19.546 1.52792 19.546 1.75845C19.546 2.22403 19.7339 2.67053 20.0685 2.99975L27.708 10.5L20.0685 18.0003C19.902 18.1628 19.7698 18.3561 19.6796 18.5692C19.5894 18.7822 19.543 19.0108 19.543 19.2416C19.543 19.4723 19.5894 19.7009 19.6796 19.9139C19.7698 20.127 19.902 20.3203 20.0685 20.4829C20.2337 20.6467 20.4301 20.7768 20.6466 20.8655C20.8631 20.9543 21.0954 21 21.3299 21C21.5644 21 21.7967 20.9543 22.0132 20.8655C22.2297 20.7768 22.4261 20.6467 22.5913 20.4829L31.4745 11.7413C31.641 11.5788 31.7732 11.3854 31.8634 11.1724C31.9536 10.9593 32 10.7308 32 10.5C32 10.2692 31.9536 10.0407 31.8634 9.82764C31.7732 9.61459 31.641 9.42123 31.4745 9.2587Z" fill="currentColor"/>
</svg>