<svg width="24" height="24" viewBox="0 0 24 24" fill="none" xmlns="http://www.w3.org/2000/svg">
<path d="M8.94863 4.88786C8.82476 4.76496 8.67739 4.66741 8.51501 4.60084C8.35264 4.53427 8.17848 4.5 8.00257 4.5C7.82667 4.5 7.65251 4.53427 7.49014 4.60084C7.32776 4.66741 7.18039 4.76496 7.05652 4.88786L0.394144 11.444C0.269253 11.5659 0.170125 11.7109 0.102477 11.8707C0.0348286 12.0305 0 12.2019 0 12.375C0 12.5481 0.0348286 12.7195 0.102477 12.8793C0.170125 13.0391 0.269253 13.1841 0.394144 13.306L7.05652 19.8621C7.18039 19.985 7.32776 20.0826 7.49014 20.1492C7.65251 20.2157 7.82667 20.25 8.00257 20.25C8.17848 20.25 8.35264 20.2157 8.51501 20.1492C8.67739 20.0826 8.82476 19.985 8.94863 19.8621C9.07352 19.7402 9.17265 19.5952 9.2403 19.4354C9.30795 19.2756 9.34278 19.1043 9.34278 18.9312C9.34278 18.7581 9.30795 18.5867 9.2403 18.4269C9.17265 18.2671 9.07352 18.1221 8.94863 18.0002L3.21899 12.375L8.94863 6.74981C9.07352 6.62791 9.17265 6.48289 9.2403 6.32311C9.30795 6.16332 9.34278 5.99193 9.34278 5.81884C9.34278 5.64574 9.30795 5.47435 9.2403 5.31457C9.17265 5.15478 9.07352 5.00976 8.94863 4.88786ZM23.6059 11.444L16.9435 4.88786C16.8192 4.7656 16.6718 4.66862 16.5094 4.60246C16.3471 4.53629 16.1731 4.50224 15.9974 4.50224C15.6426 4.50224 15.3023 4.64095 15.0514 4.88786C14.9271 5.01012 14.8286 5.15526 14.7613 5.315C14.6941 5.47473 14.6595 5.64594 14.6595 5.81884C14.6595 6.16802 14.8005 6.5029 15.0514 6.74981L20.781 12.375L15.0514 18.0002C14.9265 18.1221 14.8273 18.2671 14.7597 18.4269C14.6921 18.5867 14.6572 18.7581 14.6572 18.9312C14.6572 19.1043 14.6921 19.2756 14.7597 19.4354C14.8273 19.5952 14.9265 19.7402 15.0514 19.8621C15.1752 19.985 15.3226 20.0826 15.485 20.1492C15.6474 20.2157 15.8215 20.25 15.9974 20.25C16.1733 20.25 16.3475 20.2157 16.5099 20.1492C16.6722 20.0826 16.8196 19.985 16.9435 19.8621L23.6059 13.306C23.7307 13.1841 23.8299 13.0391 23.8975 12.8793C23.9652 12.7195 24 12.5481 24 12.375C24 12.2019 23.9652 12.0305 23.8975 11.8707C23.8299 11.7109 23.7307 11.5659 23.6059 11.444Z" fill="currentColor"/>
</svg>
