<svg width="32" height="32" viewBox="0 0 32 32" fill="none" xmlns="http://www.w3.org/2000/svg">
<path d="M20 12H17.3334V9.33334C17.3334 8.97972 17.1929 8.64058 16.9428 8.39053C16.6928 8.14048 16.3536 8.00001 16 8.00001C15.6464 8.00001 15.3073 8.14048 15.0572 8.39053C14.8072 8.64058 14.6667 8.97972 14.6667 9.33334V12H12C11.6464 12 11.3073 12.1405 11.0572 12.3905C10.8072 12.6406 10.6667 12.9797 10.6667 13.3333C10.6667 13.687 10.8072 14.0261 11.0572 14.2761C11.3073 14.5262 11.6464 14.6667 12 14.6667H14.6667V17.3333C14.6667 17.687 14.8072 18.0261 15.0572 18.2761C15.3073 18.5262 15.6464 18.6667 16 18.6667C16.3536 18.6667 16.6928 18.5262 16.9428 18.2761C17.1929 18.0261 17.3334 17.687 17.3334 17.3333V14.6667H20C20.3536 14.6667 20.6928 14.5262 20.9428 14.2761C21.1929 14.0261 21.3334 13.687 21.3334 13.3333C21.3334 12.9797 21.1929 12.6406 20.9428 12.3905C20.6928 12.1405 20.3536 12 20 12ZM25.3334 2.66667H6.66669C5.60582 2.66667 4.58841 3.0881 3.83826 3.83824C3.08811 4.58839 2.66669 5.60581 2.66669 6.66667V20C2.66669 21.0609 3.08811 22.0783 3.83826 22.8284C4.58841 23.5786 5.60582 24 6.66669 24H22.12L27.0534 28.9467C27.1779 29.0702 27.3257 29.168 27.4881 29.2344C27.6506 29.3007 27.8245 29.3344 28 29.3333C28.1749 29.3378 28.3484 29.3013 28.5067 29.2267C28.7502 29.1266 28.9586 28.9568 29.1057 28.7385C29.2528 28.5202 29.332 28.2632 29.3334 28V6.66667C29.3334 5.60581 28.9119 4.58839 28.1618 3.83824C27.4116 3.0881 26.3942 2.66667 25.3334 2.66667ZM26.6667 24.7867L23.6134 21.72C23.4888 21.5964 23.341 21.4987 23.1786 21.4323C23.0161 21.366 22.8422 21.3323 22.6667 21.3333H6.66669C6.31307 21.3333 5.97393 21.1929 5.72388 20.9428C5.47383 20.6928 5.33335 20.3536 5.33335 20V6.66667C5.33335 6.31305 5.47383 5.97391 5.72388 5.72386C5.97393 5.47381 6.31307 5.33334 6.66669 5.33334H25.3334C25.687 5.33334 26.0261 5.47381 26.2762 5.72386C26.5262 5.97391 26.6667 6.31305 26.6667 6.66667V24.7867Z" fill="currentColor"/>
</svg>
