<?xml version="1.0" encoding="UTF-8"?>
<svg width="32px" height="32px" viewBox="0 0 32 32" version="1.1" xmlns="http://www.w3.org/2000/svg" xmlns:xlink="http://www.w3.org/1999/xlink">
    <!-- Generator: Sketch 48.1 (47250) - http://www.bohemiancoding.com/sketch -->
    <title>Configuration32</title>
    <desc>Created with Sketch.</desc>
    <defs></defs>
    <g id="Page-1" stroke="none" stroke-width="1" fill="none" fill-rule="evenodd">
        <g id="Configuration32" fill="#000000" fill-rule="nonzero">
            <path d="M16,13 C14.3426058,13 13,14.3422981 13,15.9988543 C13,17.656131 14.3433263,19 16,19 C17.6566737,19 19,17.656131 19,15.9988543 C19,14.3422981 17.6573942,13 16,13 Z M16,11 C18.7618611,11 21,13.237626 21,15.9988543 C21,18.7600825 18.7618611,21 16,21 C13.2381389,21 11,18.7600825 11,15.9988543 C11,13.237626 13.2381389,11 16,11 Z M28.96,16.909 L29.091,16.909 C29.5929789,16.909 30,16.5018822 30,16 C30,15.4975695 29.5934305,15.091 29.091,15.091 L28.8356406,15.0909825 C27.0819439,15.0836526 25.5010569,14.0357591 24.8099263,12.4243433 C24.7454513,12.2740155 24.6998222,12.1167254 24.6737745,11.9560532 C24.1615674,10.439022 24.5168865,8.74965882 25.6338895,7.5422148 C25.6959173,7.40503536 25.7335314,7.39227703 25.8027864,7.36878644 C26.1475737,7.02369535 26.15674,6.47006794 25.830341,6.11399652 C25.4433975,5.72682467 24.8686876,5.72711419 24.5132136,6.08321356 L24.4087947,6.18744395 C23.1226461,7.44423684 21.1994194,7.79287371 19.5756567,7.07407367 C17.9635596,6.3826509 16.9155098,4.80074749 16.91,3.04 L16.91,2.909 C16.91,2.40697287 16.5028338,2 16,2 C15.4981178,2 15.091,2.40702114 15.091,2.909 L15.0909825,3.16435938 C15.0836503,4.91859358 14.0360833,6.50106646 12.423576,7.19083065 C12.2730828,7.25520544 12.1156336,7.30070254 11.9548164,7.32658676 C10.3993214,7.85120333 8.66553441,7.46493244 7.45878644,6.28721356 L7.37078644,6.19921356 C7.18279423,6.01122136 7.03609179,5.78965778 6.93651578,5.54861383 C6.96061521,5.59322169 7.09731965,5.79481798 7.37103189,6.19845792 C7.01567411,5.84372522 6.43986174,5.84374769 6.08331119,6.19911775 C5.72740947,6.5566422 5.72769946,7.13227233 6.08321356,7.48778644 L6.18440531,7.58912205 C7.42920493,8.85928877 7.78488561,10.7526268 7.09187162,12.3854418 C6.45325465,14.0488075 4.8718981,15.1648058 3.04,15.207 L2.91,15.207 C2.40761791,15.207 2,15.6145212 2,16.116 C2,16.6180271 2.40716616,17.025 2.91,17.025 L3.16535938,17.0250175 C4.91955969,17.0323496 6.50053241,18.0797828 7.18296838,19.6730206 C7.90863568,21.3185995 7.56042028,23.2395012 6.28721356,24.5422136 L6.19821356,24.6312136 C5.85045906,24.9789681 5.84398165,25.5394519 6.17917772,25.8961198 C6.55688684,26.2728347 7.1325563,26.2726414 7.49589061,25.9087284 L7.59012205,25.8155947 C8.86027595,24.5708076 10.7524671,24.2161817 12.3860738,24.908021 C14.0502513,25.5477294 15.1666405,27.129101 15.207,28.96 L15.207,29.091 C15.207,29.5930271 15.6141662,30 16.117,30 C16.6188822,30 17.026,29.5929789 17.026,29.091 L17.0260175,28.8346319 C17.0333519,27.0817234 18.0804423,25.4999705 19.6730206,24.8170316 C21.3195324,24.0909529 23.2416107,24.4399961 24.5412136,25.7137864 L24.6281121,25.800685 C24.9667161,26.1376977 25.5013087,26.1552321 25.8586014,25.8542429 C25.9079107,25.7942996 25.9544419,25.7439163 26.0043785,25.6997835 C26.2704201,25.3433647 26.2413507,24.8362079 25.9167864,24.5122136 L25.8125561,24.4077947 C24.5588397,23.1247945 24.2097435,21.20869 24.9299392,19.566324 C25.6230701,17.9594135 27.2011203,16.9163342 28.96,16.909 Z M6.93651578,5.54861383 C6.83742265,5.30873879 6.785,5.04957186 6.785,4.785 C6.804585,5.08819947 6.81438836,5.23996723 6.88742075,5.4163987 L6.93651578,5.54861383 Z M5.89562261,25.6678624 C5.82149434,25.6221328 5.78474944,25.5994649 5.75804394,25.5839912 C5.83856999,25.6302608 5.88491372,25.6597424 5.92996062,25.6910725 C5.91970332,25.6840851 5.90843343,25.6764928 5.89562261,25.6678624 Z M5.75804394,25.5839912 C5.73179454,25.5687817 5.71524454,25.5605226 5.68242719,25.5441456 C5.71926315,25.5625636 5.75548422,25.5820963 5.79104288,25.6027095 L5.75804394,25.5839912 Z M24.9343638,19.5562677 L24.9256019,19.5764135 C24.9270443,19.5730466 24.9284907,19.569682 24.9299409,19.56632 C24.9314096,19.5629707 24.9328845,19.5596186 24.9343638,19.5562677 Z M26.764,20.364 C26.368,21.261 26.558,22.309 27.243,23.01 L27.331,23.098 C28.468,24.233 28.469,26.076 27.333,27.213 C26.196,28.351 24.354,28.352 23.217,27.217 C23.2163333,27.2163333 23.1863333,27.1866667 23.127,27.128 C22.426,26.441 21.378,26.251 20.48,26.647 C19.601,27.024 19.03,27.887 19.026,28.843 L19.026,29.091 C19.026,30.698 17.723,32 16.117,32 C14.51,32 13.207,30.698 13.207,29.091 L13.207,28.96 C13.185,27.974 12.562,27.104 11.637,26.763 C10.739,26.368 9.691,26.557 8.99,27.244 L8.902,27.331 C7.767,28.468 5.925,28.468 4.788,27.333 C3.649,26.195 3.648,24.353 4.784,23.217 L4.873,23.128 C5.559,22.426 5.749,21.378 5.353,20.48 C4.976,19.6 4.114,19.029 3.157,19.025 L2.91,19.025 C1.303,19.025 0,17.723 0,16.116 C0,14.51 1.303,13.207 2.91,13.207 L3.04,13.207 C4.026,13.184 4.897,12.561 5.237,11.636 C5.633,10.739 5.443,9.69 4.756,8.989 L4.669,8.902 C3.533,7.766 3.532,5.925 4.667,4.788 C5.805,3.649 7.647,3.648 8.784,4.783 C8.78466667,4.78366667 8.81433333,4.81366667 8.873,4.873 C9.575,5.558 10.622,5.749 11.52,5.352 L11.637,5.352 C12.516,4.976 13.087,4.113 13.091,3.156 L13.091,2.909 C13.091,1.302 14.394,0 16,0 C17.607,0 18.91,1.302 18.91,2.909 L18.91,3.04 C18.913,3.997 19.485,4.859 20.364,5.236 C21.261,5.633 22.31,5.442 23.011,4.757 L23.099,4.669 C24.234,3.532 26.076,3.531 27.212,4.667 C28.352,5.804 28.353,7.646 27.217,8.783 C27.2163333,8.78366667 27.1863333,8.81366667 27.127,8.873 C26.442,9.574 26.251,10.623 26.648,11.52 L26.648,11.636 C27.025,12.515 27.887,13.087 28.844,13.091 L29.091,13.091 C30.698,13.091 32,14.393 32,16 C32,17.606 30.698,18.909 29.091,18.909 L28.96,18.909 C28.003,18.913 27.141,19.484 26.764,20.364 Z"></path>
        </g>
    </g>
</svg>