<?xml version="1.0" encoding="UTF-8"?>
<svg width="32px" height="32px" viewBox="0 0 32 32" version="1.1" xmlns="http://www.w3.org/2000/svg" xmlns:xlink="http://www.w3.org/1999/xlink">
    <!-- Generator: Sketch 48.2 (47327) - http://www.bohemiancoding.com/sketch -->
    <title>Copy32</title>
    <desc>Created with Sketch.</desc>
    <defs></defs>
    <g id="Page-1" stroke="none" stroke-width="1" fill="none" fill-rule="evenodd">
        <g id="Copy32" fill="#000000" fill-rule="nonzero">
            <path d="M12,3 L12,17 C12,18.6592161 13.3405012,20 15,20 L28,20 C29.6543053,20 32,18.6594988 32,17 L32,3 C32,1.34078395 30.6594988,0 29,0 L15,0 C13.3407839,0 12,1.3405012 12,3 Z M29,2 C29.5548349,2 30,2.44525903 30,3 L30,17 C30,17.5548349 29.554741,18 29,18 L15,18 C14.4451651,18 14,17.554741 14,17 L14,3 C14,2.44516513 14.445259,2 15,2 L29,2 Z M3,12 L9,12 C9.63529256,12 10.0830078,12.4477153 10,13 C10.0830078,13.5522847 9.63529256,14 9,14 L3,14 C2.44611226,14 2,14.4454505 2,15 L2,29 C2,29.554741 2.44516513,30 3,30 L17,30 C17.5558793,30 18,29.5541147 18,29 L18,23 C18,22.4045024 18.4477153,21.9567871 19,22 C19.5522847,21.9567871 20,22.4045024 20,23 L20,29 C20,30.6569129 18.6622279,32 17,32 L3,32 C1.3405012,32 0,30.6592161 0,29 L0,15 C0,13.3402158 1.34220684,12 3,12 Z"></path>
        </g>
    </g>
</svg>