<svg width="24" height="24" viewBox="0 0 24 24" fill="none" xmlns="http://www.w3.org/2000/svg">
<rect width="24" height="24" fill="none"/>
<path clip-rule="evenodd" fill="#000000" fill-rule="evenodd" d="M22.528 8.004C22.5634 8.10916 22.5875 8.21776 22.6 8.328V8.4V15.6C22.6 17.5882 20.9882 19.2 19 19.2H17.8V20.4C17.8 22.3882 16.1882 24 14.2 24H4.6C2.61177 24 1 22.3882 1 20.4V8.4C1 6.41178 2.61177 4.8 4.6 4.8H5.8V3.6C5.8 1.61177 7.41178 0 9.4 0H14.26C14.3995 0.017213 14.5341 0.0620896 14.656 0.132C14.6918 0.126912 14.7282 0.126912 14.764 0.132C14.8874 0.189697 15.0008 0.266659 15.1 0.36L22.3 7.56C22.3933 7.6592 22.4703 7.77262 22.528 7.896V8.004ZM18.5075 7.20019L15.3995 4.09219V6.00019C15.3995 6.66293 15.9368 7.20019 16.5995 7.20019H18.5075ZM15.4002 20.4001C15.4002 21.0629 14.8629 21.6001 14.2002 21.6001H4.60017C3.93743 21.6001 3.40017 21.0629 3.40017 20.4001V8.40013C3.40017 7.73738 3.93743 7.20013 4.60017 7.20013H5.80017V15.6001C5.80017 17.5884 7.41194 19.2001 9.40017 19.2001H15.4002V20.4001ZM19.0005 16.8002C19.6632 16.8002 20.2005 16.2629 20.2005 15.6002V9.60017H16.6005C14.6123 9.60017 13.0005 7.98839 13.0005 6.00017V2.40017H9.4005C8.73776 2.40017 8.2005 2.93743 8.2005 3.60017V15.6002C8.2005 16.2629 8.73776 16.8002 9.4005 16.8002H19.0005Z" />
</svg>
