<?xml version="1.0" encoding="UTF-8"?>
<svg width="24px" height="24px" viewBox="0 0 24 24" version="1.1" xmlns="http://www.w3.org/2000/svg" xmlns:xlink="http://www.w3.org/1999/xlink">
    <!-- Generator: Sketch 48.1 (47250) - http://www.bohemiancoding.com/sketch -->
    <title>Copy24</title>
    <desc>Created with Sketch.</desc>
    <defs></defs>
    <g id="Page-1" stroke="none" stroke-width="1" fill="none" fill-rule="evenodd">
        <g id="Copy24" fill="#000000" fill-rule="nonzero">
            <path d="M10.9447853,9.96319018 C10.4026653,9.96319018 9.96319018,10.4026653 9.96319018,10.9447853 L9.96319018,21.0552147 C9.96319018,21.5973347 10.4026653,22.0368098 10.9447853,22.0368098 L21.0552147,22.0368098 C21.5973347,22.0368098 22.0368098,21.5973347 22.0368098,21.0552147 L22.0368098,10.9447853 C22.0368098,10.4026653 21.5973347,9.96319018 21.0552147,9.96319018 L10.9447853,9.96319018 Z M10.9447853,8 L21.0552147,8 C22.6815747,8 24,9.31842528 24,10.9447853 L24,21.0552147 C24,22.6815747 22.6815747,24 21.0552147,24 L10.9447853,24 C9.31842528,24 8,22.6815747 8,21.0552147 L8,10.9447853 C8,9.31842528 9.31842528,8 10.9447853,8 Z M4.2208589,14.0368098 C4.7629789,14.0368098 5.20245399,14.4762849 5.20245399,15.0184049 C5.20245399,15.5605249 4.7629789,16 4.2208589,16 L3.14110429,16 C1.4063203,16 0,14.5936797 0,12.8588957 L0,3.14110429 C-3.17029665e-16,1.4063203 1.4063203,0 3.14110429,0 L12.8588957,0 C14.5936797,0 16,1.4063203 16,3.14110429 L16,4.2208589 C16,4.7629789 15.5605249,5.20245399 15.0184049,5.20245399 C14.4762849,5.20245399 14.0368098,4.7629789 14.0368098,4.2208589 L14.0368098,3.14110429 C14.0368098,2.49056029 13.5094397,1.96319018 12.8588957,1.96319018 L3.14110429,1.96319018 C2.49056029,1.96319018 1.96319018,2.49056029 1.96319018,3.14110429 L1.96319018,12.8588957 C1.96319018,13.5094397 2.49056029,14.0368098 3.14110429,14.0368098 L4.2208589,14.0368098 Z"></path>
        </g>
    </g>
</svg>