<svg width="32" height="32" viewBox="0 0 32 32" fill="none" xmlns="http://www.w3.org/2000/svg">
<rect width="32" height="32" fill="none"/>
<path clip-rule="evenodd" fill="#000000" fill-rule="evenodd" d="M30.037 10.672C30.0842 10.8122 30.1163 10.957 30.133 11.104V11.2V20.8C30.133 23.451 27.984 25.6 25.333 25.6H23.733V27.2C23.733 29.851 21.584 32 18.933 32H6.13301C3.48204 32 1.33301 29.851 1.33301 27.2V11.2C1.33301 8.54903 3.48204 6.4 6.13301 6.4H7.73301V4.8C7.73301 2.14903 9.88204 0 12.533 0H19.013C19.199 0.0229507 19.3785 0.0827862 19.541 0.176C19.5888 0.169216 19.6372 0.169216 19.685 0.176C19.8495 0.25293 20.0007 0.355546 20.133 0.48L29.733 10.08C29.8575 10.2123 29.9601 10.3635 30.037 10.528V10.672ZM24.6763 9.60028L20.5323 5.45628V8.00028C20.5323 8.88394 21.2487 9.60028 22.1323 9.60028H24.6763ZM20.5333 27.2002C20.5333 28.0838 19.817 28.8002 18.9333 28.8002H6.13331C5.24965 28.8002 4.53331 28.0838 4.53331 27.2002V11.2002C4.53331 10.3165 5.24965 9.60019 6.13331 9.60019H7.73331V20.8002C7.73331 23.4512 9.88234 25.6002 12.5333 25.6002H20.5333V27.2002ZM25.3336 22.4002C26.2172 22.4002 26.9336 21.6839 26.9336 20.8002V12.8002H22.1336C19.4826 12.8002 17.3336 10.6512 17.3336 8.00022V3.20022H12.5336C11.6499 3.20022 10.9336 3.91656 10.9336 4.80022V20.8002C10.9336 21.6839 11.6499 22.4002 12.5336 22.4002H25.3336Z" />
</svg>
