<?xml version="1.0" encoding="UTF-8"?>
<svg width="24px" height="24px" viewBox="0 0 24 24" version="1.1" xmlns="http://www.w3.org/2000/svg" xmlns:xlink="http://www.w3.org/1999/xlink">
    <!-- Generator: Sketch 48.2 (47327) - http://www.bohemiancoding.com/sketch -->
    <title>Costumer24</title>
    <desc>Created with Sketch.</desc>
    <defs></defs>
    <g id="Page-1" stroke="none" stroke-width="1" fill="none" fill-rule="evenodd">
        <g id="Costumer24" fill="#000000" fill-rule="nonzero">
            <path d="M23,22.9285714 C23,23.5203051 22.5522847,24 22,24 C21.4477153,24 21,23.5203051 21,22.9285714 L21,20.3095238 C21,18.0137934 19.2141063,16.1428571 17,16.1428571 L7,16.1428571 C4.7858937,16.1428571 3,18.0137934 3,20.3095238 L3,22.9285714 C3,23.5203051 2.55228475,24 2,24 C1.44771525,24 1,23.5203051 1,22.9285714 L1,20.3095238 C1,16.819414 3.6912588,14 7,14 L17,14 C20.3087412,14 23,16.819414 23,20.3095238 L23,22.9285714 Z M12,12 C8.6912588,12 6,9.31889689 6,6 C6,2.68110311 8.6912588,0 12,0 C15.3087412,0 18,2.68110311 18,6 C18,9.31889689 15.3087412,12 12,12 Z M12,9.96226415 C14.2141063,9.96226415 16,8.18310967 16,6 C16,3.81689033 14.2141063,2.03773585 12,2.03773585 C9.7858937,2.03773585 8,3.81689033 8,6 C8,8.18310967 9.7858937,9.96226415 12,9.96226415 Z"></path>
        </g>
    </g>
</svg>