<?xml version="1.0" encoding="UTF-8"?>
<svg width="32px" height="32px" viewBox="0 0 32 32" version="1.1" xmlns="http://www.w3.org/2000/svg" xmlns:xlink="http://www.w3.org/1999/xlink">
    <!-- Generator: Sketch 48.1 (47250) - http://www.bohemiancoding.com/sketch -->
    <title>Costumer32</title>
    <desc>Created with Sketch.</desc>
    <defs></defs>
    <g id="Page-1" stroke="none" stroke-width="1" fill="none" fill-rule="evenodd">
        <g id="Costumer32" fill="#000000" fill-rule="nonzero">
            <path d="M16,16 C11.5625123,16 8,12.4017036 8,8 C8,3.59829642 11.5625123,0 16,0 C20.4374877,0 24,3.59829642 24,8 C24,12.4017036 20.4374877,16 16,16 Z M16,13.9285714 C19.1785495,13.9285714 21.7900552,11.290834 21.7900552,8 C21.7900552,4.70916599 19.1785495,2.07142857 16,2.07142857 C12.8214505,2.07142857 10.2099448,4.70916599 10.2099448,8 C10.2099448,11.290834 12.8214505,13.9285714 16,13.9285714 Z M29,31.1666667 C29,31.626904 28.5522847,32 28,32 C27.4477153,32 27,31.626904 27,31.1666667 L27,28.3888889 C27,25.7624457 24.7365586,24 22,24 L10,24 C7.26344137,24 5,25.7624457 5,28.3888889 L5,31.1666667 C5,31.626904 4.55228475,32 4,32 C3.44771525,32 3,31.626904 3,31.1666667 L3,28.3888889 C3,24.8788348 6.10914163,22 10,22 L22,22 C25.8908584,22 29,24.8788348 29,28.3888889 L29,31.1666667 Z"></path>
        </g>
    </g>
</svg>