<svg width="24" height="24" viewBox="0 0 24 24" fill="none" xmlns="http://www.w3.org/2000/svg">
<path d="M6 15H9.6C9.91826 15 10.2235 14.8736 10.4485 14.6485C10.6736 14.4235 10.8 14.1183 10.8 13.8C10.8 13.4817 10.6736 13.1765 10.4485 12.9515C10.2235 12.7264 9.91826 12.6 9.6 12.6H6C5.68174 12.6 5.37652 12.7264 5.15147 12.9515C4.92643 13.1765 4.8 13.4817 4.8 13.8C4.8 14.1183 4.92643 14.4235 5.15147 14.6485C5.37652 14.8736 5.68174 15 6 15ZM20.4 3H3.6C2.64522 3 1.72955 3.37928 1.05442 4.05442C0.379285 4.72955 0 5.64522 0 6.6V17.4C0 18.3548 0.379285 19.2705 1.05442 19.9456C1.72955 20.6207 2.64522 21 3.6 21H20.4C21.3548 21 22.2705 20.6207 22.9456 19.9456C23.6207 19.2705 24 18.3548 24 17.4V6.6C24 5.64522 23.6207 4.72955 22.9456 4.05442C22.2705 3.37928 21.3548 3 20.4 3ZM21.6 17.4C21.6 17.7183 21.4736 18.0235 21.2485 18.2485C21.0235 18.4736 20.7183 18.6 20.4 18.6H3.6C3.28174 18.6 2.97652 18.4736 2.75147 18.2485C2.52643 18.0235 2.4 17.7183 2.4 17.4V10.2H21.6V17.4ZM21.6 7.8H2.4V6.6C2.4 6.28174 2.52643 5.97652 2.75147 5.75147C2.97652 5.52643 3.28174 5.4 3.6 5.4H20.4C20.7183 5.4 21.0235 5.52643 21.2485 5.75147C21.4736 5.97652 21.6 6.28174 21.6 6.6V7.8Z" fill="currentColor"/>
</svg>
