<svg width="32" height="32" viewBox="0 0 32 32" fill="none" xmlns="http://www.w3.org/2000/svg">
<path d="M8 20H12.8C13.2243 20 13.6313 19.8314 13.9314 19.5314C14.2314 19.2313 14.4 18.8243 14.4 18.4C14.4 17.9757 14.2314 17.5687 13.9314 17.2686C13.6313 16.9686 13.2243 16.8 12.8 16.8H8C7.57565 16.8 7.16869 16.9686 6.86863 17.2686C6.56857 17.5687 6.4 17.9757 6.4 18.4C6.4 18.8243 6.56857 19.2313 6.86863 19.5314C7.16869 19.8314 7.57565 20 8 20ZM27.2 4H4.8C3.52696 4 2.30606 4.50571 1.40589 5.40589C0.505713 6.30606 0 7.52696 0 8.8V23.2C0 24.473 0.505713 25.6939 1.40589 26.5941C2.30606 27.4943 3.52696 28 4.8 28H27.2C28.473 28 29.6939 27.4943 30.5941 26.5941C31.4943 25.6939 32 24.473 32 23.2V8.8C32 7.52696 31.4943 6.30606 30.5941 5.40589C29.6939 4.50571 28.473 4 27.2 4ZM28.8 23.2C28.8 23.6243 28.6314 24.0313 28.3314 24.3314C28.0313 24.6314 27.6243 24.8 27.2 24.8H4.8C4.37565 24.8 3.96869 24.6314 3.66863 24.3314C3.36857 24.0313 3.2 23.6243 3.2 23.2V13.6H28.8V23.2ZM28.8 10.4H3.2V8.8C3.2 8.37565 3.36857 7.96869 3.66863 7.66863C3.96869 7.36857 4.37565 7.2 4.8 7.2H27.2C27.6243 7.2 28.0313 7.36857 28.3314 7.66863C28.6314 7.96869 28.8 8.37565 28.8 8.8V10.4Z" fill="currentColor"/>
</svg>
