<svg width="24" height="24" viewBox="0 0 24 24" fill="none" xmlns="http://www.w3.org/2000/svg">
<path d="M12 4.8C11.6817 4.8 11.3765 4.92643 11.1515 5.15147C10.9264 5.37652 10.8 5.68174 10.8 6V18C10.8 18.3183 10.9264 18.6235 11.1515 18.8485C11.3765 19.0736 11.6817 19.2 12 19.2C12.3183 19.2 12.6235 19.0736 12.8485 18.8485C13.0736 18.6235 13.2 18.3183 13.2 18V6C13.2 5.68174 13.0736 5.37652 12.8485 5.15147C12.6235 4.92643 12.3183 4.8 12 4.8ZM6 12C5.68174 12 5.37652 12.1264 5.15147 12.3515C4.92643 12.5765 4.8 12.8817 4.8 13.2V18C4.8 18.3183 4.92643 18.6235 5.15147 18.8485C5.37652 19.0736 5.68174 19.2 6 19.2C6.31826 19.2 6.62348 19.0736 6.84853 18.8485C7.07357 18.6235 7.2 18.3183 7.2 18V13.2C7.2 12.8817 7.07357 12.5765 6.84853 12.3515C6.62348 12.1264 6.31826 12 6 12ZM18 9.6C17.6817 9.6 17.3765 9.72643 17.1515 9.95147C16.9264 10.1765 16.8 10.4817 16.8 10.8V18C16.8 18.3183 16.9264 18.6235 17.1515 18.8485C17.3765 19.0736 17.6817 19.2 18 19.2C18.3183 19.2 18.6235 19.0736 18.8485 18.8485C19.0736 18.6235 19.2 18.3183 19.2 18V10.8C19.2 10.4817 19.0736 10.1765 18.8485 9.95147C18.6235 9.72643 18.3183 9.6 18 9.6ZM20.4 0H3.6C2.64522 0 1.72955 0.379285 1.05442 1.05442C0.379285 1.72955 0 2.64522 0 3.6V20.4C0 21.3548 0.379285 22.2705 1.05442 22.9456C1.72955 23.6207 2.64522 24 3.6 24H20.4C21.3548 24 22.2705 23.6207 22.9456 22.9456C23.6207 22.2705 24 21.3548 24 20.4V3.6C24 2.64522 23.6207 1.72955 22.9456 1.05442C22.2705 0.379285 21.3548 0 20.4 0ZM21.6 20.4C21.6 20.7183 21.4736 21.0235 21.2485 21.2485C21.0235 21.4736 20.7183 21.6 20.4 21.6H3.6C3.28174 21.6 2.97652 21.4736 2.75147 21.2485C2.52643 21.0235 2.4 20.7183 2.4 20.4V3.6C2.4 3.28174 2.52643 2.97652 2.75147 2.75147C2.97652 2.52643 3.28174 2.4 3.6 2.4H20.4C20.7183 2.4 21.0235 2.52643 21.2485 2.75147C21.4736 2.97652 21.6 3.28174 21.6 3.6V20.4Z" fill="currentColor"/>
</svg>
