<svg width="32" height="32" viewBox="0 0 32 32" fill="none" xmlns="http://www.w3.org/2000/svg">
<path d="M16 6.4C15.5757 6.4 15.1687 6.56857 14.8686 6.86863C14.5686 7.16869 14.4 7.57565 14.4 8V24C14.4 24.4243 14.5686 24.8313 14.8686 25.1314C15.1687 25.4314 15.5757 25.6 16 25.6C16.4243 25.6 16.8313 25.4314 17.1314 25.1314C17.4314 24.8313 17.6 24.4243 17.6 24V8C17.6 7.57565 17.4314 7.16869 17.1314 6.86863C16.8313 6.56857 16.4243 6.4 16 6.4ZM8 16C7.57565 16 7.16869 16.1686 6.86863 16.4686C6.56857 16.7687 6.4 17.1757 6.4 17.6V24C6.4 24.4243 6.56857 24.8313 6.86863 25.1314C7.16869 25.4314 7.57565 25.6 8 25.6C8.42435 25.6 8.83131 25.4314 9.13137 25.1314C9.43143 24.8313 9.6 24.4243 9.6 24V17.6C9.6 17.1757 9.43143 16.7687 9.13137 16.4686C8.83131 16.1686 8.42435 16 8 16ZM24 12.8C23.5757 12.8 23.1687 12.9686 22.8686 13.2686C22.5686 13.5687 22.4 13.9757 22.4 14.4V24C22.4 24.4243 22.5686 24.8313 22.8686 25.1314C23.1687 25.4314 23.5757 25.6 24 25.6C24.4243 25.6 24.8313 25.4314 25.1314 25.1314C25.4314 24.8313 25.6 24.4243 25.6 24V14.4C25.6 13.9757 25.4314 13.5687 25.1314 13.2686C24.8313 12.9686 24.4243 12.8 24 12.8ZM27.2 0H4.8C3.52696 0 2.30606 0.505713 1.40589 1.40589C0.505713 2.30606 0 3.52696 0 4.8V27.2C0 28.473 0.505713 29.6939 1.40589 30.5941C2.30606 31.4943 3.52696 32 4.8 32H27.2C28.473 32 29.6939 31.4943 30.5941 30.5941C31.4943 29.6939 32 28.473 32 27.2V4.8C32 3.52696 31.4943 2.30606 30.5941 1.40589C29.6939 0.505713 28.473 0 27.2 0ZM28.8 27.2C28.8 27.6243 28.6314 28.0313 28.3314 28.3314C28.0313 28.6314 27.6243 28.8 27.2 28.8H4.8C4.37565 28.8 3.96869 28.6314 3.66863 28.3314C3.36857 28.0313 3.2 27.6243 3.2 27.2V4.8C3.2 4.37565 3.36857 3.96869 3.66863 3.66863C3.96869 3.36857 4.37565 3.2 4.8 3.2H27.2C27.6243 3.2 28.0313 3.36857 28.3314 3.66863C28.6314 3.96869 28.8 4.37565 28.8 4.8V27.2Z" fill="currentColor"/>
</svg>
