<?xml version="1.0" encoding="UTF-8"?>
<svg width="16px" height="16px" viewBox="0 0 16 16" version="1.1" xmlns="http://www.w3.org/2000/svg" xmlns:xlink="http://www.w3.org/1999/xlink">
    <!-- Generator: Sketch 48.1 (47250) - http://www.bohemiancoding.com/sketch -->
    <title>DinnersCard</title>
    <desc>Created with Sketch.</desc>
    <defs></defs>
    <g id="Page-1" stroke="none" stroke-width="1" fill="none" fill-rule="evenodd">
        <g id="DinnersCard">
            <path d="M1,2 L15,2 C15.5522847,2 16,2.44771525 16,3 L16,13 C16,13.5522847 15.5522847,14 15,14 L1,14 C0.44771525,14 6.76353751e-17,13.5522847 0,13 L0,3 C-6.76353751e-17,2.44771525 0.44771525,2 1,2 Z" id="Shape" fill="#E2F3FD"></path>
            <path d="M4,7.66947518 C4,5.64286987 5.62303216,4 7.6250851,4 C9.62721907,4 11.2502512,5.64286987 11.2502512,7.66947518 C11.2502512,9.69608048 9.62721907,11.3390324 7.6250851,11.3390324 C5.62303216,11.3390324 4,9.69608048 4,7.66947518" id="Back_logo" fill="#FFFFFE"></path>
            <path d="M9.97472231,7.7940519 C9.97326391,6.85435526 9.39298455,6.05293132 8.5753108,5.73554382 L8.5753108,9.85239595 C9.39298455,9.53459839 9.97326391,8.73391256 9.97472231,7.7940519 L9.97472231,7.7940519 Z M7.01547578,9.85157583 L7.01547578,5.73595388 C6.19853123,6.05432553 5.6191431,6.8546013 5.61695551,7.7940519 C5.6191431,8.73325646 6.19853123,9.53345022 7.01547578,9.85157583 L7.01547578,9.85157583 Z M7.7957984,4.31435313 C5.89729153,4.31509124 4.3591704,5.8723403 4.35884632,7.7940519 C4.3591704,9.71551747 5.89729153,11.2725205 7.7957984,11.2728485 C9.69430526,11.2725205 11.2327505,9.71551747 11.2332366,7.7940519 C11.2327505,5.8723403 9.69430526,4.31509124 7.7957984,4.31435313 L7.7957984,4.31435313 Z M7.78737211,11.6012257 C5.70988771,11.6112312 4,9.90759021 4,7.83374584 C4,5.56725464 5.70988771,3.99959002 7.78737211,4.00000008 L8.76093214,4.00000008 C10.8138669,3.99959002 12.6875,5.56651653 12.6875,7.83374584 C12.6875,9.9068521 10.8138669,11.6012257 8.76093214,11.6012257 L7.78737211,11.6012257 L7.78737211,11.6012257 Z" id="Logo" fill="#0069AA"></path>
        </g>
    </g>
</svg>