<?xml version="1.0" encoding="UTF-8"?>
<svg width="16px" height="16px" viewBox="0 0 16 16" version="1.1" xmlns="http://www.w3.org/2000/svg" xmlns:xlink="http://www.w3.org/1999/xlink">
    <!-- Generator: Sketch 48.1 (47250) - http://www.bohemiancoding.com/sketch -->
    <title>DicoverCard</title>
    <desc>Created with Sketch.</desc>
    <defs></defs>
    <g id="Page-1" stroke="none" stroke-width="1" fill="none" fill-rule="evenodd">
        <g id="DicoverCard">
            <path d="M1,2 L15,2 C15.5522847,2 16,2.44771525 16,3 L16,13 C16,13.5522847 15.5522847,14 15,14 L1,14 C0.44771525,14 6.76353751e-17,13.5522847 0,13 L0,3 C-6.76353751e-17,2.44771525 0.44771525,2 1,2 Z" id="Shape" fill="#FAFAFA"></path>
            <path d="M11.9999998,11.9999998 C13.3333331,11.3333332 14.6666665,10.3333332 16,9 L16,13 C16,13.5522847 15.5522847,14 15,14 L6,14 C8.66666658,13.3333331 10.6666665,12.6666664 11.9999998,11.9999998 Z" id="Shape_corner" fill="#E6772F"></path>
            <path d="M2.97505498,8.47641457 C2.85757759,8.58216919 2.70802747,8.62841368 2.4688797,8.62841368 L2.36964551,8.62841368 L2.36964551,7.36639864 L2.4688797,7.36639864 C2.70802747,7.36639864 2.85183981,7.40953051 2.97505498,7.52054693 C3.10224246,7.63526883 3.17867264,7.81224293 3.17867264,7.99529403 C3.17867264,8.17923445 3.10224246,8.36250787 2.97505498,8.47641457 L2.97505498,8.47641457 Z M2.54295593,7.04313188 C3.141892,7.04313188 3.55972016,7.4345055 3.55972016,7.99796198 C3.55972016,8.27943084 3.43164994,8.5511172 3.2158211,8.73105569 C3.0341247,8.88298069 2.82682897,8.95182866 2.53964567,8.95182866 L2,8.95182866 L2,7.04313188 L2.54295593,7.04313188 Z M3.73016168,7.04313188 L4.09833597,7.04313188 L4.09833597,8.95182866 L3.73016168,8.95182866 L3.73016168,7.04313188 Z M5.00247785,7.77466929 C5.4228071,7.92948457 5.54815555,8.06710638 5.54815555,8.37073406 C5.54815555,8.73920777 5.27789135,8.99792493 4.89434275,8.99792493 C4.61311791,8.99792493 4.40898532,8.88557454 4.23869092,8.63419424 L4.47688239,8.40178605 C4.56199281,8.56823656 4.7041868,8.65687183 4.87992474,8.65687183 C5.04499628,8.65687183 5.16710803,8.5427428 5.16710803,8.38748286 C5.16710803,8.30781487 5.13032739,8.2388928 5.05647185,8.19079557 C5.01917627,8.16730278 4.94554141,8.13261941 4.80062566,8.08185423 C4.45393127,7.95475599 4.33512978,7.82091377 4.33512978,7.55708304 C4.33512978,7.24634083 4.59068172,7.01133879 4.92597411,7.01133879 C5.13319628,7.01133879 5.32327867,7.08263238 5.4820975,7.22344092 L5.28988184,7.47748916 C5.19278093,7.36847371 5.10163848,7.32385964 4.99100229,7.32385964 C4.83137428,7.32385964 4.71529455,7.41479231 4.71529455,7.53470189 C4.71529455,7.63786267 4.78024918,7.69255567 5.00247785,7.77466929 Z M5.66423527,7.99796198 C5.66423527,7.44347278 6.11237069,7 6.67209859,7 C6.83216797,7 6.96501967,7.0341646 7.12692808,7.11664876 L7.12692808,7.55478564 C6.97362634,7.40263831 6.83974478,7.34008967 6.66452177,7.34008967 C6.3172389,7.34008967 6.04520922,7.6297106 6.04520922,7.99529403 C6.04520922,8.38222107 6.30870579,8.65338867 6.68070526,8.65338867 C6.84886638,8.65338867 6.97884919,8.59424908 7.12692808,8.44432505 L7.12692808,8.88298069 C6.95935545,8.96264868 6.82326705,8.99421944 6.66452177,8.99421944 C6.10155718,8.99421944 5.66423527,8.55926928 5.66423527,7.99796198 Z M10.1202843,8.32456368 L10.6325652,7.04313188 L11.0322237,7.04313188 L10.2134865,9 L10.0153859,9 L9.2122437,7.04313188 L9.61506535,7.04313188 L10.1202843,8.32456368 Z M11.1998699,8.95182866 L11.1998699,7.04313188 L12.2476035,7.04313188 L12.2476035,7.36639864 L11.5695154,7.36639864 L11.5695154,7.78986179 L12.221857,7.78986179 L12.221857,8.11320265 L11.5695154,8.11320265 L11.5695154,8.62841368 L12.2476035,8.62841368 L12.2476035,8.95182866 L11.1998699,8.95182866 Z M12.9692398,7.92081373 L12.8619874,7.92081373 L12.8619874,7.34349872 L12.9752718,7.34349872 C13.2061071,7.34349872 13.3297637,7.44110127 13.3297637,7.62704265 C13.3297637,7.8180976 13.2061071,7.92081373 12.9692398,7.92081373 L12.9692398,7.92081373 Z M13.7102227,7.60629192 C13.7102227,7.24886056 13.4668819,7.04313188 13.0403,7.04313188 L12.4915327,7.04313188 L12.4915327,8.95182866 L12.8619874,8.95182866 L12.8619874,8.18442213 L12.9100229,8.18442213 L13.4204648,8.95182866 L13.875,8.95182866 L13.2789328,8.14736725 C13.5575094,8.0900063 13.7102227,7.89835847 13.7102227,7.60629192 L13.7102227,7.60629192 Z" id="Letters" fill="#1A1919"></path>
            <path d="M9.30000019,8.00007448 C9.30000019,8.55236109 8.85249358,9 8.29996295,9 C7.74758129,9 7.30000019,8.55236109 7.30000019,8.00007448 C7.30000019,7.44771339 7.74758129,7 8.29996295,7 C8.85249358,7 9.30000019,7.44771339 9.30000019,8.00007448" id="O" fill="#E6772F"></path>
        </g>
    </g>
</svg>