<svg width="32" height="32" viewBox="0 0 32 32" fill="none" xmlns="http://www.w3.org/2000/svg">
<g clip-path="url(#clip0)">
<path d="M3.41004 12.2947C3.13548 12.5705 2.96487 12.9328 2.92722 13.3201C2.88957 13.7074 2.98719 14.0958 3.2035 14.4193C3.41981 14.7428 3.74146 14.9813 4.11378 15.0945C4.48609 15.2077 4.88611 15.1884 5.24583 15.04C5.45051 14.9485 5.63839 14.8232 5.80162 14.6695C5.95311 14.5143 6.07321 14.3313 6.1553 14.1305C6.25158 13.9253 6.29776 13.7002 6.29004 13.4737C6.28818 13.0318 6.11277 12.6084 5.80162 12.2947C5.64505 12.1369 5.45877 12.0116 5.25354 11.9261C5.0483 11.8406 4.82816 11.7965 4.60583 11.7965C4.38349 11.7965 4.16336 11.8406 3.95812 11.9261C3.75288 12.0116 3.56661 12.1369 3.41004 12.2947ZM4.60583 3.36842C5.05251 3.36842 5.48089 3.54586 5.79674 3.86171C6.1126 4.17756 6.29004 4.60595 6.29004 5.05263C6.29004 5.49931 6.1126 5.9277 5.79674 6.24355C5.48089 6.5594 5.05251 6.73684 4.60583 6.73684C4.15915 6.73684 3.73076 6.91428 3.41491 7.23014C3.09906 7.54599 2.92162 7.97437 2.92162 8.42105C2.92162 8.86773 3.09906 9.29612 3.41491 9.61197C3.73076 9.92782 4.15915 10.1053 4.60583 10.1053C5.49261 10.1047 6.36363 9.87074 7.13136 9.42692C7.89909 8.9831 8.53649 8.34503 8.97951 7.57684C9.42253 6.80865 9.65557 5.93739 9.65522 5.05061C9.65486 4.16382 9.42112 3.29275 8.97748 2.52491C8.53385 1.75708 7.89594 1.11952 7.12785 0.676317C6.35977 0.233109 5.48856 -0.000141969 4.60178 6.48278e-08C3.71499 0.000142099 2.84386 0.233672 2.07592 0.677126C1.30798 1.12058 0.670274 1.75834 0.226881 2.52631C0.115523 2.71854 0.043293 2.9309 0.0143526 3.15116C-0.0145877 3.37141 0.000332669 3.59522 0.0582546 3.80969C0.116176 4.02416 0.215956 4.22505 0.351845 4.40079C0.487734 4.57653 0.657049 4.72365 0.850039 4.83368C1.23676 5.05326 1.69463 5.11097 2.12375 4.99422C2.55286 4.87748 2.91839 4.59576 3.14057 4.21053C3.28895 3.95351 3.50262 3.74026 3.75993 3.59238C4.01724 3.4445 4.30905 3.36724 4.60583 3.36842ZM24.8164 5.05263H14.7111C14.2644 5.05263 13.836 5.23007 13.5202 5.54592C13.2043 5.86178 13.0269 6.29016 13.0269 6.73684C13.0269 7.18352 13.2043 7.61191 13.5202 7.92776C13.836 8.24361 14.2644 8.42105 14.7111 8.42105H24.8164C25.263 8.42105 25.6914 8.5985 26.0073 8.91435C26.3231 9.2302 26.5006 9.65858 26.5006 10.1053V26.4758L23.8564 24.0337C23.5457 23.7429 23.1366 23.5804 22.7111 23.5789H7.97425C7.52757 23.5789 7.09918 23.4015 6.78333 23.0857C6.46748 22.7698 6.29004 22.3414 6.29004 21.8947V20.2105C6.29004 19.7638 6.1126 19.3355 5.79674 19.0196C5.48089 18.7038 5.05251 18.5263 4.60583 18.5263C4.15915 18.5263 3.73076 18.7038 3.41491 19.0196C3.09906 19.3355 2.92162 19.7638 2.92162 20.2105V21.8947C2.92162 23.2348 3.45395 24.5199 4.4015 25.4675C5.34905 26.415 6.63421 26.9474 7.97425 26.9474H22.0543L27.1069 31.5453C27.4003 31.8208 27.7827 31.9821 28.1848 32C28.4158 31.9975 28.6443 31.9518 28.8585 31.8653C29.1597 31.7338 29.4159 31.517 29.5955 31.2417C29.7751 30.9664 29.8701 30.6445 29.869 30.3158V10.1053C29.869 8.76522 29.3367 7.48006 28.3891 6.53251C27.4416 5.58496 26.1564 5.05263 24.8164 5.05263Z" fill="currentColor"/>
</g>
<defs>
<clipPath id="clip0">
<rect width="32" height="32" fill="white"/>
</clipPath>
</defs>
</svg>
