<?xml version="1.0" encoding="UTF-8"?>
<svg width="32px" height="32px" viewBox="0 0 32 32" version="1.1" xmlns="http://www.w3.org/2000/svg" xmlns:xlink="http://www.w3.org/1999/xlink">
    <!-- Generator: Sketch 48.1 (47250) - http://www.bohemiancoding.com/sketch -->
    <title>Download32</title>
    <desc>Created with Sketch.</desc>
    <defs></defs>
    <g id="Page-1" stroke="none" stroke-width="1" fill="none" fill-rule="evenodd">
        <g id="Download32" fill="#000000" fill-rule="nonzero">
            <path d="M15.0019531,11.4142136 L8.70905991,17.7071068 C8.31853561,18.0976311 7.68537064,18.0976311 7.29484634,17.7071068 C6.90432205,17.3165825 6.90432205,16.6834175 7.29484634,16.2928932 L15.2948463,8.29289322 C15.6853706,7.90236893 16.3185356,7.90236893 16.7090599,8.29289322 L24.7090599,16.2928932 C25.0995842,16.6834175 25.0995842,17.3165825 24.7090599,17.7071068 C24.3185356,18.0976311 23.6853706,18.0976311 23.2948463,17.7071068 L17.0019531,11.4142136 L17.0019531,30.9565217 C17.0019531,31.5328189 16.5542379,32 16.0019531,32 C15.4496684,32 15.0019531,31.5328189 15.0019531,30.9565217 L15.0019531,11.4142136 Z M32.0009766,9 C32.0009766,9.55228475 31.5532613,10 31.0009766,10 C30.4486918,10 30.0009766,9.55228475 30.0009766,9 L30.0009766,4.2 C30.0009766,2.99431264 28.9652342,2 27.6676432,2 L4.3343099,2 C3.03671889,2 2.00097656,2.99431264 2.00097656,4.2 L2.00097656,9 C2.00097656,9.55228475 1.55326131,10 1.00097656,10 C0.448691813,10 0.0009765625,9.55228475 0.0009765625,9 L0.0009765625,4.2 C0.0009765625,1.87106497 1.95000257,-7.10542736e-15 4.3343099,-7.10542736e-15 L27.6676432,-3.55271368e-15 C30.0519506,-3.55271368e-15 32.0009766,1.87106497 32.0009766,4.2 L32.0009766,9 Z" transform="translate(16.000977, 16.000000) rotate(-180.000000) translate(-16.000977, -16.000000) "></path>
        </g>
    </g>
</svg>