<?xml version="1.0" encoding="UTF-8"?>
<svg width="24px" height="24px" viewBox="0 0 24 24" version="1.1" xmlns="http://www.w3.org/2000/svg" xmlns:xlink="http://www.w3.org/1999/xlink">
    <!-- Generator: Sketch 48.1 (47250) - http://www.bohemiancoding.com/sketch -->
    <title>Download24</title>
    <desc>Created with Sketch.</desc>
    <defs></defs>
    <g id="Page-1" stroke="none" stroke-width="1" fill="none" fill-rule="evenodd">
        <g id="Download24" fill="#000000" fill-rule="nonzero">
            <path d="M12.5857864,13 L1,13 C0.44771525,13 -1.77635684e-15,12.5522847 -1.77635684e-15,12 C-1.77635684e-15,11.4477153 0.44771525,11 1,11 L12.5857864,11 L10.2928932,8.70710678 C9.90236893,8.31658249 9.90236893,7.68341751 10.2928932,7.29289322 C10.6834175,6.90236893 11.3165825,6.90236893 11.7071068,7.29289322 L15.7071068,11.2928932 C16.0976311,11.6834175 16.0976311,12.3165825 15.7071068,12.7071068 L11.7071068,16.7071068 C11.3165825,17.0976311 10.6834175,17.0976311 10.2928932,16.7071068 C9.90236893,16.3165825 9.90236893,15.6834175 10.2928932,15.2928932 L12.5857864,13 Z M16,24 C15.4477153,24 15,23.5522847 15,23 C15,22.4477153 15.4477153,22 16,22 L21,22 C21.5298945,22 22,21.4828839 22,20.8 L22,3.2 C22,2.51711605 21.5298945,2 21,2 L16,2 C15.4477153,2 15,1.55228475 15,1 C15,0.44771525 15.4477153,-1.77635684e-15 16,-1.77635684e-15 L21,-1.77635684e-15 C22.6792445,-1.77635684e-15 24,1.45283105 24,3.2 L24,20.8 C24,22.5471689 22.6792445,24 21,24 L16,24 Z" transform="translate(12.000000, 12.000000) rotate(-270.000000) translate(-12.000000, -12.000000) "></path>
        </g>
    </g>
</svg>