<svg width="32" height="32" viewBox="0 0 32 32" fill="none" xmlns="http://www.w3.org/2000/svg">
<path d="M4.8 25.6019H11.584C11.7946 25.6031 12.0033 25.5627 12.1982 25.4831C12.3932 25.4035 12.5705 25.2862 12.72 25.138L23.792 14.0532L28.336 9.60649C28.486 9.4578 28.605 9.28088 28.6862 9.08597C28.7675 8.89105 28.8093 8.68198 28.8093 8.47082C28.8093 8.25966 28.7675 8.0506 28.6862 7.85568C28.605 7.66076 28.486 7.48385 28.336 7.33515L21.552 0.47314C21.4033 0.323218 21.2263 0.204222 21.0313 0.123015C20.8363 0.0418091 20.6272 0 20.416 0C20.2048 0 19.9957 0.0418091 19.8007 0.123015C19.6057 0.204222 19.4287 0.323218 19.28 0.47314L14.768 4.99983L3.664 16.0846C3.51571 16.2341 3.39839 16.4113 3.31877 16.6062C3.23914 16.8011 3.19878 17.0098 3.2 17.2203V24.0023C3.2 24.4265 3.36857 24.8334 3.66863 25.1334C3.96869 25.4333 4.37565 25.6019 4.8 25.6019ZM20.416 3.86416L24.944 8.39084L22.672 10.6622L18.144 6.1355L20.416 3.86416ZM6.4 17.8761L15.888 8.39084L20.416 12.9175L10.928 22.4028H6.4V17.8761ZM30.4 28.8009H1.6C1.17565 28.8009 0.768687 28.9694 0.468629 29.2694C0.168571 29.5694 0 29.9762 0 30.4005C0 30.8247 0.168571 31.2315 0.468629 31.5315C0.768687 31.8315 1.17565 32 1.6 32H30.4C30.8243 32 31.2313 31.8315 31.5314 31.5315C31.8314 31.2315 32 30.8247 32 30.4005C32 29.9762 31.8314 29.5694 31.5314 29.2694C31.2313 28.9694 30.8243 28.8009 30.4 28.8009Z" fill="currentColor"/>
</svg>
