<?xml version="1.0" encoding="UTF-8"?>
<svg width="24px" height="24px" viewBox="0 0 24 24" version="1.1" xmlns="http://www.w3.org/2000/svg" xmlns:xlink="http://www.w3.org/1999/xlink">
    <!-- Generator: Sketch 48.1 (47250) - http://www.bohemiancoding.com/sketch -->
    <title>EditBox24</title>
    <desc>Created with Sketch.</desc>
    <defs></defs>
    <g id="Page-1" stroke="none" stroke-width="1" fill="none" fill-rule="evenodd">
        <g id="EditBox24" fill="#000000" fill-rule="nonzero">
            <path d="M18.4285714,2.41421356 L8,12.842785 L8,16 L11.157215,16 L21.5857864,5.57142857 L18.4285714,2.41421356 Z M19.1356782,0.292893219 L23.7071068,4.86432179 C24.0976311,5.25484608 24.0976311,5.88801106 23.7071068,6.27853535 L12.2785354,17.7071068 C12.090999,17.8946432 11.8366451,18 11.5714286,18 L7,18 C6.44771525,18 6,17.5522847 6,17 L6,12.4285714 C6,12.1633549 6.10535684,11.909001 6.29289322,11.7214646 L17.7214646,0.292893219 C18.1119889,-0.0976310729 18.7451539,-0.0976310729 19.1356782,0.292893219 Z M20,14.8444444 C20,14.2921597 20.4477153,13.8444444 21,13.8444444 C21.5522847,13.8444444 22,14.2921597 22,14.8444444 L22,20.7777778 C22,22.557362 20.557362,24 18.7777778,24 L3.22222222,24 C1.44263803,24 0,22.557362 0,20.7777778 L0,5.22222222 C-3.21964677e-16,3.44263803 1.44263803,2 3.22222222,2 L9.15555556,2 C9.70784031,2 10.1555556,2.44771525 10.1555556,3 C10.1555556,3.55228475 9.70784031,4 9.15555556,4 L3.22222222,4 C2.54720753,4 2,4.54720753 2,5.22222222 L2,20.7777778 C2,21.4527925 2.54720753,22 3.22222222,22 L18.7777778,22 C19.4527925,22 20,21.4527925 20,20.7777778 L20,14.8444444 Z"></path>
        </g>
    </g>
</svg>