<?xml version="1.0" encoding="UTF-8"?>
<svg width="32px" height="32px" viewBox="0 0 32 32" version="1.1" xmlns="http://www.w3.org/2000/svg" xmlns:xlink="http://www.w3.org/1999/xlink">
    <!-- Generator: Sketch 48.2 (47327) - http://www.bohemiancoding.com/sketch -->
    <title>EditBox32</title>
    <desc>Created with Sketch.</desc>
    <defs></defs>
    <g id="Page-1" stroke="none" stroke-width="1" fill="none" fill-rule="evenodd">
        <g id="EditBox32" fill="#000000" fill-rule="nonzero">
            <path d="M27.9310345,19.5758621 C27.9310345,19.004533 28.3941882,18.5413793 28.9655172,18.5413793 C29.5368463,18.5413793 30,19.004533 30,19.5758621 L30,27.862069 C30,30.1473852 28.1473852,32 25.862069,32 L4.13793103,32 C1.85261483,32 0,30.1473852 0,27.862069 L0,6.13793103 C-4.59402631e-16,3.85261483 1.85261483,2 4.13793103,2 L12.4241379,2 C12.995467,2 13.4586207,2.46315371 13.4586207,3.03448276 C13.4586207,3.60581181 12.995467,4.06896552 12.4241379,4.06896552 L4.13793103,4.06896552 C2.99527293,4.06896552 2.06896552,4.99527293 2.06896552,6.13793103 L2.06896552,27.862069 C2.06896552,29.0047271 2.99527293,29.9310345 4.13793103,29.9310345 L25.862069,29.9310345 C27.0047271,29.9310345 27.9310345,29.0047271 27.9310345,27.862069 L27.9310345,19.5758621 Z M25,2.41421356 L11,16.4142136 L11,21 L15.5857864,21 L29.5857864,7 L25,2.41421356 Z M25.7071068,0.292893219 L31.7071068,6.29289322 C32.0976311,6.68341751 32.0976311,7.31658249 31.7071068,7.70710678 L16.7071068,22.7071068 C16.5195704,22.8946432 16.2652165,23 16,23 L10,23 C9.44771525,23 9,22.5522847 9,22 L9,16 C9,15.7347835 9.10535684,15.4804296 9.29289322,15.2928932 L24.2928932,0.292893219 C24.6834175,-0.0976310729 25.3165825,-0.0976310729 25.7071068,0.292893219 Z"></path>
        </g>
    </g>
</svg>