<svg width="32" height="32" viewBox="0 0 32 32" fill="none" xmlns="http://www.w3.org/2000/svg">
<path d="M16 13.3333C15.4726 13.3333 14.957 13.4897 14.5185 13.7827C14.08 14.0757 13.7382 14.4922 13.5363 14.9795C13.3345 15.4668 13.2817 16.0029 13.3846 16.5202C13.4875 17.0375 13.7414 17.5127 14.1144 17.8856C14.4873 18.2585 14.9625 18.5125 15.4798 18.6154C15.997 18.7183 16.5332 18.6655 17.0205 18.4637C17.5078 18.2618 17.9242 17.92 18.2173 17.4815C18.5103 17.043 18.6667 16.5274 18.6667 16C18.6667 15.2927 18.3857 14.6145 17.8856 14.1144C17.3855 13.6143 16.7072 13.3333 16 13.3333ZM6.66667 13.3333C6.13925 13.3333 5.62368 13.4897 5.18515 13.7827C4.74662 14.0757 4.40482 14.4922 4.20299 14.9795C4.00116 15.4668 3.94835 16.0029 4.05124 16.5202C4.15413 17.0375 4.40811 17.5127 4.78105 17.8856C5.15399 18.2585 5.62914 18.5125 6.14643 18.6154C6.66371 18.7183 7.19989 18.6655 7.68716 18.4637C8.17443 18.2618 8.5909 17.92 8.88392 17.4815C9.17694 17.043 9.33333 16.5274 9.33333 16C9.33333 15.2927 9.05238 14.6145 8.55229 14.1144C8.05219 13.6143 7.37391 13.3333 6.66667 13.3333ZM25.3333 13.3333C24.8059 13.3333 24.2903 13.4897 23.8518 13.7827C23.4133 14.0757 23.0715 14.4922 22.8697 14.9795C22.6678 15.4668 22.615 16.0029 22.7179 16.5202C22.8208 17.0375 23.0748 17.5127 23.4477 17.8856C23.8207 18.2585 24.2958 18.5125 24.8131 18.6154C25.3304 18.7183 25.8666 18.6655 26.3538 18.4637C26.8411 18.2618 27.2576 17.92 27.5506 17.4815C27.8436 17.043 28 16.5274 28 16C28 15.2927 27.719 14.6145 27.219 14.1144C26.7189 13.6143 26.0406 13.3333 25.3333 13.3333Z" fill="currentColor"/>
</svg>
