<?xml version="1.0" encoding="UTF-8"?>
<svg width="16px" height="16px" viewBox="0 0 16 16" version="1.1" xmlns="http://www.w3.org/2000/svg" xmlns:xlink="http://www.w3.org/1999/xlink">
    <!-- Generator: Sketch 48.1 (47250) - http://www.bohemiancoding.com/sketch -->
    <title>EloCard</title>
    <desc>Created with Sketch.</desc>
    <defs></defs>
    <g id="Page-1" stroke="none" stroke-width="1" fill="none" fill-rule="evenodd">
        <g id="EloCard">
            <path d="M1,2 L15,2 C15.5522847,2 16,2.44771525 16,3 L16,13 C16,13.5522847 15.5522847,14 15,14 L1,14 C0.44771525,14 6.76353751e-17,13.5522847 0,13 L0,3 C-6.76353751e-17,2.44771525 0.44771525,2 1,2 Z" id="Shape" fill="#383838"></path>
            <path d="M6.1551,7.30718 L3.9501,8.25718 C3.9461,8.21918 3.9441,8.18118 3.9441,8.14218 C3.9441,7.44518 4.5101,6.87918 5.2081,6.87918 C5.5851,6.87918 5.9241,7.04418 6.1551,7.30718 M5.2081,5.93418 C6.2481,5.93418 7.1211,6.65518 7.3541,7.62318 L6.4641,8.01218 L6.4641,8.01018 L5.5531,8.41118 L3.3701,9.36618 C3.1361,9.01518 3.0001,8.59418 3.0001,8.14218 C3.0001,6.92218 3.9881,5.93418 5.2081,5.93418 Z M6.7508,9.72118 C5.9598,10.47118 4.9138,10.54518 3.9948,9.98818 L4.5148,9.19818 C5.0368,9.51018 5.5628,9.45918 6.0908,9.04518 L6.7508,9.72118 Z M7.6492,9.17528 L7.6432,4.99928 L8.4342,4.99928 L8.4342,9.06228 C8.4342,9.10128 8.4392,9.13528 8.4912,9.15528 L9.1782,9.42328 L8.8692,10.22928 L8.0622,9.88828 C7.7562,9.75828 7.6502,9.57128 7.6492,9.17528 Z" id="Elo" fill="#FFFFFF"></path>
            <path d="M10.6278,9.10498 C10.3308,8.87498 10.1408,8.51398 10.1408,8.10998 C10.1408,7.74998 10.2908,7.42498 10.5328,7.19598 L10.0228,6.36898 C9.5088,6.77498 9.1788,7.40398 9.1788,8.10998 C9.1788,8.87098 9.5618,9.54198 10.1458,9.94198 L10.6278,9.10498 Z" id="Blue" fill="#009DD7"></path>
            <path d="M10.9735,6.92438 C11.1075,6.87638 11.2505,6.85038 11.4005,6.85038 C11.9395,6.85038 12.3995,7.18938 12.5785,7.66538 L13.5585,7.58338 C13.3225,6.61138 12.4455,5.88838 11.4005,5.88838 C11.1045,5.88838 10.8235,5.94638 10.5655,6.05138 L10.9735,6.92438 Z" id="Yellow" fill="#FFF200"></path>
            <path d="M12.658,8.17048 C12.627,8.83848 12.075,9.36948 11.4,9.36948 C11.294,9.36948 11.191,9.35648 11.094,9.33148 L10.709,10.22148 C10.927,10.29248 11.159,10.33048 11.4,10.33048 C12.596,10.33048 13.571,9.38548 13.619,8.20048 L12.658,8.17048 Z" id="Red" fill="#E33206"></path>
        </g>
    </g>
</svg>