<svg width="24" height="24" viewBox="0 0 24 24" fill="none" xmlns="http://www.w3.org/2000/svg">
<g clip-path="url(#clip0)">
<path d="M12 14.4C11.7033 14.4 11.4133 14.488 11.1666 14.6528C10.92 14.8176 10.7277 15.0519 10.6142 15.326C10.5007 15.6001 10.4709 15.9017 10.5288 16.1926C10.5867 16.4836 10.7296 16.7509 10.9393 16.9607C11.1491 17.1704 11.4164 17.3133 11.7074 17.3712C11.9983 17.4291 12.2999 17.3993 12.574 17.2858C12.8481 17.1723 13.0824 16.98 13.2472 16.7334C13.412 16.4867 13.5 16.1967 13.5 15.9C13.5 15.5022 13.342 15.1206 13.0607 14.8393C12.7794 14.558 12.3978 14.4 12 14.4ZM12 12.6C12.3183 12.6 12.6235 12.4736 12.8485 12.2485C13.0736 12.0235 13.2 11.7183 13.2 11.4V7.8C13.2 7.48174 13.0736 7.17651 12.8485 6.95147C12.6235 6.72643 12.3183 6.6 12 6.6C11.6817 6.6 11.3765 6.72643 11.1515 6.95147C10.9264 7.17651 10.8 7.48174 10.8 7.8V11.4C10.8 11.7183 10.9264 12.0235 11.1515 12.2485C11.3765 12.4736 11.6817 12.6 12 12.6ZM12 0C9.62663 0 7.30655 0.703788 5.33316 2.02236C3.35977 3.34094 1.8217 5.21508 0.913451 7.4078C0.00519941 9.60051 -0.232441 12.0133 0.230582 14.3411C0.693605 16.6689 1.83649 18.807 3.51472 20.4853C5.19295 22.1635 7.33115 23.3064 9.65892 23.7694C11.9867 24.2324 14.3995 23.9948 16.5922 23.0866C18.7849 22.1783 20.6591 20.6402 21.9776 18.6668C23.2962 16.6935 24 14.3734 24 12C23.9965 8.81849 22.731 5.7683 20.4814 3.51863C18.2317 1.26896 15.1815 0.00353829 12 0ZM12 21.6C10.1013 21.6 8.24524 21.037 6.66653 19.9821C5.08782 18.9272 3.85736 17.4279 3.13076 15.6738C2.40416 13.9196 2.21405 11.9893 2.58447 10.1271C2.95488 8.26491 3.8692 6.55436 5.21178 5.21177C6.55436 3.86919 8.26492 2.95488 10.1271 2.58446C11.9894 2.21404 13.9196 2.40416 15.6738 3.13076C17.4279 3.85736 18.9272 5.08781 19.9821 6.66652C21.037 8.24524 21.6 10.1013 21.6 12C21.5971 14.5452 20.5847 16.9853 18.785 18.785C16.9853 20.5847 14.5452 21.5971 12 21.6Z" fill="currentColor"/>
</g>
<defs>
<clipPath id="clip0">
<rect width="24" height="24" fill="white"/>
</clipPath>
</defs>
</svg>
