<svg width="32" height="32" viewBox="0 0 32 32" fill="none" xmlns="http://www.w3.org/2000/svg">
<g clip-path="url(#clip0)">
<path d="M16 19.2C15.6044 19.2 15.2178 19.3173 14.8889 19.5371C14.56 19.7568 14.3036 20.0692 14.1522 20.4346C14.0009 20.8001 13.9613 21.2022 14.0384 21.5902C14.1156 21.9781 14.3061 22.3345 14.5858 22.6142C14.8655 22.8939 15.2219 23.0844 15.6098 23.1616C15.9978 23.2387 16.3999 23.1991 16.7654 23.0478C17.1308 22.8964 17.4432 22.64 17.6629 22.3111C17.8827 21.9822 18 21.5956 18 21.2C18 20.6696 17.7893 20.1609 17.4142 19.7858C17.0391 19.4107 16.5304 19.2 16 19.2ZM16 16.8C16.4244 16.8 16.8313 16.6314 17.1314 16.3314C17.4314 16.0313 17.6 15.6243 17.6 15.2V10.4C17.6 9.97565 17.4314 9.56869 17.1314 9.26863C16.8313 8.96857 16.4244 8.8 16 8.8C15.5757 8.8 15.1687 8.96857 14.8686 9.26863C14.5686 9.56869 14.4 9.97565 14.4 10.4V15.2C14.4 15.6243 14.5686 16.0313 14.8686 16.3314C15.1687 16.6314 15.5757 16.8 16 16.8ZM16 0C12.8355 0 9.74207 0.938384 7.11088 2.69649C4.4797 4.45459 2.42894 6.95345 1.21793 9.87706C0.00693254 12.8007 -0.309921 16.0177 0.307443 19.1214C0.924806 22.2251 2.44866 25.0761 4.6863 27.3137C6.92394 29.5513 9.77487 31.0752 12.8786 31.6926C15.9823 32.3099 19.1993 31.9931 22.1229 30.7821C25.0466 29.5711 27.5454 27.5203 29.3035 24.8891C31.0616 22.2579 32 19.1645 32 16C31.9953 11.758 30.3081 7.69106 27.3085 4.6915C24.3089 1.69194 20.242 0.00471773 16 0ZM16 28.8C13.4684 28.8 10.9937 28.0493 8.88871 26.6428C6.78376 25.2363 5.14315 23.2372 4.17435 20.8983C3.20555 18.5595 2.95206 15.9858 3.44596 13.5028C3.93985 11.0199 5.15893 8.73914 6.94904 6.94903C8.73915 5.15892 11.0199 3.93984 13.5028 3.44595C15.9858 2.95206 18.5595 3.20554 20.8984 4.17434C23.2372 5.14314 25.2363 6.78375 26.6428 8.8887C28.0493 10.9936 28.8 13.4684 28.8 16C28.7961 19.3936 27.4463 22.647 25.0467 25.0467C22.6471 27.4463 19.3936 28.7961 16 28.8Z" fill="currentColor"/>
</g>
<defs>
<clipPath id="clip0">
<rect width="32" height="32" fill="white"/>
</clipPath>
</defs>
</svg>
