<?xml version="1.0" encoding="UTF-8"?>
<svg width="24px" height="24px" viewBox="0 0 24 24" version="1.1" xmlns="http://www.w3.org/2000/svg" xmlns:xlink="http://www.w3.org/1999/xlink">
    <!-- Generator: Sketch 48.2 (47327) - http://www.bohemiancoding.com/sketch -->
    <title>Extract24</title>
    <desc>Created with Sketch.</desc>
    <defs></defs>
    <g id="Page-1" stroke="none" stroke-width="1" fill="none" fill-rule="evenodd">
        <g id="Extract24" fill="#000000" fill-rule="nonzero">
            <path d="M15.3,19.5198978 L17.6421737,11.7126521 C17.7690689,11.2896682 18.1583918,11 18.6,11 L23,11 C23.5522847,11 24,11.4477153 24,12 C24,12.5522847 23.5522847,13 23,13 L19.3440307,13 L16.2578263,23.2873479 C15.9727654,24.2375507 14.6272346,24.2375507 14.3421737,23.2873479 L8.7,4.48010217 L6.35782629,12.2873479 C6.2309311,12.7103318 5.84160822,13 5.4,13 L1,13 C0.44771525,13 0,12.5522847 0,12 C0,11.4477153 0.44771525,11 1,11 L4.65596935,11 L7.74217371,0.712652114 C8.02723456,-0.237550705 9.37276544,-0.237550705 9.65782629,0.712652114 L15.3,19.5198978 Z"></path>
        </g>
    </g>
</svg>