<?xml version="1.0" encoding="UTF-8"?>
<svg width="12px" height="20px" viewBox="0 0 12 20" version="1.1" xmlns="http://www.w3.org/2000/svg" xmlns:xlink="http://www.w3.org/1999/xlink">
    <!-- Generator: Sketch 48.1 (47250) - http://www.bohemiancoding.com/sketch -->
    <title>Facebook</title>
    <desc>Created with Sketch.</desc>
    <defs></defs>
    <g id="Facebook20" stroke="none" stroke-width="1" fill="none" fill-rule="evenodd" transform="translate(-4.000000, 0.000000)">
        <path d="M15,1 L12.2727273,1 C9.76234205,1 8,2.51471863 8,5 L8,8 L5,8 L5,12 L8,12 L8,19 L11,19 L11,12 L14,12 L15,8.2 C15.0204146,8.0676874 15.0204146,8.00102073 15,8 C14.9795854,7.99897927 13.6462521,7.99897927 11,8 L11,6 C11,5.50294373 10.859375,4.6 12.2727273,4.6 L15,4.6 L15,1 Z M15.0499376,7.00124766 C15.8409163,7.33713406 15.8409163,7.33713406 15.9688866,7.72432025 C16.0149496,7.9412293 16.0149496,7.9412293 16.0153109,8.05076555 C16.0153109,8.14590058 16.0056477,8.24008704 15.9883056,8.35248628 L15.9670745,8.4544933 L14.9670745,12.2544933 C14.8514658,12.6938064 14.4542701,13 14,13 L12,13 L12,19 C12,19.5522847 11.5522847,20 11,20 L8,20 C7.44771525,20 7,19.5522847 7,19 L7,13 L5,13 C4.44771525,13 4,12.5522847 4,12 L4,8 C4,7.44771525 4.44771525,7 5,7 L7,7 L7,5 C7,1.98913849 9.17682704,5.47667295e-16 12.2727273,0 L15,0 C15.5522847,0 16,0.44771525 16,1 L16,4.6 C16,5.15228475 15.5522847,5.6 15,5.6 L12.2727273,5.6 C11.9292132,5.6 12.008551,5.53172774 12.0026547,5.58021467 C11.9958495,5.63617525 11.9947609,5.70094603 11.9978426,5.84761312 C11.9993698,5.91815361 11.9993698,5.91815361 12,6 L12,6.99962926 C14.3612814,6.99880356 15.0060627,6.99905391 15.0499376,7.00124766 Z" id="Facebook" fill="#000000" fill-rule="nonzero"></path>
    </g>
</svg>