<?xml version="1.0" encoding="UTF-8"?>
<svg width="32px" height="32px" viewBox="0 0 32 32" version="1.1" xmlns="http://www.w3.org/2000/svg" xmlns:xlink="http://www.w3.org/1999/xlink">
    <!-- Generator: Sketch 48.1 (47250) - http://www.bohemiancoding.com/sketch -->
    <title>Favorite32</title>
    <desc>Created with Sketch.</desc>
    <defs></defs>
    <g id="Page-1" stroke="none" stroke-width="1" fill="none" fill-rule="evenodd">
        <g id="Favorite32" fill="#000000" fill-rule="nonzero">
            <path d="M28.9718316,13.1283049 L20.4781466,11.8203145 C20.1465003,11.7692424 19.8634318,11.5601783 19.7245427,11.2637298 L16,3.31397212 L12.2754573,11.2637298 C12.1365682,11.5601783 11.8534997,11.7692424 11.5218534,11.8203145 L3.02816839,13.1283049 L9.22685157,19.4892768 C9.43972368,19.7077222 9.53609645,20.0095313 9.48777038,20.3063922 L8.04256837,29.1840841 L15.5038672,25.0500467 C15.8112967,24.879711 16.1887033,24.879711 16.4961328,25.0500467 L23.9574316,29.1840841 L22.5122296,20.3063922 C22.4639035,20.0095313 22.5602763,19.7077222 22.7731484,19.4892768 L28.9718316,13.1283049 Z M21.3230141,9.98685923 L31.1568534,11.5012275 C31.9508442,11.6234986 32.2789946,12.5581899 31.7268516,13.1247887 L24.5644005,20.474761 L26.2577704,30.8769165 C26.3885757,31.6804368 25.5022821,32.2735614 24.7738672,31.8699729 L16,27.0086886 L7.22613279,31.8699729 C6.49771785,32.2735614 5.61142432,31.6804368 5.74222962,30.8769165 L7.4355995,20.474761 L0.273148426,13.1247887 C-0.278994599,12.5581899 0.0491558409,11.6234986 0.843146592,11.5012275 L10.6769859,9.98685923 L15.0895427,0.568586852 C15.4447277,-0.189528951 16.5552723,-0.189528951 16.9104573,0.568586852 L21.3230141,9.98685923 Z"></path>
        </g>
    </g>
</svg>