<?xml version="1.0" encoding="UTF-8"?>
<svg width="24px" height="24px" viewBox="0 0 24 24" version="1.1" xmlns="http://www.w3.org/2000/svg" xmlns:xlink="http://www.w3.org/1999/xlink">
    <!-- Generator: Sketch 48.1 (47250) - http://www.bohemiancoding.com/sketch -->
    <title>Favorite24</title>
    <desc>Created with Sketch.</desc>
    <defs></defs>
    <g id="Page-1" stroke="none" stroke-width="1" fill="none" fill-rule="evenodd">
        <g id="Favorite24" fill="#000000" fill-rule="nonzero">
            <path d="M9.49770735,8.71946624 C9.35216761,9.02815022 9.0709824,9.24220427 8.74562821,9.29199132 L3.14841166,10.1485006 L7.1977328,14.2776237 C7.43360653,14.5181459 7.54126916,14.8648162 7.48560862,15.2045749 L6.53018079,21.0366212 L11.5345487,18.2813728 C11.8259316,18.1209465 12.1740684,18.1209465 12.4654513,18.2813728 L17.4698192,21.0366212 L16.5143914,15.2045749 C16.4587308,14.8648162 16.5663935,14.5181459 16.8022672,14.2776237 L20.8515883,10.1485006 L15.2543718,9.29199132 C14.9290176,9.24220427 14.6478324,9.02815022 14.5022927,8.71946624 L12,3.41220332 L9.49770735,8.71946624 Z M7.93673863,7.29966719 L11.1032927,0.583532406 C11.470128,-0.194510802 12.529872,-0.194510802 12.8967073,0.583532406 L16.0632614,7.29966719 L23.1446282,8.38328733 C23.9645429,8.50875408 24.2913263,9.56389092 23.6977328,10.1691827 L18.5745218,15.3933593 L19.7836086,22.7737707 C19.9237271,23.629071 19.0661783,24.2812682 18.3325487,23.8773547 L12,20.3908514 L5.66745128,23.8773547 C4.93382171,24.2812682 4.07627286,23.629071 4.21639138,22.7737707 L5.42547821,15.3933593 L0.302267201,10.1691827 C-0.291326328,9.56389092 0.0354571134,8.50875408 0.85537179,8.38328733 L7.93673863,7.29966719 Z"></path>
        </g>
    </g>
</svg>