<?xml version="1.0" encoding="UTF-8"?>
<svg width="24px" height="24px" viewBox="0 0 24 24" version="1.1" xmlns="http://www.w3.org/2000/svg" xmlns:xlink="http://www.w3.org/1999/xlink">
    <!-- Generator: Sketch 51 (57462) - http://www.bohemiancoding.com/sketch -->
    <title>Icons/24/Feedback</title>
    <desc>Created with Sketch.</desc>
    <defs>
        <path d="M22,18 L20.3614719,16.4614346 C19.9447244,16.0701119 19.58937,16 19,16 L2.5,16 C2.22726679,16 2,15.7560944 2,15.5 L2,2.5 C2,2.2439056 2.22109395,2 2.49382716,2 L21.5061728,2 C21.778906,2 22,2.2439056 22,2.5 L22,18 Z M0,16 C0,17.4727593 0.527240667,18 2,18 L19,18 L24,24 L24,2 C24,0.527240667 23.4727593,0 22,0 L2,0 C0.527240667,0 0,0.527240667 0,2 L0,16 Z M16.5,9 C17.3284271,9 18,8.32842712 18,7.5 C18,6.67157288 17.3284271,6 16.5,6 C15.6715729,6 15,6.67157288 15,7.5 C15,8.32842712 15.6715729,9 16.5,9 Z M7.5,9 C6.67157288,9 6,8.32842712 6,7.5 C6,6.67157288 6.67157288,6 7.5,6 C8.32842712,6 9,6.67157288 9,7.5 C9,8.32842712 8.32842712,9 7.5,9 Z M12,13 C10.8954305,13 10,12.1045695 10,11 C12,11 12,11 14,11 C14,12.1045695 13.1045695,13 12,13 Z" id="path-1"></path>
    </defs>
    <g id="Icons/24/Feedback" stroke="none" stroke-width="1" fill="none" fill-rule="evenodd">
        <mask id="mask-2" fill="white">
            <use xlink:href="#path-1"></use>
        </mask>
        <use id="Combined-Shape" fill="#000000" fill-rule="nonzero" transform="translate(12.000000, 12.000000) scale(1, -1) rotate(-180.000000) translate(-12.000000, -12.000000) " xlink:href="#path-1"></use>
    </g>
</svg>