<svg width="32" height="32" viewBox="0 0 32 32" fill="none" xmlns="http://www.w3.org/2000/svg">
<path d="M11.125 12.8H12.75C13.181 12.8 13.5943 12.6314 13.899 12.3314C14.2038 12.0313 14.375 11.6243 14.375 11.2C14.375 10.7757 14.2038 10.3687 13.899 10.0686C13.5943 9.76857 13.181 9.6 12.75 9.6H11.125C10.694 9.6 10.2807 9.76857 9.97595 10.0686C9.67121 10.3687 9.5 10.7757 9.5 11.2C9.5 11.6243 9.67121 12.0313 9.97595 12.3314C10.2807 12.6314 10.694 12.8 11.125 12.8ZM11.125 16C10.694 16 10.2807 16.1686 9.97595 16.4686C9.67121 16.7687 9.5 17.1757 9.5 17.6C9.5 18.0243 9.67121 18.4313 9.97595 18.7314C10.2807 19.0314 10.694 19.2 11.125 19.2H20.875C21.306 19.2 21.7193 19.0314 22.024 18.7314C22.3288 18.4313 22.5 18.0243 22.5 17.6C22.5 17.1757 22.3288 16.7687 22.024 16.4686C21.7193 16.1686 21.306 16 20.875 16H11.125ZM29 11.104C28.9831 10.957 28.9504 10.8122 28.9025 10.672V10.528C28.8244 10.3635 28.7201 10.2123 28.5938 10.08L18.8438 0.48C18.7094 0.355546 18.5558 0.25293 18.3888 0.176C18.3402 0.169216 18.291 0.169216 18.2425 0.176C18.0774 0.082786 17.8951 0.0229507 17.7063 0H7.875C6.58207 0 5.34209 0.505713 4.42785 1.40589C3.51361 2.30606 3 3.52696 3 4.8V27.2C3 28.473 3.51361 29.6939 4.42785 30.5941C5.34209 31.4943 6.58207 32 7.875 32H24.125C25.4179 32 26.6579 31.4943 27.5721 30.5941C28.4864 29.6939 29 28.473 29 27.2V11.2C29 11.2 29 11.2 29 11.104ZM19.25 5.456L23.4587 9.6H20.875C20.444 9.6 20.0307 9.43143 19.726 9.13137C19.4212 8.83131 19.25 8.42435 19.25 8V5.456ZM25.75 27.2C25.75 27.6243 25.5788 28.0313 25.274 28.3314C24.9693 28.6314 24.556 28.8 24.125 28.8H7.875C7.44402 28.8 7.0307 28.6314 6.72595 28.3314C6.42121 28.0313 6.25 27.6243 6.25 27.2V4.8C6.25 4.37565 6.42121 3.96869 6.72595 3.66863C7.0307 3.36857 7.44402 3.2 7.875 3.2H16V8C16 9.27304 16.5136 10.4939 17.4279 11.3941C18.3421 12.2943 19.5821 12.8 20.875 12.8H25.75V27.2ZM20.875 22.4H11.125C10.694 22.4 10.2807 22.5686 9.97595 22.8686C9.67121 23.1687 9.5 23.5757 9.5 24C9.5 24.4243 9.67121 24.8313 9.97595 25.1314C10.2807 25.4314 10.694 25.6 11.125 25.6H20.875C21.306 25.6 21.7193 25.4314 22.024 25.1314C22.3288 24.8313 22.5 24.4243 22.5 24C22.5 23.5757 22.3288 23.1687 22.024 22.8686C21.7193 22.5686 21.306 22.4 20.875 22.4Z" fill="currentColor"/>
</svg>
