<svg width="24" height="24" viewBox="0 0 24 24" fill="none" xmlns="http://www.w3.org/2000/svg">
<path d="M21.6892 19.5364L19.981 17.9636C19.981 17.8636 19.981 17.7727 19.981 17.6818C19.981 17.3535 19.91 17.0284 19.7719 16.7251C19.6339 16.4218 19.4315 16.1462 19.1764 15.9141C18.9213 15.6819 18.6185 15.4978 18.2852 15.3721C17.9519 15.2465 17.5947 15.1818 17.2339 15.1818H16.8943L15.4558 13.8727C15.5436 13.8364 15.639 13.8178 15.7355 13.8182H18.9821C19.247 13.8182 19.5011 13.7224 19.6884 13.5519C19.8758 13.3814 19.981 13.1502 19.981 12.9091C19.981 12.668 19.8758 12.4368 19.6884 12.2663C19.5011 12.0958 19.247 12 18.9821 12H17.4837V11.0909C17.4837 10.8498 17.3784 10.6186 17.1911 10.4481C17.0037 10.2776 16.7496 10.1818 16.4847 10.1818C16.2198 10.1818 15.9657 10.2776 15.7783 10.4481C15.591 10.6186 15.4858 10.8498 15.4858 11.0909V12C14.9489 12.0433 14.4381 12.2299 14.0173 12.5364L12.6987 11.3273C12.5106 11.1561 12.2555 11.0599 11.9895 11.0599C11.7234 11.0599 11.4683 11.1561 11.2802 11.3273C11.0921 11.4985 10.9864 11.7306 10.9864 11.9727C10.9864 12.2148 11.0921 12.447 11.2802 12.6182L12.9884 14.2182C12.9884 14.3182 12.9884 14.4091 12.9884 14.5C12.9884 15.163 13.2778 15.7989 13.793 16.2678C14.3082 16.7366 15.0069 17 15.7355 17H16.0751L17.5136 18.3091C17.4258 18.3454 17.3304 18.364 17.2339 18.3636H13.9873C13.7224 18.3636 13.4683 18.4594 13.281 18.6299C13.0936 18.8004 12.9884 19.0316 12.9884 19.2727C12.9884 19.5138 13.0936 19.7451 13.281 19.9156C13.4683 20.086 13.7224 20.1818 13.9873 20.1818H15.4858V21.0909C15.4858 21.332 15.591 21.5632 15.7783 21.7337C15.9657 21.9042 16.2198 22 16.4847 22C16.7496 22 17.0037 21.9042 17.1911 21.7337C17.3784 21.5632 17.4837 21.332 17.4837 21.0909V20.1818C18.0342 20.136 18.5566 19.9395 18.9821 19.6182L20.3007 20.8273C20.3935 20.9125 20.504 20.9801 20.6258 21.0263C20.7475 21.0724 20.8781 21.0962 21.0099 21.0962C21.1418 21.0962 21.2724 21.0724 21.3941 21.0263C21.5158 20.9801 21.6263 20.9125 21.7192 20.8273C21.8109 20.741 21.8829 20.639 21.931 20.5272C21.9792 20.4155 22.0026 20.2962 21.9998 20.1761C21.997 20.0561 21.9681 19.9378 21.9148 19.828C21.8615 19.7182 21.7848 19.6191 21.6892 19.5364ZM9.99156 18.3636H4.99684C4.7319 18.3636 4.47781 18.2679 4.29048 18.0974C4.10314 17.9269 3.99789 17.6957 3.99789 17.4545V4.72727C3.99789 4.48617 4.10314 4.25494 4.29048 4.08445C4.47781 3.91396 4.7319 3.81818 4.99684 3.81818H10.9905V7.45455C10.9905 7.69565 11.0958 7.92688 11.2831 8.09737C11.4704 8.26786 11.7245 8.36364 11.9895 8.36364H16.9842C17.1814 8.36274 17.3739 8.30874 17.5375 8.20844C17.701 8.10813 17.8283 7.96602 17.9032 7.8C17.9797 7.63445 18.0006 7.45198 17.9633 7.27562C17.9259 7.09927 17.832 6.93693 17.6934 6.80909L12.6987 2.26364C12.6161 2.19292 12.5217 2.13462 12.419 2.09091H12.3291C12.24 2.05104 12.1461 2.02054 12.0494 2H4.99684C4.20203 2 3.43977 2.28734 2.87775 2.7988C2.31574 3.31026 2 4.00396 2 4.72727V17.4545C2 18.1779 2.31574 18.8716 2.87775 19.383C3.43977 19.8945 4.20203 20.1818 4.99684 20.1818H9.99156C10.2565 20.1818 10.5106 20.086 10.6979 19.9156C10.8853 19.7451 10.9905 19.5138 10.9905 19.2727C10.9905 19.0316 10.8853 18.8004 10.6979 18.6299C10.5106 18.4594 10.2565 18.3636 9.99156 18.3636ZM12.9884 5.1L14.5767 6.54545H12.9884V5.1Z" fill="currentColor"/>
</svg>
