<svg width="24" height="24" viewBox="0 0 24 24" fill="none" xmlns="http://www.w3.org/2000/svg">
<path d="M8.34375 9.6H9.5625C9.88573 9.6 10.1957 9.47357 10.4243 9.24853C10.6528 9.02348 10.7812 8.71826 10.7812 8.4C10.7812 8.08174 10.6528 7.77652 10.4243 7.55147C10.1957 7.32643 9.88573 7.2 9.5625 7.2H8.34375C8.02052 7.2 7.71052 7.32643 7.48196 7.55147C7.2534 7.77652 7.125 8.08174 7.125 8.4C7.125 8.71826 7.2534 9.02348 7.48196 9.24853C7.71052 9.47357 8.02052 9.6 8.34375 9.6ZM8.34375 12C8.02052 12 7.71052 12.1264 7.48196 12.3515C7.2534 12.5765 7.125 12.8817 7.125 13.2C7.125 13.5183 7.2534 13.8235 7.48196 14.0485C7.71052 14.2736 8.02052 14.4 8.34375 14.4H15.6562C15.9795 14.4 16.2895 14.2736 16.518 14.0485C16.7466 13.8235 16.875 13.5183 16.875 13.2C16.875 12.8817 16.7466 12.5765 16.518 12.3515C16.2895 12.1264 15.9795 12 15.6562 12H8.34375ZM21.75 8.328C21.7373 8.21776 21.7128 8.10916 21.6769 8.004V7.896C21.6183 7.77262 21.5401 7.6592 21.4453 7.56L14.1328 0.36C14.0321 0.266659 13.9169 0.189697 13.7916 0.132C13.7552 0.126912 13.7183 0.126912 13.6819 0.132C13.5581 0.0620895 13.4213 0.017213 13.2797 0H5.90625C4.93655 0 4.00657 0.379285 3.32089 1.05442C2.63521 1.72955 2.25 2.64522 2.25 3.6V20.4C2.25 21.3548 2.63521 22.2705 3.32089 22.9456C4.00657 23.6207 4.93655 24 5.90625 24H18.0938C19.0634 24 19.9934 23.6207 20.6791 22.9456C21.3648 22.2705 21.75 21.3548 21.75 20.4V8.4C21.75 8.4 21.75 8.4 21.75 8.328ZM14.4375 4.092L17.5941 7.2H15.6562C15.333 7.2 15.023 7.07357 14.7945 6.84853C14.5659 6.62348 14.4375 6.31826 14.4375 6V4.092ZM19.3125 20.4C19.3125 20.7183 19.1841 21.0235 18.9555 21.2485C18.727 21.4736 18.417 21.6 18.0938 21.6H5.90625C5.58302 21.6 5.27302 21.4736 5.04446 21.2485C4.8159 21.0235 4.6875 20.7183 4.6875 20.4V3.6C4.6875 3.28174 4.8159 2.97652 5.04446 2.75147C5.27302 2.52643 5.58302 2.4 5.90625 2.4H12V6C12 6.95478 12.3852 7.87045 13.0709 8.54559C13.7566 9.22072 14.6866 9.6 15.6562 9.6H19.3125V20.4ZM15.6562 16.8H8.34375C8.02052 16.8 7.71052 16.9264 7.48196 17.1515C7.2534 17.3765 7.125 17.6817 7.125 18C7.125 18.3183 7.2534 18.6235 7.48196 18.8485C7.71052 19.0736 8.02052 19.2 8.34375 19.2H15.6562C15.9795 19.2 16.2895 19.0736 16.518 18.8485C16.7466 18.6235 16.875 18.3183 16.875 18C16.875 17.6817 16.7466 17.3765 16.518 17.1515C16.2895 16.9264 15.9795 16.8 15.6562 16.8Z" fill="currentColor"/>
</svg>
