<svg width="32" height="32" viewBox="0 0 32 32" fill="none" xmlns="http://www.w3.org/2000/svg">
<path d="M28.919 26.0488L26.6414 23.9518C26.6414 23.8185 26.6414 23.6973 26.6414 23.5761C26.6414 23.1383 26.5467 22.7049 26.3626 22.3005C26.1786 21.8961 25.9088 21.5286 25.5686 21.2191C25.2285 20.9095 24.8247 20.664 24.3803 20.4965C23.9359 20.329 23.4596 20.2428 22.9786 20.2428H22.5258L20.6078 18.4973C20.7249 18.4489 20.8521 18.4241 20.9807 18.4246H25.3095C25.6628 18.4246 26.0015 18.2969 26.2513 18.0695C26.5011 17.8422 26.6414 17.5339 26.6414 17.2124C26.6414 16.891 26.5011 16.5827 26.2513 16.3553C26.0015 16.128 25.6628 16.0003 25.3095 16.0003H23.3116V14.7882C23.3116 14.4667 23.1713 14.1584 22.9215 13.9311C22.6717 13.7038 22.3329 13.5761 21.9797 13.5761C21.6264 13.5761 21.2877 13.7038 21.0379 13.9311C20.7881 14.1584 20.6478 14.4667 20.6478 14.7882V16.0003C19.932 16.0581 19.2509 16.3069 18.6898 16.7155L16.9317 15.1034C16.6809 14.8751 16.3407 14.7469 15.986 14.7469C15.6313 14.7469 15.2912 14.8751 15.0404 15.1034C14.7895 15.3316 14.6486 15.6412 14.6486 15.964C14.6486 16.2868 14.7895 16.5963 15.0404 16.8246L17.3179 18.9579C17.3179 19.0912 17.3179 19.2124 17.3179 19.3337C17.3179 20.2177 17.7038 21.0656 18.3908 21.6907C19.0777 22.3158 20.0093 22.667 20.9807 22.667H21.4336L23.3516 24.4124C23.2345 24.4609 23.1073 24.4857 22.9786 24.4852H18.6499C18.2966 24.4852 17.9578 24.6129 17.7081 24.8402C17.4583 25.0675 17.3179 25.3758 17.3179 25.6973C17.3179 26.0188 17.4583 26.3271 17.7081 26.5544C17.9578 26.7817 18.2966 26.9094 18.6499 26.9094H20.6478V28.1215C20.6478 28.443 20.7881 28.7513 21.0379 28.9786C21.2877 29.206 21.6264 29.3337 21.9797 29.3337C22.3329 29.3337 22.6717 29.206 22.9215 28.9786C23.1713 28.7513 23.3116 28.443 23.3116 28.1215V26.9094C24.0457 26.8483 24.7422 26.5863 25.3095 26.1579L27.0677 27.77C27.1915 27.8836 27.3388 27.9738 27.5011 28.0353C27.6634 28.0969 27.8375 28.1286 28.0133 28.1286C28.1892 28.1286 28.3632 28.0969 28.5256 28.0353C28.6879 27.9738 28.8352 27.8836 28.959 27.77C29.0813 27.655 29.1773 27.519 29.2415 27.37C29.3057 27.221 29.3368 27.0619 29.3331 26.9018C29.3294 26.7418 29.2909 26.584 29.2198 26.4376C29.1488 26.2912 29.0465 26.1591 28.919 26.0488ZM13.3222 24.4852H6.66253C6.30928 24.4852 5.9705 24.3575 5.72072 24.1302C5.47093 23.9028 5.3306 23.5945 5.3306 23.2731V6.30336C5.3306 5.98188 5.47093 5.67357 5.72072 5.44626C5.9705 5.21894 6.30928 5.09123 6.66253 5.09123H14.6541V9.93972C14.6541 10.2612 14.7944 10.5695 15.0442 10.7968C15.294 11.0241 15.6328 11.1518 15.986 11.1518H22.6457C22.9086 11.1506 23.1653 11.0786 23.3834 10.9449C23.6014 10.8112 23.7711 10.6217 23.871 10.4003C23.973 10.1796 24.0009 9.9363 23.9511 9.70116C23.9013 9.46602 23.7761 9.24957 23.5913 9.07911L16.9317 3.01851C16.8216 2.92422 16.6957 2.84648 16.5588 2.7882H16.4389C16.32 2.73505 16.1949 2.69439 16.0659 2.66699H6.66253C5.60278 2.66699 4.58644 3.05011 3.83709 3.73206C3.08773 4.41401 2.66675 5.33893 2.66675 6.30336V23.2731C2.66675 24.2375 3.08773 25.1624 3.83709 25.8444C4.58644 26.5263 5.60278 26.9094 6.66253 26.9094H13.3222C13.6754 26.9094 14.0142 26.7817 14.264 26.5544C14.5138 26.3271 14.6541 26.0188 14.6541 25.6973C14.6541 25.3758 14.5138 25.0675 14.264 24.8402C14.0142 24.6129 13.6754 24.4852 13.3222 24.4852ZM17.3179 6.80033L19.4357 8.7276H17.3179V6.80033Z" fill="currentColor"/>
</svg>
