<?xml version="1.0" encoding="UTF-8"?>
<svg width="24px" height="24px" viewBox="0 0 24 24" version="1.1" xmlns="http://www.w3.org/2000/svg" xmlns:xlink="http://www.w3.org/1999/xlink">
    <!-- Generator: Sketch 48.1 (47250) - http://www.bohemiancoding.com/sketch -->
    <title>Filter24</title>
    <desc>Created with Sketch.</desc>
    <defs></defs>
    <g id="Page-1" stroke="none" stroke-width="1" fill="none" fill-rule="evenodd">
        <g id="Filter24" fill="#000000">
            <path d="M13,8 L15,8 C15.5522847,8 16,8.44771525 16,9 C16,9.55228475 15.5522847,10 15,10 L9,10 C8.44771525,10 8,9.55228475 8,9 C8,8.44771525 8.44771525,8 9,8 L11,8 L11,1 C11,0.44771525 11.4477153,1.01453063e-16 12,0 C12.5522847,-1.01453063e-16 13,0.44771525 13,1 L13,8 Z M12,11 C12.5522847,11 13,11.4477153 13,12 L13,23 C13,23.5522847 12.5522847,24 12,24 C11.4477153,24 11,23.5522847 11,23 L11,12 C11,11.4477153 11.4477153,11 12,11 Z M21,17 L21,23 C21,23.5522847 20.5522847,24 20,24 C19.4477153,24 19,23.5522847 19,23 L19,17 L17,17 C16.4477153,17 16,16.5522847 16,16 C16,15.4477153 16.4477153,15 17,15 L23,15 C23.5522847,15 24,15.4477153 24,16 C24,16.5522847 23.5522847,17 23,17 L21,17 Z M20,0 C20.5522847,-1.01453063e-16 21,0.44771525 21,1 L21,13 C21,13.5522847 20.5522847,14 20,14 C19.4477153,14 19,13.5522847 19,13 L19,1 C19,0.44771525 19.4477153,1.01453063e-16 20,0 Z M5,12 L7,12 C7.55228475,12 8,12.4477153 8,13 C8,13.5522847 7.55228475,14 7,14 L1,14 C0.44771525,14 1.28867715e-16,13.5522847 6.123234e-17,13 C-6.40303515e-18,12.4477153 0.44771525,12 1,12 L3,12 L3,1 C3,0.44771525 3.44771525,1.01453063e-16 4,0 C4.55228475,-1.01453063e-16 5,0.44771525 5,1 L5,12 Z M4,15 C4.55228475,15 5,15.4477153 5,16 L5,23 C5,23.5522847 4.55228475,24 4,24 C3.44771525,24 3,23.5522847 3,23 L3,16 C3,15.4477153 3.44771525,15 4,15 Z"></path>
        </g>
    </g>
</svg>