<?xml version="1.0" encoding="UTF-8"?>
<svg width="32px" height="32px" viewBox="0 0 32 32" version="1.1" xmlns="http://www.w3.org/2000/svg" xmlns:xlink="http://www.w3.org/1999/xlink">
    <!-- Generator: Sketch 48.1 (47250) - http://www.bohemiancoding.com/sketch -->
    <title>Filter32</title>
    <desc>Created with Sketch.</desc>
    <defs></defs>
    <g id="Page-1" stroke="none" stroke-width="1" fill="none" fill-rule="evenodd">
        <g id="Filter32" fill="#000000">
            <path d="M18,10 L21,10 C21.5522847,10 22,10.4477153 22,11 C22,11.5522847 21.5522847,12 21,12 L13,12 C12.4477153,12 12,11.5522847 12,11 C12,10.4477153 12.4477153,10 13,10 L16,10 L16,1 C16,0.44771525 16.4477153,1.01453063e-16 17,0 C17.5522847,-1.01453063e-16 18,0.44771525 18,1 L18,10 Z M17,14 C17.5522847,14 18,14.4477153 18,15 L18,31 C18,31.5522847 17.5522847,32 17,32 C16.4477153,32 16,31.5522847 16,31 L16,15 C16,14.4477153 16.4477153,14 17,14 Z M28,22 L28,31 C28,31.5522847 27.5522847,32 27,32 C26.4477153,32 26,31.5522847 26,31 L26,22 L23,22 C22.4477153,22 22,21.5522847 22,21 C22,20.4477153 22.4477153,20 23,20 L31,20 C31.5522847,20 32,20.4477153 32,21 C32,21.5522847 31.5522847,22 31,22 L28,22 Z M27,0 C27.5522847,-1.01453063e-16 28,0.44771525 28,1 L28,17 C28,17.5522847 27.5522847,18 27,18 C26.4477153,18 26,17.5522847 26,17 L26,1 C26,0.44771525 26.4477153,1.01453063e-16 27,0 Z M6,16 L9,16 C9.55228475,16 10,16.4477153 10,17 C10,17.5522847 9.55228475,18 9,18 L1,18 C0.44771525,18 1.28867715e-16,17.5522847 6.123234e-17,17 C-6.40303515e-18,16.4477153 0.44771525,16 1,16 L4,16 L4,1 C4,0.44771525 4.44771525,1.01453063e-16 5,0 C5.55228475,-1.01453063e-16 6,0.44771525 6,1 L6,16 Z M5,20 C5.55228475,20 6,20.4477153 6,21 L6,31 C6,31.5522847 5.55228475,32 5,32 C4.44771525,32 4,31.5522847 4,31 L4,21 C4,20.4477153 4.44771525,20 5,20 Z"></path>
        </g>
    </g>
</svg>