<svg width="16" height="16" viewBox="0 0 16 16" fill="none" xmlns="http://www.w3.org/2000/svg">
<path d="M12.8148 3.99999H8.44143C8.26461 3.99999 8.09505 4.07023 7.97002 4.19525C7.845 4.32028 7.77476 4.48985 7.77476 4.66666C7.77476 4.84347 7.845 5.01304 7.97002 5.13806C8.09505 5.26309 8.26461 5.33332 8.44143 5.33332H12.8148C12.9527 5.33332 13.0849 5.38811 13.1825 5.48563C13.28 5.58315 13.3348 5.71541 13.3348 5.85332V6.37333H10.8148C10.6379 6.37333 10.4684 6.44356 10.3434 6.56859C10.2183 6.69361 10.1481 6.86318 10.1481 7.03999C10.1481 7.2168 10.2183 7.38637 10.3434 7.5114C10.4684 7.63642 10.6379 7.70666 10.8148 7.70666H12.3948L11.9281 8.16666C11.8656 8.22863 11.816 8.30237 11.7822 8.38361C11.7483 8.46485 11.7309 8.55198 11.7309 8.63999C11.7309 8.728 11.7483 8.81514 11.7822 8.89638C11.816 8.97762 11.8656 9.05135 11.9281 9.11332C11.9901 9.17581 12.0638 9.22541 12.145 9.25925C12.2263 9.2931 12.3134 9.31052 12.4014 9.31052C12.4894 9.31052 12.5766 9.2931 12.6578 9.25925C12.7391 9.22541 12.8128 9.17581 12.8748 9.11332L14.1281 7.85999C14.2815 7.70718 14.4037 7.52605 14.4881 7.32666V7.25999C14.5986 7.03791 14.66 6.79461 14.6681 6.54666V5.87999C14.6707 5.63461 14.6248 5.39114 14.5329 5.1636C14.441 4.93606 14.3051 4.72894 14.1328 4.55419C13.9605 4.37944 13.7554 4.2405 13.5291 4.14539C13.3029 4.05027 13.0601 4.00086 12.8148 3.99999V3.99999ZM2.47476 1.52666C2.4126 1.4645 2.33881 1.41519 2.25759 1.38155C2.17638 1.34791 2.08933 1.3306 2.00143 1.3306C1.91352 1.3306 1.82647 1.34791 1.74526 1.38155C1.66404 1.41519 1.59025 1.4645 1.52809 1.52666C1.40256 1.65219 1.33203 1.82246 1.33203 1.99999C1.33203 2.17753 1.40256 2.34779 1.52809 2.47332L3.42809 4.36666C3.19197 4.53583 2.99977 4.75906 2.86755 5.0177C2.73534 5.27633 2.66694 5.56286 2.66809 5.85332V6.51999C2.66828 6.77307 2.72285 7.02316 2.82809 7.25332V7.29332C2.91316 7.49431 3.03529 7.67749 3.18809 7.83332L6.79476 11.4333V14C6.79453 14.1133 6.82318 14.2248 6.87801 14.3239C6.93283 14.4231 7.01202 14.5066 7.10809 14.5667C7.21419 14.6324 7.33661 14.6671 7.46143 14.6667C7.56579 14.666 7.66854 14.6409 7.76143 14.5933L10.1348 13.4067C10.2447 13.3513 10.3372 13.2665 10.4019 13.1618C10.4666 13.057 10.5011 12.9364 10.5014 12.8133V11.48L13.5081 14.4933C13.5701 14.5558 13.6438 14.6054 13.725 14.6393C13.8063 14.6731 13.8934 14.6905 13.9814 14.6905C14.0694 14.6905 14.1566 14.6731 14.2378 14.6393C14.319 14.6054 14.3928 14.5558 14.4548 14.4933C14.5172 14.4313 14.5668 14.3576 14.6007 14.2764C14.6345 14.1951 14.652 14.108 14.652 14.02C14.652 13.932 14.6345 13.8448 14.6007 13.7636C14.5668 13.6824 14.5172 13.6086 14.4548 13.5467L2.47476 1.52666ZM4.00143 5.85332C4.00062 5.74869 4.03223 5.64637 4.09192 5.56043C4.1516 5.47448 4.23643 5.40912 4.33476 5.37333L4.39476 5.33332L5.43476 6.37333H4.00143V5.85332ZM9.38143 10.7133C9.31964 10.7756 9.27075 10.8495 9.23758 10.9307C9.2044 11.0119 9.18758 11.0989 9.18809 11.1867V12.4L8.14809 12.92V11.1867C8.1486 11.0989 8.13178 11.0119 8.09861 10.9307C8.06543 10.8495 8.01655 10.7756 7.95476 10.7133L4.94143 7.70666H6.76809L9.58143 10.52L9.38143 10.7133Z" fill="#454550"/>
</svg>
