<?xml version="1.0" encoding="UTF-8"?>
<svg width="24px" height="24px" viewBox="0 0 24 24" version="1.1" xmlns="http://www.w3.org/2000/svg" xmlns:xlink="http://www.w3.org/1999/xlink">
    <!-- Generator: Sketch 48.2 (47327) - http://www.bohemiancoding.com/sketch -->
    <title>Flag24</title>
    <desc>Created with Sketch.</desc>
    <defs></defs>
    <g id="Page-1" stroke="none" stroke-width="1" fill="none" fill-rule="evenodd">
        <g id="Flag24" fill="#000000" fill-rule="nonzero">
            <path d="M2,15.8571429 L2,2.14285714 C2,1.88036805 2.10320691,1.62840337 2.28734754,1.44133988 C2.52223073,1.20272839 2.95252225,0.911314022 3.60791907,0.644994046 C4.60980388,0.237878945 5.89769536,0 7.5,0 C9.07533744,0 10.1518621,0.312460661 12.3764559,1.21642262 C14.3706121,2.02674638 15.2628374,2.28571429 16.5,2.28571429 C17.8508204,2.28571429 18.8832414,2.0950218 19.6391691,1.78785119 C20.0384598,1.62559974 20.2409807,1.48844267 20.2873475,1.44133988 C20.9149994,0.803725257 22,1.24815088 22,2.14285714 L22,15.8571429 C22,16.1196319 21.8967931,16.3715966 21.7126525,16.5586601 C21.4777693,16.7972716 21.0474777,17.088686 20.3920809,17.355006 C19.3901961,17.7621211 18.1023046,18 16.5,18 C14.9246626,18 13.8481379,17.6875393 11.6235441,16.7835774 C9.62938794,15.9732536 8.73716256,15.7142857 7.5,15.7142857 C6.14917964,15.7142857 5.11675862,15.9049782 4.36083093,16.2121488 C4.21494881,16.2714279 4.09533208,16.3273573 4,16.3767691 L4,22.8888889 C4,23.5025386 3.55228475,24 3,24 C2.44771525,24 2,23.5025386 2,22.8888889 L2,15.8571429 Z M4,14.2136929 C4.93908858,13.8960358 6.0994315,13.7142857 7.5,13.7142857 C9.07533744,13.7142857 10.1518621,14.0267464 12.3764559,14.9307083 C14.3706121,15.7410321 15.2628374,16 16.5,16 C17.8508204,16 18.8832414,15.8093075 19.6391691,15.5021369 C19.7850512,15.4428578 19.9046679,15.3869284 20,15.3375167 L20,3.78630711 C19.0609114,4.10396424 17.9005685,4.28571429 16.5,4.28571429 C14.9246626,4.28571429 13.8481379,3.97325362 11.6235441,3.06929167 C9.62938794,2.25896791 8.73716256,2 7.5,2 C6.14917964,2 5.11675862,2.19069248 4.36083093,2.4978631 C4.21494881,2.55714218 4.09533208,2.6130716 4,2.66248335 L4,14.2136929 Z"></path>
        </g>
    </g>
</svg>