<?xml version="1.0" encoding="UTF-8"?>
<svg width="32px" height="32px" viewBox="0 0 32 32" version="1.1" xmlns="http://www.w3.org/2000/svg" xmlns:xlink="http://www.w3.org/1999/xlink">
    <!-- Generator: Sketch 48.1 (47250) - http://www.bohemiancoding.com/sketch -->
    <title>Flag32</title>
    <desc>Created with Sketch.</desc>
    <defs></defs>
    <g id="Page-1" stroke="none" stroke-width="1" fill="none" fill-rule="evenodd">
        <g id="Flag32" fill="#000000" fill-rule="nonzero">
            <path d="M2,21.4220284 L2,2.57797165 C2,2.30342372 2.1111793,2.04076347 2.30782846,1.85072921 C2.60623239,1.56236302 3.1765372,1.19494914 4.06370859,0.852017695 C5.45106726,0.31574148 7.24809399,0 9.5,0 C11.6912766,0 13.2013545,0.416937637 16.3581664,1.63718672 C19.2951045,2.77244473 20.6287766,3.14067612 22.5,3.14067612 C24.513719,3.14067612 26.0682548,2.86754083 27.2199586,2.42235575 C27.8562247,2.17641043 28.1999824,1.95494754 28.3078285,1.85072921 C28.9435746,1.23636835 30,1.69038695 30,2.57797165 L30,21.4220284 C30,21.6965763 29.8888207,21.9592365 29.6921715,22.1492708 C29.3937676,22.437637 28.8234628,22.8050509 27.9362914,23.1479823 C26.5489327,23.6842585 24.751906,24 22.5,24 C20.3087234,24 18.7986455,23.5830624 15.6418336,22.3628133 C12.7048955,21.2275553 11.3712234,20.8593239 9.5,20.8593239 C7.48628101,20.8593239 5.93174524,21.1324592 4.78004141,21.5776442 C4.43880274,21.7095483 4.18169917,21.8344103 4,21.9379208 L4,31.0704225 C4,31.583814 3.55228475,32 3,32 C2.44771525,32 2,31.583814 2,31.0704225 L2,21.4220284 Z M9.5,18.8440567 C11.6912766,18.8440567 13.2013545,19.2609943 16.3581664,20.4812434 C19.2951045,21.6165014 20.6287766,21.9847328 22.5,21.9847328 C24.513719,21.9847328 26.0682548,21.7115975 27.2199586,21.2664125 C27.5611973,21.1345084 27.8183008,21.0096464 28,20.9061359 L28,4.27904405 C26.5489327,4.84020181 24.751906,5.15594329 22.5,5.15594329 C20.3087234,5.15594329 18.7986455,4.73900566 15.6418336,3.51875657 C12.7048955,2.38349857 11.3712234,2.01526718 9.5,2.01526718 C7.48628101,2.01526718 5.93174524,2.28840247 4.78004141,2.73358754 C4.43880274,2.86549156 4.18169917,2.99035362 4,3.09386407 L4,19.720956 C5.45106726,19.1597982 7.24809399,18.8440567 9.5,18.8440567 Z"></path>
        </g>
    </g>
</svg>