<?xml version="1.0" encoding="UTF-8"?>
<svg width="32px" height="32px" viewBox="0 0 32 32" version="1.1" xmlns="http://www.w3.org/2000/svg" xmlns:xlink="http://www.w3.org/1999/xlink">
    <!-- Generator: Sketch 48.1 (47250) - http://www.bohemiancoding.com/sketch -->
    <title>Folder32</title>
    <desc>Created with Sketch.</desc>
    <defs></defs>
    <g id="Page-1" stroke="none" stroke-width="1" fill="none" fill-rule="evenodd">
        <g id="Folder32" fill="#000000" fill-rule="nonzero">
            <path d="M10.9540488,6 L4,6 C2.9037315,6 2,6.93720303 2,8.11111111 L2,23.8888889 C2,25.062797 2.9037315,26 4,26 L28,26 C29.0962685,26 30,25.062797 30,23.8888889 L30,12.7777778 C30,11.6038697 29.0962685,10.6666667 28,10.6666667 L14.5,10.6666667 C14.1597362,10.6666667 13.8428217,10.4936468 13.6588215,10.2074243 L10.9540488,6 Z M15.0459512,8.66666667 L28,8.66666667 C30.21744,8.66666667 32,10.5152474 32,12.7777778 L32,23.8888889 C32,26.1514193 30.21744,28 28,28 L4,28 C1.78256,28 0,26.1514193 0,23.8888889 L0,8.11111111 C-4.3857849e-16,5.84858074 1.78256,4 4,4 L11.5,4 C11.8402638,4 12.1571783,4.17301986 12.3411785,4.45924241 L15.0459512,8.66666667 Z"></path>
        </g>
    </g>
</svg>