<?xml version="1.0" encoding="UTF-8"?>
<svg width="24px" height="24px" viewBox="0 0 24 24" version="1.1" xmlns="http://www.w3.org/2000/svg" xmlns:xlink="http://www.w3.org/1999/xlink">
    <!-- Generator: Sketch 48.1 (47250) - http://www.bohemiancoding.com/sketch -->
    <title>Folder24</title>
    <desc>Created with Sketch.</desc>
    <defs></defs>
    <g id="Page-1" stroke="none" stroke-width="1" fill="none" fill-rule="evenodd">
        <g id="Folder24" fill="#000000" fill-rule="nonzero">
            <path d="M8.16183474,5 L3.2,5 C2.53952056,5 2,5.54497027 2,6.22222222 L2,19.7777778 C2,20.4550297 2.53952056,21 3.2,21 L20.8,21 C21.4604794,21 22,20.4550297 22,19.7777778 L22,9.55555556 C22,8.8783036 21.4604794,8.33333333 20.8,8.33333333 L10.9,8.33333333 C10.5640061,8.33333333 10.2504702,8.16459922 10.0653906,7.88417554 L8.16183474,5 Z M11.4381653,6.33333333 L20.8,6.33333333 C22.5695735,6.33333333 24,7.77820862 24,9.55555556 L24,19.7777778 C24,21.5551247 22.5695735,23 20.8,23 L3.2,23 C1.43042654,23 0,21.5551247 0,19.7777778 L0,6.22222222 C-3.21559909e-16,4.44487529 1.43042654,3 3.2,3 L8.7,3 C9.0359939,3 9.34952978,3.16873412 9.53460941,3.44915779 L11.4381653,6.33333333 Z"></path>
        </g>
    </g>
</svg>