<svg width="32" height="32" viewBox="0 0 32 32" fill="none" xmlns="http://www.w3.org/2000/svg">
<path d="M10.4276 16.771C10.1108 16.771 9.80115 16.8648 9.53775 17.0406C9.27435 17.2164 9.06906 17.4662 8.94783 17.7585C8.8266 18.0508 8.79488 18.3725 8.85668 18.6828C8.91848 18.9931 9.07103 19.2781 9.29503 19.5019C9.51904 19.7256 9.80443 19.8779 10.1151 19.9397C10.4258 20.0014 10.7479 19.9697 11.0406 19.8486C11.3332 19.7275 11.5834 19.5225 11.7594 19.2594C11.9354 18.9964 12.0293 18.6871 12.0293 18.3707C12.0293 17.9464 11.8606 17.5396 11.5602 17.2396C11.2598 16.9396 10.8524 16.771 10.4276 16.771ZM10.4276 9.60445C10.1108 9.60445 9.80115 9.69827 9.53775 9.87405C9.27435 10.0498 9.06906 10.2997 8.94783 10.592C8.8266 10.8843 8.79488 11.2059 8.85668 11.5162C8.91848 11.8265 9.07103 12.1116 9.29503 12.3353C9.51904 12.559 9.80443 12.7114 10.1151 12.7731C10.4258 12.8348 10.7479 12.8031 11.0406 12.682C11.3332 12.561 11.5834 12.3559 11.7594 12.0929C11.9354 11.8298 12.0293 11.5205 12.0293 11.2041C12.0293 10.7799 11.8606 10.373 11.5602 10.073C11.2598 9.77299 10.8524 9.60445 10.4276 9.60445ZM16.0175 12.8038C15.5927 12.8038 15.1853 12.9724 14.885 13.2724C14.5846 13.5724 14.4158 13.9792 14.4158 14.4035V16.0032C14.4158 16.4274 14.5846 16.8343 14.885 17.1343C15.1853 17.4343 15.5927 17.6029 16.0175 17.6029C16.4423 17.6029 16.8497 17.4343 17.1501 17.1343C17.4505 16.8343 17.6192 16.4274 17.6192 16.0032V14.4035C17.6192 13.9792 17.4505 13.5724 17.1501 13.2724C16.8497 12.9724 16.4423 12.8038 16.0175 12.8038ZM29.632 10.5163C29.0795 10.1988 28.4692 9.99422 27.8367 9.91457C27.2043 9.83493 26.5623 9.88177 25.9481 10.0524C25.3089 10.2234 24.7137 10.5288 24.2022 10.9482L5.6225 0.214317C5.37901 0.0739155 5.10281 0 4.82165 0C4.5405 0 4.26429 0.0739155 4.0208 0.214317C3.77339 0.353211 3.56738 0.555268 3.42385 0.799807C3.28032 1.04435 3.20442 1.32258 3.20393 1.60604V22.6739C2.2587 22.9923 1.43913 23.6023 0.863406 24.4159C0.287677 25.2295 -0.0144681 26.2048 0.000532723 27.201C8.73128e-05 28.4519 0.488711 29.6535 1.36231 30.5499C2.23592 31.4463 3.42545 31.9666 4.6775 32H5.60649C10.8548 31.9877 16.0065 30.5886 20.5384 27.9448C25.0703 25.301 28.821 21.5067 31.4099 16.947C32.0078 15.856 32.1583 14.5758 31.8296 13.3762C31.5009 12.1766 30.7188 11.1512 29.648 10.5163H29.632ZM6.40734 4.37349L22.2482 13.5077C20.4908 16.1267 18.1414 18.2963 15.3897 19.8413C12.6379 21.3863 9.56103 22.2635 6.40734 22.4019V4.37349ZM28.6229 15.3793C26.2451 19.5635 22.7725 23.023 18.577 25.3872C14.3815 27.7515 9.62112 28.9314 4.80564 28.8006C4.38084 28.8006 3.97344 28.6321 3.67306 28.3321C3.37269 28.0321 3.20393 27.6252 3.20393 27.201C3.20268 26.9866 3.24457 26.7742 3.32712 26.5763C3.40966 26.3785 3.53118 26.1992 3.68445 26.0492C3.98535 25.7595 4.38771 25.5988 4.80564 25.6013H5.6225C9.73522 25.5996 13.7737 24.5072 17.3252 22.4358C20.8766 20.3644 23.8136 17.3883 25.836 13.8116C25.9332 13.6361 26.066 13.4829 26.226 13.3617C26.386 13.2405 26.5696 13.154 26.765 13.1078C27.1688 12.997 27.6 13.0487 27.9662 13.2517C28.3337 13.449 28.6096 13.7817 28.7353 14.1791C28.8609 14.5764 28.8263 15.007 28.6389 15.3793H28.6229Z" fill="currentColor"/>
</svg>
