<svg width="32" height="32" viewBox="0 0 32 32" fill="none" xmlns="http://www.w3.org/2000/svg">
<path d="M7.27081 15.0495C6.98321 15.0495 6.70206 15.1345 6.46292 15.2937C6.22379 15.453 6.0374 15.6793 5.92734 15.9441C5.81728 16.209 5.78848 16.5004 5.84459 16.7815C5.9007 17.0626 6.0392 17.3209 6.24256 17.5236C6.44593 17.7262 6.70504 17.8643 6.98712 17.9202C7.2692 17.9761 7.56158 17.9474 7.82729 17.8377C8.09301 17.728 8.32012 17.5423 8.4799 17.3039C8.63969 17.0656 8.72497 16.7854 8.72497 16.4988C8.72497 16.1144 8.57177 15.7458 8.29906 15.474C8.02635 15.2022 7.65648 15.0495 7.27081 15.0495ZM15.7922 12.8031L5.39494 2.42622C5.25936 2.29109 5.0984 2.1839 4.92125 2.11077C4.7441 2.03764 4.55423 2 4.36249 2C4.17074 2 3.98088 2.03764 3.80373 2.11077C3.62658 2.1839 3.46562 2.29109 3.33003 2.42622C3.05621 2.69913 2.90237 3.06927 2.90237 3.45521C2.90237 3.84116 3.05621 4.2113 3.33003 4.4842L5.22044 6.35378H4.36249C3.20548 6.35378 2.09587 6.81186 1.27774 7.62724C0.459618 8.44262 0 9.54851 0 10.7016V22.2959C0 23.449 0.459618 24.5549 1.27774 25.3703C2.09587 26.1857 3.20548 26.6437 4.36249 26.6437H25.5787L29.505 30.5713C29.6401 30.7071 29.801 30.815 29.9782 30.8885C30.1554 30.9621 30.3454 31 30.5374 31C30.7294 31 30.9194 30.9621 31.0966 30.8885C31.2738 30.815 31.4347 30.7071 31.5699 30.5713C31.7062 30.4366 31.8143 30.2763 31.8882 30.0997C31.962 29.9231 32 29.7336 32 29.5423C32 29.351 31.962 29.1616 31.8882 28.985C31.8143 28.8083 31.7062 28.6481 31.5699 28.5133L15.7922 12.8031ZM14.7161 15.8321L16.6647 17.7741C16.459 17.8849 16.2295 17.9445 15.9958 17.948C15.6101 17.948 15.2402 17.7954 14.9675 17.5236C14.6948 17.2518 14.5416 16.8831 14.5416 16.4988C14.5452 16.2658 14.605 16.0371 14.7161 15.8321ZM4.36249 23.7452C3.97682 23.7452 3.60695 23.5925 3.33424 23.3207C3.06153 23.0489 2.90832 22.6803 2.90832 22.2959V10.7016C2.90832 10.3173 3.06153 9.94863 3.33424 9.67683C3.60695 9.40504 3.97682 9.25235 4.36249 9.25235H8.12877L12.6367 13.7451C11.9927 14.5197 11.6381 15.4928 11.6333 16.4988C11.6333 17.6519 12.0929 18.7578 12.911 19.5732C13.7292 20.3885 14.8388 20.8466 15.9958 20.8466C17.0051 20.8419 17.9815 20.4885 18.7587 19.8466L22.6704 23.7452H4.36249ZM27.6291 6.35378H16.9555C16.5699 6.35378 16.2 6.50647 15.9273 6.77827C15.6546 7.05006 15.5014 7.41869 15.5014 7.80306C15.5014 8.18744 15.6546 8.55607 15.9273 8.82786C16.2 9.09965 16.5699 9.25235 16.9555 9.25235H27.6291C28.0147 9.25235 28.3846 9.40504 28.6573 9.67683C28.93 9.94863 29.0832 10.3173 29.0832 10.7016V21.3394C29.0832 21.7237 29.2365 22.0924 29.5092 22.3642C29.7819 22.636 30.1517 22.7887 30.5374 22.7887C30.9231 22.7887 31.2929 22.636 31.5657 22.3642C31.8384 22.0924 31.9916 21.7237 31.9916 21.3394V10.7016C31.9916 9.54851 31.532 8.44262 30.7138 7.62724C29.8957 6.81186 28.7861 6.35378 27.6291 6.35378ZM26.1749 16.4988C26.1749 16.2121 26.0896 15.9319 25.9299 15.6936C25.7701 15.4553 25.543 15.2695 25.2772 15.1598C25.0115 15.0501 24.7191 15.0214 24.4371 15.0773C24.155 15.1332 23.8959 15.2713 23.6925 15.474C23.4891 15.6767 23.3506 15.9349 23.2945 16.216C23.2384 16.4972 23.2672 16.7886 23.3773 17.0534C23.4873 17.3182 23.6737 17.5445 23.9129 17.7038C24.152 17.863 24.4332 17.948 24.7208 17.948C25.1064 17.948 25.4763 17.7954 25.749 17.5236C26.0217 17.2518 26.1749 16.8831 26.1749 16.4988Z" fill="currentColor"/>
</svg>
