<svg width="24" height="24" viewBox="0 0 24 24" fill="none" xmlns="http://www.w3.org/2000/svg">
<path d="M5.45311 11.2871C5.2374 11.2871 5.02654 11.3509 4.84719 11.4703C4.66784 11.5897 4.52805 11.7595 4.4455 11.9581C4.36296 12.1567 4.34136 12.3753 4.38344 12.5861C4.42552 12.797 4.5294 12.9907 4.68192 13.1427C4.83445 13.2947 5.02878 13.3982 5.24034 13.4401C5.4519 13.4821 5.67119 13.4606 5.87047 13.3783C6.06976 13.296 6.24009 13.1567 6.35993 12.978C6.47977 12.7992 6.54373 12.5891 6.54373 12.3741C6.54373 12.0858 6.42882 11.8093 6.22429 11.6055C6.01976 11.4016 5.74236 11.2871 5.45311 11.2871ZM11.8442 9.60232L4.04621 1.81967C3.94452 1.71832 3.8238 1.63793 3.69094 1.58308C3.55807 1.52823 3.41567 1.5 3.27186 1.5C3.12806 1.5 2.98566 1.52823 2.85279 1.58308C2.71993 1.63793 2.59921 1.71832 2.49752 1.81967C2.29216 2.02435 2.17678 2.30195 2.17678 2.59141C2.17678 2.88087 2.29216 3.15847 2.49752 3.36315L3.91533 4.76533H3.27186C2.40411 4.76533 1.5719 5.10889 0.958307 5.72043C0.344713 6.33196 0 7.16138 0 8.02622V16.7219C0 17.5868 0.344713 18.4162 0.958307 19.0277C1.5719 19.6393 2.40411 19.9828 3.27186 19.9828H19.184L22.1287 22.9285C22.2301 23.0304 22.3507 23.1112 22.4836 23.1664C22.6165 23.2216 22.7591 23.25 22.9031 23.25C23.047 23.25 23.1896 23.2216 23.3225 23.1664C23.4554 23.1112 23.576 23.0304 23.6774 22.9285C23.7796 22.8274 23.8608 22.7072 23.9161 22.5748C23.9715 22.4423 24 22.3002 24 22.1567C24 22.0132 23.9715 21.8712 23.9161 21.7387C23.8608 21.6063 23.7796 21.486 23.6774 21.385L11.8442 9.60232ZM11.0371 11.8741L12.4985 13.3306C12.3442 13.4136 12.1722 13.4584 11.9968 13.461C11.7076 13.461 11.4302 13.3465 11.2257 13.1427C11.0211 12.9388 10.9062 12.6624 10.9062 12.3741C10.9089 12.1993 10.9538 12.0278 11.0371 11.8741ZM3.27186 17.8089C2.98261 17.8089 2.70521 17.6944 2.50068 17.4905C2.29615 17.2867 2.18124 17.0102 2.18124 16.7219V8.02622C2.18124 7.73794 2.29615 7.46147 2.50068 7.25762C2.70521 7.05378 2.98261 6.93926 3.27186 6.93926H6.09657L9.4775 10.3088C8.9945 10.8898 8.72855 11.6196 8.72497 12.3741C8.72497 13.2389 9.06969 14.0683 9.68328 14.6799C10.2969 15.2914 11.1291 15.635 11.9968 15.635C12.7538 15.6314 13.4861 15.3663 14.069 14.885L17.0028 17.8089H3.27186ZM20.7218 4.76533H12.7166C12.4274 4.76533 12.15 4.87985 11.9455 5.0837C11.7409 5.28754 11.626 5.56402 11.626 5.8523C11.626 6.14058 11.7409 6.41705 11.9455 6.6209C12.15 6.82474 12.4274 6.93926 12.7166 6.93926H20.7218C21.0111 6.93926 21.2885 7.05378 21.493 7.25762C21.6975 7.46147 21.8124 7.73794 21.8124 8.02622V16.0045C21.8124 16.2928 21.9273 16.5693 22.1319 16.7731C22.3364 16.977 22.6138 17.0915 22.9031 17.0915C23.1923 17.0915 23.4697 16.977 23.6742 16.7731C23.8788 16.5693 23.9937 16.2928 23.9937 16.0045V8.02622C23.9937 7.16138 23.649 6.33196 23.0354 5.72043C22.4218 5.10889 21.5896 4.76533 20.7218 4.76533ZM19.6312 12.3741C19.6312 12.1591 19.5672 11.9489 19.4474 11.7702C19.3275 11.5914 19.1572 11.4521 18.9579 11.3698C18.7586 11.2876 18.5394 11.2661 18.3278 11.308C18.1162 11.3499 17.9219 11.4535 17.7694 11.6055C17.6169 11.7575 17.513 11.9512 17.4709 12.162C17.4288 12.3729 17.4504 12.5914 17.533 12.79C17.6155 12.9887 17.7553 13.1584 17.9347 13.2778C18.114 13.3973 18.3249 13.461 18.5406 13.461C18.8298 13.461 19.1072 13.3465 19.3118 13.1427C19.5163 12.9388 19.6312 12.6624 19.6312 12.3741Z" fill="currentColor"/>
</svg>
