<?xml version="1.0" encoding="UTF-8"?>
<svg width="18px" height="20px" viewBox="0 0 18 20" version="1.1" xmlns="http://www.w3.org/2000/svg" xmlns:xlink="http://www.w3.org/1999/xlink">
    <!-- Generator: Sketch 48.1 (47250) - http://www.bohemiancoding.com/sketch -->
    <title>Github</title>
    <desc>Created with Sketch.</desc>
    <defs></defs>
    <g id="Github20" stroke="none" stroke-width="1" fill="none" fill-rule="evenodd" transform="translate(-1.000000, 0.000000)">
        <path d="M7.35311791,16.3648748 C7.61706132,16.2842342 7.89682552,16.4314528 7.97798875,16.6936969 C8.05915198,16.9559409 7.91097938,17.2339039 7.64703597,17.3145446 C5.20060386,18.061985 3.89678684,17.4846363 2.6843808,15.7990853 C2.61310595,15.6999953 2.36283872,15.3424626 2.30771484,15.265679 C1.92301572,14.7298204 1.67196374,14.4969883 1.37600216,14.4216358 C1.10850463,14.3535304 0.947223179,14.0828666 1.01576996,13.8170912 C1.08431674,13.5513159 1.35673448,13.3910729 1.62423201,13.4591783 C2.21557049,13.6097344 2.60947511,13.9750517 3.12182628,14.6887205 C3.18165046,14.7720514 3.43157126,15.1290891 3.49796377,15.2213915 C4.47871287,16.5848807 5.35824988,16.9743522 7.35311791,16.3648748 Z M13.8070734,14.2436935 C13.8868184,14.5250858 13.93949,14.8212886 13.9712282,15.1166873 C13.9902746,15.2939581 13.9982761,15.433918 14.0000335,15.5290021 L14.0000335,19.5032225 C14.0000335,19.7775851 13.7761773,20 13.5000368,20 C13.2238963,20 13.0000401,19.7775851 13.0000401,19.5032225 C13.0000401,16.1913722 13.0000401,16.1913722 13.0001336,15.5386083 C12.9989977,15.4802529 12.992609,15.3685045 12.9768844,15.2221503 C12.9506711,14.978174 12.9074296,14.7350017 12.8445092,14.5129774 C12.7606634,14.2171145 12.6492483,13.9888318 12.5224236,13.8556026 C12.2392608,13.5581403 12.4195022,13.0671549 12.8289253,13.0206785 C16.2838644,12.6284845 18.0000067,11.1588804 18.0000067,7.29947109 C17.9998055,6.18487764 17.5790727,5.11368269 16.8259678,4.30806916 C16.698244,4.17144014 16.6582859,3.97525239 16.7224948,3.80003366 C17.1815862,2.54722449 17.3272273,1.73697877 17.1190421,1.0383901 C16.268706,0.882965556 15.1349634,1.10585654 13.7831855,2.02867425 C13.6613276,2.11186292 13.5086618,2.13720165 13.3662063,2.09788244 C11.4556361,1.57054518 9.54447764,1.57054518 7.63390745,2.09788244 C7.49145193,2.13720165 7.33878613,2.11186292 7.21692825,2.02867425 C5.8696402,1.10892166 4.73894157,0.884453931 3.88955409,1.03685392 C3.81027279,1.37946715 3.85365378,1.77807415 4.01035711,2.28304766 C4.0844113,2.52168591 4.16787919,2.74393374 4.32813775,3.14303741 C4.49278158,3.55306204 4.52056733,3.62336025 4.58530923,3.80003366 C4.64951933,3.97525582 4.60955831,4.1714475 4.48182925,4.3080766 C3.72310154,5.1196717 3.30192911,6.20056442 3.3077973,7.32601713 C3.3077973,11.150786 5.01005445,12.6084997 8.48526692,13.0480802 C8.89091806,13.0993911 9.06641166,13.5864915 8.78568401,13.8819185 C8.29458559,14.3987316 7.95059262,15.333787 8.0000736,16.067291 L8.0000736,19.5032225 C8.0000736,19.7775851 7.77621747,20 7.50007694,20 C7.22393641,20 7.00008029,19.7775851 7.00008029,19.5032225 L7.0012532,16.1012982 C6.95273051,15.3986938 7.16791156,14.5785526 7.54530887,13.9065789 C4.13898273,13.2640522 2.30780447,11.4048568 2.30781071,7.3285936 C2.3011859,6.05948308 2.74062519,4.83294545 3.54176136,3.86732773 C3.50937052,3.78542112 3.46588961,3.67695393 3.39933485,3.51120774 C3.22958599,3.08846968 3.13900456,2.84728079 3.05475378,2.57578423 C2.80039677,1.75612357 2.76770482,1.0753663 3.03881202,0.431195076 C3.09111683,0.306914894 3.19197689,0.209067363 3.31827479,0.16007942 C3.38219962,0.135284503 3.48378103,0.10485302 3.6208579,0.0766352822 C4.69362457,-0.144197368 6.05655678,0.0889980336 7.58970421,1.08111561 C9.52712727,0.584727346 11.4729865,0.584727346 13.4104095,1.08111561 C14.943557,0.0889980336 16.3064892,-0.144197368 17.3792558,0.0766352822 C17.5163327,0.10485302 17.6179141,0.135284503 17.681839,0.16007942 C17.8081368,0.209067363 17.9089969,0.306914894 17.9613017,0.431195076 C18.3789607,1.42358449 18.2679593,2.40739761 17.7615637,3.8619457 C18.5591459,4.82074151 18.9997723,6.03794459 19,7.299382 C19,11.4362914 17.1296292,13.310448 13.6927074,13.9015658 C13.7352168,14.0098679 13.7731717,14.1240659 13.8070734,14.2436935 Z" id="Github" fill="#000000" fill-rule="nonzero"></path>
    </g>
</svg>