<svg width="24" height="24" viewBox="0 0 24 24" fill="none" xmlns="http://www.w3.org/2000/svg">
<path d="M14.4286 10.8169H13.2274V9.62688C13.2274 9.31127 13.1009 9.00857 12.8756 8.7854C12.6504 8.56222 12.3448 8.43684 12.0263 8.43684C11.7077 8.43684 11.4022 8.56222 11.1769 8.7854C10.9516 9.00857 10.8251 9.31127 10.8251 9.62688V10.8169H9.62389C9.30532 10.8169 8.99979 10.9423 8.77452 11.1655C8.54926 11.3887 8.4227 11.6913 8.4227 12.007C8.4227 12.3226 8.54926 12.6253 8.77452 12.8485C8.99979 13.0716 9.30532 13.197 9.62389 13.197H10.8251V14.3871C10.8251 14.7027 10.9516 15.0054 11.1769 15.2285C11.4022 15.4517 11.7077 15.5771 12.0263 15.5771C12.3448 15.5771 12.6504 15.4517 12.8756 15.2285C13.1009 15.0054 13.2274 14.7027 13.2274 14.3871V13.197H14.4286C14.7472 13.197 15.0527 13.0716 15.278 12.8485C15.5033 12.6253 15.6298 12.3226 15.6298 12.007C15.6298 11.6913 15.5033 11.3887 15.278 11.1655C15.0527 10.9423 14.7472 10.8169 14.4286 10.8169ZM21.8279 3.67667C20.5471 2.42083 18.8554 1.65987 17.0581 1.53112C15.2607 1.40237 13.4761 1.91431 12.0263 2.97455C10.4979 1.84834 8.59567 1.33766 6.70251 1.54535C4.80936 1.75304 3.06595 2.66368 1.82336 4.09388C0.580774 5.52409 -0.0686879 7.36761 0.00576017 9.25323C0.0802082 11.1388 0.873036 12.9265 2.22459 14.2561L9.4317 21.4559C10.1074 22.1245 11.0233 22.5 11.9782 22.5C12.9332 22.5 13.8491 22.1245 14.5247 21.4559L21.7318 14.2561C22.4417 13.5691 23.0074 12.7498 23.3966 11.8454C23.7858 10.941 23.9908 9.96932 23.9997 8.9862C24.0086 8.00308 23.8214 7.0279 23.4487 6.11671C23.0759 5.20552 22.5252 4.37629 21.8279 3.67667ZM20.1343 12.5544L12.9271 19.6946C12.8155 19.8062 12.6826 19.8947 12.5363 19.9551C12.3899 20.0156 12.2329 20.0467 12.0743 20.0467C11.9157 20.0467 11.7587 20.0156 11.6124 19.9551C11.466 19.8947 11.3331 19.8062 11.2215 19.6946L4.01435 12.5544C3.07233 11.6004 2.54484 10.3189 2.54484 8.98426C2.54484 7.64967 3.07233 6.36814 4.01435 5.41413C4.97429 4.47518 6.26895 3.94868 7.61791 3.94868C8.96687 3.94868 10.2615 4.47518 11.2215 5.41413C11.3331 5.52568 11.466 5.61421 11.6124 5.67462C11.7587 5.73504 11.9157 5.76615 12.0743 5.76615C12.2329 5.76615 12.3899 5.73504 12.5363 5.67462C12.6826 5.61421 12.8155 5.52568 12.9271 5.41413C13.8871 4.47518 15.1817 3.94868 16.5307 3.94868C17.8797 3.94868 19.1743 4.47518 20.1343 5.41413C21.0835 6.3692 21.6156 7.6558 21.6156 8.99616C21.6156 10.3365 21.0835 11.6231 20.1343 12.5782V12.5544Z" fill="currentColor"/>
</svg>
