<svg width="32" height="32" viewBox="0 0 32 32" fill="none" xmlns="http://www.w3.org/2000/svg">
<path d="M19.2382 14.4226H17.6366V12.8358C17.6366 12.415 17.4679 12.0114 17.1675 11.7139C16.8671 11.4163 16.4598 11.2491 16.035 11.2491C15.6102 11.2491 15.2029 11.4163 14.9025 11.7139C14.6022 12.0114 14.4334 12.415 14.4334 12.8358V14.4226H12.8319C12.4071 14.4226 11.9997 14.5897 11.6994 14.8873C11.399 15.1849 11.2303 15.5885 11.2303 16.0093C11.2303 16.4301 11.399 16.8337 11.6994 17.1313C11.9997 17.4288 12.4071 17.596 12.8319 17.596H14.4334V19.1827C14.4334 19.6036 14.6022 20.0072 14.9025 20.3047C15.2029 20.6023 15.6102 20.7695 16.035 20.7695C16.4598 20.7695 16.8671 20.6023 17.1675 20.3047C17.4679 20.0072 17.6366 19.6036 17.6366 19.1827V17.596H19.2382C19.6629 17.596 20.0703 17.4288 20.3707 17.1313C20.671 16.8337 20.8398 16.4301 20.8398 16.0093C20.8398 15.5885 20.671 15.1849 20.3707 14.8873C20.0703 14.5897 19.6629 14.4226 19.2382 14.4226ZM29.1039 4.90223C27.3961 3.22777 25.1405 2.21316 22.7441 2.0415C20.3476 1.86983 17.9681 2.55241 16.035 3.96606C13.9973 2.46445 11.4609 1.78354 8.93668 2.06047C6.41248 2.33739 4.08793 3.55158 2.43115 5.45851C0.774366 7.36545 -0.0915838 9.82348 0.00768023 12.3376C0.106944 14.8518 1.16405 17.2353 2.96612 19.0082L12.5756 28.6079C13.4765 29.4993 14.6977 30 15.971 30C17.2442 30 18.4654 29.4993 19.3663 28.6079L28.9758 19.0082C29.9222 18.0921 30.6766 16.9997 31.1955 15.7939C31.7144 14.588 31.9877 13.2924 31.9996 11.9816C32.0115 10.6708 31.7618 9.37053 31.2649 8.15561C30.7679 6.9407 30.0335 5.83505 29.1039 4.90223ZM26.8457 16.7392L17.2362 26.2595C17.0873 26.4082 16.9102 26.5263 16.715 26.6068C16.5198 26.6874 16.3105 26.7289 16.0991 26.7289C15.8876 26.7289 15.6783 26.6874 15.4831 26.6068C15.288 26.5263 15.1108 26.4082 14.962 26.2595L5.35247 16.7392C4.09645 15.4672 3.39312 13.7585 3.39312 11.979C3.39312 10.1996 4.09645 8.49085 5.35247 7.21885C6.63238 5.9669 8.35859 5.2649 10.1572 5.2649C11.9558 5.2649 13.682 5.9669 14.962 7.21885C15.1108 7.36757 15.288 7.48561 15.4831 7.56617C15.6783 7.64672 15.8876 7.6882 16.0991 7.6882C16.3105 7.6882 16.5198 7.64672 16.715 7.56617C16.9102 7.48561 17.0873 7.36757 17.2362 7.21885C18.5161 5.9669 20.2423 5.2649 22.0409 5.2649C23.8396 5.2649 25.5658 5.9669 26.8457 7.21885C28.1113 8.49226 28.8208 10.2077 28.8208 11.9949C28.8208 13.782 28.1113 15.4975 26.8457 16.7709V16.7392Z" fill="currentColor"/>
</svg>
