<svg width="24" height="24" viewBox="0 0 24 24" fill="none" xmlns="http://www.w3.org/2000/svg">
<path d="M8.4 20.4C8.55681 20.3981 8.71173 20.3655 8.856 20.304C9.00142 20.2432 9.13536 20.158 9.252 20.052C9.3063 19.993 9.35454 19.9287 9.396 19.86C9.4435 19.7987 9.48004 19.7297 9.504 19.656C9.54696 19.5894 9.57934 19.5165 9.6 19.44C9.60589 19.3601 9.60589 19.2799 9.6 19.2C9.5981 19.0432 9.56549 18.8883 9.504 18.744C9.45011 18.5951 9.36412 18.4598 9.25214 18.3479C9.14015 18.2359 9.00492 18.1499 8.856 18.096C8.63877 17.9953 8.39638 17.9618 8.16 18L7.944 18.072C7.87028 18.096 7.80126 18.1325 7.74 18.18C7.67135 18.2215 7.60703 18.2697 7.548 18.324C7.43875 18.4381 7.35311 18.5727 7.296 18.72C7.23136 18.8717 7.19868 19.0351 7.2 19.2C7.2 19.5183 7.32643 19.8235 7.55147 20.0485C7.77652 20.2736 8.08174 20.4 8.4 20.4ZM3.948 20.052C4.06464 20.158 4.19858 20.2432 4.344 20.304C4.48827 20.3655 4.64319 20.3981 4.8 20.4H5.028C5.10748 20.3889 5.18454 20.3645 5.256 20.328C5.33247 20.3017 5.40511 20.2654 5.472 20.22L5.652 20.076C5.758 19.9594 5.84323 19.8254 5.904 19.68C5.97495 19.5303 6.00793 19.3655 6 19.2C6.00589 19.1201 6.00589 19.0399 6 18.96C5.98687 18.8848 5.9626 18.812 5.928 18.744C5.90404 18.6703 5.8675 18.6013 5.82 18.54C5.77854 18.4713 5.7303 18.407 5.676 18.348C5.50725 18.1815 5.29296 18.0687 5.06018 18.0238C4.82739 17.979 4.58653 18.0041 4.368 18.096C4.2207 18.1531 4.08612 18.2388 3.972 18.348C3.9177 18.407 3.86946 18.4713 3.828 18.54C3.7805 18.6013 3.74396 18.6703 3.72 18.744C3.6686 18.8091 3.62808 18.882 3.6 18.96C3.59411 19.0399 3.59411 19.1201 3.6 19.2C3.6019 19.3568 3.63451 19.5117 3.696 19.656C3.75677 19.8014 3.842 19.9354 3.948 20.052ZM20.4 0H3.6C2.64522 0 1.72955 0.379285 1.05442 1.05442C0.379285 1.72955 0 2.64522 0 3.6V20.4C0 21.3548 0.379285 22.2705 1.05442 22.9456C1.72955 23.6207 2.64522 24 3.6 24H20.4C21.3548 24 22.2705 23.6207 22.9456 22.9456C23.6207 22.2705 24 21.3548 24 20.4V3.6C24 2.64522 23.6207 1.72955 22.9456 1.05442C22.2705 0.379285 21.3548 0 20.4 0ZM21.6 20.4C21.6 20.7183 21.4736 21.0235 21.2485 21.2485C21.0235 21.4736 20.7183 21.6 20.4 21.6H3.6C3.28174 21.6 2.97652 21.4736 2.75147 21.2485C2.52643 21.0235 2.4 20.7183 2.4 20.4V16.8H21.6V20.4ZM21.6 14.4H2.4V9.6H7.2C7.35793 9.60091 7.51448 9.57064 7.66069 9.51093C7.80689 9.45121 7.93987 9.36322 8.052 9.252L9.6 7.752L12.96 11.592C13.0684 11.7156 13.201 11.8155 13.3496 11.8857C13.4983 11.9559 13.6597 11.9948 13.824 12C13.9819 12.0009 14.1385 11.9706 14.2847 11.9109C14.4309 11.8512 14.5639 11.7632 14.676 11.652L16.692 9.6H21.6V14.4ZM21.6 7.2H16.2C16.0421 7.19909 15.8855 7.22936 15.7393 7.28908C15.5931 7.34879 15.4601 7.43678 15.348 7.548L13.86 9.048L10.5 5.208C10.3878 5.08811 10.2521 4.99253 10.1014 4.92719C9.95073 4.86185 9.78824 4.82814 9.624 4.82814C9.45976 4.82814 9.29727 4.86185 9.14659 4.92719C8.99591 4.99253 8.86025 5.08811 8.748 5.208L6.708 7.2H2.4V3.6C2.4 3.28174 2.52643 2.97652 2.75147 2.75147C2.97652 2.52643 3.28174 2.4 3.6 2.4H20.4C20.7183 2.4 21.0235 2.52643 21.2485 2.75147C21.4736 2.97652 21.6 3.28174 21.6 3.6V7.2Z" fill="currentColor"/>
</svg>
