<svg width="32" height="32" viewBox="0 0 32 32" fill="none" xmlns="http://www.w3.org/2000/svg">
<g clip-path="url(#clip0)">
<path d="M11.2 27.1999C11.4091 27.1974 11.6156 27.1539 11.808 27.0719C12.0019 26.9909 12.1805 26.8773 12.336 26.7359C12.4084 26.6572 12.4727 26.5715 12.528 26.4799C12.5913 26.3982 12.64 26.3062 12.672 26.2079C12.7293 26.1191 12.7725 26.022 12.8 25.9199C12.8079 25.8134 12.8079 25.7065 12.8 25.5999C12.7975 25.3908 12.754 25.1843 12.672 24.9919C12.6001 24.7934 12.4855 24.6131 12.3362 24.4638C12.1869 24.3144 12.0066 24.1998 11.808 24.1279C11.5184 23.9936 11.1952 23.9491 10.88 23.9999L10.592 24.0959C10.4937 24.1279 10.4017 24.1766 10.32 24.2399C10.2285 24.2952 10.1427 24.3595 10.064 24.4319C9.91834 24.5841 9.80415 24.7635 9.728 24.9599C9.64181 25.1622 9.59824 25.3801 9.6 25.5999C9.6 26.0243 9.76857 26.4312 10.0686 26.7313C10.3687 27.0314 10.7757 27.1999 11.2 27.1999ZM5.264 26.7359C5.41952 26.8773 5.5981 26.9909 5.792 27.0719C5.98436 27.1539 6.19092 27.1974 6.4 27.1999H6.704C6.80998 27.1851 6.91273 27.1526 7.008 27.1039C7.10996 27.0689 7.20681 27.0205 7.296 26.9599L7.536 26.7679C7.67733 26.6124 7.79097 26.4338 7.872 26.2399C7.96661 26.0404 8.01057 25.8205 8 25.5999C8.00785 25.4934 8.00785 25.3865 8 25.2799C7.98249 25.1797 7.95013 25.0826 7.904 24.9919C7.87205 24.8936 7.82333 24.8016 7.76 24.7199C7.70472 24.6284 7.64039 24.5426 7.568 24.4639C7.343 24.2419 7.05729 24.0915 6.7469 24.0317C6.43652 23.9719 6.11538 24.0054 5.824 24.1279C5.6276 24.2041 5.44817 24.3183 5.296 24.4639C5.22361 24.5426 5.15928 24.6284 5.104 24.7199C5.04067 24.8016 4.99195 24.8936 4.96 24.9919C4.89147 25.0787 4.83744 25.1759 4.8 25.2799C4.79215 25.3865 4.79215 25.4934 4.8 25.5999C4.80253 25.809 4.84601 26.0156 4.928 26.2079C5.00903 26.4018 5.12267 26.5804 5.264 26.7359V26.7359ZM27.2 0H4.8C3.52696 0 2.30606 0.505712 1.40589 1.40588C0.505713 2.30606 0 3.52695 0 4.79999V27.1999C0 28.473 0.505713 29.6939 1.40589 30.594C2.30606 31.4942 3.52696 31.9999 4.8 31.9999H27.2C28.473 31.9999 29.6939 31.4942 30.5941 30.594C31.4943 29.6939 32 28.473 32 27.1999V4.79999C32 3.52695 31.4943 2.30606 30.5941 1.40588C29.6939 0.505712 28.473 0 27.2 0ZM28.8 27.1999C28.8 27.6243 28.6314 28.0312 28.3314 28.3313C28.0313 28.6314 27.6243 28.7999 27.2 28.7999H4.8C4.37565 28.7999 3.96869 28.6314 3.66863 28.3313C3.36857 28.0312 3.2 27.6243 3.2 27.1999V22.3999H28.8V27.1999ZM28.8 19.1999H3.2V12.8H9.6C9.81057 12.8012 10.0193 12.7608 10.2143 12.6812C10.4092 12.6016 10.5865 12.4843 10.736 12.336L12.8 10.336L17.28 15.456C17.4245 15.6207 17.6014 15.754 17.7995 15.8476C17.9977 15.9411 18.213 15.993 18.432 16C18.6426 16.0012 18.8513 15.9608 19.0463 15.8812C19.2412 15.8016 19.4185 15.6842 19.568 15.536L22.256 12.8H28.8V19.1999ZM28.8 9.59997H21.6C21.3894 9.59876 21.1807 9.63912 20.9858 9.71874C20.7908 9.79836 20.6135 9.91568 20.464 10.064L18.48 12.064L14 6.94398C13.8503 6.78412 13.6695 6.65669 13.4685 6.56957C13.2676 6.48245 13.051 6.4375 12.832 6.4375C12.613 6.4375 12.3964 6.48245 12.1955 6.56957C11.9945 6.65669 11.8137 6.78412 11.664 6.94398L8.944 9.59997H3.2V4.79999C3.2 4.37564 3.36857 3.96868 3.66863 3.66862C3.96869 3.36856 4.37565 3.19999 4.8 3.19999H27.2C27.6243 3.19999 28.0313 3.36856 28.3314 3.66862C28.6314 3.96868 28.8 4.37564 28.8 4.79999V9.59997Z" fill="#000000"/>
</g>
<defs>
<clipPath id="clip0">
<rect width="32" height="31.9999" fill="#000000"/>
</clipPath>
</defs>
</svg>
