<?xml version="1.0" encoding="UTF-8"?>
<svg width="24px" height="24px" viewBox="0 0 24 24" version="1.1" xmlns="http://www.w3.org/2000/svg" xmlns:xlink="http://www.w3.org/1999/xlink">
    <!-- Generator: Sketch 48.1 (47250) - http://www.bohemiancoding.com/sketch -->
    <title>Help24</title>
    <desc>Created with Sketch.</desc>
    <defs></defs>
    <g id="Page-1" stroke="none" stroke-width="1" fill="none" fill-rule="evenodd">
        <g id="Help24" fill="#000000" fill-rule="nonzero">
            <path d="M12,24 C5.372583,24 0,18.627417 0,12 C0,5.372583 5.372583,0 12,0 C18.627417,0 24,5.372583 24,12 C24,18.627417 18.627417,24 12,24 Z M12,22 C17.5228475,22 22,17.5228475 22,12 C22,6.4771525 17.5228475,2 12,2 C6.4771525,2 2,6.4771525 2,12 C2,17.5228475 6.4771525,22 12,22 Z M9.73037935,9.20884437 C9.5334988,9.75222855 8.93339377,10.0331259 8.39000724,9.83624624 C7.84662071,9.63936654 7.56572212,9.0392641 7.76260267,8.49587992 C8.51121575,6.42973111 10.6705516,5.1976076 12.871924,5.56421127 C15.0800245,5.9319354 16.7030975,7.80390576 16.6997225,10.0025724 C16.6997225,11.4418457 15.8226434,12.5772468 14.4448351,13.4690508 C13.6887065,13.9584646 12.9450228,14.2793704 12.4213892,14.4488347 C11.8715146,14.6267913 11.2814902,14.3252942 11.1035328,13.7754221 C10.9255754,13.2255499 11.2270738,12.635528 11.7769484,12.4575714 C11.8583709,12.4312205 12.0223276,12.3705787 12.2398807,12.2767028 C12.6062634,12.1186055 12.9721822,11.929129 13.3075778,11.71204 C14.1510666,11.1660811 14.6067658,10.576167 14.606767,10.0009666 C14.6085545,8.83607565 13.7361682,7.82990938 12.5281088,7.62872624 C11.3133212,7.42642263 10.1319524,8.10051519 9.73037935,9.20884437 Z M12,18 C11.4477153,18 11,17.5522847 11,17 C11,16.4477153 11.4477153,16 12,16 C12.5522847,16 13,16.4477153 13,17 C13,17.5522847 12.5522847,18 12,18 Z"></path>
        </g>
    </g>
</svg>