<?xml version="1.0" encoding="UTF-8"?>
<svg width="32px" height="32px" viewBox="0 0 32 32" version="1.1" xmlns="http://www.w3.org/2000/svg" xmlns:xlink="http://www.w3.org/1999/xlink">
    <!-- Generator: Sketch 48.2 (47327) - http://www.bohemiancoding.com/sketch -->
    <title>Help32</title>
    <desc>Created with Sketch.</desc>
    <defs></defs>
    <g id="Page-1" stroke="none" stroke-width="1" fill="none" fill-rule="evenodd">
        <g id="Help32" fill="#000000">
            <path d="M16.5,23 C15.6715729,23 15,22.3284271 15,21.5 C15,20.6715729 15.6715729,20 16.5,20 C17.3284271,20 18,20.6715729 18,21.5 C18,22.3284271 17.3284271,23 16.5,23 Z M12.989681,11.336112 C12.8020643,11.8567466 12.2176139,12.130334 11.6842744,11.9471866 C11.1509349,11.7640393 10.8706712,11.1935113 11.0582878,10.6728768 C11.9693525,8.14468058 14.615531,6.62654494 17.3214778,7.0796302 C20.0274246,7.53271546 22.0040827,9.82490149 21.9999937,12.5034732 C21.9999937,14.2195291 20.9359151,15.6045032 19.2408007,16.7076594 C18.6844614,17.069717 18.094626,17.3768022 17.5051729,17.6325406 C17.149094,17.787028 16.8668629,17.8919833 16.693338,17.9484471 C16.1569744,18.122976 15.5772295,17.8400088 15.3984417,17.3164222 C15.2196538,16.7928355 15.5095262,16.2269011 16.0458898,16.0523722 C16.160282,16.0151498 16.381906,15.9327328 16.6736406,15.8061617 C17.1638768,15.5934692 17.6537307,15.3384373 18.1051015,15.0446917 C19.2891585,14.2741243 19.9525828,13.4106303 19.952584,12.5019844 C19.9551868,10.7964914 18.6973135,9.33782754 16.9753473,9.04950055 C15.2533812,8.76117357 13.5694494,9.72725988 12.989681,11.336112 Z M16,32 C7.163444,32 0,24.836556 0,16 C0,7.163444 7.163444,0 16,0 C24.836556,0 32,7.163444 32,16 C32,24.836556 24.836556,32 16,32 Z M16,30 C23.7319865,30 30,23.7319865 30,16 C30,8.2680135 23.7319865,2 16,2 C8.2680135,2 2,8.2680135 2,16 C2,23.7319865 8.2680135,30 16,30 Z"></path>
        </g>
    </g>
</svg>