<svg width="24" height="24" viewBox="0 0 24 24" fill="none" xmlns="http://www.w3.org/2000/svg">
<path d="M10.7276 4.89849C11.1483 4.834 11.5733 4.80192 11.999 4.80253C15.8131 4.80253 19.3993 7.5492 21.4863 11.999C21.1671 12.6761 20.8066 13.333 20.4068 13.966C20.2799 14.1625 20.2132 14.3918 20.2149 14.6257C20.2176 14.8874 20.3058 15.1411 20.4662 15.3481C20.6265 15.555 20.8501 15.7038 21.1029 15.7717C21.3556 15.8397 21.6238 15.8231 21.8663 15.7244C22.1087 15.6258 22.3123 15.4505 22.4458 15.2254C23.0047 14.3474 23.4901 13.4246 23.8971 12.4667C23.9615 12.3171 23.9946 12.1558 23.9946 11.9929C23.9946 11.83 23.9615 11.6689 23.8971 11.5193C21.4743 5.894 16.9165 2.40372 11.999 2.40372C11.4361 2.40089 10.874 2.44906 10.3198 2.54765C10.1623 2.57443 10.0116 2.63197 9.8763 2.71698C9.74107 2.80199 9.62385 2.91282 9.53145 3.04312C9.43898 3.17344 9.37312 3.32068 9.33757 3.47645C9.30202 3.63221 9.29752 3.79345 9.3243 3.95096C9.35107 4.10846 9.4086 4.25916 9.49365 4.39443C9.57863 4.5297 9.68948 4.6469 9.81975 4.73935C9.9501 4.83178 10.0973 4.89766 10.2531 4.93319C10.4089 4.96873 10.5701 4.97324 10.7276 4.94647V4.89849ZM2.05589 0.352735C1.94406 0.240905 1.8113 0.152195 1.66519 0.0916732C1.51907 0.0311504 1.36246 0 1.20431 0C1.04616 0 0.88956 0.0311504 0.743444 0.0916732C0.597329 0.152195 0.464566 0.240905 0.352735 0.352735C0.126883 0.578588 0 0.88491 0 1.20431C0 1.52371 0.126883 1.83004 0.352735 2.05589L4.07089 5.76206C2.37442 7.39509 1.02423 9.3531 0.10086 11.5193C0.0348166 11.6705 0.000727771 11.8339 0.000727771 11.999C0.000727771 12.1641 0.0348166 12.3274 0.10086 12.4787C2.52366 18.1039 7.08141 21.5942 11.999 21.5942C14.1545 21.5794 16.259 20.9375 18.056 19.7471L21.9421 23.6453C22.0535 23.7576 22.1862 23.8469 22.3324 23.9078C22.4786 23.9687 22.6353 24 22.7936 24C22.952 24 23.1088 23.9687 23.2549 23.9078C23.4011 23.8469 23.5337 23.7576 23.6453 23.6453C23.7576 23.5337 23.8469 23.4011 23.9078 23.2549C23.9687 23.1088 24 22.952 24 22.7936C24 22.6353 23.9687 22.4786 23.9078 22.3324C23.8469 22.1862 23.7576 22.0535 23.6453 21.9421L2.05589 0.352735ZM9.68415 11.3752L12.6227 14.3138C12.4199 14.372 12.2098 14.4002 11.999 14.3978C11.3628 14.3978 10.7526 14.1451 10.3028 13.6952C9.8529 13.2453 9.60015 12.6352 9.60015 11.999C9.59768 11.7881 9.62602 11.578 9.68415 11.3752ZM11.999 19.1954C8.18483 19.1954 4.59863 16.4488 2.52366 11.999C3.29858 10.2883 4.39842 8.74447 5.76206 7.45322L7.88497 9.60015C7.38635 10.5103 7.19624 11.5575 7.34319 12.5849C7.49014 13.6121 7.9662 14.5641 8.70007 15.2979C9.43387 16.0317 10.3858 16.5078 11.4131 16.6548C12.4404 16.8017 13.4877 16.6116 14.3978 16.1129L16.3048 17.996C14.9988 18.7647 13.5143 19.1782 11.999 19.1954Z" fill="currentColor"/>
</svg>
