<?xml version="1.0" encoding="UTF-8"?>
<svg width="32px" height="32px" viewBox="0 0 32 32" version="1.1" xmlns="http://www.w3.org/2000/svg" xmlns:xlink="http://www.w3.org/1999/xlink">
    <!-- Generator: Sketch 48.2 (47327) - http://www.bohemiancoding.com/sketch -->
    <title>Hide32</title>
    <desc>Created with Sketch.</desc>
    <defs></defs>
    <g id="Page-1" stroke="none" stroke-width="1" fill="none" fill-rule="evenodd">
        <g id="Hide32" fill="#000000" fill-rule="nonzero">
            <path d="M2.74607555,16.7884121 C3.51433335,17.957962 4.42181696,19.128084 5.46032845,20.2171953 C8.38274664,23.2820035 11.7336019,25.0996519 15.4471009,25.0997789 C18.0730726,25.0575677 20.616414,24.190371 22.705124,22.6250288 C23.1296107,22.3069057 22.8707831,22.646749 23.1943491,23.064095 C23.5179152,23.4814411 24.3013472,23.8182494 23.8768605,24.1363725 C21.4600417,25.9476092 18.5171751,26.9510311 15.4628994,27 C11.1202999,27 7.30528744,24.9305727 4.0502334,21.5169215 C2.92662961,20.338572 1.94998419,19.0792717 1.122395,17.8193993 C0.832120903,17.3775033 0.580714512,16.9662003 0.368638435,16.5955184 C0.239103402,16.3691077 0.150056373,16.2036606 0.102028941,16.1092216 C-0.0384047319,15.833079 -0.0336215935,15.5070688 0.114854953,15.2350236 C1.81928493,12.1120924 4.18328857,9.38364055 7.04827865,7.23270408 C7.47248734,6.91422272 7.4075193,6.90340252 7.73144977,7.32047524 C8.05538023,7.73754795 8.64554333,8.42457663 8.22133464,8.74305799 C5.7123908,10.6266871 3.61945685,12.9898744 2.06740214,15.6884998 C2.25782777,16.0201107 2.48430752,16.3899121 2.74607555,16.7884121 Z M29.1390658,13.9630469 C28.3386745,12.8219668 27.3932341,11.6803284 26.3112853,10.6177288 C23.2666327,7.62752559 19.775623,5.85412325 15.8879761,5.85412069 C14.9954118,5.85218947 14.1056304,5.94581828 13.2365548,6.13312116 C12.6951198,6.24981102 12.1534605,5.94027847 12.0267248,5.44176084 C11.8999891,4.94324322 12.2361693,4.44451902 12.7776043,4.32782915 C13.7986646,4.10777061 14.8440516,3.99776792 15.8903421,4.00003432 C20.4145772,4.00003432 24.3891582,6.01908663 27.7803597,9.34964114 C28.9509598,10.4993067 29.9684549,11.7279525 30.8306592,12.9571565 C31.1330744,13.3882957 31.3949963,13.7895865 31.6159427,14.1512451 C31.7508958,14.3721444 31.8436673,14.5335641 31.8937036,14.6257043 C32.039756,14.8946553 32.0350589,15.2121232 31.8811036,15.4773113 C31.0146385,16.9697969 29.9813043,18.3749123 28.7979051,19.6698072 C28.4398824,20.0615615 27.8047278,20.1119121 27.3792474,19.7822685 C26.9537671,19.4526248 26.8990818,18.8678162 27.2571045,18.476062 C28.2348964,17.4061459 29.1017814,16.2547706 29.846651,15.0370413 C29.6481518,14.7132829 29.4120234,14.3521897 29.1390658,13.9630469 Z M18.4403729,19.8545864 C17.3466055,20.4038029 16.0638577,20.560316 14.8313473,20.2563673 C13.0275814,19.8115417 11.6190991,18.4514445 11.1584489,16.7096427 C10.8285565,15.4622595 11.0224531,14.1615884 11.6593566,13.0735702 L0.292893219,1.70710678 C-0.0976310729,1.31658249 -0.0976310729,0.683417511 0.292893219,0.292893219 C0.683417511,-0.0976310729 1.31658249,-0.0976310729 1.70710678,0.292893219 L31.7071068,30.2928932 C32.0976311,30.6834175 32.0976311,31.3165825 31.7071068,31.7071068 C31.3165825,32.0976311 30.6834175,32.0976311 30.2928932,31.7071068 L18.4403729,19.8545864 Z M13.1527409,14.5669545 C12.973832,15.096239 12.9484308,15.6728119 13.0962549,16.2317616 C13.3759354,17.2892841 14.2310854,18.1150574 15.326229,18.3851301 C15.8689105,18.5189605 16.4276336,18.5057589 16.9470027,18.3612162 L13.1527409,14.5669545 Z"></path>
        </g>
    </g>
</svg>