<?xml version="1.0" encoding="UTF-8"?>
<svg width="24px" height="24px" viewBox="0 0 24 24" version="1.1" xmlns="http://www.w3.org/2000/svg" xmlns:xlink="http://www.w3.org/1999/xlink">
    <!-- Generator: Sketch 48.1 (47250) - http://www.bohemiancoding.com/sketch -->
    <title>Hide24</title>
    <desc>Created with Sketch.</desc>
    <defs></defs>
    <g id="Page-1" stroke="none" stroke-width="1" fill="none" fill-rule="evenodd">
        <g id="Hide24" fill="#000000" fill-rule="nonzero">
            <path d="M2.58256263,13.6762879 C3.15915446,14.5696054 3.84036543,15.4635274 4.61911097,16.2946826 C6.79763951,18.6198263 9.28409471,19.9924784 12.021582,19.9926125 C13.9633993,19.9608459 15.8441143,19.3082241 17.3886447,18.1302026 C17.8292661,17.7941383 18.4587325,17.8791108 18.7945972,18.3199938 C19.130462,18.7608768 19.04554,19.390717 18.6049186,19.7267812 C16.7198081,21.1645649 14.424382,21.9610945 12.0379811,22 C8.64748124,22 5.67922627,20.3613696 3.15541846,17.6677092 C2.28834628,16.742283 1.53534466,15.7541534 0.897166274,14.7654194 C0.511581352,14.1680302 0.246919964,13.6972416 0.105906957,13.4150481 C-0.0398645753,13.1233319 -0.0348996306,12.7789358 0.119220483,12.4915481 C1.4346803,10.0386108 3.25919162,7.89552124 5.47035861,6.20604685 C5.9106914,5.86960416 6.54023046,5.95403571 6.87647347,6.39462999 C7.21271648,6.83522426 7.12833504,7.46513718 6.68800226,7.80157987 C4.84716778,9.2080963 3.30503311,10.9650402 2.14933765,12.969352 C2.27517958,13.1869259 2.41970774,13.4239757 2.58256263,13.6762879 Z M21.4426726,11.173069 C20.8717149,10.2959218 20.1971603,9.41818099 19.4260242,8.60207084 C17.2687831,6.31901536 14.8066241,4.97121022 12.0773129,4.9712075 C11.4520695,4.9697497 10.8287756,5.04042602 10.219986,5.18181281 C9.68580578,5.30587215 9.15140419,4.97679126 9.02636665,4.44679007 C8.90132911,3.91678888 9.23300479,3.38656806 9.76718501,3.26250873 C10.5259227,3.0862976 11.3027373,2.99821332 12.0796472,3.00002746 C15.437017,3.00002746 18.3762678,4.60899645 20.8754144,7.25389788 C21.734014,8.16257264 22.4796577,9.1328157 23.1116002,10.1036523 C23.4934174,10.690228 23.7554926,11.1524946 23.8951277,11.42958 C24.0392233,11.7155165 24.0345891,12.0530339 23.8826966,12.3349697 C23.247111,13.5147142 22.4891204,14.6253964 21.6210513,15.6489541 C21.2678258,16.0654494 20.6411817,16.1189798 20.2214024,15.7685178 C19.8016231,15.4180557 19.7476705,14.7963139 20.100896,14.3798186 C20.7655237,13.5961427 21.3582483,12.7555574 21.8722007,11.868128 C21.7474627,11.6542409 21.6041675,11.4211695 21.4426726,11.173069 Z M14.4340201,15.8482338 C13.3345971,16.8447625 11.8008884,17.2328268 10.347177,16.8615744 C8.77135433,16.459137 7.54086294,15.2286456 7.13842547,13.6528229 C6.76717309,12.1991115 7.15523741,10.6654028 8.15176614,9.56597979 L0.292893132,1.70710678 C-0.0976311594,1.31658249 -0.0976311594,0.683417511 0.292893132,0.292893219 C0.683417424,-0.0976310729 1.3165824,-0.0976310729 1.70710669,0.292893219 L23.7071067,22.2928932 C24.097631,22.6834175 24.097631,23.3165825 23.7071067,23.7071068 C23.3165824,24.0976311 22.6834174,24.0976311 22.2928931,23.7071068 L14.4340201,15.8482338 Z M9.72804739,11.142261 C9.28320006,11.6846048 9.11660947,12.4116566 9.29305611,13.102568 C9.49427485,13.8904794 10.1095205,14.5057251 10.8974319,14.7069438 C11.5883433,14.8833904 12.3153951,14.7167998 12.8577389,14.2719525 L9.72804739,11.142261 Z"></path>
        </g>
    </g>
</svg>