<?xml version="1.0" encoding="UTF-8"?>
<svg width="16px" height="16px" viewBox="0 0 16 16" version="1.1" xmlns="http://www.w3.org/2000/svg" xmlns:xlink="http://www.w3.org/1999/xlink">
    <!-- Generator: Sketch 48.1 (47250) - http://www.bohemiancoding.com/sketch -->
    <title>HiperCard</title>
    <desc>Created with Sketch.</desc>
    <defs></defs>
    <g id="Page-1" stroke="none" stroke-width="1" fill="none" fill-rule="evenodd">
        <g id="HiperCard">
            <path d="M1,2 L15,2 C15.5522847,2 16,2.44771525 16,3 L16,13 C16,13.5522847 15.5522847,14 15,14 L1,14 C0.44771525,14 6.76353751e-17,13.5522847 0,13 L0,3 C-6.76353751e-17,2.44771525 0.44771525,2 1,2 Z" id="Shape" fill="#F47421"></path>
            <path d="M4.2293,6.14922 L4.2293,7.57822 L2.8443,7.57822 L2.8443,6.14922 L2.0003,6.14922 L2.0003,9.86822 L2.8443,9.86822 L2.8443,8.31322 L4.2293,8.31322 L4.2293,9.86822 L5.0683,9.86822 L5.0683,6.14922 L4.2293,6.14922 Z M10.5873,8.21302 C10.6093,7.98702 10.7533,7.66702 11.1063,7.66702 C11.4923,7.66702 11.5803,8.00902 11.5803,8.21302 L10.5873,8.21302 Z M12.3313,8.78702 C12.3413,8.72602 12.3583,8.59902 12.3583,8.45602 C12.3583,7.78802 12.0273,7.10902 11.1553,7.10902 C10.2173,7.10902 9.7933,7.86502 9.7933,8.55002 C9.7933,9.39402 10.3163,9.92302 11.2333,9.92302 C11.5973,9.92302 11.9333,9.86802 12.2093,9.75802 L12.0993,9.19002 C11.8733,9.26102 11.6413,9.30002 11.3543,9.30002 C10.9623,9.30002 10.6203,9.13502 10.5923,8.78702 L12.3313,8.78702 Z M5.4896,7.16662 L6.3516,7.16662 L6.3516,8.68762 C6.3516,8.96862 6.5086,9.23962 6.8546,9.23962 C6.8566,8.55562 6.8546,7.85062 6.8316,7.16662 L7.5516,7.16662 C7.5676,7.29862 7.5816,7.43062 7.5946,7.56262 C7.9346,6.88162 9.0076,7.03162 9.3686,7.60662 C9.7406,8.20062 9.8676,9.89862 8.1136,9.89862 L7.7046,9.89862 C7.7086,10.24462 7.7086,10.58962 7.7086,10.93562 L6.8466,10.93562 C6.8466,10.60362 6.8486,10.25662 6.8506,9.89862 C5.9196,9.89562 5.4896,9.30462 5.4896,8.68762 L5.4896,7.16662 Z M7.6926,9.23962 C7.6896,9.15062 7.6846,9.06262 7.6836,8.97362 C7.6816,8.55862 7.5836,7.76662 8.1836,7.76662 C8.7066,7.76662 8.7266,8.40462 8.7266,8.68762 C8.7266,8.96962 8.5356,9.23962 8.1136,9.23962 L7.6926,9.23962 Z M12.6273,9.86832 L12.6273,8.05832 C12.6273,7.66132 12.6163,7.40232 12.6053,7.17032 L13.3283,7.17032 L13.3553,7.66732 L13.3773,7.66732 C13.5153,7.27532 13.8463,7.10932 14.1063,7.10932 C14.1833,7.10932 14.2213,7.10932 14.2823,7.12032 L14.2823,7.91032 C14.2213,7.89832 14.1493,7.88832 14.0563,7.88832 C13.7473,7.88832 13.5373,8.05332 13.4823,8.31232 C13.4713,8.36832 13.4653,8.43332 13.4653,8.50032 L13.4653,9.86832 L12.6273,9.86832 Z" id="Hiper" fill="#FEFEFE"></path>
            <path d="M5.9208,6.00012 C6.1588,6.00012 6.3518,6.19312 6.3518,6.43112 C6.3518,6.66912 6.1588,6.86212 5.9208,6.86212 C5.6828,6.86212 5.4898,6.66912 5.4898,6.43112 C5.4898,6.19312 5.6828,6.00012 5.9208,6.00012" id="Yellow_o" fill="#FEFEFE"></path>
        </g>
    </g>
</svg>