<svg width="32" height="32" viewBox="0 0 32 32" fill="none" xmlns="http://www.w3.org/2000/svg">
<path d="M31.46 13.1988L17.0563 0.398C16.7642 0.141473 16.3888 0 16 0C15.6112 0 15.2358 0.141473 14.9437 0.398L0.540032 13.1988C0.295226 13.4153 0.122594 13.7016 0.0453439 14.0191C-0.0319057 14.3366 -0.010068 14.6702 0.107921 14.9749C0.22398 15.2756 0.428171 15.5343 0.69375 15.717C0.95933 15.8998 1.27391 15.998 1.5963 15.999H3.19671V30.3999C3.19671 30.8243 3.36533 31.2313 3.66546 31.5313C3.9656 31.8314 4.37267 32 4.79712 32H27.2029C27.6273 32 28.0344 31.8314 28.3345 31.5313C28.6347 31.2313 28.8033 30.8243 28.8033 30.3999V15.999H30.4037C30.7261 15.998 31.0407 15.8998 31.3062 15.717C31.5718 15.5343 31.776 15.2756 31.8921 14.9749C32.0101 14.6702 32.0319 14.3366 31.9547 14.0191C31.8774 13.7016 31.7048 13.4153 31.46 13.1988ZM17.6004 28.7998H14.3996V23.9995C14.3996 23.5751 14.5682 23.1681 14.8683 22.8681C15.1685 22.568 15.5755 22.3994 16 22.3994C16.4245 22.3994 16.8315 22.568 17.1317 22.8681C17.4318 23.1681 17.6004 23.5751 17.6004 23.9995V28.7998ZM25.6025 28.7998H20.8012V23.9995C20.8012 22.7264 20.2954 21.5054 19.395 20.6052C18.4946 19.7049 17.2734 19.1992 16 19.1992C14.7266 19.1992 13.5054 19.7049 12.605 20.6052C11.7046 21.5054 11.1988 22.7264 11.1988 23.9995V28.7998H6.39754V15.999H25.6025V28.7998ZM5.80538 12.7988L16 3.74221L26.1946 12.7988H5.80538Z" fill="currentColor"/>
</svg>
