<svg width="24" height="24" viewBox="0 0 24 24" fill="none" xmlns="http://www.w3.org/2000/svg">
<path d="M21.2916 7.22008L14.0417 0.915623C13.3771 0.325982 12.5167 0 11.625 0C10.7334 0 9.87299 0.325982 9.20839 0.915623L1.95844 7.22008C1.57464 7.56056 1.26837 7.97824 1.06002 8.44531C0.851667 8.91237 0.746022 9.41811 0.750115 9.92884V20.4043C0.750115 21.3579 1.13203 22.2725 1.81185 22.9468C2.49166 23.6212 3.41369 24 4.37509 24H18.875C19.8364 24 20.7584 23.6212 21.4382 22.9468C22.118 22.2725 22.5 21.3579 22.5 20.4043V9.91685C22.5023 9.40814 22.3959 8.90471 22.1876 8.43984C21.9793 7.97496 21.6739 7.55922 21.2916 7.22008ZM14.0417 21.6029H9.20839V15.61C9.20839 15.2922 9.33569 14.9873 9.5623 14.7625C9.7889 14.5378 10.0962 14.4115 10.4167 14.4115H12.8334C13.1538 14.4115 13.4612 14.5378 13.6878 14.7625C13.9144 14.9873 14.0417 15.2922 14.0417 15.61V21.6029ZM20.0833 20.4043C20.0833 20.7222 19.956 21.027 19.7294 21.2518C19.5028 21.4766 19.1955 21.6029 18.875 21.6029H16.4583V15.61C16.4583 14.6564 16.0764 13.7418 15.3966 13.0675C14.7168 12.3932 13.7948 12.0143 12.8334 12.0143H10.4167C9.45531 12.0143 8.53328 12.3932 7.85347 13.0675C7.17365 13.7418 6.79174 14.6564 6.79174 15.61V21.6029H4.37509C4.05462 21.6029 3.74728 21.4766 3.52067 21.2518C3.29407 21.027 3.16676 20.7222 3.16676 20.4043V9.91685C3.16698 9.74667 3.20373 9.57849 3.27457 9.4235C3.3454 9.2685 3.4487 9.13025 3.57759 9.01793L10.8275 2.72546C11.048 2.5333 11.3315 2.42733 11.625 2.42733C11.9185 2.42733 12.202 2.5333 12.4225 2.72546L19.6725 9.01793C19.8014 9.13025 19.9047 9.2685 19.9755 9.4235C20.0463 9.57849 20.0831 9.74667 20.0833 9.91685V20.4043Z" fill="currentColor"/>
</svg>
