<svg width="24" height="24" viewBox="0 0 24 24" fill="none" xmlns="http://www.w3.org/2000/svg">
<g clip-path="url(#clip0)">
<path d="M21.2916 7.22006L14.0417 0.91562C13.3771 0.325982 12.5167 0 11.625 0C10.7334 0 9.87299 0.325982 9.20839 0.91562L1.95844 7.22006C1.57464 7.56054 1.26837 7.97822 1.06002 8.44528C0.851667 8.91235 0.746022 9.41808 0.750115 9.92881V20.4042C0.750115 21.3579 1.13203 22.2725 1.81185 22.9468C2.49166 23.6211 3.41369 23.9999 4.37509 23.9999H18.875C19.8364 23.9999 20.7584 23.6211 21.4382 22.9468C22.118 22.2725 22.5 21.3579 22.5 20.4042V9.91683C22.5023 9.40811 22.3959 8.90469 22.1876 8.43981C21.9793 7.97494 21.6739 7.5592 21.2916 7.22006V7.22006ZM14.0417 21.6028H9.20839V15.61C9.20839 15.2921 9.33569 14.9873 9.5623 14.7625C9.7889 14.5377 10.0962 14.4114 10.4167 14.4114H12.8334C13.1538 14.4114 13.4612 14.5377 13.6878 14.7625C13.9144 14.9873 14.0417 15.2921 14.0417 15.61V21.6028ZM20.0833 20.4042C20.0833 20.7221 19.956 21.027 19.7294 21.2518C19.5028 21.4765 19.1955 21.6028 18.875 21.6028H16.4583V15.61C16.4583 14.6564 16.0764 13.7418 15.3966 13.0675C14.7168 12.3931 13.7948 12.0143 12.8334 12.0143H10.4167C9.45531 12.0143 8.53328 12.3931 7.85347 13.0675C7.17365 13.7418 6.79174 14.6564 6.79174 15.61V21.6028H4.37509C4.05462 21.6028 3.74728 21.4765 3.52067 21.2518C3.29407 21.027 3.16676 20.7221 3.16676 20.4042V9.91683C3.16698 9.74665 3.20373 9.57847 3.27457 9.42347C3.3454 9.26848 3.4487 9.13022 3.57759 9.0179L10.8275 2.72545C11.048 2.5333 11.3315 2.42733 11.625 2.42733C11.9185 2.42733 12.202 2.5333 12.4225 2.72545L19.6725 9.0179C19.8014 9.13022 19.9047 9.26848 19.9755 9.42347C20.0463 9.57847 20.0831 9.74665 20.0833 9.91683V20.4042Z" fill="#000000"/>
</g>
<defs>
<clipPath id="clip0">
<rect width="24" height="23.9999" fill="#000000"/>
</clipPath>
</defs>
</svg>
