<svg width="32" height="32" viewBox="0 0 32 32" fill="none" xmlns="http://www.w3.org/2000/svg">
<path d="M28.3888 9.62677L18.7222 1.22083C17.8361 0.434643 16.6889 0 15.5 0C14.3112 0 13.164 0.434643 12.2779 1.22083L2.61125 9.62677C2.09952 10.0807 1.69115 10.6377 1.41335 11.2604C1.13556 11.8832 0.994695 12.5575 1.00015 13.2385V27.2057C1.00015 28.4773 1.50937 29.6967 2.41579 30.5958C3.32221 31.4949 4.55158 32 5.83345 32H25.1666C26.4485 32 27.6779 31.4949 28.5843 30.5958C29.4907 29.6967 29.9999 28.4773 29.9999 27.2057V13.2225C30.0031 12.5442 29.8611 11.8729 29.5834 11.2531C29.3057 10.6333 28.8985 10.079 28.3888 9.62677ZM18.7222 28.8038H12.2779V20.8134C12.2779 20.3895 12.4476 19.9831 12.7497 19.6834C13.0519 19.3837 13.4617 19.2153 13.8889 19.2153H17.1111C17.5384 19.2153 17.9482 19.3837 18.2504 19.6834C18.5525 19.9831 18.7222 20.3895 18.7222 20.8134V28.8038ZM26.7778 27.2057C26.7778 27.6296 26.608 28.0361 26.3059 28.3358C26.0037 28.6355 25.5939 28.8038 25.1666 28.8038H21.9444V20.8134C21.9444 19.5419 21.4352 18.3224 20.5288 17.4233C19.6224 16.5242 18.393 16.0191 17.1111 16.0191H13.8889C12.6071 16.0191 11.3777 16.5242 10.4713 17.4233C9.56487 18.3224 9.05565 19.5419 9.05565 20.8134V28.8038H5.83345C5.40616 28.8038 4.99637 28.6355 4.69423 28.3358C4.39209 28.0361 4.22235 27.6296 4.22235 27.2057V13.2225C4.22264 12.9956 4.27164 12.7713 4.36609 12.5647C4.46054 12.358 4.59827 12.1737 4.77013 12.0239L14.4367 3.63394C14.7307 3.37774 15.1087 3.23644 15.5 3.23644C15.8914 3.23644 16.2694 3.37774 16.5634 3.63394L26.23 12.0239C26.4018 12.1737 26.5396 12.358 26.634 12.5647C26.7285 12.7713 26.7775 12.9956 26.7778 13.2225V27.2057Z" fill="currentColor"/>
</svg>
