<?xml version="1.0" encoding="UTF-8"?>
<svg width="32px" height="32px" viewBox="0 0 32 32" version="1.1" xmlns="http://www.w3.org/2000/svg" xmlns:xlink="http://www.w3.org/1999/xlink">
    <!-- Generator: Sketch 48.1 (47250) - http://www.bohemiancoding.com/sketch -->
    <title>Home32</title>
    <desc>Created with Sketch.</desc>
    <defs></defs>
    <g id="Page-1" stroke="none" stroke-width="1" fill="none" fill-rule="evenodd">
        <g id="Home32" fill="#000000" fill-rule="nonzero">
            <path d="M20,2 C19.4477153,2 19,2.44771525 19,3 L19,12 C19,12.5522847 19.4477153,13 20,13 L29,13 C29.5522847,13 30,12.5522847 30,12 L30,3 C30,2.44771525 29.5522847,2 29,2 L20,2 Z M20,0 L29,0 C30.6568542,-3.04359188e-16 32,1.34314575 32,3 L32,12 C32,13.6568542 30.6568542,15 29,15 L20,15 C18.3431458,15 17,13.6568542 17,12 L17,3 C17,1.34314575 18.3431458,3.04359188e-16 20,0 Z M3,2 C2.44771525,2 2,2.44771525 2,3 L2,12 C2,12.5522847 2.44771525,13 3,13 L12,13 C12.5522847,13 13,12.5522847 13,12 L13,3 C13,2.44771525 12.5522847,2 12,2 L3,2 Z M3,0 L12,0 C13.6568542,-3.04359188e-16 15,1.34314575 15,3 L15,12 C15,13.6568542 13.6568542,15 12,15 L3,15 C1.34314575,15 2.02906125e-16,13.6568542 0,12 L0,3 C-2.02906125e-16,1.34314575 1.34314575,3.04359188e-16 3,0 Z M3,19 C2.44771525,19 2,19.4477153 2,20 L2,29 C2,29.5522847 2.44771525,30 3,30 L12,30 C12.5522847,30 13,29.5522847 13,29 L13,20 C13,19.4477153 12.5522847,19 12,19 L3,19 Z M3,17 L12,17 C13.6568542,17 15,18.3431458 15,20 L15,29 C15,30.6568542 13.6568542,32 12,32 L3,32 C1.34314575,32 2.02906125e-16,30.6568542 0,29 L0,20 C-2.02906125e-16,18.3431458 1.34314575,17 3,17 Z M20,19 C19.4477153,19 19,19.4477153 19,20 L19,29 C19,29.5522847 19.4477153,30 20,30 L29,30 C29.5522847,30 30,29.5522847 30,29 L30,20 C30,19.4477153 29.5522847,19 29,19 L20,19 Z M20,17 L29,17 C30.6568542,17 32,18.3431458 32,20 L32,29 C32,30.6568542 30.6568542,32 29,32 L20,32 C18.3431458,32 17,30.6568542 17,29 L17,20 C17,18.3431458 18.3431458,17 20,17 Z"></path>
        </g>
    </g>
</svg>