<svg width="32" height="32" viewBox="0 0 32 32" fill="none" xmlns="http://www.w3.org/2000/svg">
<g clip-path="url(#clip0)">
<path d="M28.3888 9.62675L18.7222 1.22083C17.8361 0.434642 16.6889 0 15.5 0C14.3112 0 13.164 0.434642 12.2779 1.22083L2.61125 9.62675C2.09952 10.0807 1.69115 10.6376 1.41335 11.2604C1.13556 11.8831 0.994695 12.5574 1.00015 13.2384V27.2057C1.00015 28.4772 1.50937 29.6966 2.41579 30.5957C3.32221 31.4948 4.55158 31.9999 5.83345 31.9999H25.1666C26.4485 31.9999 27.6779 31.4948 28.5843 30.5957C29.4907 29.6966 29.9999 28.4772 29.9999 27.2057V13.2224C30.0031 12.5441 29.8611 11.8729 29.5834 11.2531C29.3057 10.6333 28.8985 10.0789 28.3888 9.62675V9.62675ZM18.7222 28.8037H12.2779V20.8133C12.2779 20.3895 12.4476 19.983 12.7497 19.6833C13.0519 19.3836 13.4617 19.2152 13.8889 19.2152H17.1111C17.5384 19.2152 17.9482 19.3836 18.2504 19.6833C18.5525 19.983 18.7222 20.3895 18.7222 20.8133V28.8037ZM26.7777 27.2057C26.7777 27.6295 26.608 28.036 26.3059 28.3357C26.0037 28.6354 25.5939 28.8037 25.1666 28.8037H21.9444V20.8133C21.9444 19.5418 21.4352 18.3224 20.5288 17.4233C19.6224 16.5242 18.393 16.0191 17.1111 16.0191H13.8889C12.6071 16.0191 11.3777 16.5242 10.4713 17.4233C9.56487 18.3224 9.05565 19.5418 9.05565 20.8133V28.8037H5.83345C5.40616 28.8037 4.99637 28.6354 4.69423 28.3357C4.39209 28.036 4.22235 27.6295 4.22235 27.2057V13.2224C4.22264 12.9955 4.27164 12.7713 4.36609 12.5646C4.46054 12.358 4.59827 12.1736 4.77013 12.0239L14.4367 3.63393C14.7307 3.37773 15.1087 3.23643 15.5 3.23643C15.8914 3.23643 16.2694 3.37773 16.5634 3.63393L26.23 12.0239C26.4018 12.1736 26.5396 12.358 26.634 12.5646C26.7285 12.7713 26.7775 12.9955 26.7777 13.2224V27.2057Z" fill="#000000"/>
</g>
<defs>
<clipPath id="clip0">
<rect width="32" height="31.9999" fill="#000000"/>
</clipPath>
</defs>
</svg>
