<?xml version="1.0" encoding="UTF-8"?>
<svg width="24px" height="24px" viewBox="0 0 24 24" version="1.1" xmlns="http://www.w3.org/2000/svg" xmlns:xlink="http://www.w3.org/1999/xlink">
    <!-- Generator: Sketch 48.1 (47250) - http://www.bohemiancoding.com/sketch -->
    <title>Home24</title>
    <desc>Created with Sketch.</desc>
    <defs></defs>
    <g id="Page-1" stroke="none" stroke-width="1" fill="none" fill-rule="evenodd">
        <g id="Home24" fill="#000000" fill-rule="nonzero">
            <path d="M15.6363636,2 C15.2849097,2 15,2.2849097 15,2.63636364 L15,8.36363636 C15,8.7150903 15.2849097,9 15.6363636,9 L21.3636364,9 C21.7150903,9 22,8.7150903 22,8.36363636 L22,2.63636364 C22,2.2849097 21.7150903,2 21.3636364,2 L15.6363636,2 Z M15.2,0 L21.8,0 C23.0150264,-2.23196738e-16 24,0.98497355 24,2.2 L24,8.8 C24,10.0150264 23.0150264,11 21.8,11 L15.2,11 C13.9849736,11 13,10.0150264 13,8.8 L13,2.2 C13,0.98497355 13.9849736,2.23196738e-16 15.2,0 Z M2.63636364,2 C2.2849097,2 2,2.2849097 2,2.63636364 L2,8.36363636 C2,8.7150903 2.2849097,9 2.63636364,9 L8.36363636,9 C8.7150903,9 9,8.7150903 9,8.36363636 L9,2.63636364 C9,2.2849097 8.7150903,2 8.36363636,2 L2.63636364,2 Z M2.2,0 L8.8,0 C10.0150264,-2.23196738e-16 11,0.98497355 11,2.2 L11,8.8 C11,10.0150264 10.0150264,11 8.8,11 L2.2,11 C0.98497355,11 1.48797825e-16,10.0150264 0,8.8 L0,2.2 C-1.48797825e-16,0.98497355 0.98497355,2.23196738e-16 2.2,0 Z M2.63636364,15 C2.2849097,15 2,15.2849097 2,15.6363636 L2,21.3636364 C2,21.7150903 2.2849097,22 2.63636364,22 L8.36363636,22 C8.7150903,22 9,21.7150903 9,21.3636364 L9,15.6363636 C9,15.2849097 8.7150903,15 8.36363636,15 L2.63636364,15 Z M2.2,13 L8.8,13 C10.0150264,13 11,13.9849736 11,15.2 L11,21.8 C11,23.0150264 10.0150264,24 8.8,24 L2.2,24 C0.98497355,24 1.48797825e-16,23.0150264 0,21.8 L0,15.2 C-1.48797825e-16,13.9849736 0.98497355,13 2.2,13 Z M15.6363636,15 C15.2849097,15 15,15.2849097 15,15.6363636 L15,21.3636364 C15,21.7150903 15.2849097,22 15.6363636,22 L21.3636364,22 C21.7150903,22 22,21.7150903 22,21.3636364 L22,15.6363636 C22,15.2849097 21.7150903,15 21.3636364,15 L15.6363636,15 Z M15.2,13 L21.8,13 C23.0150264,13 24,13.9849736 24,15.2 L24,21.8 C24,23.0150264 23.0150264,24 21.8,24 L15.2,24 C13.9849736,24 13,23.0150264 13,21.8 L13,15.2 C13,13.9849736 13.9849736,13 15.2,13 Z"></path>
        </g>
    </g>
</svg>