<svg width="32" height="32" viewBox="0 0 32 32" fill="none" xmlns="http://www.w3.org/2000/svg">
<path d="M16 0C12.8355 0 9.74207 0.938383 7.11088 2.69649C4.4797 4.45459 2.42894 6.95344 1.21793 9.87706C0.00693254 12.8007 -0.309921 16.0177 0.307443 19.1214C0.924806 22.2251 2.44866 25.0761 4.6863 27.3137C6.92394 29.5513 9.77487 31.0752 12.8786 31.6926C15.9823 32.3099 19.1993 31.9931 22.1229 30.7821C25.0466 29.5711 27.5454 27.5203 29.3035 24.8891C31.0616 22.2579 32 19.1645 32 16C31.9953 11.758 30.3081 7.69106 27.3085 4.6915C24.3089 1.69194 20.242 0.00471773 16 0ZM16 28.8C13.4684 28.8 10.9937 28.0493 8.88871 26.6428C6.78376 25.2363 5.14315 23.2372 4.17435 20.8983C3.20555 18.5594 2.95206 15.9858 3.44596 13.5028C3.93985 11.0199 5.15893 8.73914 6.94904 6.94903C8.73915 5.15892 11.0199 3.93984 13.5028 3.44595C15.9858 2.95206 18.5595 3.20554 20.8984 4.17434C23.2372 5.14314 25.2363 6.78375 26.6428 8.8887C28.0493 10.9936 28.8 13.4684 28.8 16C28.7961 19.3936 27.4463 22.647 25.0467 25.0467C22.6471 27.4463 19.3936 28.7961 16 28.8ZM16 15.2C15.5757 15.2 15.1687 15.3686 14.8686 15.6686C14.5686 15.9687 14.4 16.3756 14.4 16.8V21.6C14.4 22.0243 14.5686 22.4313 14.8686 22.7314C15.1687 23.0314 15.5757 23.2 16 23.2C16.4244 23.2 16.8313 23.0314 17.1314 22.7314C17.4314 22.4313 17.6 22.0243 17.6 21.6V16.8C17.6 16.3756 17.4314 15.9687 17.1314 15.6686C16.8313 15.3686 16.4244 15.2 16 15.2ZM16 8.8C15.6044 8.8 15.2178 8.9173 14.8889 9.13706C14.56 9.35682 14.3036 9.66918 14.1522 10.0346C14.0009 10.4001 13.9613 10.8022 14.0384 11.1902C14.1156 11.5781 14.3061 11.9345 14.5858 12.2142C14.8655 12.4939 15.2219 12.6844 15.6098 12.7616C15.9978 12.8387 16.3999 12.7991 16.7654 12.6478C17.1308 12.4964 17.4432 12.24 17.6629 11.9111C17.8827 11.5822 18 11.1956 18 10.8C18 10.2696 17.7893 9.76086 17.4142 9.38578C17.0391 9.01071 16.5304 8.8 16 8.8Z" fill="currentColor"/>
</svg>
