<?xml version="1.0" encoding="UTF-8"?>
<svg width="32px" height="32px" viewBox="0 0 32 32" version="1.1" xmlns="http://www.w3.org/2000/svg" xmlns:xlink="http://www.w3.org/1999/xlink">
    <!-- Generator: Sketch 48.2 (47327) - http://www.bohemiancoding.com/sketch -->
    <title>Like32</title>
    <desc>Created with Sketch.</desc>
    <defs></defs>
    <g id="Page-1" stroke="none" stroke-width="1" fill="none" fill-rule="evenodd">
        <g id="Like32" fill="#000000" fill-rule="nonzero">
            <path d="M32,10.4632427 C32,12.9663091 31.0674768,15.3686676 29.4048278,17.1426257 L16.7177243,30.6854464 C16.32482,31.1048512 15.6744123,31.1048512 15.281508,30.6854464 L2.59440446,17.1426257 C-0.864801523,13.4501038 -0.864801481,7.47638162 2.59440455,3.78385975 C6.07065915,0.0731394492 11.7201654,0.0731394043 15.1964201,3.78385967 L15.9996162,4.64122956 L16.802649,3.78403396 C18.4706128,2.00273368 20.7377119,1 23.10382,1 C25.469851,1 27.7368793,2.00266826 29.4048278,3.78385965 C31.0675379,5.557975 32,7.96025821 32,10.4632427 Z M15.9996161,28.4790451 L26.4473072,17.3266803 L27.9687747,15.7025932 C29.2682247,14.3161492 30,12.4309556 30,10.4632427 C30,8.49552977 29.2682247,6.61033617 27.9687747,5.22389217 C26.67554,3.84278362 24.9260004,3.06896552 23.10382,3.06896552 C21.2816397,3.06896552 19.5321,3.84278362 18.2390286,5.22371792 L16.7177243,6.8476308 C16.32482,7.26703565 15.6744123,7.26703565 15.281508,6.8476308 L13.7602037,5.22371793 C11.0697577,2.35180734 6.72106689,2.35180738 4.03062092,5.22371801 C1.32312639,8.11382708 1.32312636,12.8126583 4.03062084,15.7027674 L15.9996161,28.4790451 Z"></path>
        </g>
    </g>
</svg>