<?xml version="1.0" encoding="UTF-8"?>
<svg width="24px" height="24px" viewBox="0 0 24 24" version="1.1" xmlns="http://www.w3.org/2000/svg" xmlns:xlink="http://www.w3.org/1999/xlink">
    <!-- Generator: Sketch 48.2 (47327) - http://www.bohemiancoding.com/sketch -->
    <title>Like24</title>
    <desc>Created with Sketch.</desc>
    <defs></defs>
    <g id="Page-1" stroke="none" stroke-width="1" fill="none" fill-rule="evenodd">
        <g id="Like24" fill="#000000" fill-rule="nonzero">
            <path d="M24,8.05428735 C24,9.92742993 23.2827111,11.7231591 22.0072017,13.045657 L12.7033258,22.6968076 C12.3136155,23.1010641 11.6858215,23.1010641 11.2961112,22.6968076 L1.99223533,13.045657 C-0.664078473,10.290194 -0.664078441,5.81838072 1.99223541,3.0629178 C4.64306924,0.313139437 8.93686876,0.313139404 11.5877026,3.06291774 L11.9997185,3.49031243 L12.4115676,3.06309076 C13.6847383,1.74177782 15.4105373,1 17.209468,1 C19.0083202,1 20.734047,1.74171306 22.0072017,3.06291772 C23.2827736,4.38557216 24,6.18122642 24,8.05428735 Z M11.9997185,20.4780843 L19.484364,12.7140684 L20.6001539,11.5566307 C21.4968033,10.6269497 22,9.36719927 22,8.05428735 C22,6.74137543 21.4968033,5.48162503 20.6001539,4.55194398 C19.7016849,3.61950147 18.4819488,3.0952381 17.209468,3.0952381 C15.9369872,3.0952381 14.7172511,3.61950147 13.8189489,4.55177101 L12.7033258,5.70903567 C12.3136155,6.11329222 11.6858215,6.11329222 11.2961112,5.70903567 L10.1804881,4.55177102 C8.30907484,2.61050578 5.27086319,2.6105058 3.39944994,4.55177107 C1.53351671,6.48735178 1.53351668,9.62122296 3.39944988,11.5568037 L11.9997185,20.4780843 Z"></path>
        </g>
    </g>
</svg>