<svg width="32" height="32" viewBox="0 0 32 32" fill="none" xmlns="http://www.w3.org/2000/svg">
<path d="M12.691 25.0399L9.8371 27.8105C9.08874 28.5581 8.07375 28.9781 7.01541 28.9781C5.95707 28.9781 4.94208 28.5581 4.19372 27.8105C3.44537 27.0629 3.02494 26.0489 3.02494 24.9916C3.02494 23.9343 3.44537 22.9204 4.19372 22.1727L11.514 14.8437C12.2325 14.1236 13.2006 13.7069 14.218 13.6799C15.2354 13.653 16.2243 14.0177 16.98 14.6987L17.1735 14.8598C17.4793 15.1588 17.8914 15.3243 18.3193 15.3198C18.7471 15.3152 19.1557 15.1411 19.455 14.8356C19.7544 14.5302 19.92 14.1184 19.9155 13.691C19.9109 13.2636 19.7366 12.8554 19.4308 12.5564C19.3398 12.4388 19.243 12.3259 19.1406 12.2181C17.7642 11.0218 15.9841 10.3929 14.1608 10.4587C12.3376 10.5245 10.6076 11.2801 9.32114 12.5725L1.90412 19.9015C0.643807 21.272 -0.0378094 23.0759 0.00162003 24.9364C0.0410495 26.797 0.798476 28.5705 2.11572 29.8864C3.43297 31.2023 5.20818 31.959 7.07063 31.9984C8.93308 32.0378 10.7388 31.3568 12.1106 30.0978L14.9 27.3756C15.1754 27.0754 15.3268 26.6822 15.3238 26.275C15.3207 25.8678 15.1634 25.4769 14.8834 25.1809C14.6035 24.8849 14.2217 24.7058 13.815 24.6797C13.4082 24.6535 13.0066 24.7822 12.691 25.0399ZM29.9275 2.10241C28.5712 0.755809 26.7366 0 24.8243 0C22.912 0 21.0775 0.755809 19.7211 2.10241L16.9316 4.82463C16.6562 5.1248 16.5048 5.51804 16.5079 5.92522C16.511 6.33241 16.6683 6.72332 16.9482 7.0193C17.2282 7.31528 17.6099 7.49436 18.0167 7.52051C18.4234 7.54667 18.825 7.41795 19.1406 7.16026L21.9301 4.38972C22.6784 3.64211 23.6934 3.22211 24.7517 3.22211C25.8101 3.22211 26.8251 3.64211 27.5734 4.38972C28.3218 5.13733 28.7422 6.15131 28.7422 7.20859C28.7422 8.26587 28.3218 9.27984 27.5734 10.0275L20.2532 17.3565C19.5347 18.0766 18.5666 18.4933 17.5492 18.5203C16.5318 18.5472 15.5429 18.1825 14.7872 17.5015L14.5937 17.3404C14.2879 17.0414 13.8758 16.8759 13.4479 16.8804C13.02 16.885 12.6115 17.0591 12.3121 17.3646C12.0128 17.67 11.8472 18.0817 11.8517 18.5092C11.8562 18.9366 12.0306 19.3448 12.3363 19.6438C12.4534 19.7635 12.5772 19.8764 12.7072 19.9821C14.0852 21.1748 15.8646 21.8014 17.6867 21.7356C19.5088 21.6699 21.2383 20.9166 22.5266 19.6277L29.863 12.2987C31.2196 10.9522 31.9878 9.12418 31.9999 7.21382C32.0119 5.30346 31.2669 3.46592 29.9275 2.10241Z" fill="currentColor"/>
</svg>
