<?xml version="1.0" encoding="UTF-8"?>
<svg width="20px" height="19px" viewBox="0 0 20 19" version="1.1" xmlns="http://www.w3.org/2000/svg" xmlns:xlink="http://www.w3.org/1999/xlink">
    <!-- Generator: Sketch 48.1 (47250) - http://www.bohemiancoding.com/sketch -->
    <title>Linkedin</title>
    <desc>Created with Sketch.</desc>
    <defs></defs>
    <g id="Linkedin20" stroke="none" stroke-width="1" fill="none" fill-rule="evenodd" transform="translate(0.000000, -1.000000)">
        <path d="M10.9754243,9.81473847 L10.9754243,8.10486988 L7,8.10486988 C7.05065417,9.01262561 7,19 7,19 L10.9754243,19 L10.9754243,13.1043545 C10.9754243,12.776604 10.9592468,12.4491111 11.0613508,12.2138624 C11.3353076,11.5586189 11.9227369,10.8786395 12.9782532,10.8786395 C14.3589109,10.8786395 14.9866513,11.8863695 14.9866513,13.3620201 L14.9866513,19 L19,19 L19,12.9420253 C19,9.56737954 17.0236917,8 14.5084866,8 C12.4807284,8 11.210396,9.06725071 10.9754243,9.81473847 Z M14.5084866,7 C17.7868868,7 20,9.22734177 20,12.9420253 L20,19 C20,19.5522847 19.5522847,20 19,20 L14.9866513,20 C14.4343666,20 13.9866513,19.5522847 13.9866513,19 L13.9866513,13.3620201 C13.9866513,12.2990838 13.6691738,11.8786395 12.9782532,11.8786395 C12.4948354,11.8786395 12.1792005,12.1326267 11.9786745,12.6120045 C11.9815692,12.6053351 11.973313,12.7077729 11.9749382,12.9802615 C11.9752969,13.0402549 11.9752969,13.0402549 11.9754243,13.1043545 L11.9754243,19 C11.9754243,19.5522847 11.5277091,20 10.9754243,20 L7,20 C6.44573356,20 5.99720176,19.5491876 6.00001286,18.9949282 C6.00071518,18.8564573 6.0019458,18.6012129 6.00352788,18.2514684 C6.00616496,17.6684978 6.0088021,17.0350963 6.0112634,16.3733408 C6.01493708,15.3856207 6.01788907,14.4226264 6.01985692,13.517334 C6.02639099,10.5113866 6.02107517,8.51042965 6.00155328,8.16058475 C5.96956281,7.58729476 6.42581815,7.10486988 7,7.10486988 L10.9754243,7.10486988 C11.3478416,7.10486988 11.6727102,7.30845001 11.8448148,7.61039497 C12.6002791,7.22979799 13.5229352,7 14.5084866,7 Z M2.5095388,2 C1.59677718,2 1,2.64715104 1,3.50122683 C1,4.33894493 1.57973699,5 2.47490276,5 L2.49249861,5 C3.42155955,5 4,4.33669575 4,3.49877317 C3.98221893,2.64551527 3.42155955,2 2.5095388,2 Z M2.5095388,1 C3.95233584,1 4.97032254,2.06422662 5,3.49877317 C5,4.9124102 3.95189814,6 2.49249861,6 L2.47490276,6 C1.04053855,6 -8.8817842e-16,4.90619047 -8.8817842e-16,3.50122683 C-8.8817842e-16,2.08001524 1.05887023,1 2.5095388,1 Z M1,19 L4,19 L4,8 L1,8 L1,19 Z M1,20 C0.44771525,20 -8.8817842e-16,19.5522847 -8.8817842e-16,19 L-8.8817842e-16,8 C-8.8817842e-16,7.44771525 0.44771525,7 1,7 L4,7 C4.55228475,7 5,7.44771525 5,8 L5,19 C5,19.5522847 4.55228475,20 4,20 L1,20 Z" id="Linkedin" fill="#000000" fill-rule="nonzero"></path>
    </g>
</svg>