<?xml version="1.0" encoding="UTF-8"?>
<svg width="24px" height="24px" viewBox="0 0 24 24" version="1.1" xmlns="http://www.w3.org/2000/svg" xmlns:xlink="http://www.w3.org/1999/xlink">
    <!-- Generator: Sketch 48.2 (47327) - http://www.bohemiancoding.com/sketch -->
    <title>Link24</title>
    <desc>Created with Sketch.</desc>
    <defs></defs>
    <g id="Page-1" stroke="none" stroke-width="1" fill="none" fill-rule="evenodd">
        <g id="Link24" fill="#000000" fill-rule="nonzero">
            <path d="M8.20242178,13.4387258 C7.86927504,13.0241468 7.95629418,12.4338817 8.39678447,12.1203319 C8.83727476,11.8067821 9.46443149,11.8886824 9.79757822,12.3032615 C10.641731,13.3537537 11.9362854,14.0121179 13.3451843,14.1060427 C14.7545738,14.2000002 16.1376978,13.7197341 17.1350416,12.7910237 L20.6393298,9.52927003 C22.476284,7.75885717 22.4500514,4.94881537 20.5801869,3.208259 C18.7042771,1.46207537 15.6665604,1.43750388 13.7685824,3.14372857 L11.7524332,5.0095424 C11.3586294,5.37398193 10.7254869,5.36895645 10.3382699,4.99831767 C9.95105284,4.6276789 9.95639241,4.03178019 10.3501962,3.66734066 L12.3767286,1.79205587 C15.0677536,-0.627287011 19.3409913,-0.592721634 21.9865753,1.86991027 C24.6382045,4.33816943 24.6755021,8.33350233 22.0579694,10.8560148 L18.5415588,14.1292524 C17.1343183,15.439652 15.1868262,16.1158852 13.2038744,15.983691 C11.220432,15.851464 9.39541313,14.9233245 8.20242178,13.4387258 Z M15.7975782,10.5612717 C16.130725,10.9758508 16.0437058,11.5661158 15.6032155,11.8796657 C15.1627252,12.1932155 14.5355685,12.1113151 14.2024218,11.6967361 C13.358269,10.6462439 12.0637146,9.9878797 10.6548157,9.89395491 C9.24542621,9.79999742 7.86230222,10.2802635 6.86495841,11.2089739 L3.3606702,14.4707275 C1.52371601,16.2411404 1.5499486,19.0511822 3.41981308,20.7917386 C5.29572288,22.5379222 8.33343963,22.5624937 10.2293419,20.8581955 L12.2337694,18.9923817 C12.6264426,18.6268632 13.259598,18.6301515 13.6479614,18.9997263 C14.0363248,19.3693011 14.032831,19.965212 13.6401577,20.3307304 L11.6232714,22.2079417 C8.93224641,24.6272846 4.65900865,24.5927192 2.01342475,22.1300873 C-0.638204472,19.6618282 -0.675502105,15.6664952 1.94203065,13.1439828 L5.4584412,9.87074516 C6.86568166,8.56034561 8.81317384,7.88411235 10.7961256,8.01630659 C12.779568,8.14853353 14.6045869,9.07667305 15.7975782,10.5612717 Z"></path>
        </g>
    </g>
</svg>