<?xml version="1.0" encoding="UTF-8"?>
<svg width="20px" height="20px" viewBox="0 0 20 20" version="1.1" xmlns="http://www.w3.org/2000/svg" xmlns:xlink="http://www.w3.org/1999/xlink">
    <!-- Generator: Sketch 48.1 (47250) - http://www.bohemiancoding.com/sketch -->
    <title>Link</title>
    <desc>Created with Sketch.</desc>
    <defs></defs>
    <g id="Link20" stroke="none" stroke-width="1" fill="none" fill-rule="evenodd">
        <path d="M7.7250907,10.4334616 C7.55950364,10.2291325 7.59092313,9.9292667 7.79526809,9.76369252 C7.99961306,9.59811833 8.29950221,9.62953538 8.46508927,9.83386446 C9.21192693,10.755438 10.3619984,11.3354043 11.6161878,11.4183121 C12.8719495,11.5013239 14.1029983,11.0774583 14.9875194,10.2607338 L17.8523654,7.61652805 C19.4669375,6.073529 19.4439987,3.6369856 17.8001016,2.11963969 C16.1346484,0.582397154 13.4272345,0.560681602 11.7377268,2.06677818 L10.0917627,3.57719912 C9.89798338,3.75502094 9.59672994,3.74209704 9.4188943,3.5483328 C9.24105865,3.35456856 9.25398355,3.05333854 9.44776286,2.87551672 L11.0988106,1.36049776 C13.1591121,-0.476220273 16.4202884,-0.450063117 18.4461376,1.41983122 C20.4935427,3.30962219 20.5224694,6.38219245 18.504423,8.31068101 L15.6336186,10.9604839 C14.555103,11.9563337 13.06707,12.4686821 11.5533583,12.3686186 C10.0380741,12.2684512 8.64135717,11.5641048 7.7250907,10.4334616 Z M12.2749093,9.56653839 C12.4404964,9.77086746 12.4090769,10.0707333 12.2047319,10.2363075 C12.0003869,10.4018817 11.7004978,10.3704646 11.5349107,10.1661355 C10.7880731,9.24456201 9.63800158,8.66459573 8.38381222,8.58168791 C7.12805047,8.49867614 5.89700168,8.92254166 5.01248065,9.73926617 L2.14763456,12.3834719 C0.533062543,13.926471 0.55600133,16.3630144 2.19989843,17.8803603 C3.86535159,19.4176028 6.57276549,19.4393184 8.26125512,17.9341588 L9.89764968,16.4237378 C10.0909115,16.2453538 10.3922012,16.2574024 10.5705991,16.4506492 C10.748997,16.643896 10.7369475,16.9451623 10.5436857,17.1235463 L8.90118941,18.6395022 C6.84088788,20.4762203 3.57971156,20.4500631 1.55386245,18.5801688 C-0.493542734,16.6903778 -0.522469383,13.6178075 1.49557702,11.689319 L4.36638144,9.03951607 C5.444897,8.04366626 6.93292996,7.53131788 8.44664173,7.63138135 C9.96192588,7.73154877 11.3586428,8.43589518 12.2749093,9.56653839 Z" id="Link" fill="#000000" fill-rule="nonzero"></path>
    </g>
</svg>