<svg width="24" height="24" viewBox="0 0 24 24" fill="none" xmlns="http://www.w3.org/2000/svg">
<path d="M9.51828 18.7799L7.37783 20.8579C6.81656 21.4186 6.05531 21.7336 5.26156 21.7336C4.46781 21.7336 3.70656 21.4186 3.14529 20.8579C2.58402 20.2971 2.26871 19.5367 2.26871 18.7437C2.26871 17.9507 2.58402 17.1903 3.14529 16.6296L8.63549 11.1328C9.17437 10.5927 9.90044 10.2802 10.6635 10.26C11.4266 10.2397 12.1682 10.5133 12.735 11.024L12.8801 11.1448C13.1094 11.3691 13.4186 11.4932 13.7395 11.4898C14.0604 11.4864 14.3668 11.3558 14.5913 11.1267C14.8158 10.8976 14.94 10.5888 14.9366 10.2683C14.9332 9.94767 14.8025 9.64157 14.5731 9.41728C14.5049 9.32912 14.4322 9.24445 14.3555 9.16359C13.3232 8.26636 11.9881 7.79464 10.6206 7.84399C9.25321 7.89334 7.95567 8.46006 6.99085 9.42937L1.42809 14.9262C0.482855 15.954 -0.0283571 17.3069 0.00121502 18.7023C0.0307871 20.0978 0.598857 21.4279 1.58679 22.4148C2.57473 23.4017 3.90614 23.9692 5.30298 23.9988C6.69981 24.0283 8.05407 23.5176 9.08293 22.5733L11.175 20.5317C11.3816 20.3065 11.4951 20.0116 11.4928 19.7062C11.4905 19.4008 11.3725 19.1077 11.1626 18.8857C10.9526 18.6637 10.6663 18.5294 10.3612 18.5098C10.0562 18.4901 9.75498 18.5867 9.51828 18.7799ZM22.4456 1.57681C21.4284 0.566857 20.0524 0 18.6182 0C17.184 0 15.8081 0.566857 14.7908 1.57681L12.6987 3.61847C12.4922 3.8436 12.3786 4.13853 12.3809 4.44392C12.3832 4.7493 12.5012 5.04249 12.7112 5.26447C12.9211 5.48646 13.2074 5.62077 13.5125 5.64039C13.8176 5.66 14.1188 5.56346 14.3555 5.3702L16.4475 3.29229C17.0088 2.73158 17.7701 2.41658 18.5638 2.41658C19.3576 2.41658 20.1188 2.73158 20.6801 3.29229C21.2413 3.853 21.5567 4.61348 21.5567 5.40644C21.5567 6.1994 21.2413 6.95988 20.6801 7.52059L15.1899 13.0174C14.651 13.5575 13.9249 13.87 13.1619 13.8902C12.3988 13.9104 11.6572 13.6369 11.0904 13.1261L10.9452 13.0053C10.7159 12.781 10.4068 12.6569 10.0859 12.6603C9.76501 12.6637 9.4586 12.7943 9.2341 13.0234C9.00959 13.2525 8.88537 13.5613 8.88877 13.8819C8.89217 14.2025 9.02292 14.5086 9.25223 14.7329C9.34008 14.8226 9.43294 14.9073 9.53037 14.9866C10.5639 15.8811 11.8984 16.351 13.265 16.3017C14.6316 16.2524 15.9287 15.6875 16.895 14.7208L22.3973 9.22399C23.4147 8.21412 23.9908 6.84313 23.9999 5.41036C24.009 3.9776 23.4502 2.59944 22.4456 1.57681Z" fill="currentColor"/>
</svg>
