<svg width="32" height="32" viewBox="0 0 32 32" fill="none" xmlns="http://www.w3.org/2000/svg">
<g clip-path="url(#clip0)">
<path d="M12.691 25.0399L9.8371 27.8104C9.08874 28.558 8.07375 28.978 7.01541 28.978C5.95707 28.978 4.94208 28.558 4.19372 27.8104C3.44537 27.0628 3.02494 26.0488 3.02494 24.9915C3.02494 23.9343 3.44537 22.9203 4.19372 22.1727L11.514 14.8436C12.2325 14.1235 13.2006 13.7069 14.218 13.6799C15.2354 13.6529 16.2243 14.0177 16.98 14.6987L17.1735 14.8598C17.4793 15.1588 17.8914 15.3243 18.3193 15.3197C18.7471 15.3152 19.1557 15.141 19.455 14.8356C19.7544 14.5301 19.92 14.1184 19.9155 13.691C19.9109 13.2635 19.7366 12.8554 19.4308 12.5563C19.3398 12.4388 19.243 12.3259 19.1406 12.2181C17.7642 11.0218 15.9841 10.3928 14.1608 10.4586C12.3376 10.5244 10.6076 11.2801 9.32114 12.5725L1.90412 19.9015C0.643807 21.2719 -0.0378094 23.0758 0.00162003 24.9364C0.0410495 26.797 0.798476 28.5704 2.11572 29.8863C3.43297 31.2022 5.20818 31.9589 7.07063 31.9983C8.93308 32.0377 10.7388 31.3568 12.1106 30.0977L14.9 27.3755C15.1754 27.0753 15.3268 26.6821 15.3238 26.2749C15.3207 25.8677 15.1634 25.4768 14.8834 25.1808C14.6035 24.8849 14.2217 24.7058 13.815 24.6796C13.4082 24.6535 13.0066 24.7822 12.691 25.0399V25.0399ZM29.9275 2.1024C28.5712 0.755807 26.7366 0 24.8243 0C22.912 0 21.0775 0.755807 19.7211 2.1024L16.9316 4.82462C16.6562 5.12479 16.5048 5.51802 16.5079 5.92521C16.511 6.33239 16.6683 6.7233 16.9482 7.01928C17.2282 7.31526 17.6099 7.49434 18.0167 7.52049C18.4234 7.54665 18.825 7.41793 19.1406 7.16024L21.9301 4.38971C22.6784 3.6421 23.6934 3.2221 24.7517 3.2221C25.8101 3.2221 26.8251 3.6421 27.5734 4.38971C28.3218 5.13732 28.7422 6.15129 28.7422 7.20857C28.7422 8.26584 28.3218 9.27982 27.5734 10.0274L20.2532 17.3565C19.5347 18.0766 18.5666 18.4932 17.5492 18.5202C16.5318 18.5472 15.5429 18.1824 14.7872 17.5014L14.5937 17.3404C14.2879 17.0413 13.8758 16.8759 13.4479 16.8804C13.02 16.8849 12.6115 17.0591 12.3121 17.3645C12.0128 17.67 11.8472 18.0817 11.8517 18.5091C11.8562 18.9366 12.0306 19.3447 12.3363 19.6438C12.4534 19.7634 12.5772 19.8764 12.7072 19.982C14.0852 21.1747 15.8646 21.8013 17.6867 21.7356C19.5088 21.6698 21.2383 20.9166 22.5266 19.6277L29.863 12.2986C31.2196 10.9521 31.9878 9.12415 31.9999 7.2138C32.0119 5.30345 31.2669 3.46591 29.9275 2.1024V2.1024Z" fill="#000000"/>
</g>
<defs>
<clipPath id="clip0">
<rect width="32" height="31.9999" fill="#000000"/>
</clipPath>
</defs>
</svg>
