<?xml version="1.0" encoding="UTF-8"?>
<svg width="32px" height="32px" viewBox="0 0 32 32" version="1.1" xmlns="http://www.w3.org/2000/svg" xmlns:xlink="http://www.w3.org/1999/xlink">
    <!-- Generator: Sketch 48.1 (47250) - http://www.bohemiancoding.com/sketch -->
    <title>Link32</title>
    <desc>Created with Sketch.</desc>
    <defs></defs>
    <g id="Page-1" stroke="none" stroke-width="1" fill="none" fill-rule="evenodd">
        <g id="Link32" fill="#000000" fill-rule="nonzero">
            <path d="M12.2000974,18.4970344 C11.8678591,18.042555 11.9585929,17.3985394 12.402757,17.0585852 C12.8469211,16.718631 13.4763195,16.811472 13.8085578,17.2659514 C14.9430882,18.8179122 16.6804473,19.789156 18.5697169,19.9276041 C20.4589864,20.0660523 22.3138799,19.3580534 23.6531029,17.9872313 L28.1603416,13.3755355 C30.6343206,10.7545476 30.5989392,6.58835603 28.0808197,4.01175557 C25.5627003,1.4351551 21.4910687,1.39895202 18.9399444,3.91998403 L16.34878,6.55591116 C15.9554239,6.95606245 15.3195218,6.95416546 14.9284527,6.5516741 C14.5373836,6.14918274 14.5392376,5.49851231 14.9325936,5.09836101 L17.5341332,2.45203106 C20.8837863,-0.858306795 26.2082276,-0.810964308 29.501153,2.55843631 C32.7940785,5.92783692 32.8403464,11.3759336 29.5929091,14.816117 L25.0735649,19.4404188 C23.3224417,21.23286 20.8968118,22.1587047 18.4262285,21.9776572 C15.9556452,21.7966096 13.6837141,20.5265215 12.2000974,18.4970344 Z M19.7998428,13.5029656 C20.132081,13.957445 20.0413472,14.6014606 19.5971831,14.9414148 C19.1530191,15.281369 18.5236206,15.188528 18.1913824,14.7340486 C17.0568519,13.1820878 15.3194929,12.210844 13.4302233,12.0723959 C11.5409537,11.9339477 9.68606022,12.6419466 8.34683731,14.0127687 L3.83959853,18.6244645 C1.36561961,21.2454524 1.40100099,25.411644 3.91912043,27.9882444 C6.43723986,30.5648449 10.5088715,30.601048 13.0579223,28.0821314 L15.6340218,25.4462043 C16.026236,25.0448813 16.6621409,25.0448813 17.0543551,25.4462043 C17.4465693,25.8475273 17.4465693,26.4982005 17.0543551,26.8995235 L14.4658069,29.5479689 C11.1161539,32.8583068 5.79171253,32.8109643 2.49878712,29.4415637 C-0.794138301,26.0721631 -0.840406257,20.6240664 2.40703108,17.183883 L6.92637527,12.5595812 C8.67749842,10.76714 11.1031284,9.84129529 13.5737117,10.0223428 C16.044295,10.2033904 18.3162261,11.4734785 19.7998428,13.5029656 Z"></path>
        </g>
    </g>
</svg>