<svg width="24" height="24" viewBox="0 0 24 24" fill="none" xmlns="http://www.w3.org/2000/svg">
<g clip-path="url(#clip0)">
<path d="M9.51828 18.7799L7.37783 20.8578C6.81656 21.4185 6.05531 21.7335 5.26156 21.7335C4.46781 21.7335 3.70656 21.4185 3.14529 20.8578C2.58402 20.2971 2.26871 19.5366 2.26871 18.7437C2.26871 17.9507 2.58402 17.1902 3.14529 16.6295L8.63549 11.1327C9.17437 10.5927 9.90044 10.2802 10.6635 10.2599C11.4266 10.2397 12.1682 10.5132 12.735 11.024L12.8801 11.1448C13.1094 11.3691 13.4186 11.4932 13.7395 11.4898C14.0604 11.4864 14.3668 11.3558 14.5913 11.1267C14.8158 10.8976 14.94 10.5888 14.9366 10.2682C14.9332 9.94764 14.8025 9.64154 14.5731 9.41726C14.5049 9.3291 14.4322 9.24443 14.3555 9.16356C13.3232 8.26633 11.9881 7.79462 10.6206 7.84397C9.25321 7.89332 7.95567 8.46004 6.99085 9.42934L1.42809 14.9261C0.482855 15.9539 -0.0283571 17.3068 0.00121502 18.7023C0.0307871 20.0977 0.598857 21.4278 1.58679 22.4147C2.57473 23.4017 3.90614 23.9692 5.30298 23.9987C6.69981 24.0283 8.05407 23.5176 9.08293 22.5733L11.175 20.5316C11.3816 20.3065 11.4951 20.0116 11.4928 19.7062C11.4905 19.4008 11.3725 19.1076 11.1626 18.8856C10.9526 18.6636 10.6663 18.5293 10.3612 18.5097C10.0562 18.4901 9.75498 18.5866 9.51828 18.7799V18.7799ZM22.4456 1.5768C21.4284 0.566855 20.0524 0 18.6182 0C17.184 0 15.8081 0.566855 14.7908 1.5768L12.6987 3.61846C12.4922 3.84359 12.3786 4.13852 12.3809 4.4439C12.3832 4.74929 12.5012 5.04247 12.7112 5.26446C12.9211 5.48644 13.2074 5.62076 13.5125 5.64037C13.8176 5.65999 14.1188 5.56345 14.3555 5.37018L16.4475 3.29228C17.0088 2.73157 17.7701 2.41657 18.5638 2.41657C19.3576 2.41657 20.1188 2.73157 20.6801 3.29228C21.2413 3.85299 21.5567 4.61347 21.5567 5.40643C21.5567 6.19938 21.2413 6.95986 20.6801 7.52057L15.1899 13.0173C14.651 13.5574 13.9249 13.8699 13.1619 13.8902C12.3988 13.9104 11.6572 13.6368 11.0904 13.1261L10.9452 13.0053C10.7159 12.781 10.4068 12.6569 10.0859 12.6603C9.76501 12.6637 9.4586 12.7943 9.2341 13.0234C9.00959 13.2525 8.88537 13.5613 8.88877 13.8819C8.89217 14.2024 9.02292 14.5085 9.25223 14.7328C9.34008 14.8226 9.43294 14.9073 9.53037 14.9865C10.5639 15.881 11.8984 16.351 13.265 16.3017C14.6316 16.2523 15.9287 15.6874 16.895 14.7207L22.3973 9.22397C23.4147 8.2141 23.9908 6.84311 23.9999 5.41035C24.009 3.97759 23.4502 2.59943 22.4456 1.5768V1.5768Z" fill="#000000"/>
</g>
<defs>
<clipPath id="clip0">
<rect width="24" height="23.9999" fill="#000000"/>
</clipPath>
</defs>
</svg>
