<?xml version="1.0" encoding="UTF-8"?>
<svg width="32px" height="32px" viewBox="0 0 32 32" version="1.1" xmlns="http://www.w3.org/2000/svg" xmlns:xlink="http://www.w3.org/1999/xlink">
    <!-- Generator: Sketch 48.2 (47327) - http://www.bohemiancoding.com/sketch -->
    <title>Location32</title>
    <desc>Created with Sketch.</desc>
    <defs></defs>
    <g id="Page-1" stroke="none" stroke-width="1" fill="none" fill-rule="evenodd">
        <g id="Location32" fill="#000000" fill-rule="nonzero">
            <path d="M17.2435232,28.7970484 C18.6156116,27.6796279 19.9880735,26.4163392 21.2663819,25.0363471 C24.861475,21.1552807 27,17.1455462 27,13.2727272 C26.9999999,7.04200454 22.0700399,2 16,2 C9.92996013,2 5.00000009,7.04200454 5,13.2727272 C5,17.1455462 7.13852505,21.1552807 10.7336181,25.0363471 C12.0119265,26.4163392 13.3843884,27.6796279 14.7564768,28.7970484 C15.2047593,29.162127 15.6224785,29.4864689 16,29.7672381 C16.3775215,29.4864689 16.7952407,29.162127 17.2435232,28.7970484 Z M22.7336181,26.3954711 C21.3869265,27.8492858 19.9468884,29.1747755 18.5064768,30.3478379 C18.0016933,30.7589306 17.5322406,31.1220998 17.109759,31.4341601 C16.8532544,31.6236237 16.6672275,31.7553928 16.5633368,31.8262273 C16.2235147,32.0579242 15.7764853,32.0579242 15.4366632,31.8262273 C15.3327725,31.7553928 15.1467456,31.6236237 14.890241,31.4341601 C14.4677594,31.1220998 13.9983067,30.7589306 13.4935232,30.3478379 C12.0531116,29.1747755 10.6130735,27.8492858 9.26638192,26.3954711 C5.36147495,22.1799465 3,17.7521809 3,13.2727272 C3.00000011,5.94736962 8.81520601,-3.61078402e-16 16,0 C23.184794,2.40718935e-16 28.9999999,5.94736962 29,13.2727272 C29,17.7521809 26.638525,22.1799465 22.7336181,26.3954711 Z M16,18 C13.2385763,18 11,15.7614237 11,13 C11,10.2385763 13.2385763,8 16,8 C18.7614237,8 21,10.2385763 21,13 C21,15.7614237 18.7614237,18 16,18 Z M16,16 C17.6568542,16 19,14.6568542 19,13 C19,11.3431458 17.6568542,10 16,10 C14.3431458,10 13,11.3431458 13,13 C13,14.6568542 14.3431458,16 16,16 Z"></path>
        </g>
    </g>
</svg>