<?xml version="1.0" encoding="UTF-8"?>
<svg width="32px" height="32px" viewBox="0 0 32 32" version="1.1" xmlns="http://www.w3.org/2000/svg" xmlns:xlink="http://www.w3.org/1999/xlink">
    <!-- Generator: Sketch 48.1 (47250) - http://www.bohemiancoding.com/sketch -->
    <title>Lock32</title>
    <desc>Created with Sketch.</desc>
    <defs></defs>
    <g id="Page-1" stroke="none" stroke-width="1" fill="none" fill-rule="evenodd">
        <g id="Lock32" fill="#000000" fill-rule="nonzero">
            <path d="M4,15.9459459 C3.44771525,15.9459459 3,16.3815608 3,16.9189189 L3,29.0810811 C3,29.6184392 3.44771525,30.0540541 4,30.0540541 L28,30.0540541 C28.5522847,30.0540541 29,29.6184392 29,29.0810811 L29,16.9189189 C29,16.3815608 28.5522847,15.9459459 28,15.9459459 L4,15.9459459 Z M8,14 L8,8.77419355 C8,3.91977149 11.5889891,7.74754148e-16 16,0 C20.4110109,-1.5495083e-15 24,3.91977149 24,8.77419355 L24,14 L28,14 C29.6568542,14 31,15.3068445 31,16.9189189 L31,29.0810811 C31,30.6931555 29.6568542,32 28,32 L4,32 C2.34314575,32 1,30.6931555 1,29.0810811 L1,16.9189189 C1,15.3068445 2.34314575,14 4,14 L8,14 Z M9.82278481,14 L22.1772152,14 L22.1772152,8.77419355 C22.1772152,5.0771098 19.4188488,2.06451613 16,2.06451613 C12.5811512,2.06451613 9.82278481,5.0771098 9.82278481,8.77419355 L9.82278481,14 Z"></path>
        </g>
    </g>
</svg>