<svg width="32" height="32" viewBox="0 0 32 32" fill="none" xmlns="http://www.w3.org/2000/svg">
<path d="M16 17.6C15.5053 17.5943 15.0206 17.738 14.6113 18.0117C14.202 18.2854 13.8877 18.676 13.7107 19.1309C13.5337 19.5858 13.5025 20.0832 13.6212 20.5561C13.74 21.029 14.0031 21.4547 14.375 21.776V24C14.375 24.4243 14.5462 24.8313 14.851 25.1314C15.1557 25.4314 15.569 25.6 16 25.6C16.431 25.6 16.8443 25.4314 17.149 25.1314C17.4538 24.8313 17.625 24.4243 17.625 24V21.776C17.9969 21.4547 18.26 21.029 18.3788 20.5561C18.4975 20.0832 18.4663 19.5858 18.2893 19.1309C18.1123 18.676 17.798 18.2854 17.3887 18.0117C16.9794 17.738 16.4947 17.5943 16 17.6ZM24.125 11.2V8C24.125 5.87827 23.269 3.84344 21.7452 2.34315C20.2215 0.842855 18.1549 0 16 0C13.8451 0 11.7785 0.842855 10.2548 2.34315C8.73102 3.84344 7.875 5.87827 7.875 8V11.2C6.58207 11.2 5.34209 11.7057 4.42785 12.6059C3.51361 13.5061 3 14.727 3 16V27.2C3 28.473 3.51361 29.6939 4.42785 30.5941C5.34209 31.4943 6.58207 32 7.875 32H24.125C25.4179 32 26.6579 31.4943 27.5721 30.5941C28.4864 29.6939 29 28.473 29 27.2V16C29 14.727 28.4864 13.5061 27.5721 12.6059C26.6579 11.7057 25.4179 11.2 24.125 11.2ZM11.125 8C11.125 6.72696 11.6386 5.50606 12.5529 4.60589C13.4671 3.70571 14.7071 3.2 16 3.2C17.2929 3.2 18.5329 3.70571 19.4471 4.60589C20.3614 5.50606 20.875 6.72696 20.875 8V11.2H11.125V8ZM25.75 27.2C25.75 27.6243 25.5788 28.0313 25.274 28.3314C24.9693 28.6314 24.556 28.8 24.125 28.8H7.875C7.44402 28.8 7.0307 28.6314 6.72595 28.3314C6.42121 28.0313 6.25 27.6243 6.25 27.2V16C6.25 15.5757 6.42121 15.1687 6.72595 14.8686C7.0307 14.5686 7.44402 14.4 7.875 14.4H24.125C24.556 14.4 24.9693 14.5686 25.274 14.8686C25.5788 15.1687 25.75 15.5757 25.75 16V27.2Z" fill="currentColor"/>
</svg>
