<?xml version="1.0" encoding="UTF-8"?>
<svg width="24px" height="24px" viewBox="0 0 24 24" version="1.1" xmlns="http://www.w3.org/2000/svg" xmlns:xlink="http://www.w3.org/1999/xlink">
    <!-- Generator: Sketch 48.2 (47327) - http://www.bohemiancoding.com/sketch -->
    <title>Lock24</title>
    <desc>Created with Sketch.</desc>
    <defs></defs>
    <g id="Page-1" stroke="none" stroke-width="1" fill="none" fill-rule="evenodd">
        <g id="Lock24" fill="#000000" fill-rule="nonzero">
            <path d="M4,11.8666667 C3.44771525,11.8666667 3,12.2845342 3,12.8 L3,21.2 C3,21.7154658 3.44771525,22.1333333 4,22.1333333 L20,22.1333333 C20.5522847,22.1333333 21,21.7154658 21,21.2 L21,12.8 C21,12.2845342 20.5522847,11.8666667 20,11.8666667 L4,11.8666667 Z M5,10 L5,6 C5,2.6418541 8.17022492,5.13250272e-16 12,0 C15.8297751,-1.02650054e-15 19,2.6418541 19,6 L19,10 L20,10 C21.6568542,10 23,11.2536027 23,12.8 L23,21.2 C23,22.7463973 21.6568542,24 20,24 L4,24 C2.34314575,24 1,22.7463973 1,21.2 L1,12.8 C1,11.2536027 2.34314575,10 4,10 L5,10 Z M7,10 L17,10 L17,6 C17,3.8352984 14.7976419,2 12,2 C9.20235808,2 7,3.8352984 7,6 L7,10 Z"></path>
        </g>
    </g>
</svg>