<svg width="24" height="24" viewBox="0 0 24 24" fill="none" xmlns="http://www.w3.org/2000/svg">
<path d="M12 13.2C11.629 13.1957 11.2655 13.3035 10.9585 13.5088C10.6515 13.714 10.4158 14.007 10.283 14.3482C10.1503 14.6893 10.1269 15.0624 10.2159 15.4171C10.305 15.7718 10.5023 16.0911 10.7812 16.332V18C10.7812 18.3183 10.9097 18.6235 11.1382 18.8485C11.3668 19.0736 11.6768 19.2 12 19.2C12.3232 19.2 12.6332 19.0736 12.8618 18.8485C13.0903 18.6235 13.2188 18.3183 13.2188 18V16.332C13.4977 16.0911 13.695 15.7718 13.7841 15.4171C13.8731 15.0624 13.8497 14.6893 13.717 14.3482C13.5842 14.007 13.3485 13.714 13.0415 13.5088C12.7345 13.3035 12.371 13.1957 12 13.2ZM18.0938 8.4V6C18.0938 4.4087 17.4517 2.88258 16.3089 1.75736C15.1661 0.632141 13.6162 0 12 0C10.3838 0 8.83387 0.632141 7.69107 1.75736C6.54827 2.88258 5.90625 4.4087 5.90625 6V8.4C4.93655 8.4 4.00657 8.77928 3.32089 9.45442C2.63521 10.1295 2.25 11.0452 2.25 12V20.4C2.25 21.3548 2.63521 22.2705 3.32089 22.9456C4.00657 23.6207 4.93655 24 5.90625 24H18.0938C19.0634 24 19.9934 23.6207 20.6791 22.9456C21.3648 22.2705 21.75 21.3548 21.75 20.4V12C21.75 11.0452 21.3648 10.1295 20.6791 9.45442C19.9934 8.77928 19.0634 8.4 18.0938 8.4ZM8.34375 6C8.34375 5.04522 8.72896 4.12955 9.41464 3.45442C10.1003 2.77928 11.0303 2.4 12 2.4C12.9697 2.4 13.8997 2.77928 14.5854 3.45442C15.271 4.12955 15.6562 5.04522 15.6562 6V8.4H8.34375V6ZM19.3125 20.4C19.3125 20.7183 19.1841 21.0235 18.9555 21.2485C18.727 21.4736 18.417 21.6 18.0938 21.6H5.90625C5.58302 21.6 5.27302 21.4736 5.04446 21.2485C4.8159 21.0235 4.6875 20.7183 4.6875 20.4V12C4.6875 11.6817 4.8159 11.3765 5.04446 11.1515C5.27302 10.9264 5.58302 10.8 5.90625 10.8H18.0938C18.417 10.8 18.727 10.9264 18.9555 11.1515C19.1841 11.3765 19.3125 11.6817 19.3125 12V20.4Z" fill="currentColor"/>
</svg>
