<?xml version="1.0" encoding="UTF-8"?>
<svg width="32px" height="32px" viewBox="0 0 32 32" version="1.1" xmlns="http://www.w3.org/2000/svg" xmlns:xlink="http://www.w3.org/1999/xlink">
    <!-- Generator: Sketch 48.1 (47250) - http://www.bohemiancoding.com/sketch -->
    <title>Mail32</title>
    <desc>Created with Sketch.</desc>
    <defs></defs>
    <g id="Page-1" stroke="none" stroke-width="1" fill="none" fill-rule="evenodd">
        <g id="Mail32" fill="#000000" fill-rule="nonzero">
            <path d="M4,6 C2.92095446,6 2,6.99770067 2,8.25 L2,23.75 C2,25.0022993 2.92095446,26 4,26 L28,26 C29.0790455,26 30,25.0022993 30,23.75 L30,8.25 C30,6.99770067 29.0790455,6 28,6 L4,6 Z M4,4 L28,4 C30.2209545,4 32,5.92729933 32,8.25 L32,23.75 C32,26.0727007 30.2209545,28 28,28 L4,28 C1.77904554,28 0,26.0727007 0,23.75 L0,8.25 C0,5.92729933 1.77904554,4 4,4 Z M16.0000548,17.6396173 L30.3958137,6.21275026 C30.5761291,6.43050139 30.7775246,6.69291797 31,7 C31.2224754,7.30708203 31.4239074,7.60068665 31.604296,7.88081387 L16.604296,19.7873071 C16.2470239,20.0708976 15.7530858,20.0708976 15.3958137,19.7873071 L0.395813678,7.88081387 C0.576129114,7.60068665 0.777524554,7.30708203 1,7 C1.22247545,6.69291797 1.42390743,6.43050139 1.60429596,6.21275026 L16.0000548,17.6396173 Z"></path>
        </g>
    </g>
</svg>