<?xml version="1.0" encoding="UTF-8"?>
<svg width="24px" height="24px" viewBox="0 0 24 24" version="1.1" xmlns="http://www.w3.org/2000/svg" xmlns:xlink="http://www.w3.org/1999/xlink">
    <!-- Generator: Sketch 48.1 (47250) - http://www.bohemiancoding.com/sketch -->
    <title>Mail24</title>
    <desc>Created with Sketch.</desc>
    <defs></defs>
    <g id="Page-1" stroke="none" stroke-width="1" fill="none" fill-rule="evenodd">
        <g id="Mail24" fill="#000000" fill-rule="nonzero">
            <path d="M3.2,4 C2.5221425,4 2,4.474675 2,5 L2,17 C2,17.525325 2.5221425,18 3.2,18 L20.8,18 C21.4778575,18 22,17.525325 22,17 L22,5 C22,4.474675 21.4778575,4 20.8,4 L3.2,4 Z M3.2,2 L20.8,2 C22.5421425,2 24,3.325325 24,5 L24,17 C24,18.674675 22.5421425,20 20.8,20 L3.2,20 C1.4578575,20 -5.73016389e-16,18.674675 -5.73016389e-16,17 L-5.73016389e-16,5 C-5.73016389e-16,3.325325 1.4578575,2 3.2,2 Z M22.521337,4.12229357 C23.0061853,3.85783084 23.613622,4.03648868 23.8780847,4.52133701 C24.1425474,5.00618535 23.9638896,5.61362199 23.4790413,5.87808472 L12.4790413,11.8780847 C12.1805638,12.0408906 11.8198145,12.0408906 11.521337,11.8780847 L0.521337013,5.87808472 C0.0364886759,5.61362199 -0.142169159,5.00618535 0.122293571,4.52133701 C0.3867563,4.03648868 0.994192937,3.85783084 1.47904127,4.12229357 L12.0001891,9.8611015 L22.521337,4.12229357 Z"></path>
        </g>
    </g>
</svg>