<?xml version="1.0" encoding="UTF-8"?>
<svg width="16px" height="16px" viewBox="0 0 16 16" version="1.1" xmlns="http://www.w3.org/2000/svg" xmlns:xlink="http://www.w3.org/1999/xlink">
    <!-- Generator: Sketch 48.1 (47250) - http://www.bohemiancoding.com/sketch -->
    <title>MasterCard</title>
    <desc>Created with Sketch.</desc>
    <defs></defs>
    <g stroke="none" stroke-width="1" fill="none" fill-rule="evenodd">
        <g>
            <path d="M1,2 L15,2 C15.5522847,2 16,2.44771525 16,3 L16,13 C16,13.5522847 15.5522847,14 15,14 L1,14 C0.44771525,14 6.76353751e-17,13.5522847 0,13 L0,3 C-6.76353751e-17,2.44771525 0.44771525,2 1,2 Z" fill="#FAFAFA"></path>
            <path d="M9.4838,4.99975 C8.7988,4.99975 8.1718,5.23975 7.6768,5.63975 C8.3268,6.16675 8.7418,6.96975 8.7418,7.87075 C8.7418,8.77175 8.3268,9.57575 7.6768,10.10175 C8.1718,10.50175 8.7988,10.74175 9.4838,10.74175 C11.0698,10.74175 12.3548,9.45675 12.3548,7.87075 C12.3548,6.28575 11.0698,4.99975 9.4838,4.99975" fill="#F79F1A"></path>
            <path d="M6.6137,7.87085 C6.6137,6.96985 7.0277,6.16585 7.6767,5.63985 C7.1837,5.23985 6.5547,4.99985 5.8707,4.99985 C4.2857,4.99985 3.0007,6.28585 3.0007,7.87085 C3.0007,9.45585 4.2857,10.74185 5.8707,10.74185 C6.5547,10.74185 7.1837,10.50185 7.6767,10.10185 C7.0277,9.57585 6.6137,8.77185 6.6137,7.87085" fill="#EA001B"></path>
            <path d="M8.7416,7.87085 C8.7416,6.96985 8.3266,6.16585 7.6776,5.63985 C7.0276,6.16585 6.6136,6.96985 6.6136,7.87085 C6.6136,8.77185 7.0276,9.57585 7.6776,10.10185 C8.3266,9.57585 8.7416,8.77185 8.7416,7.87085" fill="#FF5F01"></path>
        </g>
    </g>
</svg>
