<?xml version="1.0" encoding="UTF-8"?>
<svg width="32px" height="32px" viewBox="0 0 32 32" version="1.1" xmlns="http://www.w3.org/2000/svg" xmlns:xlink="http://www.w3.org/1999/xlink">
    <!-- Generator: Sketch 48.2 (47327) - http://www.bohemiancoding.com/sketch -->
    <title>Maximize32</title>
    <desc>Created with Sketch.</desc>
    <defs></defs>
    <g id="Page-1" stroke="none" stroke-width="1" fill="none" fill-rule="evenodd">
        <g id="Maximize32" fill="#2A2630" fill-rule="nonzero">
            <path d="M3.15185473,30.1586179 L8.27514864,30.1586179 C8.7829529,30.1586179 9.1946096,30.5708254 9.1946096,31.079309 C9.1946096,31.5877926 8.7829529,32 8.27514864,32 L2.55059373,32 L0.91946096,32 C0.411656694,32 1.11022302e-16,31.5877926 1.11022302e-16,31.079309 L3.66373598e-15,23.7137807 C3.66373598e-15,23.2052971 0.411656694,22.7930897 0.91946096,22.7930897 C1.42726523,22.7930897 1.83892192,23.2052971 1.83892192,23.7137807 L1.83892192,28.8691997 L8.42654523,22.2727634 C8.78841353,21.910411 9.37187289,21.9091204 9.73094473,22.2686726 C10.09252,22.6307315 10.0881875,23.2130056 9.72685939,23.5748171 L3.15185473,30.1586179 Z M23.7248514,1.84138206 C23.2170471,1.84138206 22.8053904,1.42917464 22.8053904,0.92069103 C22.8053904,0.412207415 23.2170471,-4.37700632e-16 23.7248514,-4.37700632e-16 L29.4494063,1.1913866e-15 L31.080539,1.1913866e-15 C31.5883433,1.1913866e-15 32,0.412207415 32,0.92069103 L32,8.28621927 C32,8.79470288 31.5883433,9.2069103 31.080539,9.2069103 C30.5727348,9.2069103 30.1610781,8.79470288 30.1610781,8.28621927 L30.1610781,3.13080026 L23.5734548,9.7272366 C23.2115865,10.089589 22.6281271,10.0908796 22.2690553,9.73132741 C21.90748,9.36926846 21.9118125,8.78699436 22.2731406,8.42518286 L28.8481453,1.84138206 L23.7248514,1.84138206 Z M1.84138206,8.27514864 C1.84138206,8.7829529 1.42917464,9.1946096 0.92069103,9.1946096 C0.412207415,9.1946096 1.85544944e-16,8.7829529 2.16638987e-16,8.27514864 L2.20264269e-15,2.55059373 L2.30252076e-15,0.91946096 C2.33361481e-15,0.411656694 0.412207415,-4.4408921e-16 0.92069103,-4.4408921e-16 L8.28621927,1.33226763e-15 C8.79470288,1.33226763e-15 9.2069103,0.411656694 9.2069103,0.91946096 C9.2069103,1.42726523 8.79470288,1.83892192 8.28621927,1.83892192 L3.13080026,1.83892192 L9.7272366,8.42654523 C10.089589,8.78841353 10.0908796,9.37187289 9.73132741,9.73094473 C9.36926846,10.09252 8.78699436,10.0881875 8.42518286,9.72685939 L1.84138206,3.15185473 L1.84138206,8.27514864 Z M30.1586179,23.7248514 C30.1586179,23.2170471 30.5708254,22.8053904 31.079309,22.8053904 C31.5877926,22.8053904 32,23.2170471 32,23.7248514 L32,29.4494063 L32,31.080539 C32,31.5883433 31.5877926,32 31.079309,32 L23.7137807,32 C23.2052971,32 22.7930897,31.5883433 22.7930897,31.080539 C22.7930897,30.5727348 23.2052971,30.1610781 23.7137807,30.1610781 L28.8691997,30.1610781 L22.2727634,23.5734548 C21.910411,23.2115865 21.9091204,22.6281271 22.2686726,22.2690553 C22.6307315,21.90748 23.2130056,21.9118125 23.5748171,22.2731406 L30.1586179,28.8481453 L30.1586179,23.7248514 Z"></path>
        </g>
    </g>
</svg>