<?xml version="1.0" encoding="UTF-8"?>
<svg width="24px" height="24px" viewBox="0 0 24 24" version="1.1" xmlns="http://www.w3.org/2000/svg" xmlns:xlink="http://www.w3.org/1999/xlink">
    <!-- Generator: Sketch 48.1 (47250) - http://www.bohemiancoding.com/sketch -->
    <title>Maximize24</title>
    <desc>Created with Sketch.</desc>
    <defs></defs>
    <g id="Page-1" stroke="none" stroke-width="1" fill="none" fill-rule="evenodd">
        <g id="Maximize24" fill="#000000" fill-rule="nonzero">
            <path d="M3.41421356,22 L7,22 C7.55228475,22 8,22.4477153 8,23 C8,23.5522848 7.55228475,24 7,24 L1,24 C0.44771525,24 -4.12453183e-10,23.5522848 -4.12453183e-10,23 L-4.12453183e-10,17 C-4.12453183e-10,16.4477153 0.44771525,16 1,16 C1.55228475,16 2,16.4477153 2,17 L2,20.5857864 L7.29289322,15.2928932 C7.68341751,14.9023689 8.31658249,14.9023689 8.70710678,15.2928932 C9.09763107,15.6834175 9.09763107,16.3165825 8.70710678,16.7071068 L3.41421356,22 Z M22,3.41421356 L16.7071068,8.70710678 C16.3165825,9.09763107 15.6834175,9.09763107 15.2928932,8.70710678 C14.9023689,8.31658249 14.9023689,7.68341751 15.2928932,7.29289322 L20.5857864,2 L17,2 C16.4477152,2 16,1.55228475 16,1 C16,0.447715251 16.4477152,1.15847598e-09 17,1.15847598e-09 L23,1.15847598e-09 C23.5522847,1.15847598e-09 24,0.447715251 24,1 L24,7 C24,7.55228475 23.5522847,8 23,8 C22.4477152,8 22,7.55228475 22,7 L22,3.41421356 Z M22,20.5857864 L22,17 C22,16.4477153 22.4477152,16 23,16 C23.5522847,16 24,16.4477153 24,17 L24,23 C24,23.5522848 23.5522847,24 23,24 L17,24 C16.4477152,24 16,23.5522848 16,23 C16,22.4477153 16.4477152,22 17,22 L20.5857864,22 L15.2928932,16.7071068 C14.9023689,16.3165825 14.9023689,15.6834175 15.2928932,15.2928932 C15.6834175,14.9023689 16.3165825,14.9023689 16.7071068,15.2928932 L22,20.5857864 Z M2,3.41421356 L2,7 C2,7.55228475 1.55228475,8 1,8 C0.44771525,8 -4.1245582e-10,7.55228475 -4.12455786e-10,7 L-4.12455419e-10,1 C-4.12455385e-10,0.447715251 0.44771525,1.15853638e-09 1,1.15853638e-09 L7,1.15853638e-09 C7.55228475,1.15853727e-09 8,0.447715251 8,1 C8,1.55228475 7.55228475,2 7,2 L3.41421356,2 L8.70710678,7.29289322 C9.09763107,7.68341751 9.09763107,8.31658249 8.70710678,8.70710678 C8.31658249,9.09763107 7.68341751,9.09763107 7.29289322,8.70710678 L2,3.41421356 Z" transform="translate(12.000000, 12.000000) rotate(-270.000000) translate(-12.000000, -12.000000) "></path>
        </g>
    </g>
</svg>