<svg width="32" height="32" viewBox="0 0 32 32" fill="none" xmlns="http://www.w3.org/2000/svg">
<path d="M29.7781 24.6406L25.5664 16.9528C26.4283 15.2797 26.8772 13.404 26.8719 11.499C26.8719 8.44925 25.7257 5.52444 23.6856 3.36797C21.6454 1.21149 18.8784 0 15.9931 0C13.1079 0 10.3409 1.21149 8.30071 3.36797C6.26055 5.52444 5.1144 8.44925 5.1144 11.499C5.10904 13.404 5.55802 15.2797 6.41985 16.9528L2.20822 24.6406C2.07155 24.8908 1.99973 25.1747 2 25.4636C2.00027 25.7525 2.07262 26.0363 2.20976 26.2862C2.34689 26.5361 2.54395 26.7434 2.78107 26.8871C3.01819 27.0308 3.28696 27.1058 3.56029 27.1047H8.02057L10.2896 31.1458C10.3661 31.2797 10.4603 31.4014 10.5693 31.5072C10.8574 31.8007 11.2415 31.9654 11.6416 31.9671H11.8592C12.0938 31.9332 12.318 31.843 12.5146 31.7035C12.7113 31.564 12.8751 31.3789 12.9937 31.1622L15.9931 25.7084L18.9926 31.2115C19.1129 31.4251 19.2775 31.607 19.474 31.7436C19.6706 31.8802 19.8938 31.9678 20.1271 32H20.3446C20.7501 32.0025 21.1405 31.8375 21.4325 31.54C21.537 31.4403 21.6262 31.3239 21.6967 31.195L23.9657 27.154H28.426C28.6998 27.1551 28.9691 27.0798 29.2065 26.9355C29.444 26.7913 29.6411 26.5833 29.7781 26.3326C29.9233 26.0771 30 25.7847 30 25.4866C30 25.1886 29.9233 24.8961 29.7781 24.6406ZM11.6261 27.154L10.2429 24.7063C10.1068 24.4635 9.91364 24.2619 9.68226 24.1209C9.45088 23.9799 9.18902 23.9043 8.92196 23.9014H6.23335L8.45572 19.8275C9.98609 21.3862 11.9149 22.437 14.0039 22.8501L11.6261 27.154ZM15.9931 19.7125C14.4563 19.7125 12.9539 19.2308 11.6761 18.3283C10.3982 17.4258 9.40224 16.143 8.8141 14.6421C8.22597 13.1413 8.07209 11.4899 8.37192 9.89658C8.67174 8.30331 9.41182 6.83979 10.4985 5.69111C11.5853 4.54242 12.9698 3.76016 14.4772 3.44324C15.9845 3.12632 17.5469 3.28897 18.9668 3.91064C20.3867 4.5323 21.6003 5.58505 22.4541 6.93576C23.3079 8.28647 23.7637 9.87448 23.7637 11.499C23.7637 13.6773 22.945 15.7665 21.4877 17.3068C20.0305 18.8472 18.054 19.7125 15.9931 19.7125ZM23.0643 23.9014C22.7973 23.9043 22.5354 23.9799 22.304 24.1209C22.0726 24.2619 21.8795 24.4635 21.7433 24.7063L20.3602 27.154L17.9979 22.8008C20.0796 22.3793 22.0013 21.3295 23.5306 19.7782L25.7529 23.8521L23.0643 23.9014Z" fill="currentColor"/>
</svg>
