<svg width="24" height="24" viewBox="0 0 24 24" fill="none" xmlns="http://www.w3.org/2000/svg">
<path d="M22.3335 18.4805L19.1748 12.7146C19.8212 11.4598 20.1579 10.053 20.1539 8.62422C20.1539 6.33694 19.2943 4.14333 17.7642 2.52598C16.2341 0.908621 14.1588 0 11.9949 0C9.83094 0 7.75565 0.908621 6.22553 2.52598C4.69541 4.14333 3.8358 6.33694 3.8358 8.62422C3.83178 10.053 4.16852 11.4598 4.81488 12.7146L1.65616 18.4805C1.55366 18.6681 1.4998 18.881 1.5 19.0977C1.5002 19.3144 1.55447 19.5272 1.65732 19.7146C1.76017 19.9021 1.90797 20.0575 2.0858 20.1653C2.26364 20.2731 2.46522 20.3294 2.67022 20.3285H6.01543L7.71718 23.3593C7.77454 23.4598 7.84519 23.551 7.92698 23.6304C8.14305 23.8505 8.43113 23.9741 8.73123 23.9753H8.89441C9.07038 23.9499 9.23852 23.8823 9.38598 23.7776C9.53345 23.673 9.65635 23.5341 9.74529 23.3716L11.9949 19.2813L14.2444 23.4086C14.3347 23.5688 14.4581 23.7053 14.6055 23.8077C14.7529 23.9101 14.9204 23.9759 15.0953 24H15.2585C15.5626 24.0019 15.8554 23.8781 16.0744 23.655C16.1528 23.5802 16.2196 23.4929 16.2725 23.3963L17.9743 20.3655H21.3195C21.5249 20.3663 21.7268 20.3098 21.9049 20.2017C22.083 20.0935 22.2309 19.9375 22.3335 19.7495C22.4425 19.5579 22.5 19.3385 22.5 19.115C22.5 18.8914 22.4425 18.6721 22.3335 18.4805ZM8.71957 20.3655L7.68221 18.5298C7.58006 18.3476 7.43523 18.1964 7.2617 18.0907C7.08816 17.9849 6.89177 17.9282 6.69147 17.9261H4.67501L6.34179 14.8706C7.48957 16.0397 8.93616 16.8278 10.5029 17.1376L8.71957 20.3655ZM11.9949 14.7844C10.8422 14.7844 9.71544 14.4231 8.75705 13.7462C7.79865 13.0693 7.05168 12.1072 6.61058 10.9816C6.16948 9.85599 6.05407 8.61739 6.27894 7.42244C6.50381 6.22748 7.05886 5.12985 7.87391 4.26833C8.68895 3.40682 9.72739 2.82012 10.8579 2.58243C11.9884 2.34474 13.1602 2.46673 14.2251 2.93298C15.29 3.39923 16.2002 4.18879 16.8406 5.20182C17.481 6.21485 17.8228 7.40586 17.8228 8.62422C17.8228 10.258 17.2087 11.8249 16.1158 12.9801C15.0229 14.1354 13.5405 14.7844 11.9949 14.7844ZM17.2982 17.9261C17.0979 17.9282 16.9016 17.9849 16.728 18.0907C16.5545 18.1964 16.4096 18.3476 16.3075 18.5298L15.2701 20.3655L13.4985 17.1006C15.0597 16.7845 16.5009 15.9971 17.6479 14.8337L19.3147 17.8891L17.2982 17.9261Z" fill="currentColor"/>
</svg>
