<svg xmlns="http://www.w3.org/2000/svg" xmlns:xlink="http://www.w3.org/1999/xlink" width="24" height="24" viewBox="0 0 24 24">
    <defs>
        <path id="a" d="M6 11h17.426c.317 0 .574.672.574 1.5s-.257 1.5-.574 1.5H6v4.5l-6-6 6-6V11zm3.441 9C9.198 20 9 19.328 9 18.5s.198-1.5.441-1.5H23.56c.243 0 .441.672.441 1.5s-.198 1.5-.441 1.5H9.44zm0-12C9.198 8 9 7.328 9 6.5S9.198 5 9.441 5H23.56c.243 0 .441.672.441 1.5S23.802 8 23.559 8H9.44z"/>
    </defs>
    <use fill="#000" fill-rule="nonzero" transform="matrix(-1 0 0 1 24 0)" xlink:href="#a"/>
</svg>
