<?xml version="1.0" encoding="UTF-8"?>
<svg width="24px" height="24px" viewBox="0 0 24 24" version="1.1" xmlns="http://www.w3.org/2000/svg" xmlns:xlink="http://www.w3.org/1999/xlink">
    <!-- Generator: Sketch 48.2 (47327) - http://www.bohemiancoding.com/sketch -->
    <title>Menu24</title>
    <desc>Created with Sketch.</desc>
    <defs></defs>
    <g id="Page-1" stroke="none" stroke-width="1" fill="none" fill-rule="evenodd">
        <g id="Menu24" fill="#000000" fill-rule="nonzero">
            <path d="M0.923076923,5 C0.413275616,5 0,4.55228475 0,4 C0,3.44771525 0.413275616,3 0.923076923,3 L23.0769231,3 C23.5867244,3 24,3.44771525 24,4 C24,4.55228475 23.5867244,5 23.0769231,5 L0.923076923,5 Z M0.923076923,13 C0.413275616,13 0,12.5522847 0,12 C0,11.4477153 0.413275616,11 0.923076923,11 L23.0769231,11 C23.5867244,11 24,11.4477153 24,12 C24,12.5522847 23.5867244,13 23.0769231,13 L0.923076923,13 Z M0.923076923,21 C0.413275616,21 0,20.5522847 0,20 C0,19.4477153 0.413275616,19 0.923076923,19 L23.0769231,19 C23.5867244,19 24,19.4477153 24,20 C24,20.5522847 23.5867244,21 23.0769231,21 L0.923076923,21 Z"></path>
        </g>
    </g>
</svg>