<svg xmlns="http://www.w3.org/2000/svg" xmlns:xlink="http://www.w3.org/1999/xlink" width="32pt" height="32pt" viewBox="0 0 32 32">
  <defs>
    <path id="a" d="M 8 14 L 31.234375 14 C 31.65625 14 32 14.894531 32 16 C 32 17.105469 31.65625 18 31.234375 18 L 8 18 L 8 24 L 0 16 L 8 8 Z M 12.589844 26 C 12.265625 26 12 25.105469 12 24 C 12 22.894531 12.265625 22 12.589844 22 L 31.414062 22 C 31.738281 22 32 22.894531 32 24 C 32 25.105469 31.738281 26 31.414062 26 L 12.585938 26 Z M 12.589844 10 C 12.265625 10 12 9.105469 12 8 C 12 6.894531 12.265625 6 12.589844 6 L 31.414062 6 C 31.738281 6 32 6.894531 32 8 C 32 9.105469 31.738281 10 31.414062 10 L 12.585938 10 Z M 12.589844 10 "/>
  </defs>
  <use fill="#000" fill-rule="nonzero" xlink:href="#a" />
</svg>
