<?xml version="1.0" encoding="UTF-8"?>
<svg width="32px" height="32px" viewBox="0 0 32 32" version="1.1" xmlns="http://www.w3.org/2000/svg" xmlns:xlink="http://www.w3.org/1999/xlink">
    <!-- Generator: Sketch 48.1 (47250) - http://www.bohemiancoding.com/sketch -->
    <title>Menu32</title>
    <desc>Created with Sketch.</desc>
    <defs></defs>
    <g id="Page-1" stroke="none" stroke-width="1" fill="none" fill-rule="evenodd">
        <g id="Menu32" fill="#000000" fill-rule="nonzero">
            <path d="M0.941176471,5 C0.421379059,5 0,4.55228475 0,4 C0,3.44771525 0.421379059,3 0.941176471,3 L31.0588235,3 C31.5786209,3 32,3.44771525 32,4 C32,4.55228475 31.5786209,5 31.0588235,5 L0.941176471,5 Z M0.941176471,30 C0.421379059,30 0,29.5522847 0,29 C0,28.4477153 0.421379059,28 0.941176471,28 L31.0588235,28 C31.5786209,28 32,28.4477153 32,29 C32,29.5522847 31.5786209,30 31.0588235,30 L0.941176471,30 Z M0.941176471,18 C0.421379059,18 0,17.5522847 0,17 C0,16.4477153 0.421379059,16 0.941176471,16 L31.0588235,16 C31.5786209,16 32,16.4477153 32,17 C32,17.5522847 31.5786209,18 31.0588235,18 L0.941176471,18 Z"></path>
        </g>
    </g>
</svg>