<?xml version="1.0" encoding="UTF-8"?>
<svg width="32px" height="32px" viewBox="0 0 32 32" version="1.1" xmlns="http://www.w3.org/2000/svg" xmlns:xlink="http://www.w3.org/1999/xlink">
    <!-- Generator: Sketch 50.2 (55047) - http://www.bohemiancoding.com/sketch -->
    <title>Menu</title>
    <desc>Created with Sketch.</desc>
    <defs></defs>
    <g id="Pagar.me-Styleguide" stroke="none" stroke-width="1" fill="none" fill-rule="evenodd">
        <g id="Icons" transform="translate(-412.000000, -313.000000)" fill="#000000" fill-rule="nonzero">
            <g id="32x32" transform="translate(203.000000, 96.000000)">
                <g id="linha-4" transform="translate(2.000000, 217.000000)">
                    <path d="M207.941176,29 C207.421379,29 207,28.5522847 207,28 C207,27.4477153 207.421379,27 207.941176,27 L238.058824,27 C238.578621,27 239,27.4477153 239,28 C239,28.5522847 238.578621,29 238.058824,29 L207.941176,29 Z M207.941176,17 C207.421379,17 207,16.5522847 207,16 C207,15.4477153 207.421379,15 207.941176,15 L238.058824,15 C238.578621,15 239,15.4477153 239,16 C239,16.5522847 238.578621,17 238.058824,17 L207.941176,17 Z M207.941176,5 C207.421379,5 207,4.55228475 207,4 C207,3.44771525 207.421379,3 207.941176,3 L238.058824,3 C238.578621,3 239,3.44771525 239,4 C239,4.55228475 238.578621,5 238.058824,5 L207.941176,5 Z" id="Menu"></path>
                </g>
            </g>
        </g>
    </g>
</svg>