<svg width="32" height="32" viewBox="0 0 32 32" fill="none" xmlns="http://www.w3.org/2000/svg">
<path d="M1.6 10.1667H30.4C30.8243 10.1667 31.2313 9.99985 31.5314 9.70292C31.8314 9.40599 32 9.00326 32 8.58333C32 8.16341 31.8314 7.76068 31.5314 7.46375C31.2313 7.16682 30.8243 7 30.4 7H1.6C1.17565 7 0.768687 7.16682 0.468629 7.46375C0.168571 7.76068 0 8.16341 0 8.58333C0 9.00326 0.168571 9.40599 0.468629 9.70292C0.768687 9.99985 1.17565 10.1667 1.6 10.1667ZM30.4 22.8333H1.6C1.17565 22.8333 0.768687 23.0001 0.468629 23.2971C0.168571 23.594 0 23.9967 0 24.4167C0 24.8366 0.168571 25.2393 0.468629 25.5363C0.768687 25.8332 1.17565 26 1.6 26H30.4C30.8243 26 31.2313 25.8332 31.5314 25.5363C31.8314 25.2393 32 24.8366 32 24.4167C32 23.9967 31.8314 23.594 31.5314 23.2971C31.2313 23.0001 30.8243 22.8333 30.4 22.8333ZM30.4 14.9167H1.6C1.17565 14.9167 0.768687 15.0835 0.468629 15.3804C0.168571 15.6773 0 16.0801 0 16.5C0 16.9199 0.168571 17.3227 0.468629 17.6196C0.768687 17.9165 1.17565 18.0833 1.6 18.0833H30.4C30.8243 18.0833 31.2313 17.9165 31.5314 17.6196C31.8314 17.3227 32 16.9199 32 16.5C32 16.0801 31.8314 15.6773 31.5314 15.3804C31.2313 15.0835 30.8243 14.9167 30.4 14.9167Z" fill="currentColor"/>
</svg>
