<svg xmlns="http://www.w3.org/2000/svg" xmlns:xlink="http://www.w3.org/1999/xlink" width="32pt" height="32pt" viewBox="0 0 32 32">
  <defs>
    <path id="a" d="M 24 14.667969 L 0.765625 14.667969 C 0.34375 14.667969 0 15.5625 0 16.667969 C 0 17.769531 0.34375 18.667969 0.765625 18.667969 L 24 18.667969 L 24 24.667969 L 32 16.667969 L 24 8.667969 Z M 19.410156 26.667969 C 19.734375 26.667969 20 25.769531 20 24.667969 C 20 23.5625 19.734375 22.667969 19.410156 22.667969 L 0.585938 22.667969 C 0.261719 22.667969 0 23.5625 0 24.667969 C 0 25.769531 0.261719 26.667969 0.585938 26.667969 L 19.414062 26.667969 Z M 19.410156 10.667969 C 19.734375 10.667969 20 9.769531 20 8.667969 C 20 7.5625 19.734375 6.667969 19.410156 6.667969 L 0.585938 6.667969 C 0.261719 6.667969 0 7.5625 0 8.667969 C 0 9.769531 0.265625 10.667969 0.589844 10.667969 L 19.414062 10.667969 Z M 19.410156 10.667969 "/>
  </defs>
  <use fill="#000" fill-rule="nonzero" xlink:href="#a" />
</svg>
