<svg width="24" height="24" viewBox="0 0 24 24" fill="none" xmlns="http://www.w3.org/2000/svg">
<path d="M1.2 7.625H22.8C23.1183 7.625 23.4235 7.49989 23.6485 7.27719C23.8736 7.05449 24 6.75244 24 6.4375C24 6.12256 23.8736 5.82051 23.6485 5.59781C23.4235 5.37511 23.1183 5.25 22.8 5.25H1.2C0.88174 5.25 0.576515 5.37511 0.351472 5.59781C0.126428 5.82051 0 6.12256 0 6.4375C0 6.75244 0.126428 7.05449 0.351472 7.27719C0.576515 7.49989 0.88174 7.625 1.2 7.625ZM22.8 17.125H1.2C0.88174 17.125 0.576515 17.2501 0.351472 17.4728C0.126428 17.6955 0 17.9976 0 18.3125C0 18.6274 0.126428 18.9295 0.351472 19.1522C0.576515 19.3749 0.88174 19.5 1.2 19.5H22.8C23.1183 19.5 23.4235 19.3749 23.6485 19.1522C23.8736 18.9295 24 18.6274 24 18.3125C24 17.9976 23.8736 17.6955 23.6485 17.4728C23.4235 17.2501 23.1183 17.125 22.8 17.125ZM22.8 11.1875H1.2C0.88174 11.1875 0.576515 11.3126 0.351472 11.5353C0.126428 11.758 0 12.0601 0 12.375C0 12.6899 0.126428 12.992 0.351472 13.2147C0.576515 13.4374 0.88174 13.5625 1.2 13.5625H22.8C23.1183 13.5625 23.4235 13.4374 23.6485 13.2147C23.8736 12.992 24 12.6899 24 12.375C24 12.0601 23.8736 11.758 23.6485 11.5353C23.4235 11.3126 23.1183 11.1875 22.8 11.1875Z" fill="currentColor"/>
</svg>
