<?xml version="1.0" encoding="UTF-8"?>
<svg width="24px" height="24px" viewBox="0 0 24 24" version="1.1" xmlns="http://www.w3.org/2000/svg" xmlns:xlink="http://www.w3.org/1999/xlink">
    <!-- Generator: Sketch 48.1 (47250) - http://www.bohemiancoding.com/sketch -->
    <title>Minimize24</title>
    <desc>Created with Sketch.</desc>
    <defs></defs>
    <g id="Page-1" stroke="none" stroke-width="1" fill="none" fill-rule="evenodd">
        <g id="Minimize24" fill="#000000" fill-rule="nonzero">
            <path d="M17.4142136,8 L21,8 C21.5522847,8 22,8.44771525 22,9 C22,9.55228475 21.5522847,10 21,10 L15,10 C14.4477153,10 14,9.55228475 14,9 L14,3 C14,2.44771525 14.4477153,2 15,2 C15.5522847,2 16,2.44771525 16,3 L16,6.58578644 L21.2928932,1.29289322 C21.6834175,0.902368927 22.3165825,0.902368927 22.7071068,1.29289322 C23.0976311,1.68341751 23.0976311,2.31658249 22.7071068,2.70710678 L17.4142136,8 Z M16,17.4142136 L16,21 C16,21.5522847 15.5522847,22 15,22 C14.4477153,22 14,21.5522847 14,21 L14,15 C14,14.4477153 14.4477153,14 15,14 L21,14 C21.5522847,14 22,14.4477153 22,15 C22,15.5522847 21.5522847,16 21,16 L17.4142136,16 L22.7071068,21.2928932 C23.0976311,21.6834175 23.0976311,22.3165825 22.7071068,22.7071068 C22.3165825,23.0976311 21.6834175,23.0976311 21.2928932,22.7071068 L16,17.4142136 Z M6.58578644,16 L3,16 C2.44771525,16 2,15.5522847 2,15 C2,14.4477153 2.44771525,14 3,14 L9,14 C9.55228475,14 10,14.4477153 10,15 L10,21 C10,21.5522847 9.55228475,22 9,22 C8.44771525,22 8,21.5522847 8,21 L8,17.4142136 L2.70710678,22.7071068 C2.31658249,23.0976311 1.68341751,23.0976311 1.29289322,22.7071068 C0.902368927,22.3165825 0.902368927,21.6834175 1.29289322,21.2928932 L6.58578644,16 Z M8,6.58578644 L8,3 C8,2.44771525 8.44771525,2 9,2 C9.55228475,2 10,2.44771525 10,3 L10,9 C10,9.55228475 9.55228475,10 9,10 L3,10 C2.44771525,10 2,9.55228475 2,9 C2,8.44771525 2.44771525,8 3,8 L6.58578644,8 L1.29289322,2.70710678 C0.902368927,2.31658249 0.902368927,1.68341751 1.29289322,1.29289322 C1.68341751,0.902368927 2.31658249,0.902368927 2.70710678,1.29289322 L8,6.58578644 Z"></path>
        </g>
    </g>
</svg>