<?xml version="1.0" encoding="UTF-8"?>
<svg width="32px" height="32px" viewBox="0 0 32 32" version="1.1" xmlns="http://www.w3.org/2000/svg" xmlns:xlink="http://www.w3.org/1999/xlink">
    <!-- Generator: Sketch 48.1 (47250) - http://www.bohemiancoding.com/sketch -->
    <title>Minimize32</title>
    <desc>Created with Sketch.</desc>
    <defs></defs>
    <g id="Page-1" stroke="none" stroke-width="1" fill="none" fill-rule="evenodd">
        <g id="Minimize32" fill="#000000" fill-rule="nonzero">
            <path d="M8.84814527,21.8413821 L3.72485136,21.8413821 C3.2170471,21.8413821 2.8053904,21.4291746 2.8053904,20.920691 C2.8053904,20.4122074 3.2170471,20 3.72485136,20 L9.44940627,20 L11.080539,20 C11.5883433,20 12,20.4122074 12,20.920691 L12,28.2862193 C12,28.7947029 11.5883433,29.2069103 11.080539,29.2069103 C10.5727348,29.2069103 10.1610781,28.7947029 10.1610781,28.2862193 L10.1610781,23.1308003 L3.57345477,29.7272366 C3.21158647,30.089589 2.62812711,30.0908796 2.26905527,29.7313274 C1.90748005,29.3692685 1.9118125,28.7869944 2.27314061,28.4251829 L8.84814527,21.8413821 Z M28.2751486,10.1586179 C28.7829529,10.1586179 29.1946096,10.5708254 29.1946096,11.079309 C29.1946096,11.5877926 28.7829529,12 28.2751486,12 L22.5505937,12 L20.919461,12 C20.4116567,12 20,11.5877926 20,11.079309 L20,3.71378073 C20,3.20529712 20.4116567,2.7930897 20.919461,2.7930897 C21.4272652,2.7930897 21.8389219,3.20529712 21.8389219,3.71378073 L21.8389219,8.86919974 L28.4265452,2.2727634 C28.7884135,1.91041099 29.3718729,1.90912038 29.7309447,2.26867259 C30.09252,2.63073154 30.0881875,3.21300564 29.7268594,3.57481714 L23.1518547,10.1586179 L28.2751486,10.1586179 Z M10.1586179,8.84814527 L10.1586179,3.72485136 C10.1586179,3.2170471 10.5708254,2.8053904 11.079309,2.8053904 C11.5877926,2.8053904 12,3.2170471 12,3.72485136 L12,9.44940627 L12,11.080539 C12,11.5883433 11.5877926,12 11.079309,12 L3.71378073,12 C3.20529712,12 2.7930897,11.5883433 2.7930897,11.080539 C2.7930897,10.5727348 3.20529712,10.1610781 3.71378073,10.1610781 L8.86919974,10.1610781 L2.2727634,3.57345477 C1.91041099,3.21158647 1.90912038,2.62812711 2.26867259,2.26905527 C2.63073154,1.90748005 3.21300564,1.9118125 3.57481714,2.27314061 L10.1586179,8.84814527 Z M21.8413821,28.2751486 C21.8413821,28.7829529 21.4291746,29.1946096 20.920691,29.1946096 C20.4122074,29.1946096 20,28.7829529 20,28.2751486 L20,22.5505937 L20,20.919461 C20,20.4116567 20.4122074,20 20.920691,20 L28.2862193,20 C28.7947029,20 29.2069103,20.4116567 29.2069103,20.919461 C29.2069103,21.4272652 28.7947029,21.8389219 28.2862193,21.8389219 L23.1308003,21.8389219 L29.7272366,28.4265452 C30.089589,28.7884135 30.0908796,29.3718729 29.7313274,29.7309447 C29.3692685,30.09252 28.7869944,30.0881875 28.4251829,29.7268594 L21.8413821,23.1518547 L21.8413821,28.2751486 Z"></path>
        </g>
    </g>
</svg>