<svg width="24" height="24" viewBox="0 0 24 24" fill="none" xmlns="http://www.w3.org/2000/svg">
<path d="M21.2956 18.588L14.9816 8.076V2.4H16.2172C16.5449 2.4 16.8592 2.27357 17.0909 2.04853C17.3227 1.82348 17.4528 1.51826 17.4528 1.2C17.4528 0.88174 17.3227 0.576515 17.0909 0.351472C16.8592 0.126428 16.5449 0 16.2172 0H6.33221C6.0045 0 5.69022 0.126428 5.45849 0.351472C5.22677 0.576515 5.09659 0.88174 5.09659 1.2C5.09659 1.51826 5.22677 1.82348 5.45849 2.04853C5.69022 2.27357 6.0045 2.4 6.33221 2.4H7.56784V8.076L1.25379 18.588C0.925789 19.1349 0.752025 19.756 0.750018 20.3889C0.748011 21.0218 0.917831 21.644 1.24236 22.1928C1.56689 22.7416 2.03466 23.1977 2.59852 23.5149C3.16238 23.8322 3.8024 23.9995 4.45406 24H18.0459C18.6976 23.9995 19.3376 23.8322 19.9015 23.5149C20.4653 23.1977 20.9331 22.7416 21.2576 22.1928C21.5822 21.644 21.752 21.0218 21.75 20.3889C21.748 19.756 21.5742 19.1349 21.2462 18.588H21.2956ZM9.8661 8.988C9.97508 8.8098 10.0347 8.60722 10.0391 8.4V2.4H12.5103V8.4C12.5126 8.6113 12.5723 8.81828 12.6833 9L13.746 10.8H8.80346L9.8661 8.988ZM19.158 20.988C19.0502 21.1694 18.8954 21.3202 18.709 21.4254C18.5225 21.5307 18.311 21.5867 18.0954 21.588H4.50349C4.28785 21.5867 4.07632 21.5307 3.8899 21.4254C3.70347 21.3202 3.54866 21.1694 3.44085 20.988C3.3324 20.8056 3.27531 20.5986 3.27531 20.388C3.27531 20.1774 3.3324 19.9704 3.44085 19.788L7.35778 13.2H15.204L19.158 19.8C19.2664 19.9824 19.3235 20.1894 19.3235 20.4C19.3235 20.6106 19.2664 20.8176 19.158 21V20.988ZM8.80346 15.6C8.55908 15.6 8.32018 15.6704 8.11699 15.8022C7.91379 15.9341 7.75541 16.1215 7.66189 16.3408C7.56837 16.5601 7.5439 16.8013 7.59158 17.0341C7.63926 17.2669 7.75694 17.4807 7.92974 17.6485C8.10255 17.8164 8.32272 17.9306 8.5624 17.9769C8.80209 18.0232 9.05054 17.9995 9.27632 17.9087C9.5021 17.8178 9.69508 17.664 9.83085 17.4667C9.96662 17.2693 10.0391 17.0373 10.0391 16.8C10.0391 16.4817 9.90891 16.1765 9.67718 15.9515C9.44546 15.7264 9.13117 15.6 8.80346 15.6ZM13.746 16.8C13.5016 16.8 13.2627 16.8704 13.0595 17.0022C12.8563 17.1341 12.6979 17.3215 12.6044 17.5408C12.5109 17.7601 12.4864 18.0013 12.5341 18.2341C12.5818 18.4669 12.6994 18.6807 12.8722 18.8485C13.045 19.0164 13.2652 19.1306 13.5049 19.1769C13.7446 19.2232 13.993 19.1995 14.2188 19.1087C14.4446 19.0178 14.6376 18.864 14.7733 18.6667C14.9091 18.4693 14.9816 18.2373 14.9816 18C14.9816 17.6817 14.8514 17.3765 14.6197 17.1515C14.388 16.9264 14.0737 16.8 13.746 16.8Z" fill="currentColor"/>
</svg>
