<svg width="32" height="32" viewBox="0 0 32 32" fill="none" xmlns="http://www.w3.org/2000/svg">
<path d="M28.3942 24.784L19.9754 10.768V3.2H21.6229C22.0599 3.2 22.4789 3.03143 22.7879 2.73137C23.0969 2.43131 23.2704 2.02435 23.2704 1.6C23.2704 1.17565 23.0969 0.768687 22.7879 0.468629C22.4789 0.168571 22.0599 0 21.6229 0H8.44295C8.00601 0 7.58696 0.168571 7.27799 0.468629C6.96903 0.768687 6.79545 1.17565 6.79545 1.6C6.79545 2.02435 6.96903 2.43131 7.27799 2.73137C7.58696 3.03143 8.00601 3.2 8.44295 3.2H10.0904V10.768L1.67172 24.784C1.23438 25.5132 1.0027 26.3414 1.00002 27.1852C0.997347 28.029 1.22377 28.8587 1.65648 29.5904C2.08919 30.3222 2.71288 30.9302 3.46469 31.3532C4.2165 31.7763 5.06986 31.9994 5.93875 32H24.0612C24.9301 31.9994 25.7835 31.7763 26.5353 31.3532C27.2871 30.9302 27.9108 30.3222 28.3435 29.5904C28.7762 28.8587 29.0027 28.029 29 27.1852C28.9973 26.3414 28.7656 25.5132 28.3283 24.784H28.3942ZM13.1548 11.984C13.3001 11.7464 13.3796 11.4763 13.3854 11.2V3.2H16.6804V11.2C16.6835 11.4817 16.763 11.7577 16.9111 12L18.3279 14.4H11.7379L13.1548 11.984ZM25.544 27.984C25.4002 28.2258 25.1938 28.4269 24.9453 28.5672C24.6967 28.7076 24.4147 28.7823 24.1271 28.784H6.00465C5.71714 28.7823 5.43509 28.7076 5.18653 28.5672C4.93797 28.4269 4.73155 28.2258 4.5878 27.984C4.4432 27.7408 4.36708 27.4649 4.36708 27.184C4.36708 26.9031 4.4432 26.6272 4.5878 26.384L9.81037 17.6H20.272L25.544 26.4C25.6886 26.6432 25.7647 26.9191 25.7647 27.2C25.7647 27.4809 25.6886 27.7568 25.544 28V27.984ZM11.7379 20.8C11.4121 20.8 11.0936 20.8938 10.8226 21.0696C10.5517 21.2455 10.3406 21.4953 10.2159 21.7877C10.0912 22.0801 10.0585 22.4018 10.1221 22.7121C10.1857 23.0225 10.3426 23.3076 10.573 23.5314C10.8034 23.7551 11.097 23.9075 11.4165 23.9693C11.7361 24.031 12.0674 23.9993 12.3684 23.8782C12.6695 23.7571 12.9268 23.552 13.1078 23.2889C13.2888 23.0258 13.3854 22.7164 13.3854 22.4C13.3854 21.9757 13.2119 21.5687 12.9029 21.2686C12.5939 20.9686 12.1749 20.8 11.7379 20.8ZM18.3279 22.4C18.0021 22.4 17.6836 22.4938 17.4126 22.6696C17.1417 22.8455 16.9306 23.0953 16.8059 23.3877C16.6812 23.6801 16.6485 24.0018 16.7121 24.3121C16.7757 24.6225 16.9326 24.9076 17.163 25.1314C17.3934 25.3551 17.687 25.5075 18.0065 25.5693C18.3261 25.631 18.6574 25.5993 18.9584 25.4782C19.2595 25.3571 19.5168 25.152 19.6978 24.8889C19.8788 24.6258 19.9754 24.3165 19.9754 24C19.9754 23.5757 19.8019 23.1687 19.4929 22.8686C19.1839 22.5686 18.7649 22.4 18.3279 22.4Z" fill="currentColor"/>
</svg>
