<?xml version="1.0" encoding="UTF-8"?>
<svg width="24px" height="24px" viewBox="0 0 24 24" version="1.1" xmlns="http://www.w3.org/2000/svg" xmlns:xlink="http://www.w3.org/1999/xlink">
    <!-- Generator: Sketch 48.2 (47327) - http://www.bohemiancoding.com/sketch -->
    <title>VolumeTransaction24</title>
    <desc>Created with Sketch.</desc>
    <defs></defs>
    <g id="Page-1" stroke="none" stroke-width="1" fill="none" fill-rule="evenodd">
        <g id="VolumeTransaction24" fill="#000000">
            <path d="M10.0021009,12 L10.0021009,7 C9.25207296,6.80130548 9.17844493,6.7246552 9.00210092,6 L7.00210092,6 C6.82579459,6.72450036 6.75185256,6.80120029 6.00210092,7 L6.00210092,14 L6,14 L6,19 C6.75002796,19.1986945 6.82365599,19.2753448 7,20 L9,20 C9.17630633,19.2754996 9.25024836,19.1987997 10,19 L10,12 L10.0021009,12 Z M12.0002699,14 L12.0010502,19.7832931 C12.0013531,20.1515516 11.7029055,20.4502449 11.3346468,20.4502449 C10.7524671,20.4502449 10.5198091,20.742357 10.5198091,21.3335964 C10.5198091,21.7016409 10.22145,22 9.85340543,22 L6.14764502,22 C5.77960046,22 5.48124139,21.7016409 5.48124139,21.3335964 C5.48124139,20.742357 5.24858333,20.4502449 4.66640364,20.4502449 C4.29835907,20.4502449 4,20.1518858 4,19.7838412 L4,12 L4.00183105,12 L4.00105069,6.21670692 C4.00074777,5.8484484 4.29919545,5.54975513 4.6674541,5.54975513 C5.24963379,5.54975513 5.48229185,5.25764299 5.48229185,4.66640364 C5.48229185,4.29835907 5.78065092,4 6.14869549,4 L9.85445589,4 C10.2225005,4 10.5208595,4.29835907 10.5208595,4.66640364 C10.5208595,5.25764299 10.7535176,5.54975513 11.3356973,5.54975513 C11.7037418,5.54975513 12.0021009,5.8481142 12.0021009,6.21615877 L12.0021009,14 L12.0002699,14 Z M13,3 L3,3 L3,23 L13,23 L13,3 Z M15,2 L15,24 C15,24.5522847 14.5522847,25 14,25 L2,25 C1.44771525,25 1,24.5522847 1,24 L1,2 C1,1.44771525 1.44771525,1 2,1 L14,1 C14.5522847,1 15,1.44771525 15,2 Z M8,14 C8.55228475,14 9,13.5522847 9,13 C9,12.4477153 8.55228475,12 8,12 C7.44771525,12 7,12.4477153 7,13 C7,13.5522847 7.44771525,14 8,14 Z M17,24 L17,2 C17,1.44771525 17.4477153,1 18,1 C18.5522847,1 19,1.44771525 19,2 L19,24 C19,24.5522847 18.5522847,25 18,25 C17.4477153,25 17,24.5522847 17,24 Z M21,24 L21,2 C21,1.44771525 21.4477153,1 22,1 C22.5522847,1 23,1.44771525 23,2 L23,24 C23,24.5522847 22.5522847,25 22,25 C21.4477153,25 21,24.5522847 21,24 Z" transform="translate(12.000000, 13.000000) rotate(-270.000000) translate(-12.000000, -13.000000) "></path>
        </g>
    </g>
</svg>