<?xml version="1.0" encoding="UTF-8"?>
<svg width="32px" height="32px" viewBox="0 0 32 32" version="1.1" xmlns="http://www.w3.org/2000/svg" xmlns:xlink="http://www.w3.org/1999/xlink">
    <!-- Generator: Sketch 48.1 (47250) - http://www.bohemiancoding.com/sketch -->
    <title>More32</title>
    <desc>Created with Sketch.</desc>
    <defs></defs>
    <g id="Page-1" stroke="none" stroke-width="1" fill="none" fill-rule="evenodd">
        <g id="More32" fill="#000000" fill-rule="nonzero">
            <path d="M16,8 C13.790861,8 12,6.209139 12,4 C12,1.790861 13.790861,0 16,0 C18.209139,0 20,1.790861 20,4 C20,6.209139 18.209139,8 16,8 Z M16,6 C17.1045695,6 18,5.1045695 18,4 C18,2.8954305 17.1045695,2 16,2 C14.8954305,2 14,2.8954305 14,4 C14,5.1045695 14.8954305,6 16,6 Z M16,32 C13.790861,32 12,30.209139 12,28 C12,25.790861 13.790861,24 16,24 C18.209139,24 20,25.790861 20,28 C20,30.209139 18.209139,32 16,32 Z M16,30 C17.1045695,30 18,29.1045695 18,28 C18,26.8954305 17.1045695,26 16,26 C14.8954305,26 14,26.8954305 14,28 C14,29.1045695 14.8954305,30 16,30 Z M16,20 C13.790861,20 12,18.209139 12,16 C12,13.790861 13.790861,12 16,12 C18.209139,12 20,13.790861 20,16 C20,18.209139 18.209139,20 16,20 Z M16,18 C17.1045695,18 18,17.1045695 18,16 C18,14.8954305 17.1045695,14 16,14 C14.8954305,14 14,14.8954305 14,16 C14,17.1045695 14.8954305,18 16,18 Z"></path>
        </g>
    </g>
</svg>