<?xml version="1.0" encoding="UTF-8"?>
<svg width="24px" height="24px" viewBox="0 0 24 24" version="1.1" xmlns="http://www.w3.org/2000/svg" xmlns:xlink="http://www.w3.org/1999/xlink">
    <!-- Generator: Sketch 48.2 (47327) - http://www.bohemiancoding.com/sketch -->
    <title>More24</title>
    <desc>Created with Sketch.</desc>
    <defs></defs>
    <g id="Page-1" stroke="none" stroke-width="1" fill="none" fill-rule="evenodd">
        <g id="More24" fill="#000000" fill-rule="nonzero">
            <path d="M13,24 C11.3431458,24 10,22.6568542 10,21 C10,19.3431458 11.3431458,18 13,18 C14.6568542,18 16,19.3431458 16,21 C16,22.6568542 14.6568542,24 13,24 Z M13,22 C13.5522847,22 14,21.5522847 14,21 C14,20.4477153 13.5522847,20 13,20 C12.4477153,20 12,20.4477153 12,21 C12,21.5522847 12.4477153,22 13,22 Z M13,6 C11.3431458,6 10,4.65685425 10,3 C10,1.34314575 11.3431458,0 13,0 C14.6568542,0 16,1.34314575 16,3 C16,4.65685425 14.6568542,6 13,6 Z M13,4 C13.5522847,4 14,3.55228475 14,3 C14,2.44771525 13.5522847,2 13,2 C12.4477153,2 12,2.44771525 12,3 C12,3.55228475 12.4477153,4 13,4 Z M13,15 C11.3431458,15 10,13.6568542 10,12 C10,10.3431458 11.3431458,9 13,9 C14.6568542,9 16,10.3431458 16,12 C16,13.6568542 14.6568542,15 13,15 Z M13,13 C13.5522847,13 14,12.5522847 14,12 C14,11.4477153 13.5522847,11 13,11 C12.4477153,11 12,11.4477153 12,12 C12,12.5522847 12.4477153,13 13,13 Z"></path>
        </g>
    </g>
</svg>