<svg width="24" height="24" viewBox="0 0 24 24" fill="none" xmlns="http://www.w3.org/2000/svg">
<path d="M9.33333 0V2.66667H2.66667V21.3333H21.3333V14.6667H24V22.6667C24 23.0203 23.8595 23.3594 23.6095 23.6095C23.3594 23.8595 23.0203 24 22.6667 24H1.33333C0.979711 24 0.640573 23.8595 0.390524 23.6095C0.140476 23.3594 0 23.0203 0 22.6667V1.33333C0 0.979711 0.140476 0.640573 0.390524 0.390524C0.640573 0.140476 0.979711 0 1.33333 0H9.33333ZM19.448 2.66667H13.3333V0H24V10.6667H21.3333V4.552L12 13.8853L10.1147 12L19.448 2.66667Z" fill="currentColor"/>
</svg>
