<svg width="32" height="32" viewBox="0 0 32 32" fill="none" xmlns="http://www.w3.org/2000/svg">
<path d="M12.4444 0V3.55556H3.55556V28.4444H28.4444V19.5556H32V30.2222C32 30.6937 31.8127 31.1459 31.4793 31.4793C31.1459 31.8127 30.6937 32 30.2222 32H1.77778C1.30628 32 0.854097 31.8127 0.520699 31.4793C0.187301 31.1459 0 30.6937 0 30.2222V1.77778C0 1.30628 0.187301 0.854097 0.520699 0.520699C0.854097 0.187301 1.30628 0 1.77778 0H12.4444ZM25.9307 3.55556H17.7778V0H32V14.2222H28.4444V6.06933L16 18.5138L13.4862 16L25.9307 3.55556Z" fill="currentColor"/>
</svg>
