<?xml version="1.0" encoding="UTF-8"?>
<svg width="32px" height="32px" viewBox="0 0 32 32" version="1.1" xmlns="http://www.w3.org/2000/svg" xmlns:xlink="http://www.w3.org/1999/xlink">
    <!-- Generator: Sketch 48.1 (47250) - http://www.bohemiancoding.com/sketch -->
    <title>OrderTable32</title>
    <desc>Created with Sketch.</desc>
    <defs></defs>
    <g id="Page-1" stroke="none" stroke-width="1" fill="none" fill-rule="evenodd">
        <g id="OrderTable32" fill="#000000" fill-rule="nonzero">
            <path d="M17,29.5378891 L24.1687226,22.3160621 C24.5686721,21.9131499 25.2387333,21.8927358 25.6653461,22.270466 C26.0919589,22.6481963 26.1135738,23.2810321 25.7136243,23.6839444 L17.7724509,31.6839444 C17.3541378,32.1053562 16.6458622,32.1053562 16.2275491,31.6839444 L8.28637571,23.6839444 C7.88642618,23.2810321 7.90804106,22.6481963 8.33465389,22.270466 C8.76126672,21.8927358 9.4313279,21.9131499 9.83127743,22.3160621 L17,29.5378891 Z M9.83127743,9.68394113 C9.4313279,10.0868534 8.76126672,10.1072675 8.33465389,9.7295372 C7.90804106,9.35180695 7.88642618,8.71897114 8.28637571,8.31605887 L16.2275491,0.316058871 C16.6458622,-0.105352957 17.3541378,-0.105352957 17.7724509,0.316058871 L25.7136243,8.31605887 C26.1135738,8.71897114 26.0919589,9.35180695 25.6653461,9.7295372 C25.2387333,10.1072675 24.5686721,10.0868534 24.1687226,9.68394113 L17,2.46211415 L9.83127743,9.68394113 Z"></path>
        </g>
    </g>
</svg>