<?xml version="1.0" encoding="UTF-8"?>
<svg width="24px" height="24px" viewBox="0 0 24 24" version="1.1" xmlns="http://www.w3.org/2000/svg" xmlns:xlink="http://www.w3.org/1999/xlink">
    <!-- Generator: Sketch 48.2 (47327) - http://www.bohemiancoding.com/sketch -->
    <title>OrderTable24</title>
    <desc>Created with Sketch.</desc>
    <defs></defs>
    <g id="Page-1" stroke="none" stroke-width="1" fill="none" fill-rule="evenodd">
        <g id="OrderTable24" fill="#000000" fill-rule="nonzero">
            <path d="M12,21.5857864 L17.2928932,16.2928932 C17.6834175,15.9023689 18.3165825,15.9023689 18.7071068,16.2928932 C19.0976311,16.6834175 19.0976311,17.3165825 18.7071068,17.7071068 L12.7071068,23.7071068 C12.3165825,24.0976311 11.6834175,24.0976311 11.2928932,23.7071068 L5.29289322,17.7071068 C4.90236893,17.3165825 4.90236893,16.6834175 5.29289322,16.2928932 C5.68341751,15.9023689 6.31658249,15.9023689 6.70710678,16.2928932 L12,21.5857864 Z M6.70710678,7.70710678 C6.31658249,8.09763107 5.68341751,8.09763107 5.29289322,7.70710678 C4.90236893,7.31658249 4.90236893,6.68341751 5.29289322,6.29289322 L11.2928932,0.292893219 C11.6834175,-0.0976310729 12.3165825,-0.0976310729 12.7071068,0.292893219 L18.7071068,6.29289322 C19.0976311,6.68341751 19.0976311,7.31658249 18.7071068,7.70710678 C18.3165825,8.09763107 17.6834175,8.09763107 17.2928932,7.70710678 L12,2.41421356 L6.70710678,7.70710678 Z"></path>
        </g>
    </g>
</svg>