<svg width="32" height="32" viewBox="0 0 32 32" fill="none" xmlns="http://www.w3.org/2000/svg">
<path d="M9.33333 7.99996V3.99996C9.33333 3.64634 9.47381 3.3072 9.72386 3.05715C9.97391 2.8071 10.313 2.66663 10.6667 2.66663H26.6667C27.0203 2.66663 27.3594 2.8071 27.6095 3.05715C27.8595 3.3072 28 3.64634 28 3.99996V22.6666C28 23.0202 27.8595 23.3594 27.6095 23.6094C27.3594 23.8595 27.0203 24 26.6667 24H22.6667V28C22.6667 28.736 22.0667 29.3333 21.324 29.3333H5.34267C5.16684 29.3343 4.99253 29.3006 4.82976 29.2341C4.667 29.1676 4.51898 29.0696 4.39421 28.9457C4.26945 28.8218 4.17039 28.6745 4.10274 28.5122C4.03509 28.3499 4.00017 28.1758 4 28L4.004 9.33329C4.004 8.59729 4.604 7.99996 5.34533 7.99996H9.33333ZM6.66933 10.6666L6.66667 26.6666H20V10.6666H6.66933ZM12 7.99996H22.6667V21.3333H25.3333V5.33329H12V7.99996ZM9.33333 14.6666H17.3333V17.3333H9.33333V14.6666ZM9.33333 20H17.3333V22.6666H9.33333V20Z" fill="currentColor"/>
</svg>
