<svg width="32" height="32" viewBox="0 0 32 32" fill="none" xmlns="http://www.w3.org/2000/svg">
<path d="M31.8665 15.35C28.6356 7.72875 22.5577 3 16 3C9.44229 3 3.3644 7.72875 0.133529 15.35C0.0454585 15.555 0 15.7763 0 16C0 16.2237 0.0454585 16.445 0.133529 16.65C3.3644 24.2712 9.44229 29 16 29C22.5577 29 28.6356 24.2712 31.8665 16.65C31.9545 16.445 32 16.2237 32 16C32 15.7763 31.9545 15.555 31.8665 15.35ZM16 25.75C10.9298 25.75 6.13144 22.0287 3.3644 16C6.13144 9.97125 10.9298 6.25 16 6.25C21.0702 6.25 25.8686 9.97125 28.6356 16C25.8686 22.0287 21.0702 25.75 16 25.75ZM16 9.5C14.7346 9.5 13.4977 9.88122 12.4456 10.5954C11.3935 11.3097 10.5735 12.3248 10.0892 13.5126C9.605 14.7003 9.4783 16.0072 9.72516 17.2681C9.97202 18.529 10.5813 19.6872 11.4761 20.5962C12.3708 21.5052 13.5108 22.1243 14.7519 22.3751C15.9929 22.6259 17.2793 22.4972 18.4483 22.0052C19.6174 21.5132 20.6166 20.6801 21.3196 19.6112C22.0225 18.5423 22.3978 17.2856 22.3978 16C22.3978 14.2761 21.7237 12.6228 20.5239 11.4038C19.3241 10.1848 17.6968 9.5 16 9.5ZM16 19.25C15.3673 19.25 14.7488 19.0594 14.2228 18.7023C13.6967 18.3452 13.2867 17.8376 13.0446 17.2437C12.8025 16.6499 12.7392 15.9964 12.8626 15.366C12.986 14.7355 13.2907 14.1564 13.738 13.7019C14.1854 13.2474 14.7554 12.9378 15.3759 12.8124C15.9965 12.687 16.6396 12.7514 17.2242 12.9974C17.8087 13.2434 18.3083 13.6599 18.6598 14.1944C19.0113 14.7289 19.1989 15.3572 19.1989 16C19.1989 16.862 18.8619 17.6886 18.262 18.2981C17.662 18.9076 16.8484 19.25 16 19.25Z" fill="currentColor"/>
</svg>
