<svg width="24" height="24" viewBox="0 0 24 24" fill="none" xmlns="http://www.w3.org/2000/svg">
<path d="M23.8999 11.5125C21.4767 5.79656 16.9183 2.25 12 2.25C7.08171 2.25 2.5233 5.79656 0.100147 11.5125C0.0340939 11.6663 0 11.8322 0 12C0 12.1678 0.0340939 12.3337 0.100147 12.4875C2.5233 18.2034 7.08171 21.75 12 21.75C16.9183 21.75 21.4767 18.2034 23.8999 12.4875C23.9659 12.3337 24 12.1678 24 12C24 11.8322 23.9659 11.6663 23.8999 11.5125ZM12 19.3125C8.19732 19.3125 4.59858 16.5216 2.5233 12C4.59858 7.47844 8.19732 4.6875 12 4.6875C15.8027 4.6875 19.4014 7.47844 21.4767 12C19.4014 16.5216 15.8027 19.3125 12 19.3125ZM12 7.125C11.051 7.125 10.1233 7.41091 9.33419 7.94659C8.54511 8.48226 7.9301 9.24363 7.56692 10.1344C7.20375 11.0252 7.10873 12.0054 7.29387 12.9511C7.47901 13.8967 7.93601 14.7654 8.60707 15.4471C9.27813 16.1289 10.1331 16.5932 11.0639 16.7813C11.9947 16.9694 12.9595 16.8729 13.8362 16.5039C14.713 16.1349 15.4624 15.5101 15.9897 14.7084C16.5169 13.9067 16.7983 12.9642 16.7983 12C16.7983 10.7071 16.2928 9.46709 15.3929 8.55285C14.4931 7.63861 13.2726 7.125 12 7.125ZM12 14.4375C11.5255 14.4375 11.0616 14.2945 10.6671 14.0267C10.2726 13.7589 9.96505 13.3782 9.78346 12.9328C9.60187 12.4874 9.55436 11.9973 9.64694 11.5245C9.73951 11.0516 9.96801 10.6173 10.3035 10.2764C10.6391 9.93554 11.0666 9.70339 11.5319 9.60934C11.9973 9.51528 12.4797 9.56355 12.9181 9.74804C13.3565 9.93253 13.7312 10.245 13.9948 10.6458C14.2585 11.0466 14.3992 11.5179 14.3992 12C14.3992 12.6465 14.1464 13.2665 13.6965 13.7236C13.2465 14.1807 12.6363 14.4375 12 14.4375Z" fill="currentColor"/>
</svg>
