<svg width="32" height="32" viewBox="0 0 32 32" fill="none" xmlns="http://www.w3.org/2000/svg">
<path d="M14.3035 6.53132C14.8644 6.44533 15.4311 6.40256 15.9986 6.40338C21.0841 6.40338 25.8658 10.0656 28.6484 15.9986C28.2228 16.9015 27.7421 17.7774 27.2091 18.6213C27.0399 18.8833 26.9509 19.189 26.9532 19.5009C26.9568 19.8499 27.0744 20.1882 27.2882 20.4641C27.502 20.74 27.8001 20.9384 28.1372 21.029C28.4742 21.1196 28.8317 21.0974 29.155 20.9659C29.4783 20.8344 29.7497 20.6007 29.9277 20.3005C30.6729 19.1298 31.3201 17.8995 31.8628 16.6223C31.9486 16.4228 31.9928 16.2078 31.9928 15.9906C31.9928 15.7734 31.9486 15.5585 31.8628 15.359C28.6324 7.85866 22.5554 3.20496 15.9986 3.20496C15.2481 3.20118 14.4987 3.26541 13.7597 3.39687C13.5497 3.43257 13.3488 3.50929 13.1684 3.62264C12.9881 3.73599 12.8318 3.88376 12.7086 4.0575C12.5853 4.23125 12.4975 4.42757 12.4501 4.63526C12.4027 4.84294 12.3967 5.05793 12.4324 5.26794C12.4681 5.47795 12.5448 5.67888 12.6582 5.85924C12.7715 6.0396 12.9193 6.19587 13.093 6.31913C13.2668 6.44238 13.4631 6.53021 13.6708 6.57759C13.8785 6.62498 14.0935 6.63099 14.3035 6.59529V6.53132ZM2.74119 0.470314C2.59208 0.321206 2.41507 0.202927 2.22025 0.122231C2.02543 0.0415339 1.81662 0 1.60575 0C1.39488 0 1.18608 0.0415339 0.991258 0.122231C0.796439 0.202927 0.619422 0.321206 0.470314 0.470314C0.169177 0.771451 0 1.17988 0 1.60575C0 2.03162 0.169177 2.44005 0.470314 2.74119L5.42786 7.68275C3.1659 9.86012 1.36564 12.4708 0.13448 15.359C0.0464222 15.5607 0.000970361 15.7785 0.000970361 15.9986C0.000970361 16.2188 0.0464222 16.4366 0.13448 16.6383C3.36488 24.1386 9.44188 28.7923 15.9986 28.7923C18.8726 28.7725 21.6787 27.9167 24.0746 26.3295L29.2561 31.527C29.4047 31.6768 29.5816 31.7958 29.7765 31.877C29.9714 31.9582 30.1804 32 30.3915 32C30.6026 32 30.8117 31.9582 31.0065 31.877C31.2014 31.7958 31.3783 31.6768 31.527 31.527C31.6768 31.3783 31.7958 31.2014 31.877 31.0065C31.9582 30.8117 32 30.6026 32 30.3915C32 30.1804 31.9582 29.9714 31.877 29.7765C31.7958 29.5816 31.6768 29.4047 31.527 29.2561L2.74119 0.470314ZM12.9122 15.167L16.8302 19.0851C16.5599 19.1626 16.2798 19.2003 15.9986 19.1971C15.1504 19.1971 14.3368 18.8601 13.737 18.2603C13.1372 17.6604 12.8002 16.8469 12.8002 15.9986C12.7969 15.7175 12.8347 15.4373 12.9122 15.167ZM15.9986 25.5939C10.9131 25.5939 6.13151 21.9317 3.36488 15.9986C4.39811 13.7178 5.86456 11.6593 7.68275 9.93763L10.5133 12.8002C9.84847 14.0137 9.59499 15.41 9.79092 16.7798C9.98685 18.1495 10.6216 19.4188 11.6001 20.3972C12.5785 21.3756 13.8477 22.0104 15.2175 22.2064C16.5872 22.4023 17.9836 22.1488 19.1971 21.4839L21.7398 23.9947C19.9984 25.0196 18.0191 25.5709 15.9986 25.5939Z" fill="currentColor"/>
</svg>
