<?xml version="1.0" encoding="UTF-8"?>
<svg width="32px" height="32px" viewBox="0 0 32 32" version="1.1" xmlns="http://www.w3.org/2000/svg" xmlns:xlink="http://www.w3.org/1999/xlink">
    <!-- Generator: Sketch 48.1 (47250) - http://www.bohemiancoding.com/sketch -->
    <title>Percent32</title>
    <desc>Created with Sketch.</desc>
    <defs></defs>
    <g id="Page-1" stroke="none" stroke-width="1" fill="none" fill-rule="evenodd">
        <g id="Percent32" fill="#000000" fill-rule="nonzero">
            <path d="M26,32 C22.6862915,32 20,29.3137085 20,26 C20,22.6862915 22.6862915,20 26,20 C29.3137085,20 32,22.6862915 32,26 C32,29.3137085 29.3137085,32 26,32 Z M26,29.8780488 C28.1417872,29.8780488 29.8780488,28.1417872 29.8780488,26 C29.8780488,23.8582128 28.1417872,22.1219512 26,22.1219512 C23.8582128,22.1219512 22.1219512,23.8582128 22.1219512,26 C22.1219512,28.1417872 23.8582128,29.8780488 26,29.8780488 Z M6,12 C2.6862915,12 0,9.3137085 0,6 C0,2.6862915 2.6862915,0 6,0 C9.3137085,0 12,2.6862915 12,6 C12,9.3137085 9.3137085,12 6,12 Z M6,9.87804878 C8.1417872,9.87804878 9.87804878,8.1417872 9.87804878,6 C9.87804878,3.8582128 8.1417872,2.12195122 6,2.12195122 C3.8582128,2.12195122 2.12195122,3.8582128 2.12195122,6 C2.12195122,8.1417872 3.8582128,9.87804878 6,9.87804878 Z M28.2844422,2.29434319 C28.6768998,1.9018856 29.3131992,1.9018856 29.7056568,2.29434319 C30.0981144,2.68680077 30.0981144,3.32310022 29.7056568,3.7155578 L3.7155578,29.7056568 C3.32310022,30.0981144 2.68680077,30.0981144 2.29434319,29.7056568 C1.9018856,29.3131992 1.9018856,28.6768998 2.29434319,28.2844422 L28.2844422,2.29434319 Z"></path>
        </g>
    </g>
</svg>