<?xml version="1.0" encoding="UTF-8"?>
<svg width="24px" height="24px" viewBox="0 0 24 24" version="1.1" xmlns="http://www.w3.org/2000/svg" xmlns:xlink="http://www.w3.org/1999/xlink">
    <!-- Generator: Sketch 48.2 (47327) - http://www.bohemiancoding.com/sketch -->
    <title>Percent24</title>
    <desc>Created with Sketch.</desc>
    <defs></defs>
    <g id="Page-1" stroke="none" stroke-width="1" fill="none" fill-rule="evenodd">
        <g id="Percent24" fill="#000000" fill-rule="nonzero">
            <path d="M5,10 C2.23857625,10 0,7.76142375 0,5 C0,2.23857625 2.23857625,0 5,0 C7.76142375,0 10,2.23857625 10,5 C10,7.76142375 7.76142375,10 5,10 Z M5,8 C6.65685425,8 8,6.65685425 8,5 C8,3.34314575 6.65685425,2 5,2 C3.34314575,2 2,3.34314575 2,5 C2,6.65685425 3.34314575,8 5,8 Z M21.2928932,1.29289322 C21.6834175,0.902368927 22.3165825,0.902368927 22.7071068,1.29289322 C23.0976311,1.68341751 23.0976311,2.31658249 22.7071068,2.70710678 L2.70710678,22.7071068 C2.31658249,23.0976311 1.68341751,23.0976311 1.29289322,22.7071068 C0.902368927,22.3165825 0.902368927,21.6834175 1.29289322,21.2928932 L21.2928932,1.29289322 Z M19,24 C16.2385763,24 14,21.7614237 14,19 C14,16.2385763 16.2385763,14 19,14 C21.7614237,14 24,16.2385763 24,19 C24,21.7614237 21.7614237,24 19,24 Z M19,22 C20.6568542,22 22,20.6568542 22,19 C22,17.3431458 20.6568542,16 19,16 C17.3431458,16 16,17.3431458 16,19 C16,20.6568542 17.3431458,22 19,22 Z"></path>
        </g>
    </g>
</svg>