<svg width="32" height="32" viewBox="0 0 32 32" fill="none" xmlns="http://www.w3.org/2000/svg">
<path d="M17.3836 22.864L17.1427 22.672C17.0532 22.6114 16.9559 22.563 16.8536 22.528L16.5645 22.4C16.304 22.3458 16.0341 22.3568 15.7789 22.4322C15.5238 22.5076 15.2915 22.645 15.1029 22.832C14.961 22.9875 14.8469 23.1661 14.7656 23.36C14.644 23.6515 14.6117 23.9724 14.6728 24.2821C14.7339 24.5919 14.8856 24.8767 15.1088 25.1008C15.332 25.3248 15.6168 25.4781 15.9272 25.5413C16.2377 25.6045 16.56 25.5748 16.8536 25.456C17.0455 25.3632 17.2238 25.2448 17.3836 25.104C17.6065 24.879 17.7575 24.5933 17.8175 24.2829C17.8775 23.9725 17.8439 23.6514 17.7209 23.36C17.6408 23.175 17.5264 23.0067 17.3836 22.864ZM22.668 0H9.81853C8.54058 0 7.31497 0.505713 6.41132 1.40589C5.50767 2.30606 5 3.52696 5 4.8V27.2C5 28.473 5.50767 29.6939 6.41132 30.5941C7.31497 31.4943 8.54058 32 9.81853 32H22.668C23.9459 32 25.1715 31.4943 26.0752 30.5941C26.9788 29.6939 27.4865 28.473 27.4865 27.2V4.8C27.4865 3.52696 26.9788 2.30606 26.0752 1.40589C25.1715 0.505713 23.9459 0 22.668 0ZM24.2741 27.2C24.2741 27.6243 24.1049 28.0313 23.8037 28.3314C23.5025 28.6314 23.0939 28.8 22.668 28.8H9.81853C9.39255 28.8 8.98401 28.6314 8.68279 28.3314C8.38158 28.0313 8.21236 27.6243 8.21236 27.2V4.8C8.21236 4.37565 8.38158 3.96869 8.68279 3.66863C8.98401 3.36857 9.39255 3.2 9.81853 3.2H22.668C23.0939 3.2 23.5025 3.36857 23.8037 3.66863C24.1049 3.96869 24.2741 4.37565 24.2741 4.8V27.2Z" fill="currentColor"/>
</svg>
