<svg width="24" height="24" viewBox="0 0 24 24" fill="none" xmlns="http://www.w3.org/2000/svg">
<path d="M13.0377 17.148L12.857 17.004C12.7899 16.9586 12.717 16.9223 12.6402 16.896L12.4234 16.8C12.228 16.7593 12.0255 16.7676 11.8342 16.8242C11.6429 16.8807 11.4686 16.9838 11.3271 17.124C11.2207 17.2406 11.1352 17.3746 11.0742 17.52C10.983 17.7386 10.9588 17.9793 11.0046 18.2116C11.0504 18.4439 11.1642 18.6575 11.3316 18.8256C11.499 18.9936 11.7126 19.1086 11.9454 19.156C12.1783 19.2034 12.42 19.1811 12.6402 19.092C12.7841 19.0224 12.9179 18.9336 13.0377 18.828C13.2049 18.6593 13.3181 18.445 13.3631 18.2122C13.4081 17.9794 13.3829 17.7385 13.2907 17.52C13.2306 17.3812 13.1448 17.255 13.0377 17.148ZM17.001 0H7.3639C6.40543 0 5.48622 0.379285 4.80849 1.05442C4.13075 1.72955 3.75 2.64522 3.75 3.6V20.4C3.75 21.3548 4.13075 22.2705 4.80849 22.9456C5.48622 23.6207 6.40543 24 7.3639 24H17.001C17.9594 24 18.8786 23.6207 19.5564 22.9456C20.2341 22.2705 20.6149 21.3548 20.6149 20.4V3.6C20.6149 2.64522 20.2341 1.72955 19.5564 1.05442C18.8786 0.379285 17.9594 0 17.001 0ZM18.2056 20.4C18.2056 20.7183 18.0787 21.0235 17.8528 21.2485C17.6269 21.4736 17.3205 21.6 17.001 21.6H7.3639C7.04441 21.6 6.73801 21.4736 6.5121 21.2485C6.28618 21.0235 6.15927 20.7183 6.15927 20.4V3.6C6.15927 3.28174 6.28618 2.97652 6.5121 2.75147C6.73801 2.52643 7.04441 2.4 7.3639 2.4H17.001C17.3205 2.4 17.6269 2.52643 17.8528 2.75147C18.0787 2.97652 18.2056 3.28174 18.2056 3.6V20.4Z" fill="currentColor"/>
</svg>
