<?xml version="1.0" encoding="UTF-8"?>
<svg width="24px" height="24px" viewBox="0 0 24 24" version="1.1" xmlns="http://www.w3.org/2000/svg" xmlns:xlink="http://www.w3.org/1999/xlink">
    <!-- Generator: Sketch 48.1 (47250) - http://www.bohemiancoding.com/sketch -->
    <title>Phone24</title>
    <desc>Created with Sketch.</desc>
    <defs></defs>
    <g id="Page-1" stroke="none" stroke-width="1" fill="none" fill-rule="evenodd">
        <g id="Phone24" fill="#000000" fill-rule="nonzero">
            <path d="M21.9993092,17.4712204 C22.0148498,16.8337148 21.5670566,16.3062615 20.966223,16.2216256 C19.8296025,16.0720138 18.7135798,15.7945518 17.6371858,15.3936861 C17.1936105,15.2272769 16.6935053,15.3337232 16.3608582,15.6619947 L14.9560438,17.0640263 C14.6378997,17.3815402 14.1470025,17.4477758 13.7560844,17.225934 C10.8302743,15.5655679 8.4076467,13.1477393 6.74384716,10.2274827 C6.52066179,9.83575364 6.58720148,9.34312085 6.9063146,9.02463985 L8.30717951,7.626572 C8.63933741,7.29134133 8.74553144,6.79439568 8.57863346,6.35126974 C8.17768736,5.27891276 7.89957843,4.16471552 7.75087631,3.03914693 C7.66588447,2.43902021 7.14748362,1.9940786 6.52868999,2.00010854 L3.21117064,2.0001081 C2.87044355,2.00042833 2.54568253,2.14359335 2.31628869,2.39439132 C2.08729407,2.64475284 1.97437761,2.97934631 2.00337287,3.3009387 C2.34981365,6.55683554 3.4598732,9.68554951 5.24840796,12.4410162 C6.86786125,14.9845156 9.02865218,17.1410263 11.5851363,18.7623553 C14.3266872,20.5367193 17.4471289,21.6445733 20.6777269,21.995073 C21.0181668,22.0257793 21.3557114,21.9118508 21.6073056,21.6814877 C21.8584612,21.4515262 22.000699,21.126858 21.9993092,20.7831061 L21.9993092,17.4712204 Z M23.9993009,20.7790391 C24.0029763,21.6827358 23.624796,22.5459599 22.9579107,23.1565693 C22.291464,23.7667772 21.398427,24.0681961 20.4800847,23.9852014 C16.9210286,23.5992469 13.502259,22.3854773 10.5062305,20.4463615 C7.70962497,18.6728022 5.33852452,16.3063986 3.56608869,13.5225545 C1.61103307,10.5106183 0.394332689,7.08133608 0.0130604659,3.49692315 C-0.0681860136,2.59963343 0.232153663,1.70966838 0.840503131,1.04455542 C1.44845339,0.379878916 2.30801659,0.000956053971 3.21023078,0.000108540369 L6.51886783,0.000156778914 C8.13075097,-0.0156761537 9.50528065,1.16407778 9.73237684,2.76791047 C9.86254271,3.75288416 10.1039418,4.72000937 10.4511254,5.64858346 C10.8928731,6.82143279 10.6103208,8.14366455 9.72393979,9.03822316 L8.8722776,9.88819831 C10.2013699,11.9919935 11.9857427,13.7724381 14.0942043,15.0985402 L14.952019,14.2424382 C15.8436589,13.3624677 17.1663418,13.0809378 18.3374325,13.5202804 C19.2704577,13.8677507 20.2398885,14.1087675 21.2361469,14.2399445 C22.8465245,14.4666794 24.0328942,15.8594612 23.9993092,17.4825135 L23.9993009,20.7790391 Z"></path>
        </g>
    </g>
</svg>