<?xml version="1.0" encoding="UTF-8"?>
<svg width="32px" height="32px" viewBox="0 0 32 32" version="1.1" xmlns="http://www.w3.org/2000/svg" xmlns:xlink="http://www.w3.org/1999/xlink">
    <!-- Generator: Sketch 48.1 (47250) - http://www.bohemiancoding.com/sketch -->
    <title>Phone32</title>
    <desc>Created with Sketch.</desc>
    <defs></defs>
    <g id="Page-1" stroke="none" stroke-width="1" fill="none" fill-rule="evenodd">
        <g id="Phone32" fill="#000000" fill-rule="nonzero">
            <path d="M29.999058,23.4607551 C30.024731,22.4157039 29.2794319,21.5378201 28.2741234,21.3962357 C26.7513281,21.1957923 25.2561321,20.8240613 23.8147989,20.2872876 C23.0772382,20.0105887 22.2457169,20.1875761 21.6897502,20.7362446 L19.7740942,22.6481059 C19.45595,22.9656198 18.9650528,23.0318554 18.5741347,22.8100135 C14.6413046,20.5781744 11.3848795,17.3281998 9.14847261,13.4029181 C8.92528724,13.011189 8.99182693,12.5185562 9.31094006,12.2000752 L11.2226466,10.2921777 C11.7756389,9.73406967 11.9525141,8.90636449 11.6751074,8.16983557 C11.1379836,6.73326224 10.7654186,5.24064274 10.565784,3.7296644 C10.4242781,2.73049257 9.56170809,1.99015177 8.53912271,2.00014801 L4.01489092,2.00014757 C3.4483454,2.00068004 2.9082527,2.23877012 2.52661448,2.65601801 C2.14537547,3.07282943 1.95732154,3.6300699 2.00664056,4.17611889 C2.48511298,8.67286674 4.01821979,12.9939437 6.48654472,16.7966873 C8.72356776,20.3101364 11.7083389,23.2889951 15.236698,25.5266705 C19.0228593,27.9771187 23.3322484,29.5070861 27.800598,29.9918111 C28.3666384,30.0428657 28.9279251,29.8534196 29.3464358,29.4702254 C29.764508,29.0874327 30.0013673,28.5467841 29.999058,27.9769629 L29.999058,23.4607551 Z M31.9990498,27.9728959 C32.0036446,29.1026619 31.5308428,30.1818664 30.697041,30.945307 C29.8636777,31.7083459 28.7468986,32.0852826 27.6029558,31.9819396 C22.8061482,31.4617597 18.1984311,29.8258767 14.1577921,27.2106767 C10.3893117,24.820771 7.19423102,21.6320193 4.80422546,17.8782255 C2.16937966,13.8190124 0.529632023,9.19736728 0.0163281618,4.37210334 C-0.0852420862,3.25035702 0.290235068,2.13774497 1.05082892,1.3061821 C1.81102355,0.475055691 2.88591843,0.00120776097 4.01395106,0.000148009594 L8.52930056,0.000196248139 C10.5449754,-0.0196029817 12.2636743,1.45555014 12.5472845,3.45842794 C12.7283829,4.82881138 13.064238,6.17435884 13.5475993,7.46714929 C14.0998557,8.93340161 13.7466223,10.5863929 12.6394068,11.7038289 L11.273402,13.0671278 C13.1805862,16.1721252 15.7971031,18.7830464 18.9087866,20.6860786 L20.2809109,19.3166881 C21.3958706,18.2163206 23.0499694,17.8642495 24.5150456,18.413882 C25.81301,18.8972602 27.1616141,19.232546 28.5440473,19.4145545 C30.5589859,19.6982501 32.0429036,21.4415983 31.999058,23.4723102 L31.9990498,27.9728959 Z"></path>
        </g>
    </g>
</svg>