<svg width="32" height="32" viewBox="0 0 32 32" fill="none" xmlns="http://www.w3.org/2000/svg">
<path d="M26.5 14.5H17.5V5.5C17.5 5.10218 17.342 4.72064 17.0607 4.43934C16.7794 4.15804 16.3978 4 16 4C15.6022 4 15.2206 4.15804 14.9393 4.43934C14.658 4.72064 14.5 5.10218 14.5 5.5V14.5H5.5C5.10218 14.5 4.72064 14.658 4.43934 14.9393C4.15804 15.2206 4 15.6022 4 16C4 16.3978 4.15804 16.7794 4.43934 17.0607C4.72064 17.342 5.10218 17.5 5.5 17.5H14.5V26.5C14.5 26.8978 14.658 27.2794 14.9393 27.5607C15.2206 27.842 15.6022 28 16 28C16.3978 28 16.7794 27.842 17.0607 27.5607C17.342 27.2794 17.5 26.8978 17.5 26.5V17.5H26.5C26.8978 17.5 27.2794 17.342 27.5607 17.0607C27.842 16.7794 28 16.3978 28 16C28 15.6022 27.842 15.2206 27.5607 14.9393C27.2794 14.658 26.8978 14.5 26.5 14.5Z" fill="currentColor"/>
</svg>
