<?xml version="1.0" encoding="UTF-8"?>
<svg width="24px" height="24px" viewBox="0 0 24 24" version="1.1" xmlns="http://www.w3.org/2000/svg" xmlns:xlink="http://www.w3.org/1999/xlink">
    <!-- Generator: Sketch 48.1 (47250) - http://www.bohemiancoding.com/sketch -->
    <title>Power24</title>
    <desc>Created with Sketch.</desc>
    <defs></defs>
    <g id="Page-1" stroke="none" stroke-width="1" fill="none" fill-rule="evenodd">
        <g id="Power24" fill="#000000" fill-rule="nonzero">
            <path d="M18.3664523,5.79835905 C17.9751911,5.38805802 17.9739952,4.72156975 18.3637811,4.30971585 C18.7535671,3.89786195 19.386731,3.8966031 19.7779922,4.30690413 C24.0746641,8.81266364 24.0739055,16.1184237 19.7762987,20.6232019 C15.4809631,25.1255994 8.51903692,25.1255994 4.22370132,20.6232019 C-0.0739054895,16.1184237 -0.074664051,8.81266364 4.22200783,4.30690413 C4.61326903,3.8966031 5.24643288,3.89786195 5.63621886,4.30971585 C6.02600485,4.72156975 6.02480894,5.38805802 5.63354773,5.79835905 C2.12161015,9.48119698 2.12222983,15.4493865 5.63493275,19.1314236 C9.14990687,22.8158413 14.8500931,22.8158413 18.3650673,19.1314236 C21.8777702,15.4493865 21.8783898,9.48119698 18.3664523,5.79835905 Z M11,1 C11,0.44771525 11.4477153,0 12,0 C12.5522847,0 13,0.44771525 13,1 L13,11 C13,11.5522847 12.5522847,12 12,12 C11.4477153,12 11,11.5522847 11,11 L11,1 Z"></path>
        </g>
    </g>
</svg>