<?xml version="1.0" encoding="UTF-8"?>
<svg width="32px" height="32px" viewBox="0 0 32 32" version="1.1" xmlns="http://www.w3.org/2000/svg" xmlns:xlink="http://www.w3.org/1999/xlink">
    <!-- Generator: Sketch 48.2 (47327) - http://www.bohemiancoding.com/sketch -->
    <title>Power32</title>
    <desc>Created with Sketch.</desc>
    <defs></defs>
    <g id="Page-1" stroke="none" stroke-width="1" fill="none" fill-rule="evenodd">
        <g id="Power32" fill="#000000" fill-rule="nonzero">
            <path d="M25.2075517,7.78921651 C24.8096861,7.39085255 24.7976694,6.7324796 25.1807117,6.31869938 C25.563754,5.90491915 26.1968049,5.89242179 26.5946705,6.29078575 C32.4693477,12.1728211 32.4683089,21.7248621 26.5923588,27.605611 C20.7379547,33.4647963 11.2620453,33.4647963 5.40764117,27.605611 C-0.468308944,21.7248621 -0.469347701,12.1728211 5.40532948,6.29078575 C5.8031951,5.89242179 6.43624604,5.90491915 6.81928833,6.31869938 C7.20233061,6.7324796 7.19031392,7.39085255 6.7924483,7.78921651 C1.73507224,12.852927 1.73596302,21.0442518 6.79444653,26.1068664 C11.874476,31.1910446 20.125524,31.1910446 25.2055535,26.1068664 C30.264037,21.0442518 30.2649278,12.852927 25.2075517,7.78921651 Z M15,1 C15,0.44771525 15.4477153,0 16,0 C16.5522847,0 17,0.44771525 17,1 L17,15 C17,15.5522847 16.5522847,16 16,16 C15.4477153,16 15,15.5522847 15,15 L15,1 Z"></path>
        </g>
    </g>
</svg>