<?xml version="1.0" encoding="UTF-8"?>
<svg width="24px" height="24px" viewBox="0 0 24 24" version="1.1" xmlns="http://www.w3.org/2000/svg" xmlns:xlink="http://www.w3.org/1999/xlink">
    <!-- Generator: Sketch 48.2 (47327) - http://www.bohemiancoding.com/sketch -->
    <title>Print24</title>
    <desc>Created with Sketch.</desc>
    <defs></defs>
    <g id="Page-1" stroke="none" stroke-width="1" fill="none" fill-rule="evenodd">
        <g id="Print24" fill="#000000" fill-rule="nonzero">
            <path d="M6,16 L6,22 L18,22 L18,16 L6,16 Z M4,6 L4,0.888888889 C4,0.397969111 4.44771525,0 5,0 L19,0 C19.5522847,0 20,0.397969111 20,0.888888889 L20,6 L20.8,6 C22.5471689,6 24,7.44082418 24,9.27272727 L24,14.7272727 C24,16.5591758 22.5471689,18 20.8,18 L20,18 L20,23 C20,23.5522847 19.5522847,24 19,24 L5,24 C4.44771525,24 4,23.5522847 4,23 L4,18 L3.2,18 C1.45283105,18 0,16.5591758 0,14.7272727 L0,9.27272727 C-3.37567877e-16,7.44082418 1.45283105,6 3.2,6 L4,6 Z M6,6 L18,6 L18,1.77777778 L6,1.77777778 L6,6 Z M20,16 L21,16 C21.6828839,16 22,15.3053395 22,14.7272727 L22,9.27272727 C22,8.69466055 21.6828839,8 21,8 L3,8 C2.31711605,8 2,8.69466055 2,9.27272727 L2,14.7272727 C2,15.3053395 2.31711605,16 3,16 L4,16 L4,15 C4,14.4477153 4.44771525,14 5,14 L19,14 C19.5522847,14 20,14.4477153 20,15 L20,16 Z"></path>
        </g>
    </g>
</svg>