<?xml version="1.0" encoding="UTF-8"?>
<svg width="32px" height="32px" viewBox="0 0 32 32" version="1.1" xmlns="http://www.w3.org/2000/svg" xmlns:xlink="http://www.w3.org/1999/xlink">
    <!-- Generator: Sketch 48.1 (47250) - http://www.bohemiancoding.com/sketch -->
    <title>Print32</title>
    <desc>Created with Sketch.</desc>
    <defs></defs>
    <g id="Page-1" stroke="none" stroke-width="1" fill="none" fill-rule="evenodd">
        <g id="Print32" fill="#000000" fill-rule="nonzero">
            <path d="M8,20 L8,30 L24,30 L24,20 L8,20 Z M6,10 L6,0.923076923 C6,0.413275616 6.44771525,0 7,0 L25,0 C25.5522847,0 26,0.413275616 26,0.923076923 L26,10 L28,10 C30.2008712,10 32,11.8479941 32,14.1481481 L32,21.8518519 C32,24.1520059 30.2008712,26 28,26 L26,26 L26,31 C26,31.5522847 25.5522847,32 25,32 L7,32 C6.44771525,32 6,31.5522847 6,31 L6,26 L4,26 C1.79912885,26 0,24.1520059 0,21.8518519 L0,14.1481481 C-4.50158856e-16,11.8479941 1.79912885,10 4,10 L6,10 Z M8,10 L24,10 L24,1.84615385 L8,1.84615385 L8,10 Z M26,23.8666667 L28,23.8666667 C29.1128373,23.8666667 30,22.9554082 30,21.8518519 L30,14.1481481 C30,13.0445918 29.1128373,12.1333333 28,12.1333333 L4,12.1333333 C2.88716265,12.1333333 2,13.0445918 2,14.1481481 L2,21.8518519 C2,22.9554082 2.88716265,23.8666667 4,23.8666667 L6,23.8666667 L6,19 C6,18.4477153 6.44771525,18 7,18 L25,18 C25.5522847,18 26,18.4477153 26,19 L26,23.8666667 Z"></path>
        </g>
    </g>
</svg>