<svg width="32" height="32" viewBox="0 0 32 32" fill="none" xmlns="http://www.w3.org/2000/svg">
<path d="M8 20C7.78987 20 7.58179 20.0413 7.38765 20.1217C7.1935 20.2021 7.0171 20.3199 6.86851 20.4685C6.71993 20.6171 6.60207 20.7935 6.52169 20.9876C6.4413 21.1818 6.39995 21.3899 6.40001 21.6V24.4517C4.33768 22.1194 3.19953 19.1133 3.20001 16C3.19971 15.5295 3.22789 15.0593 3.28437 14.5922C3.31028 14.3833 3.2947 14.1714 3.23855 13.9685C3.18239 13.7656 3.08675 13.5758 2.9571 13.41C2.82746 13.2442 2.66637 13.1055 2.48306 13.0021C2.29975 12.8986 2.09782 12.8323 1.88885 12.807C1.67988 12.7818 1.46797 12.798 1.26527 12.8547C1.06257 12.9115 0.873065 13.0077 0.707612 13.1378C0.542159 13.2679 0.404012 13.4294 0.301087 13.613C0.198163 13.7967 0.132485 13.9988 0.107817 14.2078C0.0353421 14.8025 -0.000660906 15.401 9.18301e-06 16C0.00218314 19.8179 1.37434 23.5082 3.867 26.4H1.60001C1.17566 26.4 0.768696 26.5686 0.468638 26.8686C0.16858 27.1687 9.18301e-06 27.5757 9.18301e-06 28C9.18301e-06 28.4243 0.16858 28.8313 0.468638 29.1314C0.768696 29.4314 1.17566 29.6 1.60001 29.6H8C8.25024 29.5969 8.49611 29.534 8.71712 29.4166C8.93813 29.2992 9.1279 29.1307 9.27061 28.9251C9.28927 28.9005 9.31309 28.8822 9.33047 28.8563C9.34112 28.8404 9.34141 28.8215 9.35136 28.8053C9.42762 28.6765 9.48475 28.5373 9.52096 28.392C9.54465 28.3105 9.56147 28.227 9.57125 28.1426C9.57584 28.0932 9.60005 28.0506 9.60005 28V21.6001C9.60011 21.3899 9.55877 21.1818 9.47838 20.9877C9.39799 20.7935 9.28014 20.6171 9.13154 20.4685C8.98295 20.3199 8.80654 20.2021 8.61239 20.1217C8.41823 20.0413 8.21014 19.9999 8 20ZM10.4 6.40002H7.54805C9.88053 4.33779 12.8866 3.19966 16 3.20002C16.4703 3.19889 16.9402 3.22707 17.407 3.2844C17.6157 3.30974 17.8273 3.29373 18.0298 3.23729C18.2323 3.18084 18.4217 3.08507 18.5872 2.95543C18.7527 2.82579 18.891 2.66482 18.9942 2.48173C19.0975 2.29863 19.1637 2.09699 19.1891 1.88831C19.2144 1.67963 19.1984 1.468 19.1419 1.26551C19.0855 1.06302 18.9897 0.873628 18.8601 0.708151C18.7304 0.542674 18.5695 0.404352 18.3864 0.301082C18.2033 0.197812 18.0016 0.131617 17.793 0.106276C17.198 0.034502 16.5993 -0.000982065 16 2.06684e-05C12.1822 0.00209605 8.49186 1.37415 5.60001 3.86672V1.60002C5.60001 1.17567 5.43144 0.768707 5.13138 0.468649C4.83132 0.168591 4.42435 2.06684e-05 4.00001 2.06684e-05C3.57566 2.06684e-05 3.16869 0.168591 2.86864 0.468649C2.56858 0.768707 2.40001 1.17567 2.40001 1.60002V8.00002C2.41007 8.10577 2.43115 8.21018 2.4629 8.31155L2.46329 8.3135C2.50214 8.51039 2.57885 8.69786 2.68916 8.8655L2.70743 8.89254C2.81315 9.04631 2.94566 9.17982 3.09863 9.28669C3.11612 9.29949 3.12481 9.3191 3.14297 9.33131C3.16583 9.34645 3.1917 9.35125 3.21505 9.3651C3.30579 9.41969 3.40194 9.46473 3.50196 9.4995C3.63713 9.54653 3.77807 9.57497 3.9209 9.58406C3.94863 9.58554 3.97198 9.60006 4.00001 9.60006H10.4C10.8243 9.60006 11.2313 9.43149 11.5314 9.13143C11.8314 8.83138 12 8.42441 12 8.00006C12 7.57572 11.8314 7.16875 11.5314 6.86869C11.2313 6.56864 10.8243 6.40006 10.4 6.40006V6.40002ZM29.5367 23.6865C29.4979 23.4896 29.4211 23.3021 29.3107 23.1344L29.2927 23.1075C29.1869 22.9537 29.0543 22.8201 28.9012 22.7132C28.8837 22.7005 28.8751 22.6808 28.857 22.6687C28.8397 22.6573 28.8192 22.6569 28.8017 22.6461C28.5987 22.5333 28.3763 22.4598 28.1461 22.4294C28.0955 22.4246 28.0518 22.3999 28 22.3999H21.6C21.1756 22.3999 20.7687 22.5685 20.4686 22.8686C20.1686 23.1686 20 23.5756 20 23.9999C20 24.4243 20.1686 24.8312 20.4686 25.1313C20.7687 25.4314 21.1756 25.5999 21.6 25.5999H24.4519C22.1194 27.6622 19.1134 28.8003 16 28.7999C15.5297 28.8005 15.0597 28.7718 14.593 28.714C14.1715 28.6628 13.747 28.7811 13.4128 29.043C13.0786 29.3048 12.8621 29.6886 12.8109 30.1101C12.7598 30.5315 12.8781 30.956 13.1399 31.2902C13.4017 31.6244 13.7856 31.8409 14.207 31.8921C14.802 31.9639 15.4007 31.9999 16 31.9999C19.8178 31.9978 23.5081 30.6258 26.4 28.1332V30.4C26.4 30.8243 26.5686 31.2313 26.8686 31.5314C27.1687 31.8314 27.5756 32 28 32C28.4243 32 28.8313 31.8314 29.1314 31.5314C29.4314 31.2313 29.6 30.8243 29.6 30.4V24C29.5899 23.8943 29.5689 23.7899 29.5371 23.6885L29.5367 23.6865ZM30.4 5.60002C30.8243 5.60002 31.2313 5.43145 31.5314 5.13139C31.8314 4.83133 32 4.42436 32 4.00002C32 3.57567 31.8314 3.16871 31.5314 2.86865C31.2313 2.56859 30.8243 2.40002 30.4 2.40002H24C23.8958 2.41006 23.793 2.43081 23.6931 2.46194L23.6824 2.46408C23.4881 2.50295 23.3031 2.57874 23.1373 2.68733L23.1059 2.70851C22.9529 2.81408 22.82 2.94618 22.7135 3.09856C22.7009 3.11584 22.6815 3.12434 22.6695 3.14221C22.6581 3.15939 22.6577 3.17971 22.647 3.19719C22.5328 3.40133 22.4587 3.62545 22.4288 3.85744C22.4242 3.90687 22.4 3.94944 22.4 4.00002V10.4C22.4 10.8244 22.5686 11.2313 22.8686 11.5314C23.1687 11.8314 23.5756 12 24 12C24.4243 12 24.8313 11.8314 25.1314 11.5314C25.4314 11.2313 25.6 10.8244 25.6 10.4V7.54741C27.6621 9.88016 28.8003 12.8864 28.8 15.9999C28.8003 16.4705 28.7721 16.9406 28.7156 17.4078C28.6649 17.8289 28.7833 18.253 29.0449 18.5869C29.3065 18.9209 29.6899 19.1374 30.1109 19.189C30.1758 19.1965 30.241 19.2002 30.3062 19.1999C30.6969 19.1994 31.0739 19.056 31.366 18.7966C31.6582 18.5373 31.8454 18.18 31.8922 17.7921C31.9647 17.1975 32.0007 16.599 32 16C31.9978 12.1821 30.6256 8.4918 28.1328 5.60002H30.4Z" fill="currentColor"/>
</svg>
