<svg width="24" height="24" viewBox="0 0 24 24" fill="none" xmlns="http://www.w3.org/2000/svg">
<path d="M6 15C5.84241 15 5.68634 15.031 5.54074 15.0913C5.39513 15.1516 5.26282 15.2399 5.15138 15.3514C5.03995 15.4628 4.95156 15.5951 4.89126 15.7407C4.83097 15.8863 4.79996 16.0424 4.8 16.2V18.3388C3.25326 16.5895 2.39965 14.335 2.40001 12C2.39978 11.6471 2.42091 11.2945 2.46328 10.9442C2.48271 10.7875 2.47103 10.6285 2.42891 10.4764C2.38679 10.3242 2.31506 10.1819 2.21783 10.0575C2.1206 9.93312 1.99978 9.82915 1.8623 9.75155C1.72481 9.67395 1.57337 9.62424 1.41664 9.60528C1.25991 9.58631 1.10098 9.59846 0.948953 9.64103C0.796928 9.6836 0.654799 9.75575 0.530709 9.85335C0.406619 9.95095 0.303009 10.0721 0.225815 10.2098C0.148622 10.3475 0.0993636 10.4991 0.0808626 10.6559C0.0265066 11.1019 -0.000495679 11.5507 6.88726e-06 12C0.00163735 14.8634 1.03075 17.6311 2.90025 19.8H1.20001C0.881746 19.8 0.576522 19.9264 0.351478 20.1515C0.126435 20.3765 6.88726e-06 20.6817 6.88726e-06 21C6.88726e-06 21.3183 0.126435 21.6235 0.351478 21.8485C0.576522 22.0736 0.881746 22.2 1.20001 22.2H6C6.18768 22.1976 6.37208 22.1505 6.53784 22.0624C6.7036 21.9744 6.84592 21.848 6.95296 21.6938C6.96695 21.6754 6.98482 21.6617 6.99785 21.6422C7.00584 21.6303 7.00606 21.6162 7.01352 21.604C7.07071 21.5074 7.11356 21.403 7.14072 21.294C7.15849 21.2328 7.1711 21.1703 7.17844 21.107C7.18188 21.0699 7.20004 21.038 7.20004 21V16.2C7.20008 16.0424 7.16908 15.8864 7.10878 15.7408C7.04849 15.5951 6.9601 15.4628 6.84866 15.3514C6.73722 15.2399 6.60491 15.1516 6.45929 15.0913C6.31368 15.031 6.15761 15 6 15ZM7.8 4.80001H5.66104C7.4104 3.25334 9.66495 2.39974 12 2.40001C12.3527 2.39917 12.7052 2.4203 13.0553 2.4633C13.2118 2.48231 13.3705 2.4703 13.5224 2.42797C13.6742 2.38563 13.8163 2.3138 13.9404 2.21657C14.0645 2.11934 14.1682 1.99862 14.2457 1.86129C14.3231 1.72397 14.3728 1.57274 14.3918 1.41623C14.4108 1.25972 14.3988 1.101 14.3565 0.949133C14.3141 0.797264 14.2423 0.655221 14.1451 0.531113C14.0478 0.407006 13.9271 0.303264 13.7898 0.225812C13.6525 0.148359 13.5012 0.0987129 13.3447 0.0797072C12.8985 0.0258765 12.4494 -0.000736549 12 1.55013e-05C9.13663 0.00157204 6.3689 1.03061 4.2 2.90004V1.20001C4.2 0.881755 4.07358 0.576531 3.84853 0.351487C3.62349 0.126444 3.31827 1.55013e-05 3.00001 1.55013e-05C2.68175 1.55013e-05 2.37652 0.126444 2.15148 0.351487C1.92643 0.576531 1.80001 0.881755 1.80001 1.20001V6.00001C1.80755 6.07933 1.82336 6.15763 1.84718 6.23366L1.84747 6.23513C1.87661 6.38279 1.93414 6.52339 2.01687 6.64913L2.03057 6.66941C2.10986 6.78473 2.20925 6.88486 2.32397 6.96501C2.33709 6.97462 2.34361 6.98933 2.35723 6.99848C2.37437 7.00984 2.39378 7.01343 2.41129 7.02383C2.47934 7.06477 2.55145 7.09855 2.62647 7.12463C2.72785 7.1599 2.83355 7.18123 2.94068 7.18805C2.96147 7.18915 2.97898 7.20005 3.00001 7.20005H7.8C8.11826 7.20005 8.42349 7.07362 8.64853 6.84858C8.87357 6.62353 9 6.31831 9 6.00005C9 5.68179 8.87357 5.37656 8.64853 5.15152C8.42349 4.92648 8.11826 4.80005 7.8 4.80005V4.80001ZM22.1525 17.7649C22.1234 17.6172 22.0659 17.4765 21.983 17.3508L21.9695 17.3307C21.8901 17.2153 21.7907 17.1151 21.6759 17.0349C21.6628 17.0254 21.6563 17.0106 21.6428 17.0015C21.6298 16.9929 21.6144 16.9927 21.6012 16.9846C21.449 16.9 21.2822 16.8448 21.1096 16.8221C21.0716 16.8185 21.0389 16.7999 21 16.7999H16.2C15.8817 16.7999 15.5765 16.9264 15.3515 17.1514C15.1264 17.3765 15 17.6817 15 17.9999C15 18.3182 15.1264 18.6234 15.3515 18.8485C15.5765 19.0735 15.8817 19.1999 16.2 19.1999H18.3389C16.5896 20.7466 14.335 21.6002 12 21.5999C11.6472 21.6004 11.2948 21.5789 10.9447 21.5355C10.6286 21.4971 10.3102 21.5859 10.0596 21.7822C9.80896 21.9786 9.64658 22.2665 9.6082 22.5826C9.56981 22.8986 9.65857 23.217 9.85493 23.4677C10.0513 23.7183 10.3392 23.8807 10.6553 23.9191C11.1015 23.9729 11.5505 23.9999 12 23.9999C14.8634 23.9984 17.6311 22.9693 19.8 21.0999V22.8C19.8 23.1183 19.9264 23.4235 20.1515 23.6485C20.3765 23.8736 20.6817 24 21 24C21.3183 24 21.6235 23.8736 21.8485 23.6485C22.0736 23.4235 22.2 23.1183 22.2 22.8V18C22.1924 17.9207 22.1766 17.8424 22.1528 17.7664L22.1525 17.7649ZM22.8 4.20001C23.1183 4.20001 23.4235 4.07358 23.6485 3.84854C23.8736 3.6235 24 3.31827 24 3.00001C24 2.68175 23.8736 2.37653 23.6485 2.15149C23.4235 1.92644 23.1183 1.80001 22.8 1.80001H18C17.9219 1.80754 17.8447 1.82311 17.7698 1.84645L17.7618 1.84806C17.6161 1.87722 17.4773 1.93406 17.353 2.0155L17.3295 2.03139C17.2147 2.11056 17.115 2.20963 17.0351 2.32392C17.0257 2.33688 17.0111 2.34325 17.0021 2.35666C16.9936 2.36955 16.9933 2.38479 16.9852 2.39789C16.8996 2.551 16.844 2.71909 16.8216 2.89308C16.8182 2.93015 16.8 2.96208 16.8 3.00001V7.80001C16.8 8.11827 16.9264 8.42349 17.1515 8.64854C17.3765 8.87358 17.6817 9.00001 18 9.00001C18.3183 9.00001 18.6235 8.87358 18.8485 8.64854C19.0736 8.42349 19.2 8.11827 19.2 7.80001V5.66056C20.7466 7.41012 21.6002 9.66478 21.6 11.9999C21.6002 12.3529 21.5791 12.7055 21.5367 13.0558C21.4987 13.3717 21.5875 13.6897 21.7837 13.9402C21.9799 14.1906 22.2674 14.353 22.5832 14.3917C22.6318 14.3974 22.6807 14.4001 22.7297 14.3999C23.0227 14.3996 23.3054 14.292 23.5245 14.0975C23.7437 13.903 23.884 13.635 23.9191 13.3441C23.9735 12.8981 24.0005 12.4493 24 12C23.9983 9.13659 22.9692 6.36885 21.0996 4.20001H22.8Z" fill="currentColor"/>
</svg>
