<svg width="32" height="32" viewBox="0 0 32 32" fill="none" xmlns="http://www.w3.org/2000/svg">
<path d="M21.9415 17.1349C23.5178 15.9015 24.6684 14.2101 25.2332 12.296C25.798 10.3819 25.7488 8.34041 25.0926 6.45542C24.4364 4.57043 23.2057 2.93573 21.5718 1.77874C19.9378 0.621745 17.9819 0 15.9762 0C13.9704 0 12.0145 0.621745 10.3805 1.77874C8.74662 2.93573 7.51593 4.57043 6.8597 6.45542C6.20346 8.34041 6.15431 10.3819 6.71908 12.296C7.28386 14.2101 8.43447 15.9015 10.0108 17.1349C7.30969 18.2112 4.95285 19.9962 3.19156 22.2998C1.43028 24.6034 0.330576 27.3391 0.0096986 30.2154C-0.0135282 30.4254 0.00506228 30.6379 0.0644081 30.8407C0.123754 31.0435 0.222693 31.2328 0.355577 31.3976C0.623947 31.7305 1.01429 31.9437 1.44073 31.9903C1.86717 32.037 2.29478 31.9133 2.62949 31.6464C2.9642 31.3795 3.17859 30.9913 3.2255 30.5672C3.57857 27.4413 5.0773 24.5543 7.43534 22.4579C9.79337 20.3615 12.8454 19.2026 16.0083 19.2026C19.1712 19.2026 22.2232 20.3615 24.5813 22.4579C26.9393 24.5543 28.438 27.4413 28.7911 30.5672C28.8348 30.9601 29.0234 31.323 29.3203 31.5858C29.6172 31.8486 30.0015 31.9927 30.399 31.9903H30.5759C30.9974 31.9421 31.3826 31.7302 31.6477 31.4007C31.9127 31.0712 32.036 30.6509 31.9908 30.2314C31.6684 27.347 30.5628 24.6042 28.7925 22.2971C27.0221 19.9899 24.6539 18.2055 21.9415 17.1349ZM15.9762 15.9996C14.7041 15.9996 13.4606 15.6244 12.4029 14.9216C11.3453 14.2188 10.5209 13.2198 10.0341 12.051C9.54733 10.8822 9.41997 9.59616 9.66813 8.3554C9.9163 7.11463 10.5288 5.97492 11.4283 5.08038C12.3278 4.18584 13.4738 3.57665 14.7214 3.32985C15.969 3.08304 17.2622 3.20971 18.4374 3.69383C19.6126 4.17796 20.6171 4.99779 21.3238 6.04966C22.0305 7.10152 22.4078 8.33819 22.4078 9.60326C22.4078 11.2997 21.7301 12.9266 20.524 14.1261C19.3178 15.3257 17.6819 15.9996 15.9762 15.9996Z" fill="currentColor"/>
</svg>
