<svg width="24" height="24" viewBox="0 0 24 24" fill="none" xmlns="http://www.w3.org/2000/svg">
<path d="M7.53972 7.19992C7.21935 7.19992 6.91211 7.32634 6.68558 7.55138C6.45904 7.77642 6.33178 8.08165 6.33178 8.3999C6.33178 8.71816 6.45904 9.02338 6.68558 9.24842C6.91211 9.47346 7.21935 9.59989 7.53972 9.59989H8.74767C9.06803 9.59989 9.37528 9.47346 9.60181 9.24842C9.82834 9.02338 9.95561 8.71816 9.95561 8.3999C9.95561 8.08165 9.82834 7.77642 9.60181 7.55138C9.37528 7.32634 9.06803 7.19992 8.74767 7.19992H7.53972ZM13.5794 21.5997H5.12383C4.80347 21.5997 4.49622 21.4733 4.26969 21.2483C4.04315 21.0232 3.91589 20.718 3.91589 20.3998V3.59996C3.91589 3.2817 4.04315 2.97648 4.26969 2.75144C4.49622 2.5264 4.80347 2.39997 5.12383 2.39997H11.1636V5.99993C11.1636 6.9547 11.5453 7.87036 12.2249 8.54549C12.9046 9.22061 13.8263 9.59989 14.7874 9.59989H18.4112V11.9999C18.4112 12.3181 18.5385 12.6233 18.765 12.8484C18.9916 13.0734 19.2988 13.1998 19.6192 13.1998C19.9395 13.1998 20.2468 13.0734 20.4733 12.8484C20.6998 12.6233 20.8271 12.3181 20.8271 11.9999V8.3999C20.8271 8.3999 20.8271 8.3999 20.8271 8.3279C20.8145 8.21767 20.7902 8.10906 20.7546 8.00391V7.89591C20.6966 7.77252 20.6191 7.65911 20.5251 7.55991L13.2775 0.359996C13.1776 0.266656 13.0634 0.189695 12.9392 0.131998C12.8993 0.12505 12.8584 0.12505 12.8184 0.131998C12.701 0.0696028 12.5748 0.0251061 12.444 0H5.12383C4.16273 0 3.241 0.37928 2.5614 1.0544C1.8818 1.72953 1.5 2.64519 1.5 3.59996V20.3998C1.5 21.3545 1.8818 22.2702 2.5614 22.9453C3.241 23.6204 4.16273 23.9997 5.12383 23.9997H13.5794C13.8998 23.9997 14.2071 23.8733 14.4336 23.6483C14.6601 23.4232 14.7874 23.118 14.7874 22.7997C14.7874 22.4815 14.6601 22.1763 14.4336 21.9512C14.2071 21.7262 13.8998 21.5997 13.5794 21.5997ZM13.5794 4.09195L16.708 7.19992H14.7874C14.467 7.19992 14.1598 7.07349 13.9332 6.84845C13.7067 6.62341 13.5794 6.31819 13.5794 5.99993V4.09195ZM14.7874 11.9999H7.53972C7.21935 11.9999 6.91211 12.1263 6.68558 12.3513C6.45904 12.5764 6.33178 12.8816 6.33178 13.1998C6.33178 13.5181 6.45904 13.8233 6.68558 14.0484C6.91211 14.2734 7.21935 14.3998 7.53972 14.3998H14.7874C15.1078 14.3998 15.415 14.2734 15.6415 14.0484C15.8681 13.8233 15.9953 13.5181 15.9953 13.1998C15.9953 12.8816 15.8681 12.5764 15.6415 12.3513C15.415 12.1263 15.1078 11.9999 14.7874 11.9999ZM22.8927 19.5478C22.7804 19.4353 22.6468 19.346 22.4996 19.2851C22.3524 19.2242 22.1945 19.1928 22.0351 19.1928C21.8756 19.1928 21.7177 19.2242 21.5705 19.2851C21.4233 19.346 21.2897 19.4353 21.1774 19.5478L20.8271 19.9078V16.7998C20.8271 16.4815 20.6998 16.1763 20.4733 15.9513C20.2468 15.7262 19.9395 15.5998 19.6192 15.5998C19.2988 15.5998 18.9916 15.7262 18.765 15.9513C18.5385 16.1763 18.4112 16.4815 18.4112 16.7998V19.9078L18.0609 19.5478C17.8335 19.3218 17.525 19.1949 17.2033 19.1949C16.8816 19.1949 16.5731 19.3218 16.3456 19.5478C16.1182 19.7737 15.9904 20.0802 15.9904 20.3998C15.9904 20.7193 16.1182 21.0258 16.3456 21.2518L18.7615 23.6517C18.8764 23.761 19.0119 23.8466 19.1601 23.9037C19.3047 23.9672 19.4611 24 19.6192 24C19.7772 24 19.9336 23.9672 20.0782 23.9037C20.2265 23.8466 20.3619 23.761 20.4768 23.6517L22.8927 21.2518C23.0059 21.1402 23.0958 21.0075 23.1571 20.8612C23.2184 20.715 23.25 20.5582 23.25 20.3998C23.25 20.2414 23.2184 20.0845 23.1571 19.9383C23.0958 19.792 23.0059 19.6593 22.8927 19.5478ZM12.3715 19.1998C12.6919 19.1998 12.9991 19.0733 13.2256 18.8483C13.4522 18.6233 13.5794 18.318 13.5794 17.9998C13.5794 17.6815 13.4522 17.3763 13.2256 17.1513C12.9991 16.9262 12.6919 16.7998 12.3715 16.7998H7.53972C7.21935 16.7998 6.91211 16.9262 6.68558 17.1513C6.45904 17.3763 6.33178 17.6815 6.33178 17.9998C6.33178 18.318 6.45904 18.6233 6.68558 18.8483C6.91211 19.0733 7.21935 19.1998 7.53972 19.1998H12.3715Z" fill="currentColor"/>
</svg>
