<svg width="32" height="32" viewBox="0 0 32 32" fill="none" xmlns="http://www.w3.org/2000/svg">
<path d="M10.053 9.59989C9.62581 9.59989 9.21615 9.76846 8.9141 10.0685C8.61206 10.3686 8.44237 10.7755 8.44237 11.1999C8.44237 11.6242 8.61206 12.0312 8.9141 12.3312C9.21615 12.6313 9.62581 12.7999 10.053 12.7999H11.6636C12.0907 12.7999 12.5004 12.6313 12.8024 12.3312C13.1045 12.0312 13.2741 11.6242 13.2741 11.1999C13.2741 10.7755 13.1045 10.3686 12.8024 10.0685C12.5004 9.76846 12.0907 9.59989 11.6636 9.59989H10.053ZM18.1059 28.7997H6.83178C6.40462 28.7997 5.99496 28.6311 5.69292 28.331C5.39087 28.031 5.22118 27.624 5.22118 27.1997V4.79994C5.22118 4.3756 5.39087 3.96864 5.69292 3.66859C5.99496 3.36853 6.40462 3.19996 6.83178 3.19996H14.8847V7.99991C14.8847 9.27293 15.3938 10.4938 16.2999 11.394C17.2061 12.2941 18.435 12.7999 19.7165 12.7999H24.5483V15.9998C24.5483 16.4242 24.718 16.8311 25.02 17.1312C25.3221 17.4312 25.7317 17.5998 26.1589 17.5998C26.586 17.5998 26.9957 17.4312 27.2977 17.1312C27.5998 16.8311 27.7695 16.4242 27.7695 15.9998V11.1999C27.7695 11.1999 27.7695 11.1999 27.7695 11.1039C27.7527 10.9569 27.7203 10.8121 27.6728 10.6719V10.5279C27.5954 10.3634 27.4921 10.2121 27.3668 10.0799L17.7033 0.479994C17.5701 0.355542 17.4179 0.252927 17.2523 0.175998C17.199 0.166733 17.1445 0.166733 17.0912 0.175998C16.9346 0.0928038 16.7663 0.0334748 16.592 0H6.83178C5.55031 0 4.32133 0.505707 3.41519 1.40587C2.50906 2.30604 2 3.52692 2 4.79994V27.1997C2 28.4727 2.50906 29.6936 3.41519 30.5938C4.32133 31.4939 5.55031 31.9996 6.83178 31.9996H18.1059C18.5331 31.9996 18.9427 31.8311 19.2448 31.531C19.5468 31.231 19.7165 30.824 19.7165 30.3996C19.7165 29.9753 19.5468 29.5683 19.2448 29.2683C18.9427 28.9682 18.5331 28.7997 18.1059 28.7997ZM18.1059 5.45594L22.2774 9.59989H19.7165C19.2894 9.59989 18.8797 9.43132 18.5777 9.13126C18.2756 8.83121 18.1059 8.42425 18.1059 7.99991V5.45594ZM19.7165 15.9998H10.053C9.62581 15.9998 9.21615 16.1684 8.9141 16.4684C8.61206 16.7685 8.44237 17.1755 8.44237 17.5998C8.44237 18.0241 8.61206 18.4311 8.9141 18.7312C9.21615 19.0312 9.62581 19.1998 10.053 19.1998H19.7165C20.1437 19.1998 20.5533 19.0312 20.8554 18.7312C21.1574 18.4311 21.3271 18.0241 21.3271 17.5998C21.3271 17.1755 21.1574 16.7685 20.8554 16.4684C20.5533 16.1684 20.1437 15.9998 19.7165 15.9998ZM30.5236 26.0637C30.3739 25.9137 30.1957 25.7947 29.9995 25.7135C29.8032 25.6322 29.5927 25.5904 29.3801 25.5904C29.1675 25.5904 28.9569 25.6322 28.7607 25.7135C28.5644 25.7947 28.3863 25.9137 28.2365 26.0637L27.7695 26.5437V22.3997C27.7695 21.9754 27.5998 21.5684 27.2977 21.2684C26.9957 20.9683 26.586 20.7998 26.1589 20.7998C25.7317 20.7998 25.3221 20.9683 25.02 21.2684C24.718 21.5684 24.5483 21.9754 24.5483 22.3997V26.5437L24.0812 26.0637C23.7779 25.7624 23.3666 25.5932 22.9377 25.5932C22.5088 25.5932 22.0975 25.7624 21.7942 26.0637C21.4909 26.365 21.3205 26.7736 21.3205 27.1997C21.3205 27.6258 21.4909 28.0344 21.7942 28.3357L25.0154 31.5356C25.1685 31.6813 25.3492 31.7955 25.5469 31.8716C25.7396 31.9563 25.9481 32 26.1589 32C26.3697 32 26.5781 31.9563 26.7709 31.8716C26.9686 31.7955 27.1492 31.6813 27.3024 31.5356L30.5236 28.3357C30.6745 28.1869 30.7944 28.01 30.8761 27.815C30.9579 27.62 31 27.4109 31 27.1997C31 26.9885 30.9579 26.7793 30.8761 26.5844C30.7944 26.3894 30.6745 26.2124 30.5236 26.0637ZM16.4953 25.5997C16.9225 25.5997 17.3321 25.4311 17.6342 25.1311C17.9362 24.831 18.1059 24.4241 18.1059 23.9997C18.1059 23.5754 17.9362 23.1684 17.6342 22.8684C17.3321 22.5683 16.9225 22.3997 16.4953 22.3997H10.053C9.62581 22.3997 9.21615 22.5683 8.9141 22.8684C8.61206 23.1684 8.44237 23.5754 8.44237 23.9997C8.44237 24.4241 8.61206 24.831 8.9141 25.1311C9.21615 25.4311 9.62581 25.5997 10.053 25.5997H16.4953Z" fill="currentColor"/>
</svg>
