<?xml version="1.0" encoding="UTF-8"?>
<svg width="24px" height="24px" viewBox="0 0 24 24" version="1.1" xmlns="http://www.w3.org/2000/svg" xmlns:xlink="http://www.w3.org/1999/xlink">
    <!-- Generator: Sketch 48.2 (47327) - http://www.bohemiancoding.com/sketch -->
    <title>RemoveUser24</title>
    <desc>Created with Sketch.</desc>
    <defs></defs>
    <g id="Page-1" stroke="none" stroke-width="1" fill="none" fill-rule="evenodd">
        <g id="RemoveUser24" fill="#000000" fill-rule="nonzero">
            <path d="M22.0786317,15.6025954 C22.2932997,15.0937378 22.8798331,14.8552499 23.3886907,15.0699179 C23.8975484,15.2845858 24.1360362,15.8711192 23.9213683,16.3799769 C21.7424151,21.5450561 16.3928612,24.6194878 10.8435629,23.8948562 C5.29462926,23.1702721 0.910026254,18.8252493 0.124067319,13.273595 C-0.661835827,7.72233476 2.34325016,2.32692313 7.47140316,0.0838127168 C7.97739942,-0.137515603 8.5670125,0.0932533617 8.78834082,0.599249626 C9.00966914,1.10524589 8.77890017,1.69485896 8.27290391,1.91618728 C3.96790613,3.79924056 1.44419055,8.33038691 2.10432102,12.9932465 C2.76439569,17.6557119 6.44548585,21.3035726 11.1025259,21.9116925 C15.7592014,22.5197648 20.2491044,19.9393813 22.0786317,15.6025954 Z M18,17 C18,17.5522847 17.5522847,18 17,18 C16.4477153,18 16,17.5522847 16,17 L16,16 C16,15.5029303 15.3713371,15 14.5,15 L9.5,15 C8.62866287,15 8,15.5029303 8,16 L8,17 C8,17.5522847 7.55228475,18 7,18 C6.44771525,18 6,17.5522847 6,17 L6,16 C6,14.2879307 7.60991338,13 9.5,13 L14.5,13 C16.3900866,13 18,14.2879307 18,16 L18,17 Z M17,5 C16.4477153,5 16,4.55228475 16,4 C16,3.44771525 16.4477153,3 17,3 L23,3 C23.5522847,3 24,3.44771525 24,4 C24,4.55228475 23.5522847,5 23,5 L17,5 Z M12,12 C10.3431458,12 9,10.6568542 9,9 C9,7.34314575 10.3431458,6 12,6 C13.6568542,6 15,7.34314575 15,9 C15,10.6568542 13.6568542,12 12,12 Z M12,10.5 C12.8284271,10.5 13.5,9.82842712 13.5,9 C13.5,8.17157288 12.8284271,7.5 12,7.5 C11.1715729,7.5 10.5,8.17157288 10.5,9 C10.5,9.82842712 11.1715729,10.5 12,10.5 Z"></path>
        </g>
    </g>
</svg>