<?xml version="1.0" encoding="UTF-8"?>
<svg width="24px" height="24px" viewBox="0 0 24 24" version="1.1" xmlns="http://www.w3.org/2000/svg" xmlns:xlink="http://www.w3.org/1999/xlink">
    <!-- Generator: Sketch 48.2 (47327) - http://www.bohemiancoding.com/sketch -->
    <title>Report24</title>
    <desc>Created with Sketch.</desc>
    <defs></defs>
    <g id="Page-1" stroke="none" stroke-width="1" fill="none" fill-rule="evenodd">
        <g id="Report24" fill="#000000" fill-rule="nonzero">
            <path d="M14.25,0 C14.5113253,0 14.7622683,0.102296198 14.9491176,0.284993331 L21.6991176,6.88499333 C21.8915345,7.07313429 22,7.33088798 22,7.6 L22,20.8 C22,22.5724035 20.5399581,24 18.75,24 L5.25,24 C3.46004186,24 2,22.5724035 2,20.8 L2,3.2 C2,1.42759649 3.46004186,0 5.25,0 L14.25,0 Z M13.8642856,2 L5.16964286,2 C4.46604196,2 3.9047619,2.54235061 3.9047619,3.2 L3.9047619,20.8 C3.9047619,21.4576494 4.46604196,22 5.16964286,22 L18.8303571,22 C19.533958,22 20.0952381,21.4576494 20.0952381,20.8 L20.0952381,8.02081058 L13.8642856,2 Z M16,7 L21,7 C21.5522847,7 22,7.44771525 22,8 C22,8.55228475 21.5522847,9 21,9 L15,9 C14.4477153,9 14,8.55228475 14,8 L14,2 C14,1.44771525 14.4477153,1 15,1 C15.5522847,1 16,1.44771525 16,2 L16,7 Z M17,16 C17.5522847,16 18,16.4477153 18,17 C18,17.5522847 17.5522847,18 17,18 L7,18 C6.44771525,18 6,17.5522847 6,17 C6,16.4477153 6.44771525,16 7,16 L17,16 Z M9,8 C9.55228475,8 10,8.44771525 10,9 C10,9.55228475 9.55228475,10 9,10 L7,10 C6.44771525,10 6,9.55228475 6,9 C6,8.44771525 6.44771525,8 7,8 L9,8 Z M17,12 C17.5522847,12 18,12.4477153 18,13 C18,13.5522847 17.5522847,14 17,14 L7,14 C6.44771525,14 6,13.5522847 6,13 C6,12.4477153 6.44771525,12 7,12 L17,12 Z"></path>
        </g>
    </g>
</svg>