<?xml version="1.0" encoding="UTF-8"?>
<svg width="32px" height="32px" viewBox="0 0 32 32" version="1.1" xmlns="http://www.w3.org/2000/svg" xmlns:xlink="http://www.w3.org/1999/xlink">
    <!-- Generator: Sketch 48.2 (47327) - http://www.bohemiancoding.com/sketch -->
    <title>Repport32</title>
    <desc>Created with Sketch.</desc>
    <defs></defs>
    <g id="Page-1" stroke="none" stroke-width="1" fill="none" fill-rule="evenodd">
        <g id="Repport32" fill="#000000" fill-rule="nonzero">
            <path d="M20,2.8 L20,10 L29,10 L20,2.8 Z M29,12 L19,12 C18.4477153,12 18,11.5115834 18,11 L18,2 L6,2 C4.08801325,2 3,2.93258279 3,4 L3,28 C3,29.0674172 4.08801325,30 6,30 L27,30 C27.9119867,30 29,29.0674172 29,28 L29,12 Z M20,0 C19.8258075,0 23.4924742,3 31,9 C31,9 31,15.3333333 31,28 C31,30.2462913 28.9540065,32 27,32 L6,32 C3.0459935,32 1,30.2462913 1,28 L1,4 C1,1.75370871 3.0459935,0 6,0 L20,0 Z M24,22 C24.5259486,22 25,22.4477153 25,23 C25,23.5522847 24.5259486,24 24,24 L8,24 C7.47405144,24 7,23.5522847 7,23 C7,22.4477153 7.47405144,22 8,22 L24,22 Z M24,16 C24.5259486,16 25,16.4477153 25,17 C25,17.5522847 24.5259486,18 24,18 L8,18 C7.47405144,18 7,17.5522847 7,17 C7,16.4477153 7.47405144,16 8,16 L24,16 Z M12,10 C12.5522847,10 13,10.4477153 13,11 C13,11.5522847 12.5522847,12 12,12 L8,12 C7.44771525,12 7,11.5522847 7,11 C7,10.4477153 7.44771525,10 8,10 L12,10 Z"></path>
        </g>
    </g>
</svg>