<?xml version="1.0" encoding="UTF-8"?>
<svg width="24px" height="24px" viewBox="0 0 24 24" version="1.1" xmlns="http://www.w3.org/2000/svg" xmlns:xlink="http://www.w3.org/1999/xlink">
    <!-- Generator: Sketch 48.2 (47327) - http://www.bohemiancoding.com/sketch -->
    <title>Reprocess24</title>
    <desc>Created with Sketch.</desc>
    <defs></defs>
    <g id="Page-1" stroke="none" stroke-width="1" fill="none" fill-rule="evenodd">
        <g id="Reprocess24" fill="#000000" fill-rule="nonzero">
            <path d="M2,16 L2,21 C2,21.5522847 1.55228475,22 1,22 C0.44771525,22 5.50703553e-16,21.5522847 5.50703553e-16,21 L5.50703553e-16,15 C5.50703553e-16,14.4477153 0.44771525,14 1,14 L7,14 C7.55228475,14 8,14.4477153 8,15 C8,15.5522847 7.55228475,16 7,16 L2,16 Z M0.276902471,15.6907459 C-0.104585981,15.2913902 -0.0901016853,14.6583909 0.309254052,14.2769025 C0.70860979,13.895414 1.34160908,13.9098983 1.72309753,14.3092541 L6.50575862,19.3166224 C8.50336461,21.5431983 11.3603369,22.4638407 14.0872457,21.7764662 C16.8346553,21.0839239 19.0911224,18.8495908 20.0469241,15.8404841 C20.2141182,15.3141149 20.7763623,15.0229458 21.3027316,15.1901398 C21.8291008,15.3573339 22.1202699,15.919578 21.9530759,16.4459473 C20.7931636,20.0976459 18.0144629,22.84909 14.5760961,23.7158025 C11.1172285,24.5876826 7.50291381,23.4229911 5.03831858,20.6751664 L0.276902471,15.6907459 Z M22,6.36969619 L22,3 C22,2.44771525 22.4477153,2 23,2 C23.5522847,2 24,2.44771525 24,3 L24,9 C24,9.53213163 23.5843633,9.96718609 23.060025,9.9982282 C23.0119051,10.0024997 22.9635404,10.0030946 22.915319,10 L17,10 C16.4477153,10 16,9.55228475 16,9 C16,8.44771525 16.4477153,8 17,8 L20.6085149,8 L17.5021627,4.8307487 C15.5142744,2.67161129 12.6450093,1.77062901 9.90233495,2.4443153 C7.15966064,3.11800158 4.92714775,5.27213953 3.98907402,8.14998441 C3.80046394,8.72860687 3.21548594,9.03168595 2.68248908,8.82693047 C2.14949222,8.62217499 1.87031157,7.98712169 2.05892165,7.40849923 C3.23151382,3.81119313 6.02215492,1.1185207 9.45049782,0.276412839 C12.8788407,-0.565695017 16.4654221,0.560532831 18.9272413,3.23520102 L22,6.36969619 Z"></path>
        </g>
    </g>
</svg>