<?xml version="1.0" encoding="UTF-8"?>
<svg width="32px" height="32px" viewBox="0 0 32 32" version="1.1" xmlns="http://www.w3.org/2000/svg" xmlns:xlink="http://www.w3.org/1999/xlink">
    <!-- Generator: Sketch 48.2 (47327) - http://www.bohemiancoding.com/sketch -->
    <title>Reprocess32</title>
    <desc>Created with Sketch.</desc>
    <defs></defs>
    <g id="Page-1" stroke="none" stroke-width="1" fill="none" fill-rule="evenodd">
        <g id="Reprocess32" fill="#000000" fill-rule="nonzero">
            <path d="M16.0712322,0 C9.22669434,0 3.12762793,3.86443006 0.456403603,9.71429561 C0.315107753,10.0237274 0.184105189,10.3374595 0.0636259755,10.6550829 C-0.133007994,11.1734756 0.141377656,11.7481407 0.676483479,11.9386331 C1.2115893,12.1291256 1.80478161,11.8633099 2.00141558,11.3449171 C2.1066038,11.0676058 2.22099751,10.7936496 2.34440161,10.5233999 C4.6857134,5.39602856 10.0455215,2 16.0712322,2 C22.2976561,2 27.7999298,5.6263197 30.008245,11.0084801 C30.2188234,11.521707 30.8189971,11.7723839 31.3487706,11.5683825 C31.878544,11.3643811 32.1373027,10.7829527 31.9267243,10.2697257 C29.4063362,4.12697348 23.1444124,0 16.0712322,0 L16.0712322,0 Z M15.9287678,32.0002719 C22.7733057,32.0002719 28.8723721,28.1358418 31.5435964,22.2859763 C31.6848922,21.9765445 31.8158948,21.6628124 31.936374,21.345189 C32.133008,20.8267962 31.8586223,20.2521312 31.3235165,20.0616387 C30.7884107,19.8711463 30.1952184,20.136962 29.9985844,20.6553548 C29.8933962,20.932666 29.7790025,21.2066223 29.6555984,21.4768719 C27.3142866,26.6042433 21.9544785,30.0002719 15.9287678,30.0002719 C9.70234387,30.0002719 4.20007021,26.3739522 1.99175505,20.9917918 C1.78117663,20.4785648 1.18100287,20.227888 0.651229441,20.4318894 C0.121456009,20.6358908 -0.137302679,21.2173192 0.0732757369,21.7305461 C2.59366383,27.8732984 8.85558758,32.0002719 15.9287678,32.0002719 L15.9287678,32.0002719 Z M31,12 C31.5522847,12 32,11.5522847 32,11 L32,9.22599018 L32,3 C32,2.44771525 31.5522847,2 31,2 C30.4477153,2 30,2.44771525 30,3 L30,11 L31,10 L23,10 C22.4477153,10 22,10.4477153 22,11 C22,11.5522847 22.4477153,12 23,12 L31,12 L31,12 Z M0,22.7740098 L0,29 C0,29.5522847 0.44771525,30 1,30 C1.55228475,30 2,29.5522847 2,29 L2,21 L1,22 L9,22 C9.55228475,22 10,21.5522847 10,21 C10,20.4477153 9.55228475,20 9,20 L1,20 C0.44771525,20 1.77635684e-15,20.4477153 1.77635684e-15,21 L0,22.7740098 Z"></path>
        </g>
    </g>
</svg>