<?xml version="1.0" encoding="UTF-8"?>
<svg width="32px" height="32px" viewBox="0 0 32 32" version="1.1" xmlns="http://www.w3.org/2000/svg" xmlns:xlink="http://www.w3.org/1999/xlink">
    <!-- Generator: Sketch 48.1 (47250) - http://www.bohemiancoding.com/sketch -->
    <title>Reverse32</title>
    <desc>Created with Sketch.</desc>
    <defs></defs>
    <g id="Page-1" stroke="none" stroke-width="1" fill="none" fill-rule="evenodd">
        <g id="Reverse32" fill="#000000" fill-rule="nonzero">
            <path d="M3.33038218,12 L11,12 C11.6024925,12 12,12.3975075 12,13 C12,13.6024925 11.5115834,14 10.9090909,14 L1.09090909,14 C0.488416637,14 1.16573418e-15,13.5115834 1.16573418e-15,12.9090909 L1.16573418e-15,12.8756135 C-7.03316018e-07,12.8749268 -7.03491873e-07,12.8742397 -2.19527389e-14,12.8735527 L1.16573418e-15,3.09090909 C1.16573418e-15,2.48841664 0.397507546,2 1,2 C1.60249245,2 2,2.39750755 2,3 L2,10.5040227 L7.24101183,5.3976438 C11.8134695,0.664107241 18.8663988,-0.364896464 24.5274118,2.88030139 C30.1721259,6.1161558 33.0661922,12.8180243 31.6391547,19.3208499 C30.2101365,25.8327012 24.7888809,30.5896512 18.3337711,30.9749128 C11.8760869,31.360328 5.95964853,27.2765378 3.81829103,20.9738251 C3.64062544,20.4508974 3.92051569,19.8829543 4.44344339,19.7052887 C4.96637109,19.5276231 5.53431417,19.8075134 5.71197976,20.3304411 C7.56678516,25.7897376 12.6662413,29.3096102 18.2146168,28.9784654 C23.7655667,28.6471669 28.4462099,24.5400767 29.6856401,18.8921534 C30.927051,13.2352043 28.4128267,7.41294627 23.5327473,4.61542171 C18.6689669,1.8272406 12.6178339,2.71008488 8.6581315,6.80862062 L3.33038218,12 Z"></path>
        </g>
    </g>
</svg>