<?xml version="1.0" encoding="UTF-8"?>
<svg width="24px" height="24px" viewBox="0 0 24 24" version="1.1" xmlns="http://www.w3.org/2000/svg" xmlns:xlink="http://www.w3.org/1999/xlink">
    <!-- Generator: Sketch 48.1 (47250) - http://www.bohemiancoding.com/sketch -->
    <title>Reverse24</title>
    <desc>Created with Sketch.</desc>
    <defs></defs>
    <g id="Page-1" stroke="none" stroke-width="1" fill="none" fill-rule="evenodd">
        <g id="Reverse24" fill="#000000" fill-rule="nonzero">
            <path d="M3.16734938,8 L7,8 C7.55228475,8 8,8.44771525 8,9 C8,9.55228475 7.55228475,10 7,10 L1,10 C0.44771525,10 0,9.55228475 0,9 L0,8.74883852 C2.58653277e-12,8.74883599 2.58653277e-12,8.74883599 2.58653277e-12,8.74883599 L0,3 C0,2.44771525 0.44771525,2 1,2 C1.55228475,2 2,2.44771525 2,3 L2,6.46699143 L5.36147193,3.25047716 C8.80164619,-0.247261851 14.1378337,-1.01188846 18.4120919,1.39457184 C22.6386343,3.77416748 24.7929037,8.67374195 23.7320885,13.4213773 C22.6661161,18.1920937 18.6003705,21.6958979 13.7315596,21.9812926 C8.85485491,22.26715 4.40768049,19.2523524 2.80787791,14.6277368 C2.64093964,14.1451614 2.93238182,13.6299051 3.45883225,13.4768797 C3.98528268,13.3238542 4.54738529,13.5910073 4.71432357,14.0735827 C6.04504046,17.9203412 9.67618868,20.3819439 13.6039277,20.1517119 C17.5395607,19.9210172 20.8818742,17.0406571 21.7727639,13.053516 C22.6688109,9.04329401 20.8570005,4.92259322 17.365361,2.95675696 C13.9214374,1.01778535 9.64797925,1.63013262 6.82634732,4.49835538 L3.16734938,8 Z"></path>
        </g>
    </g>
</svg>