<svg width="24" height="24" viewBox="0 0 24 24" fill="none" xmlns="http://www.w3.org/2000/svg">
<path d="M22.9091 1.5H1.09091C0.801582 1.5 0.524105 1.61458 0.31952 1.81852C0.114935 2.02247 0 2.29908 0 2.5875V11.2875C0 11.5759 0.114935 11.8525 0.31952 12.0565C0.524105 12.2604 0.801582 12.375 1.09091 12.375H4.36364V22.1625C4.36364 22.4509 4.47857 22.7275 4.68316 22.9315C4.88774 23.1354 5.16522 23.25 5.45455 23.25H18.5455C18.8348 23.25 19.1123 23.1354 19.3168 22.9315C19.5214 22.7275 19.6364 22.4509 19.6364 22.1625V12.375H22.9091C23.1984 12.375 23.4759 12.2604 23.6805 12.0565C23.8851 11.8525 24 11.5759 24 11.2875V2.5875C24 2.29908 23.8851 2.02247 23.6805 1.81852C23.4759 1.61458 23.1984 1.5 22.9091 1.5ZM6.54545 21.075V18.9C7.12411 18.9 7.67906 19.1292 8.08823 19.537C8.4974 19.9449 8.72727 20.4982 8.72727 21.075H6.54545ZM17.4545 21.075H15.2727C15.2727 20.4982 15.5026 19.9449 15.9118 19.537C16.3209 19.1292 16.8759 18.9 17.4545 18.9V21.075ZM17.4545 16.725C16.2972 16.725 15.1873 17.1833 14.369 17.9991C13.5506 18.8149 13.0909 19.9213 13.0909 21.075H10.9091C10.9091 19.9213 10.4494 18.8149 9.63101 17.9991C8.81267 17.1833 7.70276 16.725 6.54545 16.725V8.025H17.4545V16.725ZM21.8182 10.2H19.6364V6.9375C19.6364 6.64908 19.5214 6.37247 19.3168 6.16852C19.1123 5.96458 18.8348 5.85 18.5455 5.85H5.45455C5.16522 5.85 4.88774 5.96458 4.68316 6.16852C4.47857 6.37247 4.36364 6.64908 4.36364 6.9375V10.2H2.18182V3.675H21.8182V10.2ZM12 15.6375C12.6473 15.6375 13.28 15.4462 13.8182 15.0877C14.3564 14.7292 14.7759 14.2196 15.0236 13.6235C15.2713 13.0274 15.3361 12.3714 15.2098 11.7385C15.0836 11.1057 14.7719 10.5243 14.3142 10.0681C13.8565 9.61179 13.2733 9.30107 12.6385 9.17519C12.0036 9.0493 11.3456 9.11391 10.7476 9.36084C10.1496 9.60777 9.63844 10.0259 9.27883 10.5625C8.91922 11.099 8.72727 11.7297 8.72727 12.375C8.72727 13.2403 9.07208 14.0701 9.68583 14.6819C10.2996 15.2938 11.132 15.6375 12 15.6375ZM12 11.2875C12.2158 11.2875 12.4267 11.3513 12.6061 11.4708C12.7855 11.5903 12.9253 11.7601 13.0079 11.9588C13.0904 12.1575 13.112 12.3762 13.0699 12.5872C13.0279 12.7981 12.924 12.9919 12.7714 13.144C12.6188 13.2961 12.4244 13.3996 12.2128 13.4416C12.0012 13.4836 11.7819 13.462 11.5825 13.3797C11.3832 13.2974 11.2128 13.158 11.0929 12.9792C10.9731 12.8003 10.9091 12.5901 10.9091 12.375C10.9091 12.0866 11.024 11.81 11.2286 11.606C11.4332 11.4021 11.7107 11.2875 12 11.2875Z" fill="currentColor"/>
</svg>
