<svg width="32" height="32" viewBox="0 0 32 32" fill="none" xmlns="http://www.w3.org/2000/svg">
<path d="M30.5455 2H1.45455C1.06878 2 0.698807 2.15277 0.426026 2.4247C0.153246 2.69662 0 3.06544 0 3.45V15.05C0 15.4346 0.153246 15.8034 0.426026 16.0753C0.698807 16.3472 1.06878 16.5 1.45455 16.5H5.81818V29.55C5.81818 29.9346 5.97143 30.3034 6.24421 30.5753C6.51699 30.8472 6.88696 31 7.27273 31H24.7273C25.113 31 25.483 30.8472 25.7558 30.5753C26.0286 30.3034 26.1818 29.9346 26.1818 29.55V16.5H30.5455C30.9312 16.5 31.3012 16.3472 31.574 16.0753C31.8468 15.8034 32 15.4346 32 15.05V3.45C32 3.06544 31.8468 2.69662 31.574 2.4247C31.3012 2.15277 30.9312 2 30.5455 2ZM8.72727 28.1V25.2C9.49881 25.2 10.2388 25.5055 10.7843 26.0494C11.3299 26.5932 11.6364 27.3309 11.6364 28.1H8.72727ZM23.2727 28.1H20.3636C20.3636 27.3309 20.6701 26.5932 21.2157 26.0494C21.7613 25.5055 22.5012 25.2 23.2727 25.2V28.1ZM23.2727 22.3C21.7297 22.3 20.2498 22.9111 19.1587 23.9988C18.0675 25.0865 17.4545 26.5617 17.4545 28.1H14.5455C14.5455 26.5617 13.9325 25.0865 12.8413 23.9988C11.7502 22.9111 10.2704 22.3 8.72727 22.3V10.7H23.2727V22.3ZM29.0909 13.6H26.1818V9.25C26.1818 8.86544 26.0286 8.49662 25.7558 8.2247C25.483 7.95277 25.113 7.8 24.7273 7.8H7.27273C6.88696 7.8 6.51699 7.95277 6.24421 8.2247C5.97143 8.49662 5.81818 8.86544 5.81818 9.25V13.6H2.90909V4.9H29.0909V13.6ZM16 20.85C16.863 20.85 17.7067 20.5949 18.4243 20.1169C19.1419 19.6389 19.7012 18.9595 20.0315 18.1647C20.3617 17.3698 20.4482 16.4952 20.2798 15.6514C20.1114 14.8075 19.6958 14.0324 19.0856 13.4241C18.4753 12.8157 17.6978 12.4014 16.8513 12.2336C16.0048 12.0657 15.1275 12.1519 14.3301 12.4811C13.5328 12.8104 12.8513 13.3679 12.3718 14.0833C11.8923 14.7986 11.6364 15.6397 11.6364 16.5C11.6364 17.6537 12.0961 18.7601 12.9144 19.5759C13.7328 20.3917 14.8427 20.85 16 20.85ZM16 15.05C16.2877 15.05 16.5689 15.135 16.8081 15.2944C17.0473 15.4537 17.2337 15.6802 17.3438 15.9451C17.4539 16.2101 17.4827 16.5016 17.4266 16.7829C17.3705 17.0642 17.2319 17.3225 17.0285 17.5253C16.8251 17.7281 16.5659 17.8662 16.2838 17.9221C16.0016 17.9781 15.7092 17.9494 15.4434 17.8396C15.1776 17.7299 14.9504 17.544 14.7906 17.3056C14.6308 17.0671 14.5455 16.7868 14.5455 16.5C14.5455 16.1154 14.6987 15.7466 14.9715 15.4747C15.2443 15.2028 15.6142 15.05 16 15.05Z" fill="currentColor"/>
</svg>
