<?xml version="1.0" encoding="UTF-8"?>
<svg width="32px" height="32px" viewBox="0 0 32 32" version="1.1" xmlns="http://www.w3.org/2000/svg" xmlns:xlink="http://www.w3.org/1999/xlink">
    <!-- Generator: Sketch 48.1 (47250) - http://www.bohemiancoding.com/sketch -->
    <title>Save32</title>
    <desc>Created with Sketch.</desc>
    <defs></defs>
    <g id="Page-1" stroke="none" stroke-width="1" fill="none" fill-rule="evenodd">
        <g id="Save32" fill="#000000" fill-rule="nonzero">
            <path d="M8.92857143,18.0869565 L8.92857143,30.9565217 C8.92857143,31.5328189 8.49684601,32 7.96428571,32 C7.43172542,32 7,31.5328189 7,30.9565217 L7,17.0434783 C7,16.4671811 7.43172542,16 7.96428571,16 L24.0357143,16 C24.5682746,16 25,16.4671811 25,17.0434783 L25,30.9565217 C25,31.5328189 24.5682746,32 24.0357143,32 C23.503154,32 23.0714286,31.5328189 23.0714286,30.9565217 L23.0714286,18.0869565 L8.92857143,18.0869565 Z M8.82608696,8.06451613 L20.0869565,8.06451613 C20.5912165,8.06451613 21,8.49778895 21,9.03225806 C21,9.56672718 20.5912165,10 20.0869565,10 L7.91304348,10 C7.40878349,10 7,9.56672718 7,9.03225806 L7,0.967741935 C7,0.433272823 7.40878349,0 7.91304348,0 C8.41730347,0 8.82608696,0.433272823 8.82608696,0.967741935 L8.82608696,8.06451613 Z M22.2524531,2 L4.33333333,2 C3.04466892,2 2,3.04466892 2,4.33333333 L2,27.6666667 C2,28.9553311 3.04466892,30 4.33333333,30 L27.6666667,30 C28.9553311,30 30,28.9553311 30,27.6666667 L30,9.7475469 L22.2524531,2 Z M27.6666667,32 L4.33333333,32 C1.94009942,32 0,30.0599006 0,27.6666667 L0,4.33333333 C0,1.94009942 1.94009942,0 4.33333333,0 L22.6666667,0 C22.9318832,0 23.1862371,0.10535684 23.3737734,0.292893219 L31.7071068,8.62622655 C31.8946432,8.81376293 32,9.06811684 32,9.33333333 L32,27.6666667 C32,30.0599006 30.0599006,32 27.6666667,32 Z"></path>
        </g>
    </g>
</svg>