<?xml version="1.0" encoding="UTF-8"?>
<svg width="24px" height="24px" viewBox="0 0 24 24" version="1.1" xmlns="http://www.w3.org/2000/svg" xmlns:xlink="http://www.w3.org/1999/xlink">
    <!-- Generator: Sketch 48.2 (47327) - http://www.bohemiancoding.com/sketch -->
    <title>Save24</title>
    <desc>Created with Sketch.</desc>
    <defs></defs>
    <g id="Page-1" stroke="none" stroke-width="1" fill="none" fill-rule="evenodd">
        <g id="Save24" fill="#000000" fill-rule="nonzero">
            <path d="M16.4746753,2 L3.44444444,2 C2.64669981,2 2,2.64669981 2,3.44444444 L2,20.5555556 C2,21.3533002 2.64669981,22 3.44444444,22 L20.5555556,22 C21.3533002,22 22,21.3533002 22,20.5555556 L22,7.52532467 L16.4746753,2 Z M20.5555556,24 L3.44444444,24 C1.54213031,24 0,22.4578697 0,20.5555556 L0,3.44444444 C0,1.54213031 1.54213031,0 3.44444444,0 L16.8888889,0 C17.1541054,0 17.4084593,0.10535684 17.5959957,0.292893219 L23.7071068,6.40400433 C23.8946432,6.59154071 24,6.84589462 24,7.11111111 L24,20.5555556 C24,22.4578697 22.4578697,24 20.5555556,24 Z M6,14 L6,23 C6,23.5522847 5.55228475,24 5,24 C4.44771525,24 4,23.5522847 4,23 L4,13 C4,12.4477153 4.44771525,12 5,12 L17,12 C17.5522847,12 18,12.4477153 18,13 L18,23 C18,23.5522847 17.5522847,24 17,24 C16.4477153,24 16,23.5522847 16,23 L16,14 L6,14 Z M6,8 L15,8 C15.5522847,8 16,8.38635028 16,9 C16,9.61364972 15.5522847,10 15,10 L5,10 C4.44771525,10 4,9.50253861 4,8.88888889 L4,1.11111111 C4,0.497461389 4.44771525,0 5,0 C5.55228475,0 6,0.497461389 6,1.11111111 L6,8 Z"></path>
        </g>
    </g>
</svg>