<?xml version="1.0" encoding="UTF-8"?>
<svg width="32px" height="32px" viewBox="0 0 32 32" version="1.1" xmlns="http://www.w3.org/2000/svg" xmlns:xlink="http://www.w3.org/1999/xlink">
    <!-- Generator: Sketch 48.2 (47327) - http://www.bohemiancoding.com/sketch -->
    <title>Search32</title>
    <desc>Created with Sketch.</desc>
    <defs></defs>
    <g id="Page-1" stroke="none" stroke-width="1" fill="none" fill-rule="evenodd">
        <g id="Search32" fill="#000000">
            <path d="M20,21.4840768 L30.2687447,31.7016467 C30.6652133,32.0980791 31.3052644,32.1008303 31.704513,31.7016182 C32.1009973,31.30517 32.0959766,30.6573803 31.7045416,30.265981 L21.4860386,20.0484111 C23.2828371,17.9260151 24.3662806,15.1805359 24.3662806,12.1820279 C24.3662806,5.45407967 18.9117029,0 12.1831403,0 C5.45457771,0 0,5.45407967 0,12.1820279 C0,18.9099761 5.45457771,24.3640558 12.1831403,24.3640558 C15.1819221,24.3640558 17.927652,23.2807112 20.0502418,21.4840768 L20.0502418,21.4840768 L20,21.4840768 Z M2.03052338,12.1820279 C2.03052338,6.57540438 6.57600481,2.03033798 12.1831403,2.03033798 C17.7902758,2.03033798 22.3357572,6.57540438 22.3357572,12.1820279 C22.3357572,17.7886514 17.7902758,22.3337178 12.1831403,22.3337178 C6.57600481,22.3337178 2.03052338,17.7886514 2.03052338,12.1820279 L2.03052338,12.1820279 Z"></path>
        </g>
    </g>
</svg>