<?xml version="1.0" encoding="UTF-8"?>
<svg width="24px" height="24px" viewBox="0 0 24 24" version="1.1" xmlns="http://www.w3.org/2000/svg" xmlns:xlink="http://www.w3.org/1999/xlink">
    <!-- Generator: Sketch 48.2 (47327) - http://www.bohemiancoding.com/sketch -->
    <title>Sellers24</title>
    <desc>Created with Sketch.</desc>
    <defs></defs>
    <g id="Page-1" stroke="none" stroke-width="1" fill="none" fill-rule="evenodd">
        <g id="Sellers24" fill="#000000" fill-rule="nonzero">
            <path d="M24,20.9835129 C24,21.5449032 23.5522847,22 23,22 C22.4477153,22 22,21.5449032 22,20.9835129 L22.0000003,18.9512968 C21.9989805,17.5615945 21.0737494,16.3483681 19.7500003,16.0009428 C19.2152528,15.8605954 18.8936831,15.3061757 19.0317541,14.7626118 C19.1698251,14.2190479 19.7152523,13.8921763 20.2499997,14.0325238 C22.4562482,14.6115659 23.9983001,16.6336099 24,18.9505386 L24,20.9835129 Z M15.7507466,4.14913723 C15.2165844,4.00864339 14.894432,3.44992731 15.0311992,2.90120994 C15.1679663,2.35249257 15.711862,2.02156202 16.2460242,2.16205586 C18.4548465,2.74301408 19.9997593,4.78755589 19.9997593,7.12975928 C19.9997593,9.47196266 18.4548465,11.5165045 16.2460242,12.0974627 C15.711862,12.2379565 15.1679663,11.907026 15.0311992,11.3583086 C14.894432,10.8095912 15.2165844,10.2508752 15.7507466,10.1103813 C17.07604,9.7618064 18.0029876,8.53508131 18.0029876,7.12975928 C18.0029876,5.72443725 17.07604,4.49771216 15.7507466,4.14913723 Z M9,12 C6.23857625,12 4,9.76142375 4,7 C4,4.23857625 6.23857625,2 9,2 C11.7614237,2 14,4.23857625 14,7 C14,9.76142375 11.7614237,12 9,12 Z M9,10 C10.6568542,10 12,8.65685425 12,7 C12,5.34314575 10.6568542,4 9,4 C7.34314575,4 6,5.34314575 6,7 C6,8.65685425 7.34314575,10 9,10 Z M18,21 C18,21.5522847 17.5522847,22 17,22 C16.4477153,22 16,21.5522847 16,21 L16,19 C16,17.3431458 14.6568542,16 13,16 L5,16 C3.34314575,16 2,17.3431458 2,19 L2,21 C2,21.5522847 1.55228475,22 1,22 C0.44771525,22 0,21.5522847 0,21 L0,19 C2.77555756e-16,16.2385763 2.23857625,14 5,14 L13,14 C15.7614237,14 18,16.2385763 18,19 L18,21 Z"></path>
        </g>
    </g>
</svg>