<?xml version="1.0" encoding="UTF-8"?>
<svg width="32px" height="32px" viewBox="0 0 32 32" version="1.1" xmlns="http://www.w3.org/2000/svg" xmlns:xlink="http://www.w3.org/1999/xlink">
    <!-- Generator: Sketch 48.1 (47250) - http://www.bohemiancoding.com/sketch -->
    <title>Sellers32</title>
    <desc>Created with Sketch.</desc>
    <defs></defs>
    <g id="Page-1" stroke="none" stroke-width="1" fill="none" fill-rule="evenodd">
        <g id="Sellers32" fill="#000000" fill-rule="nonzero">
            <path d="M24,29 C24,29.5522847 23.5522847,30 23,30 C22.4477153,30 22,29.5522847 22,29 L22,26.3333333 C22,23.9471027 19.9920503,22 17.5,22 L6.5,22 C4.0079497,22 2,23.9471027 2,26.3333333 L2,29 C2,29.5522847 1.55228475,30 1,30 C0.44771525,30 0,29.5522847 0,29 L0,26.3333333 C2.64205906e-16,22.8285266 2.91691805,20 6.5,20 L17.5,20 C21.0830819,20 24,22.8285266 24,26.3333333 L24,29 Z M13,15 C9.6862915,15 7,12.3137085 7,9 C7,5.6862915 9.6862915,3 13,3 C16.3137085,3 19,5.6862915 19,9 C19,12.3137085 16.3137085,15 13,15 Z M13,13 C15.209139,13 17,11.209139 17,9 C17,6.790861 15.209139,5 13,5 C10.790861,5 9,6.790861 9,9 C9,11.209139 10.790861,13 13,13 Z M22.7591351,5.97065831 C22.2231427,5.83750753 21.8965792,5.29507679 22.0297352,4.75910536 C22.1628912,4.22313392 22.7053432,3.89658327 23.2413357,4.02973405 C26.0365615,4.72412162 28.0002354,7.17861778 28.0002354,10 C28.0002354,12.8213822 26.0365615,15.2758784 23.2413357,15.9702659 C22.7053432,16.1034167 22.1628912,15.7768661 22.0297352,15.2408946 C21.8965792,14.7049232 22.2231427,14.1624925 22.7591351,14.0293417 C24.671375,13.5543047 26.0002354,11.8932943 26.0002354,10 C26.0002354,8.10670566 24.671375,6.44569528 22.7591351,5.97065831 Z M32.0002951,28.9978491 C32.0002951,29.5513218 31.4886355,30 30.8574713,30 C30.2263071,30 30.0002951,29.5511174 30.0002951,28.9976448 L30.0002956,26.2669723 C30.0002951,24.9890414 28.0002951,21.9825888 24.9072683,21.9611767 C24.2829908,21.956855 23.8947936,21.3151529 24.025179,20.7736188 C24.1555644,20.2320846 24.7552292,20.0038697 25.3794357,20.000108 C29.0002951,19.9782871 31.9971759,23.2671804 32.0002951,26.2662625 L32.0002951,28.9978491 Z"></path>
        </g>
    </g>
</svg>