<svg width="32" height="32" viewBox="0 0 32 32" fill="none" xmlns="http://www.w3.org/2000/svg">
<path d="M17.3333 18.6668H14.6667C12.4795 18.666 10.3336 19.263 8.46118 20.3934C6.5887 21.5238 5.0608 23.1444 4.04267 25.0802C4.01406 24.7208 3.99982 24.3606 4 24.0002C4 16.6362 9.96934 10.6668 17.3333 10.6668V3.3335L31.3333 14.6668L17.3333 26.0002V18.6668ZM14.6667 16.0002H20V20.4108L27.0947 14.6668L20 8.92283V13.3335H17.3333C15.8004 13.3318 14.2851 13.6612 12.8912 14.2994C11.4973 14.9375 10.2578 15.8692 9.25734 17.0308C10.9791 16.3484 12.8146 15.9987 14.6667 16.0002Z" fill="currentColor"/>
</svg>