<?xml version="1.0" encoding="UTF-8"?>
<svg width="24px" height="24px" viewBox="0 0 24 24" version="1.1" xmlns="http://www.w3.org/2000/svg" xmlns:xlink="http://www.w3.org/1999/xlink">
    <!-- Generator: Sketch 48.2 (47327) - http://www.bohemiancoding.com/sketch -->
    <title>Shield24</title>
    <desc>Created with Sketch.</desc>
    <defs></defs>
    <g id="Page-1" stroke="none" stroke-width="1" fill="none" fill-rule="evenodd">
        <g id="Shield24" fill="#000000" fill-rule="nonzero">
            <path d="M12.4392101,23.8983844 C12.1620766,24.0338719 11.8379234,24.0338719 11.5607899,23.8983844 C11.4784071,23.8581084 11.3343322,23.7841499 11.1372679,23.677485 C10.8147238,23.5029015 10.4568437,23.2976558 10.0723,23.0626568 C8.97504065,22.3921095 7.87789229,21.6143532 6.84990419,20.7348522 C3.83724478,18.1573548 2,15.2381769 2,12 L2,3.2 C2,2.73917959 2.31490642,2.33802422 2.76254691,2.22860099 L11.7625469,0.0286009935 C11.9185523,-0.0095336645 12.0814477,-0.0095336645 12.2374531,0.0286009935 L21.2374531,2.22860099 C21.6850936,2.33802422 22,2.73917959 22,3.2 L22,12 C22,15.2381769 20.1627552,18.1573548 17.1500958,20.7348522 C16.1221077,21.6143532 15.0249593,22.3921095 13.9277,23.0626568 C13.5431563,23.2976558 13.1852762,23.5029015 12.8627321,23.677485 C12.6656678,23.7841499 12.5215929,23.8581084 12.4392101,23.8983844 Z M12,21.8699527 C12.2695183,21.7221284 12.5666122,21.5505413 12.8848,21.3560932 C13.8969157,20.737578 14.9091423,20.0200218 15.8499042,19.2151478 C18.4622448,16.9801452 20,14.5368231 20,12 L20,3.98499865 L12,2.0294431 L4,3.98499865 L4,12 C4,14.5368231 5.53775522,16.9801452 8.15009581,19.2151478 C9.09085771,20.0200218 10.1030843,20.737578 11.1152,21.3560932 C11.4333878,21.5505413 11.7304817,21.7221284 12,21.8699527 Z"></path>
        </g>
    </g>
</svg>