<?xml version="1.0" encoding="UTF-8"?>
<svg width="32px" height="32px" viewBox="0 0 32 32" version="1.1" xmlns="http://www.w3.org/2000/svg" xmlns:xlink="http://www.w3.org/1999/xlink">
    <!-- Generator: Sketch 48.1 (47250) - http://www.bohemiancoding.com/sketch -->
    <title>Shield32</title>
    <desc>Created with Sketch.</desc>
    <defs></defs>
    <g id="Page-1" stroke="none" stroke-width="1" fill="none" fill-rule="evenodd">
        <g id="Shield32" fill="#000000" fill-rule="nonzero">
            <path d="M16.4472136,31.8944272 C16.1656861,32.0351909 15.8343139,32.0351909 15.5527864,31.8944272 C15.4468614,31.8414647 15.2587409,31.7427014 15.0000591,31.5995026 C14.574884,31.3641378 14.1026628,31.0871619 13.5950011,30.7698733 C12.1461341,29.8643315 10.69744,28.8140283 9.34149539,27.6275767 C5.39575967,24.1750579 3,20.2819485 3,16 L3,4 C3,3.54113236 3.31229737,3.14114925 3.75746437,3.0298575 L15.7574644,0.0298574999 C15.9167044,-0.00995249995 16.0832956,-0.00995249995 16.2425356,0.0298574999 L28.2425356,3.0298575 C28.6877026,3.14114925 29,3.54113236 29,4 L29,16 C29,20.2819485 26.6042403,24.1750579 22.6585046,27.6275767 C21.30256,28.8140283 19.8538659,29.8643315 18.4049989,30.7698733 C17.8973372,31.0871619 17.425116,31.3641378 16.9999409,31.5995026 C16.7412591,31.7427014 16.5531386,31.8414647 16.4472136,31.8944272 Z M17.3450011,29.0738767 C18.7086341,28.221606 20.07244,27.2328467 21.3414954,26.1224233 C24.8957597,23.0124421 27,19.5930515 27,16 L27,4.78077641 L16,2.03077641 L5,4.78077641 L5,16 C5,19.5930515 7.10424033,23.0124421 10.6585046,26.1224233 C11.92756,27.2328467 13.2913659,28.221606 14.6549989,29.0738767 C15.1317122,29.3718225 15.5735535,29.6309794 15.9686909,29.8497162 C16.4264465,29.6309794 16.8682878,29.3718225 17.3450011,29.0738767 Z"></path>
        </g>
    </g>
</svg>