<svg width="24" height="24" viewBox="0 0 24 24" fill="none" xmlns="http://www.w3.org/2000/svg">
<path d="M21.2991 1.97865C21.1575 1.86584 20.992 1.78571 20.8148 1.74417C20.6377 1.70262 20.4533 1.70071 20.2753 1.73857C18.973 2.00739 17.6286 2.01081 16.3249 1.74863C15.0212 1.48646 13.7858 0.964225 12.6947 0.214094C12.4907 0.074697 12.2483 0 12 0C11.7517 0 11.5093 0.074697 11.3053 0.214094C10.2142 0.964225 8.97881 1.48646 7.67511 1.74863C6.3714 2.01081 5.02701 2.00739 3.72469 1.73857C3.54668 1.70071 3.36232 1.70262 3.18515 1.74417C3.00799 1.78571 2.84253 1.86584 2.70094 1.97865C2.55954 2.09162 2.44564 2.23437 2.36761 2.3964C2.28957 2.55842 2.24939 2.73561 2.25001 2.91494V11.8577C2.24892 13.5788 2.66532 15.2752 3.46453 16.8056C4.26374 18.3361 5.42263 19.6564 6.84469 20.6565L11.2931 23.7775C11.4995 23.9222 11.7466 24 12 24C12.2534 24 12.5005 23.9222 12.7069 23.7775L17.1553 20.6565C18.5774 19.6564 19.7363 18.3361 20.5355 16.8056C21.3347 15.2752 21.7511 13.5788 21.75 11.8577V2.91494C21.7506 2.73561 21.7104 2.55842 21.6324 2.3964C21.5544 2.23437 21.4405 2.09162 21.2991 1.97865ZM19.3125 11.8577C19.3134 13.1959 18.9899 14.5149 18.3688 15.705C17.7476 16.8951 16.8469 17.9219 15.7416 18.6999L12 21.3287L8.25844 18.6999C7.15308 17.9219 6.25236 16.8951 5.63124 15.705C5.01012 14.5149 4.68657 13.1959 4.68751 11.8577V4.29537C7.24253 4.51076 9.80143 3.92688 12 2.62685C14.1986 3.92688 16.7575 4.51076 19.3125 4.29537V11.8577ZM13.8769 9.10888L10.5984 12.3499L9.51375 11.2696C9.28426 11.0435 8.973 10.9165 8.64844 10.9165C8.32389 10.9165 8.01262 11.0435 7.78313 11.2696C7.55363 11.4956 7.4247 11.8022 7.4247 12.1218C7.4247 12.4415 7.55363 12.7481 7.78313 12.9741L9.73313 14.8947C9.84643 15.0072 9.98122 15.0965 10.1297 15.1574C10.2783 15.2184 10.4375 15.2498 10.5984 15.2498C10.7593 15.2498 10.9186 15.2184 11.0671 15.1574C11.2157 15.0965 11.3505 15.0072 11.4638 14.8947L15.6562 10.8014C15.8857 10.5754 16.0147 10.2688 16.0147 9.94914C16.0147 9.62948 15.8857 9.32291 15.6562 9.09687C15.4268 8.87084 15.1155 8.74385 14.7909 8.74385C14.4664 8.74385 14.1551 8.87084 13.9256 9.09687L13.8769 9.10888Z" fill="currentColor"/>
</svg>
