<svg width="32" height="32" viewBox="0 0 32 32" fill="none" xmlns="http://www.w3.org/2000/svg">
<path d="M28.3987 2.63819C28.21 2.48778 27.9893 2.38095 27.7531 2.32556C27.5169 2.27016 27.2711 2.26761 27.0337 2.31809C25.2973 2.67652 23.5048 2.68108 21.7665 2.33151C20.0282 1.98194 18.381 1.28563 16.9262 0.285458C16.6542 0.099596 16.3311 0 16 0C15.6689 0 15.3458 0.099596 15.0738 0.285458C13.619 1.28563 11.9717 1.98194 10.2335 2.33151C8.4952 2.68108 6.70267 2.67652 4.96626 2.31809C4.72891 2.26761 4.48309 2.27016 4.24687 2.32556C4.01065 2.38095 3.79004 2.48778 3.60126 2.63819C3.41273 2.78883 3.26086 2.97916 3.15681 3.19519C3.05276 3.41123 2.99918 3.64748 3.00001 3.88658V15.8103C2.99856 18.105 3.55377 20.3669 4.61938 22.4075C5.68499 24.4481 7.23017 26.2085 9.12625 27.542L15.0575 31.7033C15.3327 31.8963 15.6622 32 16 32C16.3378 32 16.6673 31.8963 16.9425 31.7033L22.8737 27.542C24.7698 26.2085 26.315 24.4481 27.3806 22.4075C28.4462 20.3669 29.0014 18.105 29 15.8103V3.88658C29.0008 3.64748 28.9472 3.41123 28.8432 3.19519C28.7391 2.97916 28.5873 2.78883 28.3987 2.63819ZM25.75 15.8103C25.7512 17.5945 25.3198 19.3531 24.4917 20.94C23.6635 22.5268 22.4626 23.8958 20.9887 24.9332L16 28.4383L11.0113 24.9332C9.53744 23.8958 8.33648 22.5268 7.50832 20.94C6.68017 19.3531 6.24876 17.5945 6.25001 15.8103V5.72716C9.6567 6.01434 13.0686 5.23584 16 3.50247C18.9314 5.23584 22.3433 6.01434 25.75 5.72716V15.8103ZM18.5025 12.1452L14.1313 16.4665L12.685 15.0261C12.379 14.7247 11.964 14.5554 11.5313 14.5554C11.0985 14.5554 10.6835 14.7247 10.3775 15.0261C10.0715 15.3275 9.89961 15.7362 9.89961 16.1624C9.89961 16.5886 10.0715 16.9974 10.3775 17.2988L12.9775 19.8596C13.1286 20.0096 13.3083 20.1287 13.5063 20.2099C13.7043 20.2912 13.9167 20.333 14.1313 20.333C14.3458 20.333 14.5582 20.2912 14.7562 20.2099C14.9542 20.1287 15.1339 20.0096 15.285 19.8596L20.875 14.4019C21.181 14.1005 21.3529 13.6917 21.3529 13.2655C21.3529 12.8393 21.181 12.4305 20.875 12.1292C20.569 11.8278 20.154 11.6585 19.7212 11.6585C19.2885 11.6585 18.8735 11.8278 18.5675 12.1292L18.5025 12.1452Z" fill="currentColor"/>
</svg>
