<?xml version="1.0" encoding="UTF-8"?>
<svg width="32px" height="32px" viewBox="0 0 32 32" version="1.1" xmlns="http://www.w3.org/2000/svg" xmlns:xlink="http://www.w3.org/1999/xlink">
    <!-- Generator: Sketch 48.1 (47250) - http://www.bohemiancoding.com/sketch -->
    <title>ShoppingCart32</title>
    <desc>Created with Sketch.</desc>
    <defs></defs>
    <g id="Page-1" stroke="none" stroke-width="1" fill="none" fill-rule="evenodd">
        <g id="ShoppingCart32" fill="#000000" fill-rule="nonzero">
            <path d="M8.49534627,8.63941229 L9.8324278,18.5676464 C9.94585417,19.4154532 10.68698,20.0471611 11.5681818,20.0398739 L26.0009785,20.0400537 C26.8375105,20.0557598 27.5652511,19.4818051 27.7285552,18.6762941 L29.7799109,8.63941229 L8.49534627,8.63941229 Z M8.23145743,6.67995795 L31,6.67995795 C31.6311399,6.67995795 32.1044543,7.24573632 31.9805357,7.85204561 L29.6899306,19.0595215 C29.3381936,20.7945067 27.767806,22.0330405 25.9818182,21.9993282 L11.5766631,21.999293 C9.69342397,22.014942 8.09415254,20.6517828 7.84950173,18.8231345 L5.77666767,3.43171594 C5.6640687,2.59032276 4.9328203,1.9607381 4.06818182,1.95945433 L1,1.95945433 C0.44771525,1.95945433 0,1.52081554 0,0.979727167 C0,0.438638793 0.44771525,0 1,0 L4.06969596,1.12307781e-06 C5.93876216,0.00277378906 7.51671922,1.3613512 7.75958918,3.17619374 L8.23145743,6.67995795 Z M28,32 C25.790861,32 24,30.209139 24,28 C24,25.790861 25.790861,24 28,24 C30.209139,24 32,25.790861 32,28 C32,30.209139 30.209139,32 28,32 Z M28,29.8536585 C29.0237473,29.8536585 29.8536585,29.0237473 29.8536585,28 C29.8536585,26.9762527 29.0237473,26.1463415 28,26.1463415 C26.9762527,26.1463415 26.1463415,26.9762527 26.1463415,28 C26.1463415,29.0237473 26.9762527,29.8536585 28,29.8536585 Z M10,32 C7.790861,32 6,30.209139 6,28 C6,25.790861 7.790861,24 10,24 C12.209139,24 14,25.790861 14,28 C14,30.209139 12.209139,32 10,32 Z M10,29.8536585 C11.0237473,29.8536585 11.8536585,29.0237473 11.8536585,28 C11.8536585,26.9762527 11.0237473,26.1463415 10,26.1463415 C8.97625266,26.1463415 8.14634146,26.9762527 8.14634146,28 C8.14634146,29.0237473 8.97625266,29.8536585 10,29.8536585 Z"></path>
        </g>
    </g>
</svg>