<?xml version="1.0" encoding="UTF-8"?>
<svg width="24px" height="24px" viewBox="0 0 24 24" version="1.1" xmlns="http://www.w3.org/2000/svg" xmlns:xlink="http://www.w3.org/1999/xlink">
    <!-- Generator: Sketch 48.2 (47327) - http://www.bohemiancoding.com/sketch -->
    <title>ShoppingCart24</title>
    <desc>Created with Sketch.</desc>
    <defs></defs>
    <g id="Page-1" stroke="none" stroke-width="1" fill="none" fill-rule="evenodd">
        <g id="ShoppingCart24" fill="#000000" fill-rule="nonzero">
            <path d="M6.85859546,7 L7.74028159,13.2366163 C7.80003462,13.6620812 8.22089337,14.00381 8.75,13.999653 L19.3378829,13.9998129 C19.8388116,14.0087724 20.255289,13.6958668 20.3442002,13.2783576 L21.7511107,7 L6.85859546,7 Z M6.57585044,5 L23,5 C23.6404773,5 24.1158503,5.59368835 23.9757998,6.21866593 L22.2980962,13.7051768 C22.0072371,15.0719019 20.7384205,16.0251824 19.32,15.999653 L8.75791571,15.9996216 C7.25806951,16.0114944 5.96263697,14.9596292 5.75984576,13.5156739 L4.75420693,6.40227685 C4.70005879,6.27918479 4.67,6.1431027 4.67,6 C4.67,5.95520194 4.67294574,5.9110919 4.67865408,5.867853 L4.23972363,2.7630738 C4.18042954,2.34099179 3.76556755,2.00072958 3.25,2 L1,2 C0.44771525,2 0,1.55228475 0,1 C0,0.44771525 0.44771525,0 1,0 L3.25141317,9.98520109e-07 C4.74025959,0.00210498833 6.01881493,1.05075267 6.22015424,2.48397911 L6.57585044,5 Z M9,24 C7.34314575,24 6,22.6568542 6,21 C6,19.3431458 7.34314575,18 9,18 C10.6568542,18 12,19.3431458 12,21 C12,22.6568542 10.6568542,24 9,24 Z M9,22 C9.55228475,22 10,21.5522847 10,21 C10,20.4477153 9.55228475,20 9,20 C8.44771525,20 8,20.4477153 8,21 C8,21.5522847 8.44771525,22 9,22 Z M19,24 C17.3431458,24 16,22.6568542 16,21 C16,19.3431458 17.3431458,18 19,18 C20.6568542,18 22,19.3431458 22,21 C22,22.6568542 20.6568542,24 19,24 Z M19,22 C19.5522847,22 20,21.5522847 20,21 C20,20.4477153 19.5522847,20 19,20 C18.4477153,20 18,20.4477153 18,21 C18,21.5522847 18.4477153,22 19,22 Z"></path>
        </g>
    </g>
</svg>