<svg width="24" height="24" viewBox="0 0 24 24" fill="none" xmlns="http://www.w3.org/2000/svg">
<g clip-path="url(#clip0)">
<path d="M21.2925 0.335083H3.06959C2.60718 0.335083 2.23242 0.709887 2.23242 1.17225V4.80007C2.23242 5.26248 2.60723 5.63723 3.06959 5.63723H21.2925C21.7549 5.63723 22.1296 5.26243 22.1296 4.80007V1.1723C22.1296 0.709887 21.7549 0.335083 21.2925 0.335083ZM20.4553 3.96294H3.90681V2.00947H20.4553V3.96294Z" fill="currentColor"/>
<path d="M23.9943 20.9727L22.0966 4.70333L20.4337 4.89729L22.2436 20.4177L15.8229 21.8571L12.7725 14.5518C12.6422 14.2404 12.3374 14.0372 11.9998 14.0372C11.6621 14.0372 11.3574 14.2404 11.227 14.5515L8.17686 21.8571L1.7713 20.421L3.89914 4.91374L2.24036 4.68631L0.0078498 20.9554C-0.0513052 21.3866 0.229704 21.791 0.654148 21.8864L8.49584 23.6445C8.89211 23.733 9.29509 23.5248 9.45165 23.1503L11.9998 17.0471L14.5482 23.1503C14.6807 23.467 14.9891 23.6648 15.3206 23.6648C15.3812 23.6648 15.4426 23.6584 15.5042 23.6447L23.3459 21.8866C23.7643 21.7929 24.0442 21.3983 23.9943 20.9727Z" fill="currentColor"/>
<path d="M5.99978 4.85628C5.99978 6.93364 4.30978 8.62363 2.23242 8.62363V10.298C5.2332 10.298 7.67417 7.85678 7.67417 4.85628H5.99978Z" fill="currentColor"/>
<path d="M17.9997 4.85628H16.3253C16.3253 7.85678 18.7666 10.298 21.7671 10.298V8.62363C19.6897 8.62363 17.9997 6.93364 17.9997 4.85628Z" fill="currentColor"/>
<path d="M12.837 4.80011H11.1626V14.8743H12.837V4.80011Z" fill="currentColor"/>
</g>
<defs>
<clipPath id="clip0">
<rect width="24" height="24" fill="white"/>
</clipPath>
</defs>
</svg>
