<svg width="32" height="32" viewBox="0 0 32 32" fill="none" xmlns="http://www.w3.org/2000/svg">
<g clip-path="url(#clip0)">
<path d="M28.39 0.446777H4.09279C3.47624 0.446777 2.97656 0.946517 2.97656 1.563V6.40009C2.97656 7.01664 3.4763 7.51631 4.09279 7.51631H28.39C29.0065 7.51631 29.5062 7.01657 29.5062 6.40009V1.56307C29.5062 0.946517 29.0065 0.446777 28.39 0.446777ZM27.2737 5.28392H5.20908V2.67929H27.2737V5.28392Z" fill="currentColor"/>
<path d="M31.9923 27.9636L29.4621 6.2711L27.2449 6.52972L29.6582 27.2236L21.0973 29.1428L17.03 19.4024C16.8562 18.9871 16.4499 18.7163 15.9997 18.7163C15.5494 18.7163 15.1431 18.9871 14.9694 19.402L10.9025 29.1428L2.36173 27.228L5.19885 6.55166L2.98715 6.24841L0.0104664 27.9406C-0.0684069 28.5154 0.306273 29.0546 0.872198 29.1819L11.3278 31.526C11.8561 31.6439 12.3934 31.3664 12.6022 30.867L15.9997 22.7295L19.3975 30.867C19.5743 31.2893 19.9855 31.5531 20.4275 31.5531C20.5082 31.5531 20.5901 31.5446 20.6723 31.5263L31.1279 29.1822C31.6857 29.0572 32.0589 28.5311 31.9923 27.9636Z" fill="currentColor"/>
<path d="M7.99971 6.47504C7.99971 9.24485 5.74638 11.4982 2.97656 11.4982V13.7307C6.9776 13.7307 10.2322 10.4757 10.2322 6.47504H7.99971Z" fill="currentColor"/>
<path d="M23.9996 6.47504H21.7671C21.7671 10.4757 25.0221 13.7307 29.0227 13.7307V11.4982C26.2529 11.4982 23.9996 9.24485 23.9996 6.47504Z" fill="currentColor"/>
<path d="M17.1161 6.40015H14.8835V19.8324H17.1161V6.40015Z" fill="currentColor"/>
</g>
<defs>
<clipPath id="clip0">
<rect width="32" height="32" fill="white"/>
</clipPath>
</defs>
</svg>
