<?xml version="1.0" encoding="UTF-8"?>
<svg width="32px" height="32px" viewBox="0 0 32 32" version="1.1" xmlns="http://www.w3.org/2000/svg" xmlns:xlink="http://www.w3.org/1999/xlink">
    <!-- Generator: Sketch 48.2 (47327) - http://www.bohemiancoding.com/sketch -->
    <title>Show32</title>
    <desc>Created with Sketch.</desc>
    <defs></defs>
    <g id="Page-1" stroke="none" stroke-width="1" fill="none" fill-rule="evenodd">
        <g id="Show32" fill="#000000" fill-rule="nonzero">
            <path d="M2.84350222,17.1794001 C3.63869453,18.4209262 4.57796668,19.6630238 5.65281675,20.8190847 C8.67671422,24.0714545 12.1433147,26 16,26 C19.8566853,26 23.3232858,24.0714545 26.3471833,20.8190847 C27.4220333,19.6630238 28.3613055,18.4209262 29.1564978,17.1794001 C29.4304579,16.7516688 29.6670881,16.355065 29.8655695,16 C29.6670881,15.644935 29.4304579,15.2483312 29.1564978,14.8205999 C28.3613055,13.5790738 27.4220333,12.3369762 26.3471833,11.1809153 C23.3232858,7.92854555 19.8566853,6 16,6 C12.1433147,6 8.67671422,7.92854555 5.65281675,11.1809153 C4.57796668,12.3369762 3.63869453,13.5790738 2.84350222,14.8205999 C2.56954211,15.2483312 2.33291192,15.644935 2.13443048,16 C2.33291192,16.355065 2.56954211,16.7516688 2.84350222,17.1794001 Z M0.104096881,15.5557505 C0.153712278,15.4556928 0.245768031,15.2802795 0.37971364,15.0401696 C0.599056607,14.646977 0.859091239,14.2106736 1.15933869,13.7419001 C2.01542479,12.4053012 3.0257265,11.0692738 4.18809234,9.81908473 C7.55624033,6.19645445 11.5044126,4 16,4 C20.4955874,4 24.4437597,6.19645445 27.8119077,9.81908473 C28.9742735,11.0692738 29.9845752,12.4053012 30.8406613,13.7419001 C31.1409088,14.2106736 31.4009434,14.646977 31.6202864,15.0401696 C31.754232,15.2802795 31.8462877,15.4556928 31.8959031,15.5557505 C32.034699,15.8356555 32.034699,16.1643445 31.8959031,16.4442495 C31.8462877,16.5443072 31.754232,16.7197205 31.6202864,16.9598304 C31.4009434,17.353023 31.1409088,17.7893264 30.8406613,18.2580999 C29.9845752,19.5946988 28.9742735,20.9307262 27.8119077,22.1809153 C24.4437597,25.8035455 20.4955874,28 16,28 C11.5044126,28 7.55624033,25.8035455 4.18809234,22.1809153 C3.0257265,20.9307262 2.01542479,19.5946988 1.15933869,18.2580999 C0.859091239,17.7893264 0.599056607,17.353023 0.37971364,16.9598304 C0.245768031,16.7197205 0.153712278,16.5443072 0.104096881,16.4442495 C-0.0346989603,16.1643445 -0.0346989603,15.8356555 0.104096881,15.5557505 Z M16,21 C13.2106248,21 11,18.7391338 11,16 C11,13.2608662 13.2106248,11 16,11 C18.7893752,11 21,13.2608662 21,16 C21,18.7391338 18.7893752,21 16,21 Z M16,19.1818182 C17.6289028,19.1818182 19,17.7795596 19,16 C19,14.2204404 17.6289028,12.8181818 16,12.8181818 C14.3710972,12.8181818 13,14.2204404 13,16 C13,17.7795596 14.3710972,19.1818182 16,19.1818182 Z"></path>
        </g>
    </g>
</svg>