<svg width="24" height="19" viewBox="0 0 24 19" fill="none" xmlns="http://www.w3.org/2000/svg">
<path d="M23.8999 9.025C21.4767 3.45563 16.9183 0 12 0C7.08172 0 2.5233 3.45563 0.100147 9.025C0.0340939 9.17481 0 9.33653 0 9.5C0 9.66347 0.0340939 9.82519 0.100147 9.975C2.5233 15.5443 7.08172 19 12 19C16.9183 19 21.4767 15.5443 23.8999 9.975C23.9659 9.82519 24 9.66347 24 9.5C24 9.33653 23.9659 9.17481 23.8999 9.025ZM12 16.625C8.19735 16.625 4.59858 13.9056 2.5233 9.5C4.59858 5.09437 8.19735 2.375 12 2.375C15.8026 2.375 19.4014 5.09437 21.4767 9.5C19.4014 13.9056 15.8026 16.625 12 16.625ZM12 4.75C11.0509 4.75 10.1233 5.02858 9.3342 5.55048C8.54512 6.07247 7.93013 6.81428 7.5669 7.68228C7.20375 8.55022 7.10872 9.50526 7.29387 10.4267C7.47901 11.3481 7.93597 12.1945 8.60707 12.8588C9.2781 13.523 10.1331 13.9754 11.0639 14.1587C11.9947 14.342 12.9595 14.248 13.8362 13.8884C14.713 13.5289 15.4624 12.9201 15.9897 12.139C16.5169 11.3578 16.7984 10.4395 16.7984 9.5C16.7984 8.24023 16.2928 7.03205 15.3929 6.14124C14.4931 5.25043 13.2726 4.75 12 4.75ZM12 11.875C11.5255 11.875 11.0616 11.7357 10.6671 11.4748C10.2725 11.2138 9.96502 10.8429 9.78345 10.4089C9.60187 9.97493 9.5544 9.49737 9.64695 9.03669C9.7395 8.57594 9.96802 8.15275 10.3035 7.82062C10.639 7.48848 11.0666 7.26224 11.5319 7.1706C11.9974 7.07896 12.4797 7.12602 12.9181 7.30579C13.3565 7.48556 13.7312 7.78993 13.9948 8.18052C14.2585 8.57112 14.3992 9.03026 14.3992 9.5C14.3992 10.1299 14.1464 10.734 13.6965 11.1794C13.2465 11.6248 12.6363 11.875 12 11.875Z" fill="currentColor"/>
</svg>
