<svg width="24" height="24" viewBox="0 0 24 24" fill="none" xmlns="http://www.w3.org/2000/svg">
<path d="M9.5988 5.25C9.28039 5.25 8.97501 5.37511 8.74985 5.59781C8.5247 5.82051 8.3982 6.12256 8.3982 6.4375V11.1875H4.08805L5.04853 10.2494C5.27461 10.0258 5.40162 9.72248 5.40162 9.40625C5.40162 9.09002 5.27461 8.78674 5.04853 8.56312C4.82246 8.33951 4.51583 8.21389 4.19611 8.21389C3.87639 8.21389 3.56976 8.33951 3.34368 8.56312L0.342187 11.5319C0.232884 11.6448 0.147203 11.778 0.0900611 11.9237C-0.0300204 12.2129 -0.0300204 12.5371 0.0900611 12.8263C0.147203 12.972 0.232884 13.1052 0.342187 13.2181L3.34368 16.1869C3.45529 16.2982 3.58808 16.3865 3.73439 16.4468C3.88069 16.5071 4.03762 16.5381 4.19611 16.5381C4.3546 16.5381 4.51153 16.5071 4.65783 16.4468C4.80414 16.3865 4.93692 16.2982 5.04853 16.1869C5.16106 16.0765 5.25038 15.9451 5.31133 15.8004C5.37229 15.6557 5.40367 15.5005 5.40367 15.3438C5.40367 15.187 5.37229 15.0318 5.31133 14.8871C5.25038 14.7424 5.16106 14.611 5.04853 14.5006L4.08805 13.5625H8.3982V18.3125C8.3982 18.6274 8.5247 18.9295 8.74985 19.1522C8.97501 19.3749 9.28039 19.5 9.5988 19.5C9.91722 19.5 10.2226 19.3749 10.4478 19.1522C10.6729 18.9295 10.7994 18.6274 10.7994 18.3125V6.4375C10.7994 6.12256 10.6729 5.82051 10.4478 5.59781C10.2226 5.37511 9.91722 5.25 9.5988 5.25ZM23.9099 11.9237C23.8528 11.778 23.7671 11.6448 23.6578 11.5319L20.6563 8.56312C20.5444 8.4524 20.4115 8.36458 20.2652 8.30465C20.119 8.24473 19.9622 8.21389 19.8039 8.21389C19.4842 8.21389 19.1775 8.33951 18.9515 8.56312C18.8395 8.67385 18.7507 8.80529 18.6901 8.94995C18.6296 9.09462 18.5984 9.24967 18.5984 9.40625C18.5984 9.72248 18.7254 10.0258 18.9515 10.2494L19.9119 11.1875H15.6018V6.4375C15.6018 6.12256 15.4753 5.82051 15.2501 5.59781C15.025 5.37511 14.7196 5.25 14.4012 5.25C14.0828 5.25 13.7774 5.37511 13.5522 5.59781C13.3271 5.82051 13.2006 6.12256 13.2006 6.4375V18.3125C13.2006 18.6274 13.3271 18.9295 13.5522 19.1522C13.7774 19.3749 14.0828 19.5 14.4012 19.5C14.7196 19.5 15.025 19.3749 15.2501 19.1522C15.4753 18.9295 15.6018 18.6274 15.6018 18.3125V13.5625H19.9119L18.9515 14.5006C18.8389 14.611 18.7496 14.7424 18.6887 14.8871C18.6277 15.0318 18.5963 15.187 18.5963 15.3438C18.5963 15.5005 18.6277 15.6557 18.6887 15.8004C18.7496 15.9451 18.8389 16.0765 18.9515 16.1869C19.0631 16.2982 19.1959 16.3865 19.3422 16.4468C19.4885 16.5071 19.6454 16.5381 19.8039 16.5381C19.9624 16.5381 20.1193 16.5071 20.2656 16.4468C20.4119 16.3865 20.5447 16.2982 20.6563 16.1869L23.6578 13.2181C23.7671 13.1052 23.8528 12.972 23.9099 12.8263C24.03 12.5371 24.03 12.2129 23.9099 11.9237Z" fill="currentColor"/>
</svg>
