<svg width="32" height="32" viewBox="0 0 32 32" fill="none" xmlns="http://www.w3.org/2000/svg">
<path d="M12.7984 7C12.3738 7 11.9667 7.16682 11.6665 7.46375C11.3663 7.76068 11.1976 8.16341 11.1976 8.58333V14.9167H5.45074L6.73138 13.6658C7.03281 13.3677 7.20216 12.9633 7.20216 12.5417C7.20216 12.12 7.03281 11.7156 6.73138 11.4175C6.42994 11.1194 6.02111 10.9519 5.59481 10.9519C5.16852 10.9519 4.75968 11.1194 4.45824 11.4175L0.456249 15.3758C0.310512 15.5264 0.196271 15.704 0.120081 15.8983C-0.0400272 16.2838 -0.0400272 16.7162 0.120081 17.1017C0.196271 17.296 0.310512 17.4736 0.456249 17.6242L4.45824 21.5825C4.60706 21.7309 4.78411 21.8487 4.97918 21.9291C5.17425 22.0095 5.38349 22.0508 5.59481 22.0508C5.80614 22.0508 6.01537 22.0095 6.21044 21.9291C6.40551 21.8487 6.58256 21.7309 6.73138 21.5825C6.88142 21.4353 7.00051 21.2602 7.08178 21.0672C7.16305 20.8743 7.20489 20.6674 7.20489 20.4583C7.20489 20.2493 7.16305 20.0424 7.08178 19.8494C7.00051 19.6565 6.88142 19.4814 6.73138 19.3342L5.45074 18.0833H11.1976V24.4167C11.1976 24.8366 11.3663 25.2393 11.6665 25.5363C11.9667 25.8332 12.3738 26 12.7984 26C13.223 26 13.6301 25.8332 13.9303 25.5363C14.2305 25.2393 14.3992 24.8366 14.3992 24.4167V8.58333C14.3992 8.16341 14.2305 7.76068 13.9303 7.46375C13.6301 7.16682 13.223 7 12.7984 7ZM31.8799 15.8983C31.8037 15.704 31.6895 15.5264 31.5438 15.3758L27.5418 11.4175C27.3925 11.2699 27.2153 11.1528 27.0203 11.0729C26.8253 10.993 26.6163 10.9519 26.4052 10.9519C25.9789 10.9519 25.5701 11.1194 25.2686 11.4175C25.1194 11.5651 25.001 11.7404 24.9202 11.9333C24.8394 12.1262 24.7978 12.3329 24.7978 12.5417C24.7978 12.9633 24.9672 13.3677 25.2686 13.6658L26.5493 14.9167H20.8024V8.58333C20.8024 8.16341 20.6337 7.76068 20.3335 7.46375C20.0333 7.16682 19.6262 7 19.2016 7C18.777 7 18.3699 7.16682 18.0697 7.46375C17.7695 7.76068 17.6008 8.16341 17.6008 8.58333V24.4167C17.6008 24.8366 17.7695 25.2393 18.0697 25.5363C18.3699 25.8332 18.777 26 19.2016 26C19.6262 26 20.0333 25.8332 20.3335 25.5363C20.6337 25.2393 20.8024 24.8366 20.8024 24.4167V18.0833H26.5493L25.2686 19.3342C25.1186 19.4814 24.9995 19.6565 24.9182 19.8494C24.8369 20.0424 24.7951 20.2493 24.7951 20.4583C24.7951 20.6674 24.8369 20.8743 24.9182 21.0672C24.9995 21.2602 25.1186 21.4353 25.2686 21.5825C25.4174 21.7309 25.5945 21.8487 25.7896 21.9291C25.9846 22.0095 26.1939 22.0508 26.4052 22.0508C26.6165 22.0508 26.8257 22.0095 27.0208 21.9291C27.2159 21.8487 27.3929 21.7309 27.5418 21.5825L31.5438 17.6242C31.6895 17.4736 31.8037 17.296 31.8799 17.1017C32.04 16.7162 32.04 16.2838 31.8799 15.8983Z" fill="currentColor"/>
</svg>
