<svg width="24" height="24" viewBox="0 0 24 24" fill="none" xmlns="http://www.w3.org/2000/svg">
<path d="M23.9597 9.07401C23.8841 8.84457 23.7464 8.64305 23.5635 8.49388C23.3805 8.34471 23.1602 8.25429 22.9291 8.2336L16.1104 7.1925L13.0546 0.707584C12.9565 0.495512 12.8032 0.31666 12.6125 0.191516C12.4217 0.0663732 12.2012 0 11.9761 0C11.7509 0 11.5304 0.0663732 11.3396 0.191516C11.1489 0.31666 10.9957 0.495512 10.8975 0.707584L7.84168 7.17996L1.02296 8.2336C0.801172 8.2666 0.592658 8.36401 0.421083 8.51477C0.249508 8.66554 0.121742 8.86362 0.0522846 9.08655C-0.0112949 9.3044 -0.0170004 9.53625 0.0357803 9.75723C0.0885611 9.97822 0.197836 10.18 0.351877 10.3409L5.30114 15.3582L4.10277 22.4829C4.05439 22.7192 4.07228 22.9651 4.15428 23.1911C4.23629 23.4171 4.37892 23.6134 4.56502 23.7565C4.75111 23.8996 4.97275 23.9834 5.20327 23.9978C5.43378 24.0122 5.66336 23.9565 5.86437 23.8375L11.9761 20.4885L18.0877 23.8375C18.2559 23.9369 18.4459 23.9887 18.639 23.9881C18.8928 23.989 19.1404 23.9056 19.346 23.7497C19.5319 23.6103 19.6759 23.4182 19.7608 23.1959C19.8458 22.9736 19.8682 22.7306 19.8254 22.4954L18.627 15.3708L23.5763 10.3534C23.7493 10.2 23.8772 9.99833 23.945 9.77185C24.0129 9.54538 24.018 9.30339 23.9597 9.07401ZM16.5898 14.0914C16.4511 14.2323 16.347 14.4064 16.2865 14.5986C16.226 14.7908 16.2108 14.9955 16.2422 15.1952L17.1051 20.4634L12.5992 17.9547C12.4241 17.864 12.2313 17.8169 12.036 17.8169C11.8406 17.8169 11.6479 17.864 11.4727 17.9547L6.96687 20.4634L7.8297 15.1952C7.86114 14.9955 7.84596 14.7908 7.78544 14.5986C7.72493 14.4064 7.62088 14.2323 7.48217 14.0914L3.88707 10.3283L8.9322 9.5632C9.12633 9.53493 9.31088 9.45726 9.46967 9.33698C9.62845 9.2167 9.75663 9.0575 9.84296 8.87331L11.9761 4.09429L14.229 8.88586C14.3153 9.07004 14.4435 9.22925 14.6023 9.34952C14.7611 9.4698 14.9456 9.54748 15.1397 9.57574L20.1849 10.3409L16.5898 14.0914Z" fill="currentColor"/>
</svg>
