<svg width="32" height="32" viewBox="0 0 32 32" fill="none" xmlns="http://www.w3.org/2000/svg">
<path d="M31.9463 12.0987C31.8454 11.7928 31.6619 11.5241 31.418 11.3252C31.1741 11.1263 30.8803 11.0057 30.5722 10.9781L21.4806 9.59L17.4061 0.943445C17.2753 0.660682 17.071 0.422213 16.8167 0.255355C16.5623 0.0884975 16.2682 0 15.9681 0C15.6679 0 15.3738 0.0884975 15.1195 0.255355C14.8652 0.422213 14.6609 0.660682 14.53 0.943445L10.4556 9.57328L1.36395 10.9781C1.06823 11.0221 0.790211 11.152 0.561444 11.353C0.332677 11.554 0.162323 11.8182 0.0697128 12.1154C-0.0150599 12.4059 -0.0226672 12.715 0.0477071 13.0096C0.118081 13.3043 0.263781 13.5733 0.469169 13.7878L7.06819 20.4776L5.47036 29.9771C5.40585 30.2923 5.4297 30.6202 5.53904 30.9215C5.64839 31.2227 5.83856 31.4845 6.08669 31.6753C6.33482 31.8662 6.63034 31.9779 6.93769 31.997C7.24504 32.0162 7.55114 31.942 7.81917 31.7834L15.9681 27.318L24.117 31.7834C24.3412 31.9158 24.5945 31.985 24.852 31.9841C25.1904 31.9853 25.5205 31.8741 25.7947 31.6663C26.0426 31.4804 26.2345 31.2242 26.3477 30.9279C26.461 30.6315 26.4909 30.3074 26.4338 29.9939L24.836 20.4944L31.435 13.8046C31.6657 13.6 31.8362 13.3311 31.9267 13.0291C32.0172 12.7272 32.024 12.4045 31.9463 12.0987ZM22.1197 18.7885C21.9348 18.9765 21.796 19.2085 21.7153 19.4648C21.6347 19.7211 21.6144 19.994 21.6563 20.2602L22.8068 27.2845L16.7989 23.9396C16.5655 23.8187 16.3085 23.7558 16.048 23.7558C15.7875 23.7558 15.5305 23.8187 15.297 23.9396L9.28916 27.2845L10.4396 20.2602C10.4815 19.994 10.4613 19.7211 10.3806 19.4648C10.2999 19.2085 10.1612 18.9765 9.97623 18.7885L5.18275 13.7711L11.9096 12.7509C12.1684 12.7132 12.4145 12.6097 12.6262 12.4493C12.8379 12.2889 13.0088 12.0767 13.1239 11.8311L15.9681 5.45906L18.972 11.8478C19.0871 12.0934 19.258 12.3057 19.4697 12.466C19.6814 12.6264 19.9275 12.73 20.1863 12.7677L26.9132 13.7878L22.1197 18.7885Z" fill="currentColor"/>
</svg>
