<?xml version="1.0" encoding="UTF-8"?>
<svg width="32px" height="32px" viewBox="0 0 32 32" version="1.1" xmlns="http://www.w3.org/2000/svg" xmlns:xlink="http://www.w3.org/1999/xlink">
    <!-- Generator: Sketch 50.2 (55047) - http://www.bohemiancoding.com/sketch -->
    <title>Store32</title>
    <desc>Created with Sketch.</desc>
    <defs></defs>
    <g id="Page-1" stroke="none" stroke-width="1" fill="none" fill-rule="evenodd">
        <g id="Store32" fill="#000000" fill-rule="nonzero">
            <path d="M31.7900154,11.27 L27.7100154,3.11 C27.3722853,2.43034232 26.6789593,2.00040273 25.9200154,2 L6.08001536,2 C5.32107138,2.00040273 4.62774537,2.43034232 4.29001536,3.11 L0.210015357,11.27 C0.0707116283,11.549491 -0.00120831119,11.8577193 1.53570447e-05,12.17 L1.53570447e-05,15.25 C-0.000897668981,15.7173043 0.16185305,16.1701759 0.460015357,16.53 C1.35166693,17.552113 2.64365232,18.1360612 4.00001536,18.13 C5.09378569,18.1317037 6.1541975,17.7534902 7.00001536,17.06 C8.74411563,18.4908032 11.2559151,18.4908032 13.0000154,17.06 C14.7441156,18.4908032 17.2559151,18.4908032 19.0000154,17.06 C20.7441156,18.4908032 23.2559151,18.4908032 25.0000154,17.06 C26.9622651,18.671167 29.8474808,18.4414102 31.5300154,16.54 C31.8317822,16.1815608 31.9981224,15.7285491 32.0000154,15.26 L32.0000154,12.17 C32.001239,11.8577193 31.9293191,11.549491 31.7900154,11.27 Z M28.0000154,16.13 C27.133387,16.1279616 26.321236,15.7069843 25.8200154,15 L25.0000154,13.88 L24.1900154,15 C23.6794896,15.6958459 22.8680554,16.106917 22.0050154,16.106917 C21.1419754,16.106917 20.3305411,15.6958459 19.8200154,15 L19.0000154,13.88 L18.1900154,15 C17.6794896,15.6958459 16.8680554,16.106917 16.0050154,16.106917 C15.1419754,16.106917 14.3305411,15.6958459 13.8200154,15 L13.0000154,13.88 L12.1900154,15 C11.6794896,15.6958459 10.8680554,16.106917 10.0050154,16.106917 C9.14197536,16.106917 8.33054108,15.6958459 7.82001536,15 L7.00001536,13.88 L6.18001536,15 C5.67879472,15.7069843 4.86664375,16.1279616 4.00001536,16.13 C3.23754579,16.1392675 2.50830963,15.8184036 2.00001536,15.25 L2.00001536,12.17 L6.08001536,4 L25.9200154,4 L30.0000154,12.16 L30.0000154,12.83 L30.0000154,15.22 C29.4948432,15.7963075 28.7663862,16.1277555 28.0000154,16.13 Z M26.0000154,28 L26.0000154,20 L28.0000154,20 L28.0000154,28 C28.0000154,29.1045695 27.1045849,30 26.0000154,30 L6.00001536,30 C4.89544586,30 4.00001536,29.1045695 4.00001536,28 L4.00001536,20 L6.00001536,20 L6.00001536,28 L12.0000154,28 L12.0000154,20 L14.0000154,20 L14.0000154,28 L26.0000154,28 Z" id="Store" fill="#000000" fill-rule="nonzero"></path>
        </g>
    </g>
</svg>