<?xml version="1.0" encoding="UTF-8"?>
<svg width="24px" height="24px" viewBox="0 0 24 24" version="1.1" xmlns="http://www.w3.org/2000/svg" xmlns:xlink="http://www.w3.org/1999/xlink">
    <!-- Generator: Sketch 50.2 (55047) - http://www.bohemiancoding.com/sketch -->
    <title>Store24</title>
    <desc>Created with Sketch.</desc>
    <defs></defs>
    <g id="Page-1" stroke="none" stroke-width="1" fill="none" fill-rule="evenodd">
        <g id="Store24" fill="#000000" fill-rule="nonzero">
            <path d="M23.8424886,8.95249333 L20.7824916,2.8324992 C20.5291943,2.32275643 20.0092003,2.00030204 19.4399929,2 L4.56000714,2 C3.99079971,2.00030204 3.47080569,2.32275643 3.21750843,2.8324992 L0.157511367,8.95249333 C0.0530336703,9.16211136 -0.00090623252,9.39328237 1.15177725e-05,9.62749268 L1.15177725e-05,11.9374905 C-0.00067325109,12.2879684 0.121389671,12.6276217 0.345011187,12.8974895 C1.01374923,13.6640735 1.98273733,14.1020342 3.00000864,14.0974884 C3.8203356,14.0987662 4.61564369,13.8151063 5.25000648,13.2949892 C6.55808043,14.3680905 8.44192821,14.3680905 9.75000216,13.2949892 C11.0580761,14.3680905 12.9419239,14.3680905 14.2499978,13.2949892 C15.5580718,14.3680905 17.4419196,14.3680905 18.7499935,13.2949892 C20.2216795,14.5033633 22.3855891,14.3310458 23.6474888,12.9049895 C23.8738137,12.6361604 23.9985688,12.296402 23.9999885,11.9449905 L23.9999885,9.62749268 C24.0009062,9.39328237 23.9469663,9.16211136 23.8424886,8.95249333 Z M20.9999914,12.5974898 C20.3500207,12.5959611 19.740908,12.2802284 19.3649929,11.7499906 L18.7499935,10.9099914 L18.1424941,11.7499906 C17.7596002,12.2718746 17.1510251,12.5801776 16.5037457,12.5801776 C15.8564663,12.5801776 15.2478912,12.2718746 14.8649973,11.7499906 L14.2499978,10.9099914 L13.6424984,11.7499906 C13.2596045,12.2718746 12.6510294,12.5801776 12.00375,12.5801776 C11.3564706,12.5801776 10.7478955,12.2718746 10.3650016,11.7499906 L9.75000216,10.9099914 L9.14250274,11.7499906 C8.75960882,12.2718746 8.15103369,12.5801776 7.50375432,12.5801776 C6.85647494,12.5801776 6.24789981,12.2718746 5.86500589,11.7499906 L5.25000648,10.9099914 L4.63500707,11.7499906 C4.25909195,12.2802284 3.64997931,12.5959611 3.00000864,12.5974898 C2.42815701,12.6044405 1.88123042,12.3637928 1.50001008,11.9374905 L1.50001008,9.62749268 L4.56000714,3.49999856 L19.4399929,3.49999856 L22.4999899,9.61999269 L22.4999899,10.1224922 L22.4999899,11.9149905 C22.1211112,12.3472207 21.5747689,12.5958064 20.9999914,12.5974898 Z M19.4999928,21.4999813 L19.4999928,15.499987 L20.9999914,15.499987 L20.9999914,21.4999813 C20.9999914,22.3284076 20.3284191,22.9999798 19.4999928,22.9999798 L4.5000072,22.9999798 C3.67158087,22.9999798 3.00000864,22.3284076 3.00000864,21.4999813 L3.00000864,15.499987 L4.5000072,15.499987 L4.5000072,21.4999813 L9.00000288,21.4999813 L9.00000288,15.499987 L10.5000014,15.499987 L10.5000014,21.4999813 L19.4999928,21.4999813 Z" id="Store" fill="#000000" fill-rule="nonzero"></path>
        </g>
    </g>
</svg>