<?xml version="1.0" encoding="UTF-8"?>
<svg width="24px" height="24px" viewBox="0 0 24 24" version="1.1" xmlns="http://www.w3.org/2000/svg" xmlns:xlink="http://www.w3.org/1999/xlink">
    <!-- Generator: Sketch 48.1 (47250) - http://www.bohemiancoding.com/sketch -->
    <title>Support24</title>
    <desc>Created with Sketch.</desc>
    <defs></defs>
    <g id="Page-1" stroke="none" stroke-width="1" fill="none" fill-rule="evenodd">
        <g id="Support24" fill="#000000" fill-rule="nonzero">
            <path d="M6,10 L6,11.7835219 L2.24691358,11.7835219 C2.11054698,11.7835219 2,11.8940689 2,12.0304355 L2,20.2121735 L2.81926407,19.3929095 C3.02763782,19.1845357 3.31025328,19.0674726 3.60493827,19.0674726 L11.7530864,19.0674726 C11.889453,19.0674726 12,18.9569256 12,18.820559 L12,14 L14,14 L14,19.3333333 C14,20.1924429 13.3035541,20.8888889 12.4444444,20.8888889 L3.11111111,20.8888889 L0,24 L0,11.5555556 C0,10.6964459 0.696445945,10 1.55555556,10 L6,10 Z M22,11 L21.0988095,10.1252009 C20.8695984,9.90270225 20.5587214,9.7777038 20.2345679,9.7777038 L11.2716049,9.7777038 C11.1216017,9.7777038 11,9.65966324 11,9.51405282 L11,2.26365098 C11,2.11804056 11.1216017,2 11.2716049,2 L21.7283951,2 C21.8783983,2 22,2.11804056 22,2.26365098 L22,11 Z M9,10 C9,10.9204746 9.74619208,11.6666667 10.6666667,11.6666667 L20.6666667,11.6666667 L24,15 L24,1.66666667 C24,0.746192084 23.2538079,0 22.3333333,0 L10.6666667,0 C9.74619208,0 9,0.746192084 9,1.66666667 L9,10 Z"></path>
        </g>
    </g>
</svg>