<?xml version="1.0" encoding="UTF-8"?>
<svg width="32px" height="32px" viewBox="0 0 32 32" version="1.1" xmlns="http://www.w3.org/2000/svg" xmlns:xlink="http://www.w3.org/1999/xlink">
    <!-- Generator: Sketch 48.1 (47250) - http://www.bohemiancoding.com/sketch -->
    <title>Support32</title>
    <desc>Created with Sketch.</desc>
    <defs></defs>
    <g id="Page-1" stroke="none" stroke-width="1" fill="none" fill-rule="evenodd">
        <g id="Support32" fill="#000000" fill-rule="nonzero">
            <path d="M7,10 L7,12 L2.44444444,12 C2.19898456,12 2,12.1989846 2,12.4444444 L2,27.1715729 L3.47467533,25.6968975 C3.84974808,25.3218248 4.35845591,25.1111111 4.88888889,25.1111111 L19.5555556,25.1111111 C19.8010154,25.1111111 20,24.9121266 20,24.6666667 L20,20 L22,20 L22,24.6666667 C22,26.0166961 20.9055849,27.1111111 19.5555556,27.1111111 L4.88888889,27.1111111 L0,32 L0,12.4444444 C0,11.0944151 1.09441506,10 2.44444444,10 L7,10 Z M30,17.1715729 L28.5253247,15.6968975 C28.1502519,15.3218248 27.6415441,15.1111111 27.1111111,15.1111111 L12.4444444,15.1111111 C12.1989846,15.1111111 12,14.9121266 12,14.6666667 L12,2.44444444 C12,2.19898456 12.1989846,2 12.4444444,2 L29.5555556,2 C29.8010154,2 30,2.19898456 30,2.44444444 L30,17.1715729 Z M10,14.6666667 C10,16.0166961 11.0944151,17.1111111 12.4444444,17.1111111 L27.1111111,17.1111111 L32,22 L32,2.44444444 C32,1.09441506 30.9055849,0 29.5555556,0 L12.4444444,0 C11.0944151,0 10,1.09441506 10,2.44444444 L10,14.6666667 Z"></path>
        </g>
    </g>
</svg>