<?xml version="1.0" encoding="UTF-8"?>
<svg width="24px" height="24px" viewBox="0 0 24 24" version="1.1" xmlns="http://www.w3.org/2000/svg" xmlns:xlink="http://www.w3.org/1999/xlink">
    <!-- Generator: Sketch 48.1 (47250) - http://www.bohemiancoding.com/sketch -->
    <title>Tag24</title>
    <desc>Created with Sketch.</desc>
    <defs></defs>
    <g id="Page-1" stroke="none" stroke-width="1" fill="none" fill-rule="evenodd">
        <g id="Tag24" fill="#000000" fill-rule="nonzero">
            <path d="M21.6254132,11.5668884 L12.0610258,2 L2,2 L2,12.0638386 L11.5648888,21.6200917 C11.807801,21.8633379 12.1373869,22 12.4810536,22 C12.8247203,22 13.1543063,21.8633379 13.3976116,21.6196982 L21.6242145,13.3909441 C22.1255622,12.885496 22.1252629,12.069859 21.6254132,11.5668884 Z M23.0419118,14.8016667 L14.8124032,23.0333334 C14.1943534,23.652233 13.3556489,24 12.4810536,24 C11.6064583,24 10.7677539,23.652233 10.1505091,23.0341387 L0.293212675,13.1857429 C0.105480884,12.9981806 0,12.7436898 0,12.4783168 L0,1 C0,0.44771525 0.44771525,0 1,0 L12.475316,0 C12.7405778,0 12.9949713,0.105392735 13.1825152,0.292985667 L23.0419118,10.1549668 C24.3193627,11.4403773 24.3193627,13.5162562 23.0419118,14.8016667 Z M7,10 C5.34314575,10 4,8.65685425 4,7 C4,5.34314575 5.34314575,4 7,4 C8.65685425,4 10,5.34314575 10,7 C10,8.65685425 8.65685425,10 7,10 Z M7,8.28571429 C7.71008039,8.28571429 8.28571429,7.71008039 8.28571429,7 C8.28571429,6.28991961 7.71008039,5.71428571 7,5.71428571 C6.28991961,5.71428571 5.71428571,6.28991961 5.71428571,7 C5.71428571,7.71008039 6.28991961,8.28571429 7,8.28571429 Z"></path>
        </g>
    </g>
</svg>