<?xml version="1.0" encoding="UTF-8"?>
<svg width="32px" height="32px" viewBox="0 0 32 32" version="1.1" xmlns="http://www.w3.org/2000/svg" xmlns:xlink="http://www.w3.org/1999/xlink">
    <!-- Generator: Sketch 48.2 (47327) - http://www.bohemiancoding.com/sketch -->
    <title>Tag32</title>
    <desc>Created with Sketch.</desc>
    <defs></defs>
    <g id="Page-1" stroke="none" stroke-width="1" fill="none" fill-rule="evenodd">
        <g id="Tag32" fill="#000000" fill-rule="nonzero">
            <path d="M29.3827268,15.1522972 L16.233868,2 L2,2 L2,16.237772 L15.1493602,29.3752599 C15.548811,29.7752599 16.0908134,30 16.6559822,30 C17.2211511,30 17.7631535,29.7752599 18.1629974,29.3748664 L29.3815759,18.1533542 C30.2064577,17.3223042 30.206142,15.9808494 29.3827268,15.1522972 Z M30.7992254,19.5641247 L19.577789,30.7885016 C18.8032006,31.564155 17.7520797,32 16.6559822,32 C15.5598847,32 14.5087638,31.564155 13.7349805,30.7893069 L0.293212675,17.3596762 C0.105480884,17.172114 0,16.9176232 0,16.6522501 L0,1 C0,0.44771525 0.44771525,0 1,0 L16.6481581,0 C16.9134199,0 17.1678135,0.105392735 17.3553574,0.292985667 L30.7992254,13.7403756 C32.4002582,15.3513842 32.4002582,17.9531161 30.7992254,19.5641247 Z M10,12 C11.1045695,12 12,11.1045695 12,10 C12,8.8954305 11.1045695,8 10,8 C8.8954305,8 8,8.8954305 8,10 C8,11.1045695 8.8954305,12 10,12 Z M10,14 C7.790861,14 6,12.209139 6,10 C6,7.790861 7.790861,6 10,6 C12.209139,6 14,7.790861 14,10 C14,12.209139 12.209139,14 10,14 Z"></path>
        </g>
    </g>
</svg>