<?xml version="1.0" encoding="UTF-8"?>
<svg width="32px" height="32px" viewBox="0 0 32 32" version="1.1" xmlns="http://www.w3.org/2000/svg" xmlns:xlink="http://www.w3.org/1999/xlink">
    <!-- Generator: Sketch 48.2 (47327) - http://www.bohemiancoding.com/sketch -->
    <title>Target32</title>
    <desc>Created with Sketch.</desc>
    <defs></defs>
    <g id="Page-1" stroke="none" stroke-width="1" fill="none" fill-rule="evenodd">
        <g id="Target32" fill="#000000" fill-rule="nonzero">
            <path d="M16,32 C7.163444,32 0,24.836556 0,16 C0,7.163444 7.163444,0 16,0 C24.836556,0 32,7.163444 32,16 C32,24.836556 24.836556,32 16,32 Z M16,30 C23.7319865,30 30,23.7319865 30,16 C30,8.2680135 23.7319865,2 16,2 C8.2680135,2 2,8.2680135 2,16 C2,23.7319865 8.2680135,30 16,30 Z M7,16 C7.55228475,16 8,16.4477153 8,17 C8,17.5522847 7.55228475,18 7,18 L1,18 C0.44771525,18 0,17.5522847 0,17 C0,16.4477153 0.44771525,16 1,16 L7,16 Z M31,16 C31.5522847,16 32,16.4477153 32,17 C32,17.5522847 31.5522847,18 31,18 L25,18 C24.4477153,18 24,17.5522847 24,17 C24,16.4477153 24.4477153,16 25,16 L31,16 Z M17,7 C17,7.55228475 16.5522847,8 16,8 C15.4477153,8 15,7.55228475 15,7 L15,1 C15,0.44771525 15.4477153,0 16,0 C16.5522847,0 17,0.44771525 17,1 L17,7 Z M17,31 C17,31.5522847 16.5522847,32 16,32 C15.4477153,32 15,31.5522847 15,31 L15,25 C15,24.4477153 15.4477153,24 16,24 C16.5522847,24 17,24.4477153 17,25 L17,31 Z"></path>
        </g>
    </g>
</svg>