<?xml version="1.0" encoding="UTF-8"?>
<svg width="24px" height="24px" viewBox="0 0 24 24" version="1.1" xmlns="http://www.w3.org/2000/svg" xmlns:xlink="http://www.w3.org/1999/xlink">
    <!-- Generator: Sketch 48.1 (47250) - http://www.bohemiancoding.com/sketch -->
    <title>Target24</title>
    <desc>Created with Sketch.</desc>
    <defs></defs>
    <g id="Page-1" stroke="none" stroke-width="1" fill="none" fill-rule="evenodd">
        <g id="Target24" fill="#000000" fill-rule="nonzero">
            <path d="M13,5.0625 C13,5.58026695 12.5522847,6 12,6 C11.4477153,6 11,5.58026695 11,5.0625 L11,0.9375 C11,0.419733047 11.4477153,0 12,0 C12.5522847,0 13,0.419733047 13,0.9375 L13,5.0625 Z M13,23.0625 C13,23.580267 12.5522847,24 12,24 C11.4477153,24 11,23.580267 11,23.0625 L11,18.9375 C11,18.419733 11.4477153,18 12,18 C12.5522847,18 13,18.419733 13,18.9375 L13,23.0625 Z M6.0625,11 C6.58026695,11 7,11.4477153 7,12 C7,12.5522847 6.58026695,13 6.0625,13 L1.9375,13 C1.41973305,13 1,12.5522847 1,12 C1,11.4477153 1.41973305,11 1.9375,11 L6.0625,11 Z M22.0625,11 C22.580267,11 23,11.4477153 23,12 C23,12.5522847 22.580267,13 22.0625,13 L17.9375,13 C17.419733,13 17,12.5522847 17,12 C17,11.4477153 17.419733,11 17.9375,11 L22.0625,11 Z M12,24 C5.372583,24 0,18.627417 0,12 C0,5.372583 5.372583,0 12,0 C18.627417,0 24,5.372583 24,12 C24,18.627417 18.627417,24 12,24 Z M12,22 C17.5228475,22 22,17.5228475 22,12 C22,6.4771525 17.5228475,2 12,2 C6.4771525,2 2,6.4771525 2,12 C2,17.5228475 6.4771525,22 12,22 Z"></path>
        </g>
    </g>
</svg>