<svg width="24" height="24" viewBox="0 0 24 24" fill="none" xmlns="http://www.w3.org/2000/svg">
<path d="M12 10.8C11.7627 10.8 11.5307 10.8704 11.3333 11.0022C11.136 11.1341 10.9822 11.3215 10.8913 11.5408C10.8005 11.76 10.7768 12.0013 10.8231 12.2341C10.8694 12.4669 10.9837 12.6807 11.1515 12.8485C11.3193 13.0163 11.5331 13.1306 11.7659 13.1769C11.9987 13.2232 12.24 13.1995 12.4592 13.1087C12.6785 13.0178 12.8659 12.864 12.9978 12.6667C13.1296 12.4693 13.2 12.2373 13.2 12C13.2 11.6817 13.0736 11.3765 12.8485 11.1515C12.6235 10.9264 12.3183 10.8 12 10.8ZM12 0C9.62663 0 7.30655 0.703788 5.33316 2.02236C3.35977 3.34094 1.8217 5.21508 0.913451 7.4078C0.00519941 9.60051 -0.232441 12.0133 0.230582 14.3411C0.693605 16.6689 1.83649 18.807 3.51472 20.4853C5.19295 22.1635 7.33115 23.3064 9.65892 23.7694C11.9867 24.2324 14.3995 23.9948 16.5922 23.0865C18.7849 22.1783 20.6591 20.6402 21.9776 18.6668C23.2962 16.6934 24 14.3734 24 12C24 10.4241 23.6896 8.8637 23.0866 7.4078C22.4835 5.95189 21.5996 4.62902 20.4853 3.51472C19.371 2.40041 18.0481 1.5165 16.5922 0.913445C15.1363 0.310389 13.5759 0 12 0ZM13.2 21.516V18C13.2 17.6817 13.0736 17.3765 12.8485 17.1515C12.6235 16.9264 12.3183 16.8 12 16.8C11.6817 16.8 11.3765 16.9264 11.1515 17.1515C10.9264 17.3765 10.8 17.6817 10.8 18V21.516C8.68798 21.2482 6.7249 20.2859 5.21951 18.7805C3.71412 17.2751 2.75184 15.312 2.48401 13.2H6C6.31826 13.2 6.62349 13.0736 6.84853 12.8485C7.07358 12.6235 7.2 12.3183 7.2 12C7.2 11.6817 7.07358 11.3765 6.84853 11.1515C6.62349 10.9264 6.31826 10.8 6 10.8H2.48401C2.75184 8.68797 3.71412 6.72489 5.21951 5.2195C6.7249 3.71411 8.68798 2.75183 10.8 2.484V6C10.8 6.31826 10.9264 6.62348 11.1515 6.84853C11.3765 7.07357 11.6817 7.2 12 7.2C12.3183 7.2 12.6235 7.07357 12.8485 6.84853C13.0736 6.62348 13.2 6.31826 13.2 6V2.484C15.312 2.75183 17.2751 3.71411 18.7805 5.2195C20.2859 6.72489 21.2482 8.68797 21.516 10.8H18C17.6817 10.8 17.3765 10.9264 17.1515 11.1515C16.9264 11.3765 16.8 11.6817 16.8 12C16.8 12.3183 16.9264 12.6235 17.1515 12.8485C17.3765 13.0736 17.6817 13.2 18 13.2H21.516C21.2482 15.312 20.2859 17.2751 18.7805 18.7805C17.2751 20.2859 15.312 21.2482 13.2 21.516Z" fill="currentColor"/>
</svg>
