<?xml version="1.0" encoding="UTF-8"?>
<svg width="24px" height="24px" viewBox="0 0 24 24" version="1.1" xmlns="http://www.w3.org/2000/svg" xmlns:xlink="http://www.w3.org/1999/xlink">
    <!-- Generator: Sketch 51 (57462) - http://www.bohemiancoding.com/sketch -->
    <title>ambiente_test_off</title>
    <desc>Created with Sketch.</desc>
    <defs></defs>
    <g id="ambiente_test_off" stroke="none" stroke-width="1" fill="none" fill-rule="evenodd">
        <g id="Icons/Test-off" transform="translate(-101.000000, 0.000000)">
            <g id="Icone-ambiente-de-teste" transform="translate(103.000000, 1.000000)">
                <g id="cubo" fill-rule="nonzero">
                    <g id="cubo-menor" transform="translate(3.827586, 3.266350)" stroke="#D4D4D4">
                        <polygon id="Shape" points="6.17241379 13.7336504 0.172413793 10.7336504 0.172413793 3.73365042 6.17241379 6.73365042"></polygon>
                        <polygon id="Shape" points="6.17241379 13.7336504 12.1724138 10.7336504 12.1724138 3.73365042 6.17241379 6.73365042"></polygon>
                        <polygon id="Shape" points="0.172413793 3.73365042 6.17241379 0.733650416 12.1724138 3.73365042 6.17241379 6.73365042"></polygon>
                    </g>
                    <path d="M0,5 L9.99493927,0 L20,5 L10,10 L0,5 Z M10,23 L0,17.8 L0,5 L10,10 L10,23 Z M10,23 L20,17.8 L20,5 L10,10 L10,23 Z" id="Shape-Copy" stroke="#757575"></path>
                </g>
            </g>
        </g>
    </g>
</svg>