<?xml version="1.0" encoding="UTF-8"?>
<svg width="24px" height="24px" viewBox="0 0 24 24" version="1.1" xmlns="http://www.w3.org/2000/svg" xmlns:xlink="http://www.w3.org/1999/xlink">
    <!-- Generator: Sketch 48.2 (47327) - http://www.bohemiancoding.com/sketch -->
    <title>Transactions24</title>
    <desc>Created with Sketch.</desc>
    <defs></defs>
    <g id="Page-1" stroke="none" stroke-width="1" fill="none" fill-rule="evenodd">
        <g id="Transactions24" fill="#000000">
            <path d="M1.12178465,14.007399 L22.7851563,14 L23.0064057,14.0014173 C23.5561792,14.0049391 24,14.451612 24,15.0013968 L24,15.0038911 C24,15.5540268 23.5540268,16 23.0038911,16 L3.41421356,16 L7.70710678,20.2928932 C8.09763107,20.6834175 8.09763107,21.3165825 7.70710678,21.7071068 C7.31658249,22.0976311 6.68341751,22.0976311 6.29289322,21.7071068 L0.333069449,15.747283 C0.128682788,15.5648604 1.49694254e-13,15.2994035 1.49658064e-13,15.0038911 C1.49659429e-13,15.0032405 6.23434549e-07,15.0025901 1.86973857e-06,15.0019398 C-0.000492725262,14.7453713 0.0971377244,14.4886487 0.292893219,14.2928932 C0.519190158,14.0665963 0.826962193,13.9714315 1.12178465,14.007399 Z M20.5865374,8.00075092 L16.2928932,3.70710678 C15.9023689,3.31658249 15.9023689,2.68341751 16.2928932,2.29289322 C16.6834175,1.90236893 17.3165825,1.90236893 17.7071068,2.29289322 L23.7071068,8.29289322 C23.8794448,8.46523128 23.9757303,8.68482239 23.995963,8.90996109 C23.9986052,8.94007911 24,8.97057592 24,9.00139677 L24,9.00389105 C24,9.55402683 23.5540268,10 23.0038911,10 L22.999999,10 C22.9999987,10 22.9999987,10 22.9999987,10 L0.996108949,10 C0.445973167,10 8.93293034e-14,9.55402683 8.92619312e-14,9.00389105 C9.04162212e-14,8.45370024 0.445918117,8.0076298 0.996108891,8.00744189 L20.5865374,8.00075092 Z" transform="translate(12.000000, 12.000000) rotate(-180.000000) translate(-12.000000, -12.000000) "></path>
        </g>
    </g>
</svg>