<?xml version="1.0" encoding="UTF-8"?>
<svg width="32px" height="32px" viewBox="0 0 32 32" version="1.1" xmlns="http://www.w3.org/2000/svg" xmlns:xlink="http://www.w3.org/1999/xlink">
    <!-- Generator: Sketch 48.2 (47327) - http://www.bohemiancoding.com/sketch -->
    <title>Transaction32</title>
    <desc>Created with Sketch.</desc>
    <defs></defs>
    <g id="Page-1" stroke="none" stroke-width="1" fill="none" fill-rule="evenodd">
        <g id="Transaction32" fill="#000000">
            <path d="M14.995261,22 L3.41421356,22 L7.53878832,26.1245748 C7.9204373,26.5062237 7.9260582,27.1450096 7.53553391,27.5355339 C7.14228695,27.9287809 6.51330168,27.9275152 6.12457475,27.5387883 C6.12457475,27.5387883 0.536255679,21.9830654 0.382833047,21.7868868 C0.149733442,21.6038082 -3.91140118e-17,21.3193901 0,21 C6.76353751e-17,20.4477153 0.44771525,20 1,20 L14.995261,20 C18.8636866,20 21,20.0041738 21,20.0041738 C21.0393178,20.0024382 21.0793438,20 21.1199396,20 L31.0082343,20 C31.5491071,20 32,20.4477153 32,21 C32,21.5561352 31.5559714,22 31.0082343,22 L21.1199396,22 C21.0794037,22 21.0393732,21.9974853 21,21.9926003 C21,22.0041738 19.9682457,22 14.995261,22 Z M29,10 L24.4612117,5.70582704 C24.0795627,5.32417805 24.0739418,4.68539218 24.4644661,4.29486789 C24.857713,3.90162093 25.4866983,3.90288655 25.8754252,4.29161348 C25.8754252,4.29161348 31.5930961,10.012736 31.617167,10.043515 C31.8502666,10.2265936 32,10.5110116 32,10.8304018 C32,11.3826865 31.5522847,11.8304018 31,11.8304018 L0.991765725,11.8304018 C0.450892904,11.8304018 0,11.3826865 0,10.8304018 C0,10.2742666 0.44402864,9.99260026 0.991765725,9.99260026 L29,10 Z"></path>
        </g>
    </g>
</svg>