<?xml version="1.0" encoding="UTF-8"?>
<svg width="24px" height="24px" viewBox="0 0 24 24" version="1.1" xmlns="http://www.w3.org/2000/svg" xmlns:xlink="http://www.w3.org/1999/xlink">
    <!-- Generator: Sketch 48.1 (47250) - http://www.bohemiancoding.com/sketch -->
    <title>Trash24</title>
    <desc>Created with Sketch.</desc>
    <defs></defs>
    <g id="Page-1" stroke="none" stroke-width="1" fill="none" fill-rule="evenodd">
        <g id="Trash24" fill="#000000" fill-rule="nonzero">
            <path d="M19,5.02040816 C19,4.4568523 19.4477153,4 20,4 C20.5522847,4 21,4.4568523 21,5.02040816 L21,20.7346939 C21,22.5469833 19.5205648,24 17.7142857,24 L6.28571429,24 C4.4794352,24 3,22.5469833 3,20.7346939 L3,5.02040816 C3,4.4568523 3.44771525,4 4,4 C4.55228475,4 5,4.4568523 5,5.02040816 L5,20.7346939 C5,21.4020503 5.56726309,21.9591837 6.28571429,21.9591837 L17.7142857,21.9591837 C18.4327369,21.9591837 19,21.4020503 19,20.7346939 L19,5.02040816 Z M6,4 L6,3 C6,1.33495911 7.59323791,0 9.53846154,0 L14.4615385,0 C16.4067621,0 18,1.33495911 18,3 L18,4 L22,4 C22.5522847,4 23,4.44771525 23,5 C23,5.55228475 22.5522847,6 22,6 L2,6 C1.44771525,6 1,5.55228475 1,5 C1,4.44771525 1.44771525,4 2,4 L6,4 Z M15.8461538,4 L15.8461538,3 C15.8461538,2.3868663 15.2352551,1.875 14.4615385,1.875 L9.53846154,1.875 C8.76474486,1.875 8.15384615,2.3868663 8.15384615,3 L8.15384615,4 L15.8461538,4 Z M8,11 C8,10.4477153 8.44771525,10 9,10 C9.55228475,10 10,10.4477153 10,11 L10,17 C10,17.5522847 9.55228475,18 9,18 C8.44771525,18 8,17.5522847 8,17 L8,11 Z M14,11 C14,10.4477153 14.4477153,10 15,10 C15.5522847,10 16,10.4477153 16,11 L16,17 C16,17.5522847 15.5522847,18 15,18 C14.4477153,18 14,17.5522847 14,17 L14,11 Z"></path>
        </g>
    </g>
</svg>