<?xml version="1.0" encoding="UTF-8"?>
<svg width="32px" height="32px" viewBox="0 0 32 32" version="1.1" xmlns="http://www.w3.org/2000/svg" xmlns:xlink="http://www.w3.org/1999/xlink">
    <!-- Generator: Sketch 48.2 (47327) - http://www.bohemiancoding.com/sketch -->
    <title>Trash32</title>
    <desc>Created with Sketch.</desc>
    <defs></defs>
    <g id="Page-1" stroke="none" stroke-width="1" fill="none" fill-rule="evenodd">
        <g id="Trash32" fill="#000000" fill-rule="nonzero">
            <path d="M26.1052632,7 C26.1052632,6.44771525 26.5294144,6 27.0526316,6 C27.5758487,6 28,6.44771525 28,7 L28,28 C28,30.2340041 26.141057,32 23.8947368,32 L8.10526316,32 C5.85894303,32 4,30.2340041 4,28 L4,7 C4,6.44771525 4.42415129,6 4.94736842,6 C5.47058555,6 5.89473684,6.44771525 5.89473684,7 L5.89473684,28 C5.89473684,29.0797044 6.86346908,30 8.10526316,30 L23.8947368,30 C25.1365309,30 26.1052632,29.0797044 26.1052632,28 L26.1052632,7 Z M8,6 L8,4 C8,1.76599588 10.0475315,0 12.5217391,0 L19.4782609,0 C21.9524685,0 24,1.76599588 24,4 L24,6 L31,6 C31.5522847,6 32,6.44771525 32,7 C32,7.55228475 31.5522847,8 31,8 L1,8 C0.44771525,8 0,7.55228475 0,7 C0,6.44771525 0.44771525,6 1,6 L8,6 Z M21.9130435,6 L21.9130435,4 C21.9130435,2.92029562 20.8460341,2 19.4782609,2 L12.5217391,2 C11.1539659,2 10.0869565,2.92029562 10.0869565,4 L10.0869565,6 L21.9130435,6 Z M12,15.0909091 C12,14.4884166 12.4477153,14 13,14 C13.5522847,14 14,14.4884166 14,15.0909091 L14,24.9090909 C14,25.5115834 13.5522847,26 13,26 C12.4477153,26 12,25.5115834 12,24.9090909 L12,15.0909091 Z M18,15.0909091 C18,14.4884166 18.4477153,14 19,14 C19.5522847,14 20,14.4884166 20,15.0909091 L20,24.9090909 C20,25.5115834 19.5522847,26 19,26 C18.4477153,26 18,25.5115834 18,24.9090909 L18,15.0909091 Z"></path>
        </g>
    </g>
</svg>