<?xml version="1.0" encoding="UTF-8"?>
<svg width="32px" height="32px" viewBox="0 0 32 32" version="1.1" xmlns="http://www.w3.org/2000/svg" xmlns:xlink="http://www.w3.org/1999/xlink">
    <!-- Generator: Sketch 48.2 (47327) - http://www.bohemiancoding.com/sketch -->
    <title>TrendingUp32</title>
    <desc>Created with Sketch.</desc>
    <defs></defs>
    <g id="Page-1" stroke="none" stroke-width="1" fill="none" fill-rule="evenodd">
        <g id="TrendingUp32" fill="#000000" fill-rule="nonzero">
            <path d="M30.300882,6.28499371 C30.6957693,5.89888173 31.3288943,5.90599549 31.7150063,6.30088275 C32.1011183,6.69577001 32.0940045,7.328895 31.6991172,7.71500699 L18.7445721,20.3816731 C18.3559448,20.7616642 17.7349641,20.7616642 17.3463369,20.3816731 L11.2272728,14.3985884 L1.69911799,23.7150063 C1.30423072,24.1011183 0.671105717,24.0940045 0.28499372,23.6991172 C-0.101118277,23.30423 -0.0940045126,22.671105 0.300882757,22.284993 L10.5281552,12.2849935 C10.9167825,11.9050024 11.5377632,11.9050024 11.9263905,12.2849935 L18.0454545,18.2680782 L30.300882,6.28499371 Z M30,8.00000079 L23,8.00000079 C22.4477153,8.00000079 22,7.55228554 22,7.00000079 C22,6.44771604 22.4477153,6.00000079 23,6.00000079 L31,6.00000079 C31.5522847,6.00000079 32,6.44771604 32,7.00000079 L32,15.0000008 C32,15.5522855 31.5522847,16.0000008 31,16.0000008 C30.4477153,16.0000008 30,15.5522855 30,15.0000008 L30,8.00000079 Z" transform="translate(16.000000, 15.000000) scale(1, -1) translate(-16.000000, -15.000000) "></path>
        </g>
    </g>
</svg>