<?xml version="1.0" encoding="UTF-8"?>
<svg width="24px" height="24px" viewBox="0 0 24 24" version="1.1" xmlns="http://www.w3.org/2000/svg" xmlns:xlink="http://www.w3.org/1999/xlink">
    <!-- Generator: Sketch 48.1 (47250) - http://www.bohemiancoding.com/sketch -->
    <title>TrendingDown24</title>
    <desc>Created with Sketch.</desc>
    <defs></defs>
    <g id="Page-1" stroke="none" stroke-width="1" fill="none" fill-rule="evenodd">
        <g id="TrendingDown24" fill="#000000" fill-rule="nonzero">
            <path d="M22,16.5857864 L22,13 C22,12.4477153 22.4477153,12 23,12 C23.5522847,12 24,12.4477153 24,13 L24,19 C24,19.5522847 23.5522847,20 23,20 L17,20 C16.4477153,20 16,19.5522847 16,19 C16,18.4477153 16.4477153,18 17,18 L20.5857864,18 L13.5,10.9142136 L9.20710678,15.2071068 C8.81658249,15.5976311 8.18341751,15.5976311 7.79289322,15.2071068 L0.292893219,7.70710678 C-0.0976310729,7.31658249 -0.0976310729,6.68341751 0.292893219,6.29289322 C0.683417511,5.90236893 1.31658249,5.90236893 1.70710678,6.29289322 L8.5,13.0857864 L12.7928932,8.79289322 C13.1834175,8.40236893 13.8165825,8.40236893 14.2071068,8.79289322 L22,16.5857864 Z"></path>
        </g>
    </g>
</svg>