<?xml version="1.0" encoding="UTF-8"?>
<svg width="24px" height="24px" viewBox="0 0 24 24" version="1.1" xmlns="http://www.w3.org/2000/svg" xmlns:xlink="http://www.w3.org/1999/xlink">
    <!-- Generator: Sketch 48.2 (47327) - http://www.bohemiancoding.com/sketch -->
    <title>TrendingUp24</title>
    <desc>Created with Sketch.</desc>
    <defs></defs>
    <g id="Page-1" stroke="none" stroke-width="1" fill="none" fill-rule="evenodd">
        <g id="TrendingUp24" fill="#000000" fill-rule="nonzero">
            <path d="M20.5857864,6 L17,6 C16.4477153,6 16,5.55228475 16,5 C16,4.44771525 16.4477153,4 17,4 L23,4 C23.5522847,4 24,4.44771525 24,5 L24,11 C24,11.5522847 23.5522847,12 23,12 C22.4477153,12 22,11.5522847 22,11 L22,7.41421356 L14.2071068,15.2071068 C13.8165825,15.5976311 13.1834175,15.5976311 12.7928932,15.2071068 L8.5,10.9142136 L1.70710678,17.7071068 C1.31658249,18.0976311 0.683417511,18.0976311 0.292893219,17.7071068 C-0.0976310729,17.3165825 -0.0976310729,16.6834175 0.292893219,16.2928932 L7.79289322,8.79289322 C8.18341751,8.40236893 8.81658249,8.40236893 9.20710678,8.79289322 L13.5,13.0857864 L20.5857864,6 Z"></path>
        </g>
    </g>
</svg>