<?xml version="1.0" encoding="UTF-8"?>
<svg width="32px" height="32px" viewBox="0 0 32 32" version="1.1" xmlns="http://www.w3.org/2000/svg" xmlns:xlink="http://www.w3.org/1999/xlink">
    <!-- Generator: Sketch 48.1 (47250) - http://www.bohemiancoding.com/sketch -->
    <title>TrendingUp32</title>
    <desc>Created with Sketch.</desc>
    <defs></defs>
    <g id="Page-1" stroke="none" stroke-width="1" fill="none" fill-rule="evenodd">
        <g id="TrendingUp32" fill="#000000" fill-rule="nonzero">
            <path d="M30.3008816,6.28499371 C30.6957689,5.89888173 31.3288939,5.90599549 31.7150059,6.30088275 C32.1011179,6.69577001 32.0940041,7.328895 31.6991168,7.71500699 L18.7445717,20.3816731 C18.3559445,20.7616642 17.7349637,20.7616642 17.3463365,20.3816731 L11.2272724,14.3985884 L1.69911759,23.7150063 C1.30423032,24.1011183 0.671105321,24.0940045 0.284993324,23.6991172 C-0.101118673,23.30423 -0.0940049089,22.671105 0.300882361,22.284993 L10.5281548,12.2849935 C10.9167821,11.9050024 11.5377628,11.9050024 11.9263901,12.2849935 L18.0454541,18.2680782 L30.3008816,6.28499371 Z M30,8 L23,8 C22.4477153,8 22,7.55228475 22,7 C22,6.44771525 22.4477153,6 23,6 L31,6 C31.5522847,6 32,6.44771525 32,7 L32,15 C32,15.5522847 31.5522847,16 31,16 C30.4477153,16 30,15.5522847 30,15 L30,8 Z" id="Actions_up"></path>
        </g>
    </g>
</svg>