<?xml version="1.0" encoding="UTF-8"?>
<svg width="20px" height="16px" viewBox="0 0 20 16" version="1.1" xmlns="http://www.w3.org/2000/svg" xmlns:xlink="http://www.w3.org/1999/xlink">
    <!-- Generator: Sketch 48.1 (47250) - http://www.bohemiancoding.com/sketch -->
    <title>twitter</title>
    <desc>Created with Sketch.</desc>
    <defs></defs>
    <g id="Twitter20" stroke="none" stroke-width="1" fill="none" fill-rule="evenodd" transform="translate(0.000000, -2.000000)">
        <path d="M19.2190434,2.09550931 C19.5990255,1.83646219 20.0981268,2.18411593 19.9858632,2.62964481 C19.6912939,3.79867039 19.0886639,4.8715959 18.2393501,5.74471085 C18.2616254,5.91645048 18.2731084,6.0896894 18.2737026,6.26394553 C18.2737026,15.9019096 8.6949426,20.8294175 0.264172239,16.3026255 C-0.202607308,16.0519943 -0.00938394125,15.3436694 0.520211302,15.3640287 C2.25522301,15.4307278 3.96995295,15.0397828 5.48309749,14.241568 C3.33739352,13.1195777 1.99895983,11.5731586 1.37190786,9.71070268 C0.77750767,7.94522831 0.864827326,6.07798587 1.36438254,4.30293673 C1.51539465,3.76635157 1.66794383,3.36451422 1.77385979,3.13418995 C1.93346112,2.78712177 2.4083369,2.74021426 2.63294884,3.04933043 C4.21432443,5.22565635 6.76427574,6.5446959 9.5010043,6.62366401 L9.50102328,6.29590055 C9.47629746,4.51336175 10.6031198,2.90908753 12.3167728,2.27694156 C13.9212475,1.68507015 15.724353,2.06166971 16.9342936,3.21757703 C17.7475223,2.95185735 18.5171245,2.57403208 19.2190434,2.09550931 Z M16.9290676,4.2642181 C16.7446057,4.31790204 16.5456524,4.26129411 16.4172362,4.11858731 C15.4894045,3.08750297 13.9888136,2.72461692 12.6633186,3.2135761 C11.3433823,3.70048471 10.4821264,4.92666793 10.5009753,6.28898632 L10.5009753,7.12367919 C10.5009753,7.39453007 10.2846904,7.61598082 10.0135205,7.62277657 C7.07871076,7.69632545 4.284275,6.48089602 2.39372171,4.34574164 C2.37169394,4.41792076 2.34941428,4.49375397 2.32709313,4.57306679 C1.87717283,6.17175022 1.79890472,7.84543454 2.31977908,9.39252412 C2.93497375,11.2197618 4.34415861,12.7040515 6.74401776,13.7349099 C7.10986994,13.8920615 7.15383863,14.3924114 6.82098557,14.6107795 C5.53527237,15.4542708 4.08068456,16.0078203 2.56370525,16.2421896 C9.83466418,18.8839781 17.2737028,14.4244068 17.2737055,6.26565077 C17.2730194,6.06506269 17.253063,5.86495454 17.2140854,5.66787668 C17.1809808,5.50049407 17.2357721,5.3278214 17.3593709,5.21001467 C17.8409756,4.75097911 18.2384411,4.2209667 18.5385796,3.64271168 C18.022642,3.89457232 17.4841437,4.10267442 16.9290676,4.2642181 Z" id="twitter" fill="#000000" fill-rule="nonzero"></path>
    </g>
</svg>