<?xml version="1.0" encoding="UTF-8"?>
<svg width="32px" height="32px" viewBox="0 0 32 32" version="1.1" xmlns="http://www.w3.org/2000/svg" xmlns:xlink="http://www.w3.org/1999/xlink">
    <g stroke="none" stroke-width="1" fill="none" fill-rule="evenodd">
        <path fill="#000000" fill-rule="nonzero" d="M10 .33c.419-.442.643-.44 1.059.006a1.187 1.187 0 0 1-.005 1.606l-5.94 6.234h13.888c5.51-.122 10.36 3.842 11.663 9.533 1.304 5.691-1.289 11.58-6.235 14.164-.537.291-1.195.065-1.47-.506-.274-.57-.06-1.27.476-1.56 3.25-1.715 5.317-5.228 5.342-9.084-.047-5.681-4.409-10.251-9.754-10.22H5.134l5.92 6.223c.247.454.17 1.03-.189 1.392a1.02 1.02 0 0 1-1.318.13L1 9.265 10 .33z"/>
    </g>
</svg>