<?xml version="1.0" encoding="UTF-8"?>
<svg width="24px" height="24px" viewBox="0 0 24 24" version="1.1" xmlns="http://www.w3.org/2000/svg" xmlns:xlink="http://www.w3.org/1999/xlink">
    <g stroke="none" stroke-width="1" fill="none" fill-rule="evenodd">
        <path fill="#000000" fill-rule="nonzero" d="M7.6.247c.307-.331.471-.33.776.005a.905.905 0 0 1-.003 1.205L4.016 6.132h10.186c4.04-.091 7.597 2.882 8.553 7.15.955 4.268-.946 8.685-4.573 10.623-.394.218-.876.049-1.078-.38-.2-.427-.045-.952.35-1.17 2.383-1.286 3.898-3.92 3.917-6.813-.035-4.26-3.234-7.688-7.154-7.664H4.032l4.34 4.666a.907.907 0 0 1-.138 1.045.736.736 0 0 1-.966.096L1 6.95 7.6.247z"/>
    </g>
</svg>