<?xml version="1.0" encoding="UTF-8"?>
<svg width="24px" height="24px" viewBox="0 0 24 24" version="1.1" xmlns="http://www.w3.org/2000/svg" xmlns:xlink="http://www.w3.org/1999/xlink">
    <!-- Generator: Sketch 48.1 (47250) - http://www.bohemiancoding.com/sketch -->
    <title>Unlock24</title>
    <desc>Created with Sketch.</desc>
    <defs></defs>
    <g id="Page-1" stroke="none" stroke-width="1" fill="none" fill-rule="evenodd">
        <g id="Unlock24" fill="#000000" fill-rule="nonzero">
            <path d="M4,12 C3.44771525,12 3,12.4477153 3,13 L3,21 C3,21.5522847 3.44771525,22 4,22 L20,22 C20.5522847,22 21,21.5522847 21,21 L21,13 C21,12.4477153 20.5522847,12 20,12 L4,12 Z M5.00000007,10 L5.00000362,6.01263813 C4.99635805,2.92677861 7.7417932,0.340822361 11.3502914,0.0307459697 C14.9586988,-0.279322615 18.256409,1.78723238 18.9782266,4.81128257 C19.0966478,5.30740725 18.7201532,5.79131073 18.1373025,5.89211125 C17.5544518,5.99291178 16.9859586,5.67243823 16.8675374,5.17631355 C16.3660568,3.07536351 14.074472,1.63931074 11.5666206,1.85480912 C9.05886,2.0702997 7.15128365,3.86706733 7.15381674,6.01171693 L7.15381373,10 L20,10 C21.6568542,10 23,11.3431458 23,13 L23,21 C23,22.6568542 21.6568542,24 20,24 L4,24 C2.34314575,24 1,22.6568542 1,21 L1,13 C1,11.3431458 2.34314575,10 4,10 L5.00000007,10 Z"></path>
        </g>
    </g>
</svg>