<?xml version="1.0" encoding="UTF-8"?>
<svg width="32px" height="32px" viewBox="0 0 32 32" version="1.1" xmlns="http://www.w3.org/2000/svg" xmlns:xlink="http://www.w3.org/1999/xlink">
    <!-- Generator: Sketch 48.1 (47250) - http://www.bohemiancoding.com/sketch -->
    <title>Unlock32</title>
    <desc>Created with Sketch.</desc>
    <defs></defs>
    <g id="Page-1" stroke="none" stroke-width="1" fill="none" fill-rule="evenodd">
        <g id="Unlock32" fill="#000000" fill-rule="nonzero">
            <path d="M4,15.9459459 C3.44771525,15.9459459 3,16.3815608 3,16.9189189 L3,29.0810811 C3,29.6184392 3.44771525,30.0540541 4,30.0540541 L28,30.0540541 C28.5522847,30.0540541 29,29.6184392 29,29.0810811 L29,16.9189189 C29,16.3815608 28.5522847,15.9459459 28,15.9459459 L4,15.9459459 Z M8.00000074,14 L8.00000466,8.77990696 C7.9953164,4.27395928 11.5262503,0.497690623 16.1675682,0.0448484829 C20.8088861,-0.407993657 25.050318,2.6099441 25.9786168,7.02577734 C26.0949822,7.57931687 25.7247497,8.11916715 25.1516794,8.23156668 C24.578609,8.34396622 24.019711,7.98635159 23.9033456,7.43281206 C23.1915405,4.04682002 19.9392767,1.73271243 16.3803866,2.07994472 C12.8214964,2.42717701 10.1140314,5.3227609 10.1176268,8.77887978 L10.1176233,14 L28,14 C29.6568542,14 31,15.3068445 31,16.9189189 L31,29.0810811 C31,30.6931555 29.6568542,32 28,32 L4,32 C2.34314575,32 1,30.6931555 1,29.0810811 L1,16.9189189 C1,15.3068445 2.34314575,14 4,14 L8.00000074,14 Z"></path>
        </g>
    </g>
</svg>