<?xml version="1.0" encoding="UTF-8"?>
<svg width="32px" height="32px" viewBox="0 0 32 32" version="1.1" xmlns="http://www.w3.org/2000/svg" xmlns:xlink="http://www.w3.org/1999/xlink">
    <!-- Generator: Sketch 48.2 (47327) - http://www.bohemiancoding.com/sketch -->
    <title>Upload32</title>
    <desc>Created with Sketch.</desc>
    <defs></defs>
    <g id="Page-1" stroke="none" stroke-width="1" fill="none" fill-rule="evenodd">
        <g id="Upload32" fill="#000000" fill-rule="nonzero">
            <path d="M15,3.41421356 L8.70710678,9.70710678 C8.31658249,10.0976311 7.68341751,10.0976311 7.29289322,9.70710678 C6.90236893,9.31658249 6.90236893,8.68341751 7.29289322,8.29289322 L15.2928932,0.292893219 C15.6834175,-0.0976310729 16.3165825,-0.0976310729 16.7071068,0.292893219 L24.7071068,8.29289322 C25.0976311,8.68341751 25.0976311,9.31658249 24.7071068,9.70710678 C24.3165825,10.0976311 23.6834175,10.0976311 23.2928932,9.70710678 L17,3.41421356 L17,22.9565217 C17,23.5328189 16.5522847,24 16,24 C15.4477153,24 15,23.5328189 15,22.9565217 L15,3.41421356 Z M0,23 C0,22.4477153 0.44771525,22 1,22 C1.55228475,22 2,22.4477153 2,23 L2,27.8 C2,29.0056874 3.03574233,30 4.33333333,30 L27.6666667,30 C28.9642577,30 30,29.0056874 30,27.8 L30,23 C30,22.4477153 30.4477153,22 31,22 C31.5522847,22 32,22.4477153 32,23 L32,27.8 C32,30.128935 30.050974,32 27.6666667,32 L4.33333333,32 C1.94902601,32 0,30.128935 0,27.8 L0,23 Z"></path>
        </g>
    </g>
</svg>