<?xml version="1.0" encoding="UTF-8"?>
<svg width="24px" height="24px" viewBox="0 0 24 24" version="1.1" xmlns="http://www.w3.org/2000/svg" xmlns:xlink="http://www.w3.org/1999/xlink">
    <!-- Generator: Sketch 48.1 (47250) - http://www.bohemiancoding.com/sketch -->
    <title>Upload24</title>
    <desc>Created with Sketch.</desc>
    <defs></defs>
    <g id="Page-1" stroke="none" stroke-width="1" fill="none" fill-rule="evenodd">
        <g id="Upload24" fill="#000000" fill-rule="nonzero">
            <path d="M20.5857864,13 L9,13 C8.44771525,13 8,12.5522847 8,12 C8,11.4477153 8.44771525,11 9,11 L20.5857864,11 L18.2928932,8.70710678 C17.9023689,8.31658249 17.9023689,7.68341751 18.2928932,7.29289322 C18.6834175,6.90236893 19.3165825,6.90236893 19.7071068,7.29289322 L23.7071068,11.2928932 C24.0976311,11.6834175 24.0976311,12.3165825 23.7071068,12.7071068 L19.7071068,16.7071068 C19.3165825,17.0976311 18.6834175,17.0976311 18.2928932,16.7071068 C17.9023689,16.3165825 17.9023689,15.6834175 18.2928932,15.2928932 L20.5857864,13 Z M8,22 C8.55228475,22 9,22.4477153 9,23 C9,23.5522847 8.55228475,24 8,24 L3,24 C1.3207555,24 1.77635684e-15,22.5471689 1.77635684e-15,20.8 L1.77635684e-15,3.2 C1.77635684e-15,1.45283105 1.3207555,-3.55271368e-15 3,-3.55271368e-15 L8,-3.55271368e-15 C8.55228475,-3.55271368e-15 9,0.44771525 9,1 C9,1.55228475 8.55228475,2 8,2 L3,2 C2.4701055,2 2,2.51711605 2,3.2 L2,20.8 C2,21.4828839 2.4701055,22 3,22 L8,22 Z" transform="translate(12.000000, 12.000000) rotate(-90.000000) translate(-12.000000, -12.000000) "></path>
        </g>
    </g>
</svg>