<svg width="32" height="32" viewBox="0 0 32 32" fill="none" xmlns="http://www.w3.org/2000/svg">
<path d="M15.3333 26.667H7.33334C6.97972 26.667 6.64058 26.5265 6.39053 26.2765C6.14049 26.0264 6.00001 25.6873 6.00001 25.3337V6.66699C6.00001 6.31337 6.14049 5.97423 6.39053 5.72418C6.64058 5.47413 6.97972 5.33366 7.33334 5.33366H14V9.33366C14 10.3945 14.4214 11.4119 15.1716 12.1621C15.9217 12.9122 16.9391 13.3337 18 13.3337H22V20.0003C22 20.3539 22.1405 20.6931 22.3905 20.9431C22.6406 21.1932 22.9797 21.3337 23.3333 21.3337C23.687 21.3337 24.0261 21.1932 24.2762 20.9431C24.5262 20.6931 24.6667 20.3539 24.6667 20.0003V12.0003C24.6667 12.0003 24.6667 12.0003 24.6667 11.9203C24.6528 11.7978 24.626 11.6772 24.5867 11.5603V11.4403C24.5226 11.3032 24.4371 11.1772 24.3333 11.067V11.067L16.3333 3.06699C16.2231 2.96328 16.0971 2.87777 15.96 2.81366C15.9159 2.80594 15.8708 2.80594 15.8267 2.81366C15.697 2.74433 15.5577 2.69489 15.4133 2.66699H7.33334C6.27248 2.66699 5.25506 3.08842 4.50492 3.83857C3.75477 4.58871 3.33334 5.60613 3.33334 6.66699V25.3337C3.33334 26.3945 3.75477 27.4119 4.50492 28.1621C5.25506 28.9122 6.27248 29.3337 7.33334 29.3337H15.3333C15.687 29.3337 16.0261 29.1932 16.2762 28.9431C16.5262 28.6931 16.6667 28.3539 16.6667 28.0003C16.6667 27.6467 16.5262 27.3076 16.2762 27.0575C16.0261 26.8075 15.687 26.667 15.3333 26.667ZM16.6667 7.21366L20.12 10.667H18C17.6464 10.667 17.3073 10.5265 17.0572 10.2765C16.8072 10.0264 16.6667 9.68728 16.6667 9.33366V7.21366ZM10 18.667H18C18.3536 18.667 18.6928 18.5265 18.9428 18.2765C19.1929 18.0264 19.3333 17.6873 19.3333 17.3337C19.3333 16.98 19.1929 16.6409 18.9428 16.3909C18.6928 16.1408 18.3536 16.0003 18 16.0003H10C9.64639 16.0003 9.30725 16.1408 9.0572 16.3909C8.80715 16.6409 8.66668 16.98 8.66668 17.3337C8.66668 17.6873 8.80715 18.0264 9.0572 18.2765C9.30725 18.5265 9.64639 18.667 10 18.667ZM15.3333 21.3337H10C9.64639 21.3337 9.30725 21.4741 9.0572 21.7242C8.80715 21.9742 8.66668 22.3134 8.66668 22.667C8.66668 23.0206 8.80715 23.3598 9.0572 23.6098C9.30725 23.8599 9.64639 24.0003 10 24.0003H15.3333C15.687 24.0003 16.0261 23.8599 16.2762 23.6098C16.5262 23.3598 16.6667 23.0206 16.6667 22.667C16.6667 22.3134 16.5262 21.9742 16.2762 21.7242C16.0261 21.4741 15.687 21.3337 15.3333 21.3337ZM10 13.3337H11.3333C11.687 13.3337 12.0261 13.1932 12.2762 12.9431C12.5262 12.6931 12.6667 12.3539 12.6667 12.0003C12.6667 11.6467 12.5262 11.3076 12.2762 11.0575C12.0261 10.8075 11.687 10.667 11.3333 10.667H10C9.64639 10.667 9.30725 10.8075 9.0572 11.0575C8.80715 11.3076 8.66668 11.6467 8.66668 12.0003C8.66668 12.3539 8.80715 12.6931 9.0572 12.9431C9.30725 13.1932 9.64639 13.3337 10 13.3337ZM28.28 21.7203C28.1561 21.5954 28.0086 21.4962 27.8461 21.4285C27.6836 21.3608 27.5094 21.3259 27.3333 21.3259C27.1573 21.3259 26.9831 21.3608 26.8206 21.4285C26.6581 21.4962 26.5106 21.5954 26.3867 21.7203L22 26.1203L20.28 24.387C20.1557 24.2627 20.0081 24.1641 19.8457 24.0968C19.6832 24.0295 19.5092 23.9949 19.3333 23.9949C19.1575 23.9949 18.9834 24.0295 18.821 24.0968C18.6586 24.1641 18.511 24.2627 18.3867 24.387C18.2624 24.5113 18.1637 24.6589 18.0965 24.8213C18.0292 24.9838 17.9946 25.1578 17.9946 25.3337C17.9946 25.5095 18.0292 25.6836 18.0965 25.846C18.1637 26.0084 18.2624 26.156 18.3867 26.2803L21.0533 28.947C21.1773 29.072 21.3248 29.1712 21.4872 29.2388C21.6497 29.3065 21.824 29.3414 22 29.3414C22.176 29.3414 22.3503 29.3065 22.5128 29.2388C22.6753 29.1712 22.8227 29.072 22.9467 28.947L28.28 23.6137C28.405 23.4897 28.5042 23.3422 28.5719 23.1798C28.6396 23.0173 28.6744 22.843 28.6744 22.667C28.6744 22.491 28.6396 22.3167 28.5719 22.1542C28.5042 21.9917 28.405 21.8443 28.28 21.7203V21.7203Z" fill="currentColor"/>
</svg>