<?xml version="1.0" encoding="UTF-8"?>
<svg width="32px" height="32px" viewBox="0 0 32 32" version="1.1" xmlns="http://www.w3.org/2000/svg" xmlns:xlink="http://www.w3.org/1999/xlink">
    <!-- Generator: Sketch 48.2 (47327) - http://www.bohemiancoding.com/sketch -->
    <title>Users32</title>
    <desc>Created with Sketch.</desc>
    <defs></defs>
    <g id="Page-1" stroke="none" stroke-width="1" fill="none" fill-rule="evenodd">
        <g id="Users32" fill="#000000" fill-rule="nonzero">
            <path d="M16,32 C7.163444,32 0,24.836556 0,16 C0,7.163444 7.163444,0 16,0 C24.836556,0 32,7.163444 32,16 C32,24.836556 24.836556,32 16,32 Z M16,30 C23.7319865,30 30,23.7319865 30,16 C30,8.2680135 23.7319865,2 16,2 C8.2680135,2 2,8.2680135 2,16 C2,23.7319865 8.2680135,30 16,30 Z M19.7143101,7.95832213 C19.1850434,7.80053996 18.8838957,7.24357682 19.0416779,6.71431012 C19.19946,6.18504343 19.7564232,5.88389571 20.2856899,6.04167787 C21.9082736,6.52539386 23,8.16298351 23,10 C23,11.8370165 21.9082736,13.4746061 20.2856899,13.9583221 C19.7564232,14.1161043 19.19946,13.8149566 19.0416779,13.2856899 C18.8838957,12.7564232 19.1850434,12.19946 19.7143101,12.0416779 C20.4454592,11.8237116 21,10.9919004 21,10 C21,9.00809956 20.4454592,8.17628839 19.7143101,7.95832213 Z M26,21 C26,21.5522847 25.5522847,22 25,22 C24.4477153,22 24,21.5522847 24,21 L24.0000006,19.6382326 C23.9992533,18.9554877 23.1624327,18.2198839 21.8267172,17.9848721 C21.2827873,17.8891706 20.9194264,17.370647 21.0151279,16.8267172 C21.1108294,16.2827873 21.629353,15.9194264 22.1732828,16.0151279 C24.3675649,16.4011998 25.9980273,17.8344513 26,19.637138 L26,21 Z M21,21 C21,21.5522847 20.5522847,22 20,22 C19.4477153,22 19,21.5522847 19,21 L19,19.6666667 C19,18.7946934 18.0314674,18 16.75,18 L10.25,18 C8.96853261,18 8,18.7946934 8,19.6666667 L8,21 C8,21.5522847 7.55228475,22 7,22 C6.44771525,22 6,21.5522847 6,21 L6,19.6666667 C6,17.5931212 7.94161652,16 10.25,16 L16.75,16 C19.0583835,16 21,17.5931212 21,19.6666667 L21,21 Z M14,14 C11.790861,14 10,12.209139 10,10 C10,7.790861 11.790861,6 14,6 C16.209139,6 18,7.790861 18,10 C18,12.209139 16.209139,14 14,14 Z M14,12 C15.1045695,12 16,11.1045695 16,10 C16,8.8954305 15.1045695,8 14,8 C12.8954305,8 12,8.8954305 12,10 C12,11.1045695 12.8954305,12 14,12 Z"></path>
        </g>
    </g>
</svg>