<?xml version="1.0" encoding="UTF-8"?>
<svg width="32px" height="32px" viewBox="0 0 32 32" version="1.1" xmlns="http://www.w3.org/2000/svg" xmlns:xlink="http://www.w3.org/1999/xlink">
    <!-- Generator: Sketch 48.1 (47250) - http://www.bohemiancoding.com/sketch -->
    <title>User32</title>
    <desc>Created with Sketch.</desc>
    <defs></defs>
    <g id="Page-1" stroke="none" stroke-width="1" fill="none" fill-rule="evenodd">
        <g id="User32" fill="#000000" fill-rule="nonzero">
            <path d="M16,32 C7.163444,32 0,24.836556 0,16 C0,7.163444 7.163444,0 16,0 C24.836556,0 32,7.163444 32,16 C32,24.836556 24.836556,32 16,32 Z M16,30 C23.7319865,30 30,23.7319865 30,16 C30,8.2680135 23.7319865,2 16,2 C8.2680135,2 2,8.2680135 2,16 C2,23.7319865 8.2680135,30 16,30 Z M24,22.9090909 C24,23.5115834 23.5522847,24 23,24 C22.4477153,24 22,23.5115834 22,22.9090909 L22,20.969697 C22,19.426182 20.8771561,18.1818182 19.5,18.1818182 L12.5,18.1818182 C11.1228439,18.1818182 10,19.426182 10,20.969697 L10,22.9090909 C10,23.5115834 9.55228475,24 9,24 C8.44771525,24 8,23.5115834 8,22.9090909 L8,20.969697 C8,18.2288212 10.0111629,16 12.5,16 L19.5,16 C21.9888371,16 24,18.2288212 24,20.969697 L24,22.9090909 Z M16,14 C13.7877003,14 12,12.2060708 12,10 C12,7.79392924 13.7877003,6 16,6 C18.2122997,6 20,7.79392924 20,10 C20,12.2060708 18.2122997,14 16,14 Z M16,12.2439024 C17.2241388,12.2439024 18.2222222,11.2423413 18.2222222,10 C18.2222222,8.75765867 17.2241388,7.75609756 16,7.75609756 C14.7758612,7.75609756 13.7777778,8.75765867 13.7777778,10 C13.7777778,11.2423413 14.7758612,12.2439024 16,12.2439024 Z"></path>
        </g>
    </g>
</svg>