<?xml version="1.0" encoding="UTF-8"?>
<svg width="24px" height="24px" viewBox="0 0 24 24" version="1.1" xmlns="http://www.w3.org/2000/svg" xmlns:xlink="http://www.w3.org/1999/xlink">
    <!-- Generator: Sketch 48.1 (47250) - http://www.bohemiancoding.com/sketch -->
    <title>User24</title>
    <desc>Created with Sketch.</desc>
    <defs></defs>
    <g id="Page-1" stroke="none" stroke-width="1" fill="none" fill-rule="evenodd">
        <g id="User24" fill="#000000" fill-rule="nonzero">
            <path d="M12,24 C5.372583,24 0,18.627417 0,12 C0,5.372583 5.372583,0 12,0 C18.627417,0 24,5.372583 24,12 C24,18.627417 18.627417,24 12,24 Z M12,22 C17.5228475,22 22,17.5228475 22,12 C22,6.4771525 17.5228475,2 12,2 C6.4771525,2 2,6.4771525 2,12 C2,17.5228475 6.4771525,22 12,22 Z M18,17 C18,17.5522847 17.5522847,18 17,18 C16.4477153,18 16,17.5522847 16,17 L16,15.6666667 C16,14.7322818 15.3134859,14 14.5,14 L9.5,14 C8.68651414,14 8,14.7322818 8,15.6666667 L8,17 C8,17.5522847 7.55228475,18 7,18 C6.44771525,18 6,17.5522847 6,17 L6,15.6666667 C6,13.6555329 7.55206211,12 9.5,12 L14.5,12 C16.4479379,12 18,13.6555329 18,15.6666667 L18,17 Z M12,10 C10.3431458,10 9,8.65685425 9,7 C9,5.34314575 10.3431458,4 12,4 C13.6568542,4 15,5.34314575 15,7 C15,8.65685425 13.6568542,10 12,10 Z M12,8.28571429 C12.7100804,8.28571429 13.2857143,7.71008039 13.2857143,7 C13.2857143,6.28991961 12.7100804,5.71428571 12,5.71428571 C11.2899196,5.71428571 10.7142857,6.28991961 10.7142857,7 C10.7142857,7.71008039 11.2899196,8.28571429 12,8.28571429 Z"></path>
        </g>
    </g>
</svg>