<?xml version="1.0" encoding="UTF-8"?>
<svg width="24px" height="24px" viewBox="0 0 24 24" version="1.1" xmlns="http://www.w3.org/2000/svg" xmlns:xlink="http://www.w3.org/1999/xlink">
    <!-- Generator: Sketch 48.1 (47250) - http://www.bohemiancoding.com/sketch -->
    <title>Users24</title>
    <desc>Created with Sketch.</desc>
    <defs></defs>
    <g id="Page-1" stroke="none" stroke-width="1" fill="none" fill-rule="evenodd">
        <g id="Users24" fill="#000000" fill-rule="nonzero">
            <path d="M19,16.1129415 C19,16.6028504 18.5743398,17 18,17 C17.4256602,17 17,16.4899089 17,16 L17,15 C16.9994798,14.4011416 16.4490349,13.8944519 15.7785818,13.7458066 C15.2227117,13.6225653 14.8892147,13.1382805 15.0336954,12.6641262 C15.178176,12.1899719 15.7459225,11.9055007 16.3017926,12.028742 C17.8903951,12.380949 18.9987796,13.6086967 19,15.0139067 L19,16.1129415 Z M14.5947745,6.80715528 C14.1763598,6.68684833 13.9201561,6.19070126 14.0225274,5.69897977 C14.1248988,5.20725828 14.5470793,4.9061673 14.965494,5.02647425 C16.1567197,5.36898783 17,6.58899845 17,8 C17,9.41100155 16.1567197,10.6310122 14.965494,10.9735258 C14.5470793,11.0938327 14.1248988,10.7927417 14.0225274,10.3010202 C13.9201561,9.80929874 14.1763598,9.31315167 14.5947745,9.19284472 C15.0981339,9.0481136 15.4400944,8.55338445 15.4400944,8 C15.4400944,7.44661555 15.0981339,6.9518864 14.5947745,6.80715528 Z M10,11 C8.34621913,11 7,9.66001336 7,8 C7,6.33998664 8.34621913,5 10,5 C11.6537809,5 13,6.33998664 13,8 C13,9.66001336 11.6537809,11 10,11 Z M10,9.16666667 C10.6581088,9.16666667 11.1860465,8.6411731 11.1860465,8 C11.1860465,7.3588269 10.6581088,6.83333333 10,6.83333333 C9.34189122,6.83333333 8.81395349,7.3588269 8.81395349,8 C8.81395349,8.6411731 9.34189122,9.16666667 10,9.16666667 Z M15,16.1129032 C15,16.6028332 14.5656494,17 14.0298507,17 C13.4940521,17 13.0597015,16.6028332 13.0597015,16.1129032 L13.0597015,15.0376344 C13.0597015,14.3120347 12.5557765,13.7741935 12.0149254,13.7741935 L7.98507463,13.7741935 C7.44422354,13.7741935 6.94029851,14.3120347 6.94029851,15.0376344 L6.94029851,16.1129032 C6.94029851,16.6028332 6.50594789,17 5.97014925,17 C5.43435062,17 5,16.6028332 5,16.1129032 L5,15.0376344 C5,13.3878159 6.3003006,12 7.98507463,12 L12.0149254,12 C13.6996994,12 15,13.3878159 15,15.0376344 L15,16.1129032 Z M12,24 C5.372583,24 0,18.627417 0,12 C0,5.372583 5.372583,0 12,0 C18.627417,0 24,5.372583 24,12 C24,18.627417 18.627417,24 12,24 Z M12,22 C17.5228475,22 22,17.5228475 22,12 C22,6.4771525 17.5228475,2 12,2 C6.4771525,2 2,6.4771525 2,12 C2,17.5228475 6.4771525,22 12,22 Z"></path>
        </g>
    </g>
</svg>