<?xml version="1.0" encoding="UTF-8"?>
<svg width="16px" height="16px" viewBox="0 0 16 16" version="1.1" xmlns="http://www.w3.org/2000/svg" xmlns:xlink="http://www.w3.org/1999/xlink">
    <!-- Generator: Sketch 48.1 (47250) - http://www.bohemiancoding.com/sketch -->
    <title>VisaCard</title>
    <desc>Created with Sketch.</desc>
    <defs></defs>
    <g id="Page-1" stroke="none" stroke-width="1" fill="none" fill-rule="evenodd">
        <g id="VisaCard">
            <path d="M1,2 L15,2 C15.5522847,2 16,2.44771525 16,3 L16,13 C16,13.5522847 15.5522847,14 15,14 L1,14 C0.44771525,14 6.76353751e-17,13.5522847 0,13 L0,3 C-6.76353751e-17,2.44771525 0.44771525,2 1,2 Z" id="Shape" fill="#FAFAFA"></path>
            <path d="M4,8 L3.56619115,6.31131868 C3.49203734,6.07844458 3.27625153,6.00916504 3.00662753,6 L1.01771753,6 L1,6.0771562 C2.54907503,6.38188659 3.57405759,7.11702268 4,8 Z" id="V" fill="#F79F1A" fill-rule="nonzero"></path>
            <path d="M4.21509094,9.9986498 L3.01498578,10 L2,6.65938888 C2.73027988,7.10900568 3.3523371,7.82323112 3.56999339,8.31946053 L3.68850931,8.73194682 L4.79887507,6 L6,6 L4.21509094,9.9986498 Z M8,6 L7.22907268,10 L6,10 L6.76888774,6 L8,6 Z M10.8543261,8.67564578 C10.8467951,9.48127084 10.1638925,10 9.11329256,10 C8.66508678,9.99607968 8.23331991,9.90187329 8,9.79409428 L8.14044718,8.92541746 L8.26830525,8.98748914 C8.59733606,9.13236266 8.80949615,9.19072192 9.20993078,9.19072192 C9.49737259,9.19072192 9.80496258,9.07231054 9.80746354,8.81264896 C9.8099645,8.64282797 9.67940876,8.52168425 9.29029871,8.33238048 C8.9112487,8.14667033 8.407797,7.83622283 8.41409155,7.27897359 C8.4203861,6.52541152 9.11579352,6 10.103729,6 C10.4915464,6 10.8016373,6.08357402 11,6.16189126 L10.8643861,7.00170029 L10.7739582,6.95789372 C10.589421,6.87960619 10.3534878,6.8039916 10.0258058,6.80930778 C9.63419478,6.80930778 9.45345123,6.98177201 9.45345123,7.1423268 C9.45089407,7.32405723 9.6643187,7.44347839 10.0144812,7.62256558 C10.5906575,7.89983888 10.8580354,8.23553084 10.8543261,8.67564578 Z M12.4041547,9.3986415 C12.5314266,9.3986415 13.6684826,9.40002147 13.8307895,9.40002147 C13.8643529,9.53939803 13.9664522,10 13.9664522,10 L15,10 L14.0978882,6 L13.237762,6 C12.9706007,6 12.7720691,6.07123691 12.6545344,6.33146782 L11,10 L12.1707134,10 C12.1706195,10 12.3607915,9.50692283 12.4041547,9.3986415 Z M13.1677547,7.46024931 C13.1622442,7.47119704 13.2601168,7.22875236 13.3160663,7.07806007 L13.3915528,7.42323556 C13.3915528,7.42323556 13.6042048,8.37945997 13.6489144,8.57946304 L12.7244165,8.57946304 C12.8167473,8.34934605 13.1677547,7.46024931 13.1677547,7.46024931 Z" id="Visa" fill="#059BBF" fill-rule="nonzero"></path>
        </g>
    </g>
</svg>