<svg width="16" height="16" viewBox="0 0 16 16" fill="none" xmlns="http://www.w3.org/2000/svg">
  <rect width="16" height="16" rx="1" fill="#F2F2F3"/>
  <path d="M7.95311 6.19576L7.30354 9.2315H6.51812L7.16769 6.19576H7.95311ZM11.2576 8.15569L11.6713 7.01608L11.9091 8.15569H11.2576ZM12.1344 9.2315H12.8603L12.2269 6.19576H11.5562C11.4054 6.19576 11.278 6.28325 11.2219 6.4181L10.0434 9.2315H10.8677L11.0317 8.77835H12.0395L12.1344 9.2315ZM10.0838 8.24094C10.0875 7.43857 8.97582 7.3947 8.98355 7.03751C8.98604 6.92784 9.08974 6.81193 9.31656 6.78227C9.42923 6.76781 9.73906 6.7566 10.0913 6.91812L10.2289 6.27403C10.0404 6.20598 9.79664 6.13968 9.49428 6.13968C8.71834 6.13968 8.17146 6.55245 8.16722 7.14395C8.16224 7.58065 8.55707 7.82468 8.85518 7.97024C9.16077 8.1188 9.26322 8.21402 9.26247 8.34762C9.26023 8.55102 9.01795 8.641 8.79237 8.64399C8.39754 8.65072 8.16797 8.53781 7.98551 8.45306L7.84294 9.11809C8.02639 9.20234 8.36514 9.27487 8.71659 9.27936C9.54164 9.27936 10.0815 8.87132 10.0838 8.24094V8.24094ZM6.83094 6.19576L5.55822 9.2315H4.72768L4.10154 6.80869C4.06316 6.65914 4.03001 6.60505 3.9146 6.54174C3.72616 6.43904 3.41433 6.34307 3.13965 6.28325L3.15859 6.19576H4.49488C4.66537 6.19576 4.81842 6.30868 4.8573 6.50534L5.18807 8.26238L6.00514 6.19576H6.83094" fill="#15195A"/>
</svg>
