<?xml version="1.0" encoding="UTF-8"?>
<svg width="24px" height="24px" viewBox="0 0 24 24" version="1.1" xmlns="http://www.w3.org/2000/svg" xmlns:xlink="http://www.w3.org/1999/xlink">
    <!-- Generator: Sketch 48.1 (47250) - http://www.bohemiancoding.com/sketch -->
    <title>Wallet24</title>
    <desc>Created with Sketch.</desc>
    <defs></defs>
    <g id="Page-1" stroke="none" stroke-width="1" fill="none" fill-rule="evenodd">
        <g id="Wallet24">
            <path d="M13.5577567,15.5 L22.5962612,15.5 L22.5962612,9.5 L13.5577567,9.5 L13.5577567,8 L22.9310206,8 C23.5781094,8 24.1026786,8.50367966 24.1026786,9.125 L24.1026786,15.875 C24.1026786,16.4963203 23.5781094,17 22.9310206,17 L13.5577567,17 L13.5577567,15.5 Z M13.5577567,15.5 L13.5577567,17 C10.9978448,17 9.03850446,14.9852814 9.03850446,12.5 C9.03850446,10.0147186 10.9978448,8 13.5577567,8 L13.5577567,9.5 C11.6378228,9.5 10.5449219,10.636039 10.5449219,12.5 C10.5449219,14.363961 11.6378228,15.5 13.5577567,15.5 Z M14.3109654,13.25 C14.7269511,13.25 15.0641741,12.9142136 15.0641741,12.5 C15.0641741,12.0857864 14.7269511,11.75 14.3109654,11.75 C13.8949797,11.75 13.5577567,12.0857864 13.5577567,12.5 C13.5577567,12.9142136 13.8949797,13.25 14.3109654,13.25 Z M14.3109654,14.75 C13.0630084,14.75 12.0513393,13.7426407 12.0513393,12.5 C12.0513393,11.2573593 13.0630084,10.25 14.3109654,10.25 C15.5589224,10.25 16.5705915,11.2573593 16.5705915,12.5 C16.5705915,13.7426407 15.5589224,14.75 14.3109654,14.75 Z" fill="#000000" fill-rule="nonzero"></path>
            <path d="M5.26925223,5 L21.5736103,5 C21.9801611,5 22.3462459,5.24613141 22.4996694,5.62262149 L22.5515774,5.75 C22.665065,6.02849007 22.531304,6.34625071 22.2528139,6.45973825 C22.187568,6.48632664 22.1177821,6.5 22.0473266,6.5 L5.26925223,6.5 C4.85503867,6.5 4.51925223,6.16421356 4.51925223,5.75 L4.51925223,5.75 C4.51925223,5.33578644 4.85503867,5 5.26925223,5 Z" fill="#000000"></path>
            <path d="M22,17.1666667 L22,7.83333333 C22,7.26576577 22,7.26576577 22,6.6981982 C22,6.0990991 22,6.0990991 22,5.5 C22,4.12771401 20.8298907,3 19.3684211,3 L3.63157895,3 C2.17010927,3 1,4.12771401 1,5.5 L1,19.5 C1,20.872286 2.17010927,22 3.63157895,22 L19.3684211,22 C20.8298907,22 22,20.872286 22,19.5 C22,18.8777778 22,18.8777778 22,18.2555556 C22,17.7111111 22,17.7111111 22,17.1666667 Z" stroke="#000000" stroke-width="2"></path>
        </g>
    </g>
</svg>