<?xml version="1.0" encoding="UTF-8"?>
<svg width="32px" height="32px" viewBox="0 0 32 32" version="1.1" xmlns="http://www.w3.org/2000/svg" xmlns:xlink="http://www.w3.org/1999/xlink">
    <!-- Generator: Sketch 48.1 (47250) - http://www.bohemiancoding.com/sketch -->
    <title>Wallet32</title>
    <desc>Created with Sketch.</desc>
    <defs></defs>
    <g id="Page-1" stroke="none" stroke-width="1" fill="none" fill-rule="evenodd">
        <g id="Wallet32">
            <path d="M18,20 L30,20 L30,12 L18,12 L18,10 L30.4444444,10 C31.3035541,10 32,10.6715729 32,11.5 L32,20.5 C32,21.3284271 31.3035541,22 30.4444444,22 L18,22 L18,20 Z M18,20 L18,22 C14.6013246,22 12,19.3137085 12,16 C12,12.6862915 14.6013246,10 18,10 L18,12 C15.4509935,12 14,13.5147186 14,16 C14,18.4852814 15.4509935,20 18,20 Z M19,17 C19.5522847,17 20,16.5522847 20,16 C20,15.4477153 19.5522847,15 19,15 C18.4477153,15 18,15.4477153 18,16 C18,16.5522847 18.4477153,17 19,17 Z M19,19 C17.3431458,19 16,17.6568542 16,16 C16,14.3431458 17.3431458,13 19,13 C20.6568542,13 22,14.3431458 22,16 C22,17.6568542 20.6568542,19 19,19 Z" fill="#000000" fill-rule="nonzero"></path>
            <path d="M7,6 L28.8614848,6 C29.2685784,6 29.6350384,6.24678027 29.788105,6.62400145 L29.9406755,7 C30.0915901,7.37191771 29.9124317,7.79575704 29.540514,7.94667164 C29.4537169,7.98189165 29.3609295,8 29.2672589,8 L7,8 C6.44771525,8 6,7.55228475 6,7 L6,7 C6,6.44771525 6.44771525,6 7,6 Z" fill="#000000"></path>
            <path d="M29,22.2222222 L29,9.77777778 C29,9.01587302 29,9.01587302 29,8.25396825 C29,7.46031746 29,7.46031746 29,6.66666667 C29,4.64499111 27.3302722,3 25.2631579,3 L4.73684211,3 C2.66972782,3 1,4.64499111 1,6.66666667 L1,25.3333333 C1,27.3550089 2.66972782,29 4.73684211,29 L25.2631579,29 C27.3302722,29 29,27.3550089 29,25.3333333 C29,24.5555556 29,24.5555556 29,23.7777778 C29,23 29,23 29,22.2222222 Z" stroke="#000000" stroke-width="2"></path>
        </g>
    </g>
</svg>