<?xml version="1.0" encoding="UTF-8"?>
<svg width="32px" height="32px" viewBox="0 0 32 32" version="1.1" xmlns="http://www.w3.org/2000/svg" xmlns:xlink="http://www.w3.org/1999/xlink">
    <!-- Generator: Sketch 48.1 (47250) - http://www.bohemiancoding.com/sketch -->
    <title>Warning32</title>
    <desc>Created with Sketch.</desc>
    <defs></defs>
    <g id="Page-1" stroke="none" stroke-width="1" fill="none" fill-rule="evenodd">
        <g id="Warning32" fill="#000000" fill-rule="nonzero">
            <path d="M12.6573864,2.13485668 C13.347584,0.821409542 14.6115212,0 16,0 C17.3884788,0 18.652416,0.821409542 19.3426136,2.13485668 L31.5095475,25.5809834 C32.159825,26.8808805 32.1636702,28.4660643 31.5198507,29.769858 C30.8536532,31.1189689 29.5829728,31.9820295 28.1602,32 L3.82711386,31.9999195 C2.41702723,31.9820295 1.1463468,31.1189689 0.480149325,29.769858 C-0.163670234,28.4660643 -0.159825038,26.8808805 0.497186373,25.5677683 L12.6573864,2.13485668 Z M2.27912577,26.4757727 C1.90904231,27.2155651 1.90679536,28.1418699 2.2734255,28.8843296 C2.61767773,29.5814719 3.22222048,29.9920842 3.8398,30 L28.1475139,30.0000805 C28.7777795,29.9920842 29.3823223,29.5814719 29.7265745,28.8843296 C30.0932046,28.1418699 30.0909577,27.2155651 29.7276081,26.4889878 L17.5697941,3.06064523 C17.21655,2.38843574 16.6188477,2 16,2 C15.3817929,2 14.7846875,2.38763197 14.4313037,3.0585586 L2.27912577,26.4757727 Z M16,26 C15.4477153,26 15,25.5522847 15,25 C15,24.4477153 15.4477153,24 16,24 C16.5522847,24 17,24.4477153 17,25 C17,25.5522847 16.5522847,26 16,26 Z M15,11.375 C15,10.6156085 15.4477153,10 16,10 C16.5522847,10 17,10.6156085 17,11.375 L17,19.625 C17,20.3843915 16.5522847,21 16,21 C15.4477153,21 15,20.3843915 15,19.625 L15,11.375 Z"></path>
        </g>
    </g>
</svg>