<?xml version="1.0" encoding="UTF-8"?>
<svg width="24px" height="24px" viewBox="0 0 24 24" version="1.1" xmlns="http://www.w3.org/2000/svg" xmlns:xlink="http://www.w3.org/1999/xlink">
    <!-- Generator: Sketch 48.1 (47250) - http://www.bohemiancoding.com/sketch -->
    <title>Warning24</title>
    <desc>Created with Sketch.</desc>
    <defs></defs>
    <g id="Page-1" stroke="none" stroke-width="1" fill="none" fill-rule="evenodd">
        <g id="Warning24" fill="#000000" fill-rule="nonzero">
            <path d="M10.3120559,1.70939897 C10.8634461,0.660096837 11.8791647,-1.42108547e-14 13,-1.42108547e-14 C14.1208353,-1.42108547e-14 15.1365539,0.660096837 15.6879441,1.70939897 L24.6121579,18.9067492 C25.1263873,19.9346877 25.1294203,21.1850064 24.6203273,22.2159663 C24.0888565,23.2922435 23.0682058,23.985481 21.91748,24 L4.06983386,23.9999195 C2.9317942,23.985481 1.91114353,23.2922435 1.37967268,22.2159663 C0.870579749,21.1850064 0.873612659,19.9346877 1.39457594,18.8935341 L10.3120559,1.70939897 Z M3.17651534,19.8015385 C2.94248001,20.2693724 2.94104534,20.860812 3.17294886,21.3304379 C3.38247446,21.7547464 3.73698745,21.9955357 4.08252,22 L21.9047939,22.0000805 C22.2630125,21.9955357 22.6175255,21.7547464 22.8270511,21.3304379 C23.0589547,20.860812 23.05752,20.2693724 22.8302185,19.8147536 L13.9151246,2.63518752 C13.7006879,2.22712304 13.3512042,2 13,2 C12.6493695,2 12.3004537,2.22638174 12.0859272,2.63318954 L3.17651534,19.8015385 Z M14,14 C14,14.5522847 13.5522847,15 13,15 C12.4477153,15 12,14.5522847 12,14 L12,8 C12,7.44771525 12.4477153,7 13,7 C13.5522847,7 14,7.44771525 14,8 L14,14 Z M13.0008239,19 C12.4485392,19 12.0008239,18.5522847 12.0008239,18 C12.0008239,17.4477153 12.4485392,17 13.0008239,17 C13.5531087,17 14.0008239,17.4477153 14.0008239,18 C14.0008239,18.5522847 13.5531087,19 13.0008239,19 Z"></path>
        </g>
    </g>
</svg>