<svg width="24" height="24" viewBox="0 0 24 24" fill="none" xmlns="http://www.w3.org/2000/svg">
<path d="M18.1989 7.93203L16.9591 1.00809C16.9116 0.724143 16.7603 0.466166 16.5327 0.281152C16.3052 0.0961379 16.0165 -0.00360246 15.7193 9.94662e-05H8.28066C7.98349 -0.00360246 7.69484 0.0961379 7.46728 0.281152C7.23972 0.466166 7.0884 0.724143 7.04088 1.00809L5.80109 7.93203C4.95354 9.13002 4.5 10.548 4.5 12C4.5 13.4519 4.95354 14.87 5.80109 16.068L7.04088 22.9919C7.0884 23.2759 7.23972 23.5338 7.46728 23.7188C7.69484 23.9039 7.98349 24.0036 8.28066 23.9999H15.7193C16.0165 24.0036 16.3052 23.9039 16.5327 23.7188C16.7603 23.5338 16.9116 23.2759 16.9591 22.9919L18.1989 16.068C19.0465 14.87 19.5 13.4519 19.5 12C19.5 10.548 19.0465 9.13002 18.1989 7.93203ZM9.33447 2.40008H14.6655L15.211 5.50805C14.2086 5.04372 13.1113 4.8027 12 4.8027C10.8887 4.8027 9.79144 5.04372 8.78897 5.50805L9.33447 2.40008ZM14.6655 21.5999H9.33447L8.78897 18.4919C9.79144 18.9563 10.8887 19.1973 12 19.1973C13.1113 19.1973 14.2086 18.9563 15.211 18.4919L14.6655 21.5999ZM12 16.8C11.0192 16.8 10.0604 16.5184 9.24486 15.991C8.42933 15.4636 7.79371 14.7139 7.41837 13.8369C7.04302 12.9598 6.94481 11.9947 7.13616 11.0636C7.32751 10.1325 7.79982 9.2772 8.49337 8.60592C9.18692 7.93463 10.0705 7.47748 11.0325 7.29227C11.9945 7.10706 12.9916 7.20212 13.8978 7.56541C14.8039 7.92871 15.5784 8.54394 16.1234 9.33329C16.6683 10.1226 16.9591 11.0507 16.9591 12C16.9591 13.273 16.4366 14.4939 15.5066 15.3941C14.5766 16.2943 13.3152 16.8 12 16.8Z" fill="currentColor"/>
</svg>
