<svg width="32" height="32" viewBox="0 0 32 32" fill="none" xmlns="http://www.w3.org/2000/svg">
<path d="M24.2652 10.576L22.6122 1.34412C22.5488 0.965524 22.347 0.621555 22.0436 0.374869C21.7402 0.128184 21.3553 -0.00480328 20.9591 0.000132622H11.0409C10.6447 -0.00480328 10.2598 0.128184 9.95638 0.374869C9.65297 0.621555 9.4512 0.965524 9.38783 1.34412L7.73479 10.576C6.60472 12.1734 6 14.0641 6 16C6 17.9359 6.60472 19.8266 7.73479 21.424L9.38783 30.6559C9.4512 31.0345 9.65297 31.3784 9.95638 31.6251C10.2598 31.8718 10.6447 32.0048 11.0409 31.9999H20.9591C21.3553 32.0048 21.7402 31.8718 22.0436 31.6251C22.347 31.3784 22.5488 31.0345 22.6122 30.6559L24.2652 21.424C25.3953 19.8266 26 17.9359 26 16C26 14.0641 25.3953 12.1734 24.2652 10.576ZM12.446 3.20011H19.554L20.2814 7.34407C18.9448 6.72496 17.4818 6.4036 16 6.4036C14.5182 6.4036 13.0552 6.72496 11.7186 7.34407L12.446 3.20011ZM19.554 28.7999H12.446L11.7186 24.6559C13.0552 25.275 14.5182 25.5964 16 25.5964C17.4818 25.5964 18.9448 25.275 20.2814 24.6559L19.554 28.7999ZM16 22.3999C14.6922 22.3999 13.4138 22.0246 12.3265 21.3214C11.2391 20.6181 10.3916 19.6186 9.89115 18.4492C9.3907 17.2797 9.25975 15.9929 9.51488 14.7514C9.77002 13.51 10.3998 12.3696 11.3245 11.4746C12.2492 10.5795 13.4274 9.96997 14.71 9.72303C15.9927 9.47608 17.3222 9.60282 18.5304 10.0872C19.7386 10.5716 20.7713 11.3919 21.4978 12.4444C22.2244 13.4968 22.6122 14.7342 22.6122 16C22.6122 17.6974 21.9155 19.3252 20.6755 20.5254C19.4355 21.7257 17.7537 22.3999 16 22.3999Z" fill="currentColor"/>
</svg>
