<?xml version="1.0" encoding="UTF-8"?>
<svg width="24px" height="24px" viewBox="0 0 24 24" version="1.1" xmlns="http://www.w3.org/2000/svg" xmlns:xlink="http://www.w3.org/1999/xlink">
    <!-- Generator: Sketch 48.1 (47250) - http://www.bohemiancoding.com/sketch -->
    <title>Withdrawl24</title>
    <desc>Created with Sketch.</desc>
    <defs></defs>
    <g id="Page-1" stroke="none" stroke-width="1" fill="none" fill-rule="evenodd">
        <g id="Withdrawl24" fill="#000000" fill-rule="nonzero">
            <path d="M16.0055913,14.7978489 L16.0000003,8.00082256 C15.999546,7.448538 16.4468929,7.00045463 16.9991774,7.00000034 C17.551462,6.99954605 17.9995454,7.44689288 17.9999997,7.99917744 L18.0063124,15.6736272 C18.0067669,16.226233 17.5589187,16.6744498 17.0063127,16.6744498 C16.1326985,16.6744498 15.7835737,17.1127909 15.7835737,18 C15.7835737,18.5522847 15.3358584,19 14.7835737,19 L9.22273905,19 C8.6704543,19 8.22273905,18.5522847 8.22273905,18 C8.22273905,17.1127909 7.87361422,16.6744498 7,16.6744498 C6.44771525,16.6744498 6,16.2267345 6,15.6744498 L6,8 C6,7.44771525 6.44771525,7 7,7 C7.55228475,7 8,7.44771525 8,8 L8,14.7976577 C9.12548599,15.0958171 9.8433611,15.9125882 10.1079815,17 L13.8983312,17 C14.1628951,15.9128205 14.88052,15.0961662 16.0055913,14.7978489 Z M13,9 L15,9 C15,10.6568542 13.6568542,12 12,12 C10.3431458,12 9,10.6568542 9,9 L11,9 C11,9.55228475 11.4477153,10 12,10 C12.5522847,10 13,9.55228475 13,9 Z M13,9 L15,9 C15,10.6568542 13.6568542,12 12,12 C10.3431458,12 9,10.6568542 9,9 L11,9 C11,9.55228475 11.4477153,10 12,10 C12.5522847,10 13,9.55228475 13,9 Z M2,3 L2,7 L22,7 L22,3 L2,3 Z M1,1 L23,1 C23.5522847,1 24,1.44771525 24,2 L24,8 C24,8.55228475 23.5522847,9 23,9 L1,9 C0.44771525,9 6.76353751e-17,8.55228475 0,8 L0,2 C-6.76353751e-17,1.44771525 0.44771525,1 1,1 Z M5,9 L5,21 L19,21 L19,9 L5,9 Z M4,7 L20,7 C20.5522847,7 21,7.44771525 21,8 L21,22 C21,22.5522847 20.5522847,23 20,23 L4,23 C3.44771525,23 3,22.5522847 3,22 L3,8 C3,7.44771525 3.44771525,7 4,7 Z"></path>
        </g>
    </g>
</svg>