<?xml version="1.0" encoding="UTF-8"?>
<svg width="32px" height="32px" viewBox="0 0 32 32" version="1.1" xmlns="http://www.w3.org/2000/svg" xmlns:xlink="http://www.w3.org/1999/xlink">
    <!-- Generator: Sketch 48.1 (47250) - http://www.bohemiancoding.com/sketch -->
    <title>Withdrawl32</title>
    <desc>Created with Sketch.</desc>
    <defs></defs>
    <g id="Page-1" stroke="none" stroke-width="1" fill="none" fill-rule="evenodd">
        <g id="Withdrawl32" fill="#000000" fill-rule="nonzero">
            <path d="M22,11 C22,10.4108963 22.2259603,10 22.8571429,10 C23.4883254,10 24,10.4775629 24,11.0666667 L24,22.3020453 C24,22.8911491 23.4883254,23.368712 22.8571429,23.368712 C21.4848858,23.368712 20.9518117,23.9206634 20.9518117,24.9333333 C20.9518117,25.5224371 20.4401372,26 19.8089546,26 L12.1900208,26 C11.5588382,26 11.0471637,25.5224371 11.0471637,24.9333333 C11.0471637,23.9197524 10.5153986,23.368712 9.14285714,23.368712 C8.51167457,23.368712 8,22.8911491 8,22.3020453 L8,11.0666667 C8,10.4775629 8.51167457,10 9.14285714,10 C9.77403971,10 10,10.4108963 10,11 L10,21 C11,21 12.5714286,23 12.5714286,24 L19.4285714,24 C19.4285714,23 21,21 22,21 L22,11 Z M18,11 L20,11 C20,13.3502079 18.1444239,15 16.0004034,15 C13.856805,15 12,13.350035 12,11 L14,11 C14,11.5950645 14,13 16,13 C18,13 18,11.5956605 18,11 Z M2,10 L30,10 L30,4 L2,4 L2,10 Z M2,12 C0.8954305,12 0,11.0050772 0,9.77777778 L0,4.22222222 C0,2.99492278 0.8954305,2 2,2 L30,2 C31.1045695,2 32,2.99492278 32,4.22222222 L32,9.77777778 C32,11.0050772 31.1045695,12 30,12 L2,12 Z M6,12 L6,29 L26,29 L26,12 L6,12 Z M5.2,10 L26.8,10 C27.4627417,10 28,10.4273646 28,10.9545455 L28,30.0454545 C28,30.5726354 27.4627417,31 26.8,31 L5.2,31 C4.5372583,31 4,30.5726354 4,30.0454545 L4,10.9545455 C4,10.4273646 4.5372583,10 5.2,10 Z"></path>
        </g>
    </g>
</svg>