<svg width="32" height="32" viewBox="0 0 32 32" fill="none" xmlns="http://www.w3.org/2000/svg">
<g clip-path="url(#clip0)">
<path d="M31.4666 21.7206L24.2498 14.5059C24.4008 13.7691 24.4757 13.0186 24.4733 12.2664C24.4727 10.2038 23.9532 8.17466 22.9628 6.3665C21.9723 4.55834 20.5429 3.02952 18.8067 1.92135C17.0704 0.813185 15.0833 0.161436 13.0291 0.0263472C10.9749 -0.108741 8.91989 0.277191 7.05395 1.14847C6.81755 1.25667 6.61108 1.42106 6.45248 1.62735C6.29388 1.83365 6.18795 2.07562 6.14387 2.33225C6.09997 2.58562 6.11768 2.84586 6.1955 3.09091C6.27332 3.33597 6.40896 3.55862 6.59093 3.73998L13.5363 10.6827L10.6624 13.5621L3.73294 6.60344C3.5504 6.42396 3.32748 6.29104 3.08297 6.21588C2.83846 6.14071 2.5795 6.1255 2.3279 6.17152C2.07337 6.21407 1.83292 6.31779 1.62715 6.4738C1.42137 6.62982 1.25641 6.83348 1.14639 7.06735C0.273864 8.94301 -0.110996 11.0093 0.0276089 13.074C0.166214 15.1387 0.823781 17.1347 1.93914 18.8764C3.0545 20.6181 4.59141 22.0489 6.4069 23.0356C8.2224 24.0224 10.2575 24.533 12.3229 24.5201C13.0737 24.5225 13.8227 24.4474 14.5582 24.2961L21.759 31.5267C21.9074 31.6767 22.084 31.7957 22.2786 31.8769C22.4732 31.9581 22.6818 31.9999 22.8926 31.9999C23.1034 31.9999 23.3121 31.9581 23.5067 31.8769C23.7012 31.7957 23.8778 31.6767 24.0262 31.5267C24.1759 31.378 24.2947 31.2011 24.3757 31.0061C24.4568 30.8112 24.4985 30.6021 24.4985 30.3909C24.4985 30.1798 24.4568 29.9707 24.3757 29.7757C24.2947 29.5808 24.1759 29.4039 24.0262 29.2552L16.2027 21.4166C16.0072 21.2221 15.7647 21.0815 15.4989 21.0086C15.2332 20.9357 14.953 20.933 14.6859 21.0007C13.915 21.2076 13.1209 21.3151 12.3229 21.3207C11.1287 21.3312 9.94417 21.1049 8.83763 20.6548C7.73108 20.2047 6.72436 19.5397 5.87546 18.6981C5.02655 17.8565 4.35224 16.8549 3.89136 15.7511C3.43048 14.6472 3.19215 13.4629 3.19009 12.2664C3.18802 11.7305 3.23074 11.1954 3.31782 10.6667L9.57665 16.9535C9.72507 17.1034 9.90166 17.2224 10.0962 17.3036C10.2908 17.3849 10.4995 17.4267 10.7103 17.4267C10.921 17.4267 11.1297 17.3849 11.3243 17.3036C11.5189 17.2224 11.6954 17.1034 11.8439 16.9535L16.9212 11.8185C17.209 11.5202 17.3698 11.1215 17.3698 10.7067C17.3698 10.2918 17.209 9.89316 16.9212 9.59487L10.7103 3.32406C11.2381 3.2377 11.7721 3.19489 12.3069 3.19608C14.7051 3.20032 17.0037 4.15781 18.698 5.85836C20.3923 7.55891 21.3439 9.86355 21.3439 12.2664C21.3383 13.0659 21.231 13.8615 21.0246 14.6339C20.957 14.9016 20.9597 15.1822 21.0324 15.4485C21.1052 15.7148 21.2455 15.9578 21.4397 16.1536L29.2632 23.9922C29.5639 24.2934 29.9716 24.4626 30.3968 24.4626C30.822 24.4626 31.2298 24.2934 31.5304 23.9922C31.8311 23.6909 32 23.2824 32 22.8564C32 22.4304 31.8311 22.0218 31.5304 21.7206H31.4666Z" fill="#000000"/>
</g>
<defs>
<clipPath id="clip0">
<rect width="32" height="31.9999" fill="#000000"/>
</clipPath>
</defs>
</svg>
