<svg width="32" height="32" viewBox="0 0 32 32" fill="none" xmlns="http://www.w3.org/2000/svg">
<path d="M31.4666 21.7206L24.2498 14.506C24.4008 13.7691 24.4757 13.0186 24.4733 12.2664C24.4727 10.2038 23.9532 8.17468 22.9628 6.36652C21.9723 4.55835 20.5429 3.02953 18.8067 1.92136C17.0704 0.813187 15.0833 0.161436 13.0291 0.0263472C10.9749 -0.108742 8.91989 0.277192 7.05395 1.14847C6.81755 1.25667 6.61108 1.42106 6.45248 1.62736C6.29388 1.83365 6.18795 2.07562 6.14387 2.33225C6.09997 2.58562 6.11768 2.84587 6.1955 3.09092C6.27332 3.33598 6.40896 3.55863 6.59093 3.73999L13.5363 10.6827L10.6624 13.5622L3.73294 6.60346C3.5504 6.42398 3.32748 6.29106 3.08297 6.21589C2.83846 6.14073 2.5795 6.12552 2.3279 6.17154C2.07337 6.21408 1.83292 6.3178 1.62715 6.47382C1.42137 6.62984 1.25641 6.8335 1.14639 7.06737C0.273864 8.94303 -0.110996 11.0093 0.0276089 13.074C0.166214 15.1387 0.823781 17.1348 1.93914 18.8765C3.0545 20.6182 4.59141 22.049 6.4069 23.0357C8.2224 24.0224 10.2575 24.5331 12.3229 24.5201C13.0737 24.5225 13.8227 24.4475 14.5582 24.2962L21.759 31.5268C21.9074 31.6767 22.084 31.7958 22.2786 31.877C22.4732 31.9582 22.6818 32 22.8926 32C23.1034 32 23.3121 31.9582 23.5067 31.877C23.7012 31.7958 23.8778 31.6767 24.0262 31.5268C24.1759 31.3781 24.2947 31.2012 24.3757 31.0062C24.4568 30.8113 24.4985 30.6022 24.4985 30.391C24.4985 30.1798 24.4568 29.9708 24.3757 29.7758C24.2947 29.5809 24.1759 29.4039 24.0262 29.2552L16.2027 21.4167C16.0072 21.2221 15.7647 21.0815 15.4989 21.0087C15.2332 20.9358 14.953 20.9331 14.6859 21.0008C13.915 21.2076 13.1209 21.3151 12.3229 21.3207C11.1287 21.3313 9.94417 21.105 8.83763 20.6549C7.73108 20.2048 6.72436 19.5398 5.87546 18.6982C5.02655 17.8565 4.35224 16.855 3.89136 15.7511C3.43048 14.6473 3.19215 13.4629 3.19009 12.2664C3.18802 11.7305 3.23074 11.1954 3.31782 10.6667L9.57665 16.9535C9.72507 17.1035 9.90166 17.2225 10.0962 17.3037C10.2908 17.3849 10.4995 17.4267 10.7103 17.4267C10.921 17.4267 11.1297 17.3849 11.3243 17.3037C11.5189 17.2225 11.6954 17.1035 11.8439 16.9535L16.9212 11.8185C17.209 11.5202 17.3698 11.1216 17.3698 10.7067C17.3698 10.2918 17.209 9.89319 16.9212 9.5949L10.7103 3.32407C11.2381 3.2377 11.7721 3.1949 12.3069 3.19609C14.7051 3.20033 17.0037 4.15782 18.698 5.85837C20.3923 7.55893 21.3439 9.86357 21.3439 12.2664C21.3383 13.066 21.231 13.8616 21.0246 14.634C20.957 14.9016 20.9597 15.1823 21.0324 15.4486C21.1052 15.7149 21.2455 15.9578 21.4397 16.1537L29.2632 23.9922C29.5639 24.2934 29.9716 24.4627 30.3968 24.4627C30.822 24.4627 31.2298 24.2934 31.5304 23.9922C31.8311 23.691 32 23.2824 32 22.8564C32 22.4304 31.8311 22.0219 31.5304 21.7206H31.4666Z" fill="currentColor"/>
</svg>
