<svg width="24" height="24" viewBox="0 0 24 24" fill="none" xmlns="http://www.w3.org/2000/svg">
<path d="M23.5999 16.2905L18.1873 10.8795C18.3006 10.3268 18.3568 9.76398 18.355 9.1998C18.3546 7.65287 17.9649 6.13101 17.2221 4.77489C16.4793 3.41876 15.4072 2.27215 14.105 1.44102C12.8028 0.609891 11.3125 0.121077 9.77185 0.0197604C8.2312 -0.0815561 6.68992 0.207894 5.29047 0.861356C5.11316 0.942506 4.95831 1.0658 4.83936 1.22052C4.72041 1.37524 4.64096 1.55672 4.6079 1.74919C4.57497 1.93922 4.58826 2.1344 4.64662 2.31819C4.70499 2.50198 4.80672 2.66897 4.9432 2.80499L10.1522 8.01202L7.99677 10.1716L2.79971 4.95259C2.6628 4.81798 2.49561 4.71829 2.31223 4.66192C2.12885 4.60555 1.93463 4.59414 1.74593 4.62865C1.55503 4.66056 1.37469 4.73835 1.22036 4.85537C1.06603 4.97238 0.942309 5.12513 0.859791 5.30053C0.205398 6.70727 -0.0832471 8.25699 0.0207067 9.80553C0.12466 11.3541 0.617835 12.8511 1.45435 14.1574C2.29087 15.4636 3.44356 16.5367 4.80518 17.2768C6.1668 18.0168 7.69312 18.3998 9.24215 18.3901C9.80525 18.3919 10.367 18.3356 10.9186 18.2221L16.3193 23.6451C16.4306 23.7576 16.563 23.8468 16.7089 23.9077C16.8549 23.9686 17.0114 24 17.1695 24C17.3275 24 17.4841 23.9686 17.63 23.9077C17.7759 23.8468 17.9084 23.7576 18.0197 23.6451C18.1319 23.5336 18.221 23.4009 18.2818 23.2547C18.3426 23.1085 18.3739 22.9517 18.3739 22.7933C18.3739 22.6349 18.3426 22.4781 18.2818 22.3319C18.221 22.1857 18.1319 22.053 18.0197 21.9414L12.152 16.0625C12.0054 15.9166 11.8236 15.8112 11.6242 15.7565C11.4249 15.7018 11.2148 15.6998 11.0144 15.7506C10.4362 15.9057 9.84068 15.9863 9.24215 15.9905C8.34649 15.9985 7.45812 15.8287 6.62822 15.4912C5.79831 15.1536 5.04327 14.6548 4.40659 14.0236C3.76991 13.3924 3.26418 12.6412 2.91852 11.8133C2.57286 10.9854 2.39411 10.0972 2.39256 9.1998C2.39101 8.7979 2.42306 8.39657 2.48836 8.00002L7.18248 12.7151C7.29381 12.8276 7.42625 12.9169 7.57217 12.9778C7.7181 13.0387 7.87461 13.07 8.03269 13.07C8.19078 13.07 8.34729 13.0387 8.49322 12.9778C8.63914 12.9169 8.77158 12.8276 8.88291 12.7151L12.6909 8.86386C12.9067 8.64015 13.0274 8.34117 13.0274 8.03002C13.0274 7.71887 12.9067 7.41989 12.6909 7.19617L8.03269 2.49305C8.42856 2.42828 8.82907 2.39618 9.23018 2.39707C11.0288 2.40025 12.7528 3.11837 14.0235 4.39378C15.2942 5.6692 16.0079 7.39768 16.0079 9.1998C16.0037 9.79948 15.9233 10.3962 15.7684 10.9755C15.7177 11.1762 15.7198 11.3867 15.7743 11.5864C15.8289 11.7862 15.9341 11.9683 16.0798 12.1153L21.9474 17.9942C22.1729 18.2201 22.4787 18.347 22.7976 18.347C23.1165 18.347 23.4223 18.2201 23.6478 17.9942C23.8733 17.7682 24 17.4618 24 17.1423C24 16.8228 23.8733 16.5164 23.6478 16.2905H23.5999Z" fill="currentColor"/>
</svg>
