<svg width="24" height="24" viewBox="0 0 24 24" fill="none" xmlns="http://www.w3.org/2000/svg">
<g clip-path="url(#clip0)">
<path d="M23.5999 16.2904L18.1873 10.8795C18.3006 10.3268 18.3568 9.76395 18.355 9.19978C18.3546 7.65285 17.9649 6.13099 17.2221 4.77487C16.4793 3.41875 15.4072 2.27214 14.105 1.44101C12.8028 0.609889 11.3125 0.121077 9.77185 0.0197604C8.2312 -0.0815559 6.68992 0.207893 5.29047 0.861353C5.11316 0.942504 4.95831 1.06579 4.83936 1.22052C4.72041 1.37524 4.64096 1.55671 4.6079 1.74919C4.57497 1.93921 4.58826 2.13439 4.64662 2.31819C4.70499 2.50198 4.80672 2.66896 4.9432 2.80499L10.1522 8.012L7.99677 10.1716L2.79971 4.95258C2.6628 4.81797 2.49561 4.71828 2.31223 4.66191C2.12885 4.60553 1.93463 4.59413 1.74593 4.62864C1.55503 4.66055 1.37469 4.73834 1.22036 4.85535C1.06603 4.97237 0.942309 5.12511 0.859791 5.30051C0.205398 6.70725 -0.0832471 8.25697 0.0207067 9.8055C0.12466 11.354 0.617835 12.8511 1.45435 14.1573C2.29087 15.4636 3.44356 16.5367 4.80518 17.2767C6.1668 18.0168 7.69312 18.3998 9.24215 18.39C9.80525 18.3919 10.367 18.3356 10.9186 18.2221L16.3193 23.645C16.4306 23.7575 16.563 23.8468 16.7089 23.9077C16.8549 23.9686 17.0114 23.9999 17.1695 23.9999C17.3275 23.9999 17.4841 23.9686 17.63 23.9077C17.7759 23.8468 17.9084 23.7575 18.0197 23.645C18.1319 23.5335 18.221 23.4008 18.2818 23.2546C18.3426 23.1084 18.3739 22.9516 18.3739 22.7932C18.3739 22.6348 18.3426 22.478 18.2818 22.3318C18.221 22.1856 18.1319 22.0529 18.0197 21.9414L12.152 16.0625C12.0054 15.9165 11.8236 15.8111 11.6242 15.7565C11.4249 15.7018 11.2148 15.6998 11.0144 15.7505C10.4362 15.9057 9.84068 15.9863 9.24215 15.9905C8.34649 15.9984 7.45812 15.8287 6.62822 15.4911C5.79831 15.1535 5.04327 14.6548 4.40659 14.0236C3.76991 13.3924 3.26418 12.6412 2.91852 11.8133C2.57286 10.9854 2.39411 10.0972 2.39256 9.19978C2.39101 8.79787 2.42306 8.39655 2.48836 8L7.18248 12.7151C7.29381 12.8276 7.42625 12.9168 7.57217 12.9777C7.7181 13.0386 7.87461 13.07 8.0327 13.07C8.19078 13.07 8.34729 13.0386 8.49322 12.9777C8.63914 12.9168 8.77158 12.8276 8.88291 12.7151L12.6909 8.86384C12.9067 8.64012 13.0274 8.34114 13.0274 8.03C13.0274 7.71885 12.9067 7.41987 12.6909 7.19615L8.0327 2.49304C8.42856 2.42827 8.82907 2.39617 9.23017 2.39706C11.0288 2.40024 12.7528 3.11836 14.0235 4.39377C15.2942 5.66918 16.0079 7.39766 16.0079 9.19978C16.0037 9.79946 15.9232 10.3962 15.7684 10.9754C15.7177 11.1762 15.7198 11.3867 15.7743 11.5864C15.8289 11.7861 15.9341 11.9683 16.0798 12.1152L21.9474 17.9941C22.1729 18.22 22.4787 18.347 22.7976 18.347C23.1165 18.347 23.4223 18.22 23.6478 17.9941C23.8733 17.7682 24 17.4618 24 17.1423C24 16.8228 23.8733 16.5164 23.6478 16.2904H23.5999Z" fill="#000000"/>
</g>
<defs>
<clipPath id="clip0">
<rect width="24" height="23.9999" fill="#000000"/>
</clipPath>
</defs>
</svg>
