<?xml version="1.0" encoding="UTF-8"?>
<svg width="18px" height="20px" viewBox="0 0 18 20" version="1.1" xmlns="http://www.w3.org/2000/svg" xmlns:xlink="http://www.w3.org/1999/xlink">
    <!-- Generator: Sketch 48.1 (47250) - http://www.bohemiancoding.com/sketch -->
    <title>Youtube</title>
    <desc>Created with Sketch.</desc>
    <defs></defs>
    <g id="Youtube20" stroke="none" stroke-width="1" fill="none" fill-rule="evenodd" transform="translate(-1.000000, 0.000000)">
        <path d="M8.52645046,2.84109525 L1.22998513,15.3558151 C0.923862343,15.9004794 0.922034614,16.5711297 1.22518387,17.1175468 C1.52833313,17.6639638 2.09092671,18.0040765 2.70306137,18.010989 L17.295992,18.010989 C17.9081267,18.0040765 18.4707203,17.6639638 18.7738695,17.1175468 C19.0770188,16.5711297 19.075191,15.9004794 18.7690683,15.3558151 L11.4726029,2.84109525 C11.1602714,2.31207957 10.6017531,1.98901099 9.9995267,1.98901099 C9.39730025,1.98901099 8.83878196,2.31207957 8.52645046,2.84109525 Z M7.66010141,2.34707424 C8.15291184,1.51234078 9.03864235,1 9.9995267,1 C10.960411,1 11.8461416,1.51234078 12.338952,2.34707424 L19.6431625,14.8753231 C20.1162833,15.7171161 20.1190952,16.7488701 19.6506181,17.5932854 C19.1753623,18.4499192 18.2837971,18.9889097 17.295992,19 L2.69164313,18.9999355 C1.71525627,18.9889097 0.823691134,18.4499192 0.348435299,17.5932854 C-0.120041767,16.7488701 -0.117229918,15.7171161 0.363636087,14.8617941 L7.66010141,2.34707424 Z" id="Youtube" fill="#000000" fill-rule="nonzero" transform="translate(10.000000, 10.000000) rotate(-270.000000) translate(-10.000000, -10.000000) "></path>
    </g>
</svg>